<?xml version="1.0" encoding="utf-8"?>
<!-- Generator: Adobe Illustrator 22.1.0, SVG Export Plug-In . SVG Version: 6.00 Build 0)  -->
<svg version="1.1" id="_16x16_Grid_Linear" xmlns="http://www.w3.org/2000/svg" xmlns:xlink="http://www.w3.org/1999/xlink" width="16.000000pt" height="16.000000pt" x="0px"
	 y="0px" viewBox="0 0 768 768" style="enable-background:new 0 0 768 768;" xml:space="preserve" preserveAspectRatio="xMidYMid meet">
<style type="text/css">
	.st0{fill:#9BABFF;}
	.st1{fill:#BAC6FF;}
	.st2{fill:#7C90FF;}
	.st3{fill:#5C77FA;}
</style>
<title>UXDCode Logo</title>
<g id="_2-1">
	<path class="st0" d="M768,55.4c0-46.6-54.2-72.3-90.2-42.8L468.3,184c-9.3,9.8-19.9,24.6-20.3,42.8c-0.5,24,17.1,39,32,61.2
		c13.2,19.7,27.7,50,32,95.9v0.1c0,69.4-58.6,128-128,128s-128-58.6-128-128c4.3-45.9,18.8-76.3,32-96c14.9-22.2,32.5-37.3,32-61.2
		c-0.4-18.2-11-32.9-20.3-42.8L90.2,12.6C54.2-16.9,0,8.7,0,55.4V384c-0.1,51.4,10.3,102.2,30.5,149.4
		c39.2,91.8,112.3,164.9,204.1,204.1c95.5,40.7,203.4,40.7,298.8,0c91.8-39.2,164.9-112.3,204.1-204.1c20.2-47.2,30.5-98,30.5-149.4
		V55.4z"/>
	<path class="st0" d="M768,338.3V384l0,0c0,51.3-10.3,102.1-30.5,149.4c-26,60.9-67.2,114.1-119.5,154.5
		c28.6-67.8,55.5-169.8,28-281.9c-1.8-7.3-3.8-14.6-6-22c-21-68.8-56.8-119.4-85.8-152.5l0,0c24.3,25.2,80.9,14.7,147.8,52.5
		C726.9,298.2,749.2,316.6,768,338.3z"/>
	<path class="st0" d="M768,55.4v282.9c-18.8-21.7-41.1-40.1-66-54.3c-66.9-37.8-123.5-27.4-147.8-52.5c-3-3.1-5.4-6.6-7.2-10.5
		c-26.3-55.6,72.3-153.6,111-192l1.3-1.3l18.5-15.1C713.9-16.9,768,8.7,768,55.4z"/>
	<path class="st1" d="M329.1,764L329.1,764c-32.5-4.7-64.3-13.6-94.5-26.5c-21.1-9-41.4-19.8-60.6-32.5l0,0
		c145.2,27.3,282-27.3,338-129c23.2-42.1,44.5-113.9,23-192c-16.6-60.5-51.8-99.4-70-117c6.3,8,12.1,16.2,17.6,24.8l-0.1,0
		c-0.8-1.3-1.7-2.6-2.5-3.8c-14.9-22.2-32.5-37.3-32-61.2c0.4-18.2,11-32.9,20.3-42.8l191-156.3L658,29
		c-38.7,38.4-137.3,136.4-111,192c1.8,3.9,4.2,7.4,7.2,10.5l0,0c29,33.1,64.8,83.8,85.8,152.5c2.3,7.4,4.3,14.7,6,22l0,0
		c2.8,11,35.9,154.8-65,266c-77.6,85.5-186.5,99.5-251.7,92H329.1z"/>
	<path class="st2" d="M646,406c27.4,112.1,0.5,214.1-28,281.9l0,0c-26,20.1-54.4,36.7-84.6,49.6c-64.4,27.4-135,36.6-204.3,26.5l0,0
		h0.2c65.2,7.4,174.1-6.5,251.7-92C681.9,560.9,648.8,417.1,646,406L646,406z"/>
	<path class="st2" d="M535,384c21.5,78.1,0.2,149.9-23,192c-14.1,24.1-38.3,57.1-78,81c-102.1,61.4-247.2,26.6-334-55
		C37.9,543.6,0.4,455.2,0,373.5V370c0.4-46.6,12.9-90.9,40-126c30.4-39.4,86.2-78.9,155-83c45.5-2.7,81.6,10.9,101,20l0,0l3.7,3
		c9.3,9.8,19.9,24.6,20.3,42.8c0.1,6.6-1.2,13.2-3.8,19.3L316,246c-0.7-7-2.8-15.7-9-23c-20.3-24.2-68.4-14.1-88-7
		c-60.1,21.7-99.3,104.4-96,176c5.1,109.6,110.8,210.1,223,210c17.4,0,93.2-2.5,141-61c50.4-61.6,50.9-162.2-4.4-249.2
		c-5.4-8.6-11.3-16.8-17.6-24.8C483.2,284.6,518.4,323.5,535,384z"/>
	<path class="st3" d="M512,384L512,384c-4-43.1-17-72.4-29.5-92.2l0.1,0c55.3,87,54.8,187.6,4.4,249.2c-47.8,58.5-123.6,61-141,61
		c-112.2,0.1-217.9-100.4-223-210c-3.3-71.6,35.9-154.3,96-176c19.6-7.1,67.7-17.2,88,7c6.2,7.3,8.3,16,9,23l0.2,0.1
		c-5.9,14.2-17.7,26.3-28.2,41.9c-13.3,19.7-27.7,50.1-32,96c0,69.4,58.6,128,128,128S512,453.4,512,384z"/>
	<path class="st0" d="M434,657c39.7-23.9,63.9-56.9,78-81c-56,101.7-192.8,156.3-338,129l0,0C110.4,663.1,60.5,603.4,30.5,533.4
		C10.3,486.2-0.1,435.4,0,384v-10.5C0.4,455.2,37.9,543.6,100,602C186.8,683.6,331.9,718.4,434,657z"/>
	<path class="st0" d="M296,181L296,181c-19.4-9.1-55.5-22.7-101-20c-68.8,4.1-124.6,43.6-155,83C13,279.1,0.4,323.4,0,370V55.4
		C0,8.7,54.2-16.9,90.2,12.6L296,181z"/>
</g>
</svg>
