<svg id="mnemonic" xmlns="http://www.w3.org/2000/svg" xmlns:xlink="http://www.w3.org/1999/xlink" viewBox="0 0 240 234"><defs><radialGradient id="New_Gradient_Swatch_8" cx="97.71" cy="81.29" r="143.43" gradientUnits="userSpaceOnUse"><stop offset="0" stop-color="#160a2a" stop-opacity="0.85"/><stop offset="0.77" stop-color="#160a2a"/></radialGradient></defs><title>ae</title><rect x="10" y="10" width="220" height="214" style="fill:url(#New_Gradient_Swatch_8)"/><path d="M0,0V234H240V0ZM10,10H230V224H10Z" transform="translate(0)" style="fill:#8781bd;fill-rule:evenodd"/><path d="M67.84,132.5l-7.92,29.86c-.17.83-.5,1.14-1.49,1.14H43.75c-1,0-1.16-.33-1-1.48L71.14,62.68c.49-1.81.82-3.24,1-8.19,0-.66.33-1,.82-1h21c.65,0,1,.17,1.15,1l31.85,107.69c.16.83,0,1.32-.83,1.32h-16.5c-.82,0-1.32-.31-1.48-1l-8.25-30ZM95.9,116.27c-2.8-11.06-9.59-35.31-12.06-47h-.16c-2.15,11.71-7.56,31.5-11.69,47Zm53.61,10.23c.16,13.53,6.6,22.6,21.78,22.6A38.84,38.84,0,0,0,187.6,146c.66-.33,1.15-.16,1.15.66v12.54a2.17,2.17,0,0,1-1,2c-5.28,2.64-11.85,3.79-20.1,3.79-26.4,0-36.3-19.46-36.3-41.25,0-23.59,12.2-42.89,33.66-42.89,21.78,0,29.37,18.31,29.37,33.16a49.11,49.11,0,0,1-.83,10.56,1.37,1.37,0,0,1-1.32,1.28,141,141,0,0,1-16.66.66Zm20.29-13.75c5.12,0,6.93,0,7.43-.16,0-.66.16-1.23.16-1.73,0-5.44-2.64-15.43-13-15.43-9.57,0-13.7,8.41-14.69,17.32Z" transform="translate(0)" style="fill:#8781bd;fill-rule:evenodd"/></svg>