<?xml version="1.0" encoding="utf-8"?>
<!-- Generator: Adobe Illustrator 22.1.0, SVG Export Plug-In . SVG Version: 6.00 Build 0)  -->
<svg version="1.1" id="mdi-image" xmlns="http://www.w3.org/2000/svg" xmlns:xlink="http://www.w3.org/1999/xlink" x="0px" y="0px"
	 viewBox="0 0 24 24" style="enable-background:new 0 0 24 24;" xml:space="preserve">
<style type="text/css">
	.st0{fill:#FFFFFF;}
</style>
<path class="st0" d="M16.7,6H7.3C6.6,6,6,6.6,6,7.3v9.3C6,17.4,6.6,18,7.3,18h9.3c0.7,0,1.3-0.6,1.3-1.3V7.3C18,6.6,17.4,6,16.7,6z
	 M10,8.5c0.8,0,1.5,0.7,1.5,1.5c0,0.8-0.7,1.5-1.5,1.5c-0.8,0-1.5-0.7-1.5-1.5C8.5,9.2,9.2,8.5,10,8.5z M7.3,16l2.3-3l1.7,2l2.3-3
	l3,4H7.3z"/>
</svg>
