<?xml version="1.0" encoding="utf-8"?>
<!-- Generator: Adobe Illustrator 22.1.0, SVG Export Plug-In . SVG Version: 6.00 Build 0)  -->
<svg version="1.1" id="mdi-account" xmlns="http://www.w3.org/2000/svg" xmlns:xlink="http://www.w3.org/1999/xlink" x="0px"
	 y="0px" viewBox="0 0 24 24" style="enable-background:new 0 0 24 24;" xml:space="preserve">
<style type="text/css">
	.st0{fill:#FFFFFF;}
</style>
<g>
	<g>
		<path class="st0" d="M13.3,13.9L11.2,18H18v-1.4C18,15.2,16,14.1,13.3,13.9z M15.3,9.8c0-0.8-0.3-1.5-0.8-2l-1,2.7l0.6,1.6
			C14.7,11.6,15.3,10.8,15.3,9.8z"/>
	</g>
</g>
<g>
	<g>
		<path class="st0" d="M13.4,6.7C12.9,6.3,12.2,6,11.5,6C9.9,6,8.8,7.2,8.8,8.8s1.2,2.8,2.8,2.8c0.3,0,0.6-0.1,0.9-0.2L12,10.1
			L13.4,6.7z M6,15.6V17h4.1l2.1-4.1c-0.2,0-0.5,0-0.7,0C8.5,12.9,6,14.1,6,15.6z"/>
	</g>
</g>
</svg>
