<?xml version="1.0" standalone="no"?>
<!DOCTYPE svg PUBLIC "-//W3C//DTD SVG 1.1//EN" "http://www.w3.org/Graphics/SVG/1.1/DTD/svg11.dtd" >
<!--
2013-9-30: Created.
-->
<svg>
<metadata>
Created by iconfont
</metadata>
<defs>

<font id="D3III24gfBasic" horiz-adv-x="1024" >
  <font-face
    font-family="D3III24gfBasic"
    font-weight="500"
    font-stretch="normal"
    units-per-em="1024"
    ascent="896"
    descent="-128"
  />
    <missing-glyph />
    
    <glyph glyph-name="24gf-building2" unicode="&#59448;" d="M960-42.66666699999996h-21.333333V674.38a106.666667 106.666667 0 0 1-89.133334 105.213333l-440.666666 73.446667A21.333333 21.333333 0 0 1 384 832v-896a21.333333 21.333333 0 0 1 21.333333-21.333333h554.666667a21.333333 21.333333 0 0 1 0 42.666666z m-362.666667 85.333334h-42.666666v85.333333h42.666666z m0 128h-42.666666V256h42.666666z m0 128h-42.666666V384h42.666666z m0 128h-42.666666V512h42.666666z m0 128h-42.666666V640h42.666666z m85.333334-512h-42.666667v85.333333h42.666667z m0 128h-42.666667V256h42.666667z m0 128h-42.666667V384h42.666667z m0 128h-42.666667V512h42.666667z m0 128h-42.666667V640h42.666667z m85.333333-512h-42.666667v85.333333h42.666667z m0 128h-42.666667V256h42.666667z m0 128h-42.666667V384h42.666667z m0 128h-42.666667V512h42.666667z m0 128h-42.666667V640h42.666667zM331.96 721.666667a21.333333 21.333333 0 0 1-19.88 2.14l-213.333333-85.333334A21.333333 21.333333 0 0 1 85.333333 618.666667v-661.333334H64a21.333333 21.333333 0 0 1 0-42.666666h256a21.333333 21.333333 0 0 1 21.333333 21.333333V704a21.333333 21.333333 0 0 1-9.373333 17.666667zM213.333333 42.66666699999996h-42.666666v85.333333h42.666666z m0 128h-42.666666V256h42.666666z m0 128h-42.666666V384h42.666666z m0 128h-42.666666V512h42.666666z"  horiz-adv-x="1024" />

    
    <glyph glyph-name="24gf-bricks" unicode="&#59449;" d="M682.666667 341.33333300000004v-170.666666H341.333333V341.33333300000004z m256 213.333334H554.666667v-170.666667h320a21.333333 21.333333 0 0 0 0-42.666667h-149.333334v-170.666666h213.333334zM85.333333 341.33333300000004v-170.666666h213.333334V341.33333300000004z m0 42.666667h426.666667V576a21.333333 21.333333 0 0 0 21.333333 21.333333h149.333334V810.666667H341.333333v-213.333334h106.666667a21.333333 21.333333 0 0 0 0-42.666666H85.333333z m426.666667-256H85.333333v-117.333333a53.393333 53.393333 0 0 1 53.333334-53.333334h373.333333z m42.666667 0v-170.666667h330.666666a53.393333 53.393333 0 0 1 53.333334 53.333334v117.333333zM298.666667 597.333333V810.666667H138.666667a53.393333 53.393333 0 0 1-53.333334-53.333334v-160z m426.666666 0h213.333334V757.333333a53.393333 53.393333 0 0 1-53.333334 53.333334h-160z"  horiz-adv-x="1024" />

    
    <glyph glyph-name="24gf-city" unicode="&#59450;" d="M960-42.66666699999996h-21.333333V576a21.333333 21.333333 0 0 1-21.333334 21.333333h-21.333333V704a21.333333 21.333333 0 0 1-21.333333 21.333333h-106.666667v-42.666666h-42.666667V832a21.333333 21.333333 0 0 1-25.52 20.92L341.746667 781.333333A106.666667 106.666667 0 0 1 256 676.713333V469.333333h-42.666667v42.666667h-42.666666V618.666667a21.333333 21.333333 0 0 1-42.666667 0v-106.666667H64a21.333333 21.333333 0 0 1-21.333333-21.333333v-469.333334a21.333333 21.333333 0 0 1 21.333333-21.333333h64V384h170.666667v-42.666667H170.666667v-384H64a21.333333 21.333333 0 0 1 0-42.666666h896a21.333333 21.333333 0 0 1 0 42.666666z m-618.666667 170.666667h-42.666666v85.333333h42.666666z m85.333334 512h42.666666v-85.333333h-42.666666z m0-128h42.666666v-85.333333h-42.666666z m85.333333-554.666667h-42.666667V341.33333300000004h42.666667z m298.666667 42.666667h-42.666667v85.333333h42.666667z m0 128h-42.666667v85.333333h42.666667z m0 128h-42.666667V341.33333300000004h42.666667z m0 128h-42.666667V469.333333h42.666667z"  horiz-adv-x="1024" />

    
    <glyph glyph-name="24gf-building3" unicode="&#59451;" d="M981.333333 458.666667v-522.666667a21.333333 21.333333 0 0 0-21.333333-21.333333h-85.333333a21.333333 21.333333 0 0 0-21.333334 21.333333V490.666667a21.333333 21.333333 0 0 0 21.333334 21.333333h53.333333a53.393333 53.393333 0 0 0 53.333333-53.333333zM192 682.666667H96a53.393333 53.393333 0 0 1-53.333333-53.333334v-693.333333a21.333333 21.333333 0 0 1 21.333333-21.333333h128a21.333333 21.333333 0 0 1 21.333333 21.333333V661.333333a21.333333 21.333333 0 0 1-21.333333 21.333334z m565.333333 170.666666H309.333333a53.393333 53.393333 0 0 1-53.333333-53.333333v-864a21.333333 21.333333 0 0 1 21.333333-21.333333h170.666667a21.333333 21.333333 0 0 1 21.333333 21.333333v245.333333a32.033333 32.033333 0 0 0 32 32h64a32.033333 32.033333 0 0 0 32-32v-245.333333a21.333333 21.333333 0 0 1 21.333334-21.333333h170.666666a21.333333 21.333333 0 0 1 21.333334 21.333333V800a53.393333 53.393333 0 0 1-53.333334 53.333333z"  horiz-adv-x="1024" />

    
    <glyph glyph-name="24gf-church" unicode="&#59452;" d="M929.166667 188.41999999999996L682.666667 352.753333V512a21.333333 21.333333 0 0 1 15.086666 36.42L512 734.173333V810.666667h21.333333a21.333333 21.333333 0 0 1 0 42.666666h-21.333333V874.666667a21.333333 21.333333 0 0 1-42.666667 0v-21.333334h-21.333333a21.333333 21.333333 0 0 1 0-42.666666h21.333333v-76.493334L283.58 548.4200000000001A21.333333 21.333333 0 0 1 298.666667 512v-159.246667l-246.5-164.333333a21.333333 21.333333 0 0 1 23.666666-35.506667l9.5 6.333334V-64a21.333333 21.333333 0 0 1 21.333334-21.333333h64v149.333333a21.333333 21.333333 0 0 0 42.666666 0v-149.333333h192a21.333333 21.333333 0 0 1 21.333334 21.333333v170.666667a64 64 0 0 0 128 0v-170.666667a21.333333 21.333333 0 0 1 21.333333-21.333333h192v149.333333a21.333333 21.333333 0 0 0 42.666667 0v-149.333333h64a21.333333 21.333333 0 0 1 21.333333 21.333333v223.246667l9.5-6.333334a21.333333 21.333333 0 1 1 23.666667 35.506667zM490.666667 384a64 64 0 1 0 64 64 64.073333 64.073333 0 0 0-64-64z"  horiz-adv-x="1024" />

    
    <glyph glyph-name="24gf-building" unicode="&#59453;" d="M981.333333 0a85.426667 85.426667 0 0 0-85.333333-85.333333h-170.666667a85.333333 85.333333 0 0 0 0 170.666666h21.333334a106.666667 106.666667 0 0 0 173.093333-3.333333 85.333333 85.333333 0 0 0 61.573333-82z m-170.666666 192V661.333333a21.333333 21.333333 0 0 0 21.333333 21.333334h64a42.713333 42.713333 0 0 0 42.666667-42.666667v-448a21.333333 21.333333 0 0 0-21.333334-21.333333h-85.333333a21.333333 21.333333 0 0 0-21.333333 21.333333z m42.666666 277.333333h42.666667V554.666667h-42.666667z m0-128h42.666667V426.666667h-42.666667z m0-128h42.666667V298.66666699999996h-42.666667z m-170.666666-85.333333a85.426667 85.426667 0 0 1-85.333334-85.333333v-106.666667a21.333333 21.333333 0 0 0-21.333333-21.333333H64a21.333333 21.333333 0 0 0 0 42.666666h64v89.5c-10.873333 4.526667-20.14 12.666667-27.04 23.953334C90.446667 88 85.333333 111.94000000000005 85.333333 144c0 31.2 5 66.666667 13.38 94.84 4.613333 15.513333 10 28.14 16.093334 37.526667C126.72 294.79999999999995 140.16 298.66666699999996 149.333333 298.66666699999996s22.613333-3.866667 34.526667-22.3c6.066667-9.386667 11.48-22 16.093333-37.526667C208.333333 210.66666699999996 213.333333 175.20000000000005 213.333333 144c0-32.06-5.113333-56-15.626666-73.213333-6.9-11.293333-16.166667-19.426667-27.04-23.953334V-42.66666699999996h128V712.106667a106.666667 106.666667 0 0 0 96.053333 106.14l349.826667 34.98A21.333333 21.333333 0 0 0 768 832v-647.333333a21.333333 21.333333 0 0 0-14.22-20.106667 107.12 107.12 0 0 1-43.946667-29.486667 21.333333 21.333333 0 0 0-15.893333-7.106666z m-213.333334 42.666667h-42.666666v-85.333334h42.666666z m0 128h-42.666666v-85.333334h42.666666z m0 128h-42.666666v-85.333334h42.666666z m0 128h-42.666666v-85.333334h42.666666z m0 128h-42.666666v-85.333334h42.666666z m85.333334-512h-42.666667v-85.333334h42.666667z m0 128h-42.666667v-85.333334h42.666667z m0 128h-42.666667v-85.333334h42.666667z m0 128h-42.666667v-85.333334h42.666667z m0 128h-42.666667v-85.333334h42.666667z m85.333333-384h-42.666667v-85.333334h42.666667z m0 128h-42.666667v-85.333334h42.666667z m0 128h-42.666667v-85.333334h42.666667z m0 128h-42.666667v-85.333334h42.666667z"  horiz-adv-x="1024" />

    
    <glyph glyph-name="24gf-city4" unicode="&#59454;" d="M928 426.666667h-74.666667V800a53.333333 53.333333 0 0 1-53.333333 53.333333H266.666667a53.333333 53.333333 0 0 1-53.333334-53.333333v-117.333333H96a53.333333 53.333333 0 0 1-53.333333-53.333334v-693.333333a21.333333 21.333333 0 0 1 21.333333-21.333333h896a21.333333 21.333333 0 0 1 21.333333 21.333333V373.33333300000004a53.333333 53.333333 0 0 1-53.333333 53.333334zM170.666667 85.33333300000004h-42.666667v85.333334h42.666667z m0 128h-42.666667V298.66666699999996h42.666667z m0 128h-42.666667V426.666667h42.666667z m0 128h-42.666667V554.666667h42.666667z m85.333333-384h-42.666667v85.333334h42.666667z m0 128h-42.666667V298.66666699999996h42.666667z m0 128h-42.666667V426.666667h42.666667z m0 128h-42.666667V554.666667h42.666667z m85.333333-384h-42.666666v85.333334h42.666666z m0 128h-42.666666V298.66666699999996h42.666666z m0 128h-42.666666V426.666667h42.666666z m0 128h-42.666666V554.666667h42.666666z m234.666667-341.333333H469.333333v42.666667h106.666667a21.333333 21.333333 0 0 0 0-42.666667z m106.666667 213.333333h-42.666667V426.666667h42.666667z m0 128h-42.666667V554.666667h42.666667z m0 128h-42.666667V682.666667h42.666667z m213.333333-512h-42.666667v85.333334h42.666667z m0 128h-42.666667V298.66666699999996h42.666667z"  horiz-adv-x="1024" />

    
    <glyph glyph-name="24gf-city2" unicode="&#59455;" d="M960-42.66666699999996h-21.333333V576a21.333333 21.333333 0 0 1-27.193334 20.513333l-15.473333-4.42V746.666667a21.333333 21.333333 0 0 1-42.666667 0v-59.333334l-128 25.6V640h-42.666666V746.666667a21.333333 21.333333 0 0 1-11.793334 19.08l-170.666666 85.333333a21.333333 21.333333 0 0 1-19.08 0l-170.666667-85.333333A21.333333 21.333333 0 0 1 298.666667 746.666667v-119.166667l-36.42-36.413333A21.333333 21.333333 0 0 1 256 576v-106.666667h-42.666667v42.666667h-42.666666V618.666667a21.333333 21.333333 0 0 1-42.666667 0v-106.666667H64a21.333333 21.333333 0 0 1-21.333333-21.333333v-469.333334a21.333333 21.333333 0 0 1 21.333333-21.333333h64V384h42.666667v-24.14l94.833333 63.226667a21.333333 21.333333 0 0 0 23.666667-35.506667L170.666667 308.58000000000004V-42.66666699999996H64a21.333333 21.333333 0 0 1 0-42.666666h896a21.333333 21.333333 0 0 1 0 42.666666zM426.666667 640h42.666666v-85.333333h-42.666666z m-85.333334-469.333333h-42.666666V256h42.666666z m85.333334 341.333333h42.666666v-85.333333h-42.666666z m85.333333-554.666667h-42.666667V341.33333300000004h42.666667z m298.666667 42.666667h-42.666667v85.333333h42.666667z m0 128h-42.666667v85.333333h42.666667z m0 128h-42.666667V341.33333300000004h42.666667z m0 128h-42.666667V469.333333h42.666667z"  horiz-adv-x="1024" />

    
    <glyph glyph-name="24gf-door" unicode="&#59456;" d="M917.333333-42.66666699999996h-21.333333V800a53.393333 53.393333 0 0 1-53.333333 53.333333H181.333333a53.393333 53.393333 0 0 1-53.333333-53.333333v-842.666667h-21.333333a21.333333 21.333333 0 0 1 0-42.666666h810.666666a21.333333 21.333333 0 0 1 0 42.666666z m-128 384H661.333333a21.333333 21.333333 0 0 0 0 42.666667h128a21.333333 21.333333 0 0 0 0-42.666667z m21.333334-64v-256a21.333333 21.333333 0 0 0-42.666667 0V277.33333300000004a21.333333 21.333333 0 0 0 42.666667 0z m-597.333334-320V746.666667a21.333333 21.333333 0 0 0 21.333334 21.333333h554.666666a21.333333 21.333333 0 0 0 21.333334-21.333333v-298.666667a21.333333 21.333333 0 0 0-42.666667 0V725.333333H256v-768z"  horiz-adv-x="1024" />

    
    <glyph glyph-name="24gf-fence" unicode="&#59457;" d="M932.42 719.086667l-85.333333 85.333333a21.333333 21.333333 0 0 1-30.173334 0l-85.333333-85.333333A21.333333 21.333333 0 0 1 725.333333 704v-64H597.333333v64a21.333333 21.333333 0 0 1-6.246666 15.086667l-85.333334 85.333333a21.333333 21.333333 0 0 1-30.173333 0l-85.333333-85.333333A21.333333 21.333333 0 0 1 384 704v-64H256v64a21.333333 21.333333 0 0 1-6.246667 15.086667l-85.333333 85.333333a21.333333 21.333333 0 0 1-30.173333 0l-85.333334-85.333333A21.333333 21.333333 0 0 1 42.666667 704v-725.333333a21.333333 21.333333 0 0 1 21.333333-21.333334h170.666667a21.333333 21.333333 0 0 1 21.333333 21.333334v64h128v-64a21.333333 21.333333 0 0 1 21.333333-21.333334h170.666667a21.333333 21.333333 0 0 1 21.333333 21.333334v64h128v-64a21.333333 21.333333 0 0 1 21.333334-21.333334h170.666666a21.333333 21.333333 0 0 1 21.333334 21.333334V704a21.333333 21.333333 0 0 1-6.246667 15.086667zM170.666667 128h-42.666667v42.666667h42.666667z m0 426.666667h-42.666667v42.666666h42.666667z m213.333333-341.333334H256V469.333333h128z m128-85.333333h-42.666667v42.666667h42.666667z m0 426.666667h-42.666667v42.666666h42.666667z m213.333333-341.333334H597.333333V469.333333h128z m128-85.333333h-42.666666v42.666667h42.666666z m0 426.666667h-42.666666v42.666666h42.666666z"  horiz-adv-x="1024" />

    
    <glyph glyph-name="24gf-city3" unicode="&#59458;" d="M960-42.66666699999996h-21.333333v89.753334c9.846667 4.206667 18.793333 11.293333 25.906666 20.773333 10.806667 14.413333 16.76 33.246667 16.76 53.026667 0 19-5.546667 49.873333-13.48 75.08-4.746667 15.06-10.06 27.373333-15.793333 36.6-9.666667 15.546667-21.333333 23.433333-34.726667 23.433333s-25.06-7.886667-34.726666-23.433333c-5.733333-9.226667-11.046667-21.54-15.793334-36.6-7.933333-25.206667-13.48-56.08-13.48-75.08 0-19.78 5.953333-38.613333 16.76-53.026667 7.113333-9.48 16.06-16.566667 25.906667-20.773333V-42.66666699999996h-85.333333v170.666667c0 47.12 12.04 91.133333 33.906666 123.933333C864.666667 282.06666700000005 890.506667 298.66666699999996 917.333333 298.66666699999996a21.333333 21.333333 0 0 1 21.333334 21.333333V618.666667a21.333333 21.333333 0 0 1-21.333334 21.333333h-21.333333v64a21.333333 21.333333 0 0 1-21.333333 21.333333H576a21.333333 21.333333 0 0 1-21.333333-21.333333v-64h-44.813334a106.98 106.98 0 0 1-84.98 83.54A106.98 106.98 0 0 1 341.333333 808.52V832a21.333333 21.333333 0 0 1-42.666666 0v-23.48a106.98 106.98 0 0 1-83.54-84.98C165.613333 714.333333 128 670.8066670000001 128 618.666667v-106.666667h-21.333333a21.333333 21.333333 0 0 1-21.333334-21.333333v-64H64a21.333333 21.333333 0 0 1-21.333333-21.333334v-469.333333a21.333333 21.333333 0 0 1 21.333333-21.333333h896a21.333333 21.333333 0 0 1 0 42.666666zM213.333333 85.33333300000004h-42.666666v85.333334h42.666666z m0 128h-42.666666V298.66666699999996h42.666666z m170.666667-256h-42.666667V426.666667h-42.666666V512h42.666666v-85.333333h42.666667z m384 554.666667h42.666667v-85.333333h-42.666667z m-128-469.333333h-42.666667v85.333333h42.666667z m0 128h-42.666667V256h42.666667z m0 128h-42.666667V384h42.666667z m0 128h-42.666667V512h42.666667z m85.333333-384h-42.666666v85.333333h42.666666z m0 128h-42.666666V256h42.666666z m0 128h-42.666666V384h42.666666z m0 128h-42.666666V512h42.666666z m42.666667-42.666667h42.666667v-85.333333h-42.666667z"  horiz-adv-x="1024" />

    
    <glyph glyph-name="24gf-gate" unicode="&#59459;" d="M954.253333 633.06A106.24 106.24 0 0 1 981.333333 704c0 58.813333-47.853333 106.666667-106.666666 106.666667s-106.666667-47.853333-106.666667-106.666667a106.24 106.24 0 0 1 27.08-70.94A53.333333 53.333333 0 0 1 768 586.666667v-81.02a280.526667 280.526667 0 0 1-42.666667 51.133333V618.666667a21.333333 21.333333 0 0 1-42.666666 0v-28.353334a304.773333 304.773333 0 0 1-54.96 28.106667A310.533333 310.533333 0 0 1 597.333333 628.52V704a21.333333 21.333333 0 0 1-42.666666 0v-66.8a326.48 326.48 0 0 1-85.333334 0V704a21.333333 21.333333 0 0 1-42.666666 0v-75.48q-14.713333-4.073333-29-9.566667a305.066667 305.066667 0 0 1-56.3-28.666666V618.666667a21.333333 21.333333 0 0 1-42.666667 0v-61.886667a279.946667 279.946667 0 0 1-42.666667-51.126667V586.666667a53.333333 53.333333 0 0 1-27.08 46.393333A106.24 106.24 0 0 1 256 704c0 58.813333-47.853333 106.666667-106.666667 106.666667S42.666667 762.8133330000001 42.666667 704a106.24 106.24 0 0 1 27.08-70.94A53.333333 53.333333 0 0 1 42.666667 586.666667v-565.333334a21.333333 21.333333 0 0 1 21.333333-21.333333h170.666667a21.333333 21.333333 0 0 1 21.333333 21.333333v21.333334h512v-21.333334a21.333333 21.333333 0 0 1 21.333333-21.333333h170.666667a21.333333 21.333333 0 0 1 21.333333 21.333333V586.666667a53.333333 53.333333 0 0 1-27.08 46.393333zM298.666667 128h-42.666667V362.66666699999996c0 47.02 14.893333 91.753333 42.666667 129.866666z m128 298.666667h-21.333334a21.333333 21.333333 0 0 1-21.333333-21.333334v-85.333333a21.333333 21.333333 0 0 1 21.333333-21.333333h21.333334v-170.666667H341.333333V537.54a259.073333 259.073333 0 0 0 71.646667 41.593333q6.766667 2.6 13.666667 4.826667z m128-298.666667H469.333333V298.66666699999996h85.333334z m0 298.666667H469.333333V594.086667a281.406667 281.406667 0 0 0 85.333334 0z m128-341.333334h-42.666667v42.666667h-42.666667V298.66666699999996h21.333334a21.333333 21.333333 0 0 1 21.333333 21.333333V405.333333a21.333333 21.333333 0 0 1-21.333333 21.333334h-21.333334V583.926667a262.06 262.06 0 0 0 85.333334-46.5z m85.333333 42.666667h-42.666667V492.253333c26.946667-37.16 42.666667-81.72 42.666667-129.586666z"  horiz-adv-x="1024" />

    
    <glyph glyph-name="24gf-home" unicode="&#59460;" d="M889.753333 335.08666700000003A21.333333 21.333333 0 0 0 896 320v-320a85.426667 85.426667 0 0 0-85.333333-85.333333H213.333333a85.426667 85.426667 0 0 0-85.333333 85.333333V320a21.333333 21.333333 0 0 0 6.246667 15.086667l362.666666 362.666666a21.333333 21.333333 0 0 0 30.173334 0z m106.666667 64l-432.8 432.8a73.093333 73.093333 0 0 1-103.24 0l-432.8-432.8a21.333333 21.333333 0 0 1 30.173333-30.173334l432.8 432.8a30.36 30.36 0 0 0 42.893334 0l432.8-432.8a21.333333 21.333333 0 1 1 30.173333 30.173334z"  horiz-adv-x="1024" />

    
    <glyph glyph-name="24gf-home2" unicode="&#59461;" d="M996.42 399.086667l-432.8 432.8a73.093333 73.093333 0 0 1-103.24 0l-432.8-432.8a21.333333 21.333333 0 0 1 30.173333-30.173334L128 439.166667V0a85.426667 85.426667 0 0 1 85.333333-85.333333h597.333334a85.426667 85.426667 0 0 1 85.333333 85.333333V439.166667l70.246667-70.253334a21.333333 21.333333 0 1 1 30.173333 30.173334z"  horiz-adv-x="1024" />

    
    <glyph glyph-name="24gf-gate2" unicode="&#59462;" d="M768 746.666667a21.333333 21.333333 0 0 0 21.333333 21.333333h64v21.333333a21.333333 21.333333 0 0 0 42.666667 0v-21.333333h64a21.333333 21.333333 0 0 0 0-42.666667h-170.666667a21.333333 21.333333 0 0 0-21.333333 21.333334zM64 725.333333h170.666667a21.333333 21.333333 0 0 1 0 42.666667h-64v21.333333a21.333333 21.333333 0 0 1-42.666667 0v-21.333333H64a21.333333 21.333333 0 0 1 0-42.666667z m917.333333-64v-640a21.333333 21.333333 0 0 0-21.333333-21.333333h-170.666667a21.333333 21.333333 0 0 0-21.333333 21.333333v21.333334H256v-21.333334a21.333333 21.333333 0 0 0-21.333333-21.333333H64a21.333333 21.333333 0 0 0-21.333333 21.333333V661.333333a21.333333 21.333333 0 0 0 21.333333 21.333334h170.666667a21.333333 21.333333 0 0 0 21.333333-21.333334v-106.666666h42.666667v64a21.333333 21.333333 0 0 0 42.666666 0v-490.666667h85.333334V298.66666699999996h-21.333334a21.333333 21.333333 0 0 0-21.333333 21.333333V405.333333a21.333333 21.333333 0 0 0 21.333333 21.333334h21.333334V512h-21.333334a21.333333 21.333333 0 0 0 0 42.666667h21.333334V704a21.333333 21.333333 0 0 0 42.666666 0v-149.333333h85.333334V704a21.333333 21.333333 0 0 0 42.666666 0v-149.333333h85.333334v64a21.333333 21.333333 0 0 0 42.666666 0v-64h42.666667V661.333333a21.333333 21.333333 0 0 0 21.333333 21.333334h170.666667a21.333333 21.333333 0 0 0 21.333333-21.333334zM298.666667 512h-42.666667v-384h42.666667z m256-213.333333H469.333333v-170.666667h85.333334z m0 213.333333H469.333333v-85.333333h85.333334z m128 0H597.333333v-85.333333h21.333334a21.333333 21.333333 0 0 0 21.333333-21.333334v-85.333333a21.333333 21.333333 0 0 0-21.333333-21.333333h-21.333334v-170.666667h42.666667v-42.666667h42.666667z m85.333333 0h-42.666667v-384h42.666667z"  horiz-adv-x="1024" />

    
    <glyph glyph-name="24gf-home4" unicode="&#59463;" d="M996.42 399.086667l-432.8 432.8a73.093333 73.093333 0 0 1-103.24 0l-432.8-432.8a21.333333 21.333333 0 0 1 30.173333-30.173334L128 439.166667V0a85.426667 85.426667 0 0 1 85.333333-85.333333h192a21.333333 21.333333 0 0 1 21.333334 21.333333v234.666667a42.713333 42.713333 0 0 0 42.666666 42.666666h85.333334a42.713333 42.713333 0 0 0 42.666666-42.666666v-234.666667a21.333333 21.333333 0 0 1 21.333334-21.333333h192a85.426667 85.426667 0 0 1 85.333333 85.333333V439.166667l70.246667-70.253334a21.333333 21.333333 0 1 1 30.173333 30.173334z"  horiz-adv-x="1024" />

    
    <glyph glyph-name="24gf-home5" unicode="&#59464;" d="M889.753333 335.08666700000003A21.333333 21.333333 0 0 0 896 320v-320a85.426667 85.426667 0 0 0-85.333333-85.333333H213.333333a85.426667 85.426667 0 0 0-85.333333 85.333333V320a21.333333 21.333333 0 0 0 6.246667 15.086667l362.666666 362.666666a21.333333 21.333333 0 0 0 30.173334 0z m106.666667 64L896 499.506667V704a21.333333 21.333333 0 0 1-42.666667 0v-161.826667L563.62 831.886667a73.093333 73.093333 0 0 1-103.24 0l-432.8-432.8a21.333333 21.333333 0 0 1 30.173333-30.173334l432.8 432.8a30.36 30.36 0 0 0 42.893334 0l432.8-432.8a21.333333 21.333333 0 1 1 30.173333 30.173334z"  horiz-adv-x="1024" />

    
    <glyph glyph-name="24gf-home6" unicode="&#59465;" d="M996.42 399.086667L896 499.506667V704a21.333333 21.333333 0 0 1-42.666667 0v-161.826667L563.62 831.886667a73.093333 73.093333 0 0 1-103.24 0l-432.8-432.8a21.333333 21.333333 0 0 1 30.173333-30.173334L128 439.166667V0a85.426667 85.426667 0 0 1 85.333333-85.333333h597.333334a85.426667 85.426667 0 0 1 85.333333 85.333333V439.166667l70.246667-70.253334a21.333333 21.333333 0 1 1 30.173333 30.173334z"  horiz-adv-x="1024" />

    
    <glyph glyph-name="24gf-home8" unicode="&#59466;" d="M996.42 399.086667L896 499.506667V704a21.333333 21.333333 0 0 1-42.666667 0v-161.826667L563.62 831.886667a73.093333 73.093333 0 0 1-103.24 0l-432.8-432.8a21.333333 21.333333 0 0 1 30.173333-30.173334L128 439.166667V0a85.426667 85.426667 0 0 1 85.333333-85.333333h192a21.333333 21.333333 0 0 1 21.333334 21.333333v234.666667a42.713333 42.713333 0 0 0 42.666666 42.666666h85.333334a42.713333 42.713333 0 0 0 42.666666-42.666666v-234.666667a21.333333 21.333333 0 0 1 21.333334-21.333333h192a85.426667 85.426667 0 0 1 85.333333 85.333333V439.166667l70.246667-70.253334a21.333333 21.333333 0 1 1 30.173333 30.173334z"  horiz-adv-x="1024" />

    
    <glyph glyph-name="24gf-home3" unicode="&#59467;" d="M889.753333 335.08666700000003A21.333333 21.333333 0 0 0 896 320v-320a85.426667 85.426667 0 0 0-85.333333-85.333333H618.666667a21.333333 21.333333 0 0 0-21.333334 21.333333v234.666667a42.713333 42.713333 0 0 1-42.666666 42.666666H469.333333a42.713333 42.713333 0 0 1-42.666666-42.666666v-234.666667a21.333333 21.333333 0 0 0-21.333334-21.333333H213.333333a85.426667 85.426667 0 0 0-85.333333 85.333333V320a21.333333 21.333333 0 0 0 6.246667 15.086667l362.666666 362.666666a21.333333 21.333333 0 0 0 30.173334 0z m106.666667 64l-432.8 432.8a73.093333 73.093333 0 0 1-103.24 0l-432.8-432.8a21.333333 21.333333 0 0 1 30.173333-30.173334l432.8 432.8a30.36 30.36 0 0 0 42.893334 0l432.8-432.8a21.333333 21.333333 0 1 1 30.173333 30.173334z"  horiz-adv-x="1024" />

    
    <glyph glyph-name="24gf-home9" unicode="&#59468;" d="M889.753333 335.08666700000003A21.333333 21.333333 0 0 0 896 320v-320a85.426667 85.426667 0 0 0-85.333333-85.333333H213.333333a85.426667 85.426667 0 0 0-85.333333 85.333333V320a21.333333 21.333333 0 0 0 6.246667 15.086667l362.666666 362.666666a21.333333 21.333333 0 0 0 30.173334 0z m106.666667 64L896 499.506667V746.666667a21.333333 21.333333 0 0 1-21.333333 21.333333h-85.333334a21.333333 21.333333 0 0 1-21.333333-21.333333v-119.16L563.62 831.886667a73.02 73.02 0 0 1-103.24 0l-432.8-432.8a21.333333 21.333333 0 0 1 30.173333-30.173334l432.8 432.8a30.34 30.34 0 0 0 42.893334 0l432.8-432.8a21.333333 21.333333 0 1 1 30.173333 30.173334z"  horiz-adv-x="1024" />

    
    <glyph glyph-name="24gf-home7" unicode="&#59469;" d="M889.753333 335.08666700000003A21.333333 21.333333 0 0 0 896 320v-320a85.426667 85.426667 0 0 0-85.333333-85.333333H618.666667a21.333333 21.333333 0 0 0-21.333334 21.333333v234.666667a42.713333 42.713333 0 0 1-42.666666 42.666666H469.333333a42.713333 42.713333 0 0 1-42.666666-42.666666v-234.666667a21.333333 21.333333 0 0 0-21.333334-21.333333H213.333333a85.426667 85.426667 0 0 0-85.333333 85.333333V320a21.333333 21.333333 0 0 0 6.246667 15.086667l362.666666 362.666666a21.333333 21.333333 0 0 0 30.173334 0z m106.666667 64L896 499.506667V704a21.333333 21.333333 0 0 1-42.666667 0v-161.826667L563.62 831.886667a73.093333 73.093333 0 0 1-103.24 0l-432.8-432.8a21.333333 21.333333 0 0 1 30.173333-30.173334l432.8 432.8a30.36 30.36 0 0 0 42.893334 0l432.8-432.8a21.333333 21.333333 0 1 1 30.173333 30.173334z"  horiz-adv-x="1024" />

    
    <glyph glyph-name="24gf-home11" unicode="&#59470;" d="M889.753333 335.08666700000003A21.333333 21.333333 0 0 0 896 320v-320a85.426667 85.426667 0 0 0-85.333333-85.333333H618.666667a21.333333 21.333333 0 0 0-21.333334 21.333333v234.666667a42.713333 42.713333 0 0 1-42.666666 42.666666H469.333333a42.713333 42.713333 0 0 1-42.666666-42.666666v-234.666667a21.333333 21.333333 0 0 0-21.333334-21.333333H213.333333a85.426667 85.426667 0 0 0-85.333333 85.333333V320a21.333333 21.333333 0 0 0 6.246667 15.086667l362.666666 362.666666a21.333333 21.333333 0 0 0 30.173334 0z m106.666667 64L896 499.506667V746.666667a21.333333 21.333333 0 0 1-21.333333 21.333333h-85.333334a21.333333 21.333333 0 0 1-21.333333-21.333333v-119.16L563.62 831.886667a73.02 73.02 0 0 1-103.24 0l-432.8-432.8a21.333333 21.333333 0 0 1 30.173333-30.173334l432.8 432.8a30.34 30.34 0 0 0 42.893334 0l432.8-432.8a21.333333 21.333333 0 1 1 30.173333 30.173334z"  horiz-adv-x="1024" />

    
    <glyph glyph-name="24gf-home10" unicode="&#59471;" d="M996.42 399.086667L896 499.506667V746.666667a21.333333 21.333333 0 0 1-21.333333 21.333333h-85.333334a21.333333 21.333333 0 0 1-21.333333-21.333333v-119.16L563.62 831.886667c-0.44 0.44-0.886667 0.873333-1.333333 1.333333l-0.213334 0.193333-1.166666 1.086667-0.066667 0.06a73.033333 73.033333 0 0 1-97.68 0l-0.066667-0.06-1.166666-1.086667-0.213334-0.193333c-0.446667-0.426667-0.893333-0.86-1.333333-1.333333l-432.8-432.8a21.333333 21.333333 0 0 1 30.173333-30.173334L128 439.16V0a85.426667 85.426667 0 0 1 85.333333-85.333333h597.333334a85.426667 85.426667 0 0 1 85.333333 85.333333V439.16l70.246667-70.246667a21.333333 21.333333 0 1 1 30.173333 30.173334z"  horiz-adv-x="1024" />

    
    <glyph glyph-name="24gf-hotel2" unicode="&#59472;" d="M832 170.66666699999996h170.666667a21.333333 21.333333 0 0 1 21.333333 21.333333V789.333333a21.333333 21.333333 0 0 1-21.333333 21.333334h-170.666667a21.333333 21.333333 0 0 1-21.333333-21.333334v-64h-42.666667V800a53.393333 53.393333 0 0 1-53.333333 53.333333H266.666667a53.393333 53.393333 0 0 1-53.333334-53.333333v-160H128V746.666667a21.333333 21.333333 0 0 1-42.666667 0v-106.666667H53.333333a53.393333 53.393333 0 0 1-53.333333-53.333333v-650.666667a21.333333 21.333333 0 0 1 21.333333-21.333333h981.333334a21.333333 21.333333 0 0 1 0 42.666666h-234.666667V256h42.666667v-64a21.333333 21.333333 0 0 1 21.333333-21.333333zM128 85.33333300000004h-42.666667v42.666667h42.666667z m0 85.333334h-42.666667V256h42.666667z m0 128h-42.666667V384h42.666667z m0 128h-42.666667V512h42.666667z m341.333333-298.666667H341.333333v42.666667h128z m0 128H341.333333v42.666667h128z m0 128H341.333333v42.666667h128z m0 128H341.333333v42.666667h128z m0 128H341.333333v42.666667h128z m128-512h-42.666666v42.666667h42.666666z m0 128h-42.666666v42.666667h42.666666z m0 128h-42.666666v42.666667h42.666666z m0 128h-42.666666v42.666667h42.666666z m0 128h-42.666666v42.666667h42.666666z m170.666667 42.666667h42.666667v-170.666667h-42.666667z m0-384V469.333333h42.666667v-170.666666z"  horiz-adv-x="1024" />

    
    <glyph glyph-name="24gf-home12" unicode="&#59473;" d="M996.42 399.086667L896 499.506667V746.666667a21.333333 21.333333 0 0 1-21.333333 21.333333h-85.333334a21.333333 21.333333 0 0 1-21.333333-21.333333v-119.16L563.62 831.886667c-0.44 0.44-0.886667 0.873333-1.333333 1.333333l-0.213334 0.193333-1.166666 1.086667-0.066667 0.06a73.033333 73.033333 0 0 1-97.68 0l-0.066667-0.06-1.166666-1.086667-0.213334-0.193333c-0.446667-0.426667-0.893333-0.86-1.333333-1.333333l-432.8-432.8a21.333333 21.333333 0 0 1 30.173333-30.173334L128 439.16V0a85.426667 85.426667 0 0 1 85.333333-85.333333h192a21.333333 21.333333 0 0 1 21.333334 21.333333v234.666667a42.713333 42.713333 0 0 0 42.666666 42.666666h85.333334a42.713333 42.713333 0 0 0 42.666666-42.666666v-234.666667a21.333333 21.333333 0 0 1 21.333334-21.333333h192a85.426667 85.426667 0 0 1 85.333333 85.333333V439.16l70.246667-70.246667a21.333333 21.333333 0 1 1 30.173333 30.173334z"  horiz-adv-x="1024" />

    
    <glyph glyph-name="24gf-store2" unicode="&#59474;" d="M170.666667 384c-70.58 0-128 57.42-128 128a21.233333 21.233333 0 0 0 2 8.94l110.806666 240.153333A85.573333 85.573333 0 0 0 232.946667 810.666667h62.613333l-55.38-406.14a125.786667 125.786667 0 0 0-11.333333-6.573334A128.42 128.42 0 0 0 170.666667 384z m112.506666 13.953333a128.126667 128.126667 0 0 1 127 6.12q4.04 2.58 7.866667 5.46L446.433333 810.666667H338.62L282.4 398.366667z m738.86 122.986667l-110.84 240.153333A85.573333 85.573333 0 0 1 833.72 810.666667h-62.613333l55.38-406.14a125.786667 125.786667 0 0 1 11.333333-6.573334A128.42 128.42 0 0 1 896 384c70.58 0 128 57.42 128 128a21.233333 21.233333 0 0 1-1.966667 8.94zM533.333333 384a127.606667 127.606667 0 0 1 68.84 20.073333c1.333333 0.84 2.606667 1.706667 3.886667 2.586667l-28.6 404H489.206667l-28.6-404c1.28-0.88 2.573333-1.746667 3.886666-2.586667A127.606667 127.606667 0 0 1 533.333333 384z m123.16 20.073333a128.126667 128.126667 0 0 1 127-6.12l0.773334 0.413334L728.046667 810.666667H620.233333l28.393334-401.133334q3.833333-2.866667 7.866666-5.46zM981.333333 320v-320a85.426667 85.426667 0 0 0-85.333333-85.333333h-64a21.333333 21.333333 0 0 0-21.333333 21.333333v234.666667a85.333333 85.333333 0 0 1-170.666667 0v-234.666667a21.333333 21.333333 0 0 0-21.333333-21.333333H170.666667a85.426667 85.426667 0 0 0-85.333334 85.333333V320a21.333333 21.333333 0 0 0 34.146667 17.06 85.333333 85.333333 0 0 1 119.466667 17.086667 21.333333 21.333333 0 0 0 34.106666 0 85.333333 85.333333 0 0 1 145.093334 14 21.333333 21.333333 0 0 0 38.373333 0 85.373333 85.373333 0 0 1 153.626667 0 21.333333 21.333333 0 0 0 38.373333 0 85.333333 85.333333 0 0 1 145.093333-14 21.333333 21.333333 0 0 0 34.106667 0 85.333333 85.333333 0 0 1 119.466667-17.086667A21.333333 21.333333 0 0 0 981.333333 320z m-512-64H256v-170.666667h213.333333z"  horiz-adv-x="1024" />

    
    <glyph glyph-name="24gf-hospital" unicode="&#59475;" d="M192 640H96a53.393333 53.393333 0 0 1-53.333333-53.333333v-650.666667a21.333333 21.333333 0 0 1 21.333333-21.333333h128a21.333333 21.333333 0 0 1 21.333333 21.333333V618.666667a21.333333 21.333333 0 0 1-21.333333 21.333333z m-21.333333-597.333333h-42.666667v85.333333h42.666667z m0 128h-42.666667V256h42.666667z m0 128h-42.666667V384h42.666667z m0 128h-42.666667V512h42.666667z m586.666666 341.333333h-53.333333a21.333333 21.333333 0 0 1-21.333333-21.333333v-64h-64a21.333333 21.333333 0 0 1-21.333334-21.333334v-64H469.333333v64a21.333333 21.333333 0 0 1-21.333333 21.333334h-64v64a21.333333 21.333333 0 0 1-21.333333 21.333333h-53.333334a53.333333 53.333333 0 0 1-53.333333-53.333333v-778.666667a21.333333 21.333333 0 0 1 21.333333-21.333333h128a21.333333 21.333333 0 0 1 21.333334 21.333333v202.666667a32 32 0 0 0 32 32h149.333333a32 32 0 0 0 32-32v-202.666667a21.333333 21.333333 0 0 1 21.333333-21.333333h128a21.333333 21.333333 0 0 1 21.333334 21.333333V714.666667a53.333333 53.333333 0 0 1-53.333334 53.333333zM618.666667 256H448a21.333333 21.333333 0 0 0 0 42.666667h170.666667a21.333333 21.333333 0 0 0 0-42.666667zM426.666667 746.666667a21.333333 21.333333 0 0 0 21.333333 21.333333h64V832a21.333333 21.333333 0 0 0 42.666667 0v-64h64a21.333333 21.333333 0 0 0 0-42.666667h-64v-64a21.333333 21.333333 0 0 0-42.666667 0v64h-64a21.333333 21.333333 0 0 0-21.333333 21.333334z m544-106.666667h-96a21.333333 21.333333 0 0 1-21.333334-21.333333v-682.666667a21.333333 21.333333 0 0 1 21.333334-21.333333h128a21.333333 21.333333 0 0 1 21.333333 21.333333V586.666667a53.393333 53.393333 0 0 1-53.333333 53.333333z m-32-597.333333h-42.666667v85.333333h42.666667z m0 128h-42.666667V256h42.666667z m0 128h-42.666667V384h42.666667z m0 128h-42.666667V512h42.666667z"  horiz-adv-x="1024" />

    
    <glyph glyph-name="24gf-store" unicode="&#59476;" d="M1024 512c0-70.58-57.42-128-128-128a127.486667 127.486667 0 0 0-85.333333 32.62A127.953333 127.953333 0 0 0 629.333333 427.333333a128 128 0 0 0-192 0 127.833333 127.833333 0 0 0-181.333333-10.706666A127.486667 127.486667 0 0 0 170.666667 384c-70.58 0-128 57.42-128 128a21.233333 21.233333 0 0 0 2 8.94l110.806666 240.153333A85.573333 85.573333 0 0 0 232.946667 810.666667h600.773333a85.573333 85.573333 0 0 0 77.473333-49.573334l110.84-240.153333A21.233333 21.233333 0 0 0 1024 512z m-42.666667-192v-320a85.426667 85.426667 0 0 0-85.333333-85.333333h-64a21.333333 21.333333 0 0 0-21.333333 21.333333v234.666667a85.333333 85.333333 0 0 1-170.666667 0v-234.666667a21.333333 21.333333 0 0 0-21.333333-21.333333H170.666667a85.426667 85.426667 0 0 0-85.333334 85.333333V320a21.333333 21.333333 0 0 0 34.146667 17.06 85.333333 85.333333 0 0 1 119.466667 17.086667 21.333333 21.333333 0 0 0 34.106666 0 85.333333 85.333333 0 0 1 145.093334 14 21.333333 21.333333 0 0 0 38.373333 0 85.373333 85.373333 0 0 1 153.626667 0 21.333333 21.333333 0 0 0 38.373333 0 85.333333 85.333333 0 0 1 145.093333-14 21.333333 21.333333 0 0 0 34.106667 0 85.333333 85.333333 0 0 1 119.466667-17.086667A21.333333 21.333333 0 0 0 981.333333 320z m-512-234.666667V256H256v-170.666667z"  horiz-adv-x="1024" />

    
    <glyph glyph-name="24gf-window" unicode="&#59477;" d="M746.933333 268.28c8.246667 40.286667 19.186667 76.753333 33.433334 111.486667a583.5 583.5 0 0 0 44.773333 87.14c-18.666667 20.98-41.693333 52-60.993333 98.206666C738.393333 626.76 725.333333 702.2 725.333333 789.333333v21.333334H512v-768h213.94c1.92 94.953333 8.5 164.6 20.993333 225.613333zM597.333333 362.66666699999996a21.333333 21.333333 0 0 0-42.666666 0V490.666667a21.333333 21.333333 0 0 0 42.666666 0z m-458.666666-320h330.666666V810.666667H138.666667a53.393333 53.393333 0 0 1-53.333334-53.333334v-661.333333a53.393333 53.393333 0 0 1 53.333334-53.333333z m136.413333 417.126666l-42.666667-85.333333a21.333333 21.333333 0 0 0-38.16 19.08l42.666667 85.333333a21.333333 21.333333 0 1 0 38.16-19.08zM384 490.666667a21.333333 21.333333 0 0 0 42.666667 0v-128a21.333333 21.333333 0 0 0-42.666667 0z m-232.413333-11.793334l85.333333 170.666667a21.333333 21.333333 0 0 0 38.16-19.08l-85.333333-170.666667a21.333333 21.333333 0 0 0-38.16 19.08zM981.333333-21.33333300000004a21.333333 21.333333 0 0 0-21.333333-21.333334H64a21.333333 21.333333 0 0 0 0 42.666667h704.066667c1.44 230.666667 26.946667 343.62 101.766666 457.626667a21.333333 21.333333 0 0 1-2.513333 26.553333C842.753333 509.533333 768 586.666667 768 789.333333v21.333334h117.333333a53.393333 53.393333 0 0 0 53.333334-53.333334v-757.333333h21.333333a21.333333 21.333333 0 0 0 21.333333-21.333333z"  horiz-adv-x="1024" />

    
    <glyph glyph-name="24gf-school" unicode="&#59478;" d="M1002.666667-42.66666699999996h-21.333334V426.666667h21.333334a21.333333 21.333333 0 0 1 19.08 30.873333l-76.486667 152.98a53.053333 53.053333 0 0 1-47.706667 29.48H627.5l-56.453333 56.46a53.66 53.66 0 0 1-10.966667 8.44 52.146667 52.146667 0 0 1-5.413333 2.74V780.5l48.913333-48.92A21.333333 21.333333 0 0 1 618.666667 725.333333h85.333333a21.333333 21.333333 0 0 1 0 42.666667H627.5L548.42 847.086667A21.333333 21.333333 0 0 1 512 832v-124.36a51.066667 51.066667 0 0 1-4.533333-2.24 53.633333 53.633333 0 0 1-11.846667-8.94L439.166667 640H169.113333a53.053333 53.053333 0 0 1-47.706666-29.48L44.92 457.54A21.333333 21.333333 0 0 1 64 426.666667h21.333333v-469.333334H64a21.333333 21.333333 0 0 1 0-42.666666h149.333333v106.666666a21.333333 21.333333 0 0 0 42.666667 0v-106.666666h192a21.333333 21.333333 0 0 1 21.333333 21.333333v128a64 64 0 0 0 128 0v-128a21.333333 21.333333 0 0 1 21.333334-21.333333h192v106.666666a21.333333 21.333333 0 0 0 42.666666 0v-106.666666h149.333334a21.333333 21.333333 0 0 1 0 42.666666zM256 128h-42.666667v42.666667h42.666667z m0 128h-42.666667V341.33333300000004h42.666667z m128-128h-42.666667v42.666667h42.666667z m0 128h-42.666667V341.33333300000004h42.666667z m149.333333 64a85.333333 85.333333 0 1 0 85.333334 85.333333 85.426667 85.426667 0 0 0-85.333334-85.333333z m192-192h-42.666666v42.666667h42.666666z m0 128h-42.666666V341.33333300000004h42.666666z m128-128h-42.666666v42.666667h42.666666z m0 128h-42.666666V341.33333300000004h42.666666zM554.666667 448v-42.666667a21.333333 21.333333 0 0 0-21.333334-21.333333h-21.333333a21.333333 21.333333 0 0 0 0 42.666667v21.333333a21.333333 21.333333 0 0 0 42.666667 0z"  horiz-adv-x="1024" />

    
    <glyph glyph-name="24gf-hotel" unicode="&#59479;" d="M970.073333 648.353333a21.333333 21.333333 0 0 0-11.613333 3.433334l-41.126667 26.666666-41.126666-26.666666A21.333333 21.333333 0 0 0 844 675.2l12.666667 47.333333-38.086667 30.866667a21.333333 21.333333 0 0 0 12.293333 37.933333l48.96 2.586667 17.586667 45.76a21.333333 21.333333 0 0 0 39.826667 0l17.586666-45.76 48.96-2.586667a21.333333 21.333333 0 0 0 12.306667-37.88L978 722.56l12.666667-47.333333a21.333333 21.333333 0 0 0-20.606667-26.846667z m0-256a21.333333 21.333333 0 0 0-11.613333 3.433334l-41.126667 26.666666-41.126666-26.666666A21.333333 21.333333 0 0 0 844 419.2l12.666667 47.333333-38.086667 30.866667a21.333333 21.333333 0 0 0 12.293333 37.933333l48.96 2.586667 17.586667 45.76a21.333333 21.333333 0 0 0 39.826667 0l17.586666-45.76 48.96-2.586667a21.333333 21.333333 0 0 0 12.306667-37.88L978 466.56l12.666667-47.333333a21.333333 21.333333 0 0 0-20.606667-26.846667z m0-256a21.333333 21.333333 0 0 0-11.613333 3.433334l-41.126667 26.666666-41.126666-26.666666a21.333333 21.333333 0 0 0-32.206667 23.413333l12.666667 47.333333-38.086667 30.866667a21.333333 21.333333 0 0 0 12.293333 37.933333l48.96 2.586667 17.586667 45.76a21.333333 21.333333 0 0 0 39.826667 0l17.586666-45.76 48.96-2.586667a21.333333 21.333333 0 0 0 12.306667-37.88l-38.086667-30.866666 12.666667-47.333334a21.333333 21.333333 0 0 0-20.606667-26.846666zM1002.666667-42.66666699999996h-234.666667V800a53.393333 53.393333 0 0 1-53.333333 53.333333H266.666667a53.393333 53.393333 0 0 1-53.333334-53.333333v-160H128V746.666667a21.333333 21.333333 0 0 1-42.666667 0v-106.666667H53.333333a53.393333 53.393333 0 0 1-53.333333-53.333333v-650.666667a21.333333 21.333333 0 0 1 21.333333-21.333333h981.333334a21.333333 21.333333 0 0 1 0 42.666666zM128 85.33333300000004h-42.666667v42.666667h42.666667z m0 85.333334h-42.666667V256h42.666667z m0 128h-42.666667V384h42.666667z m0 128h-42.666667V512h42.666667z m341.333333-298.666667H341.333333v42.666667h128z m0 128H341.333333v42.666667h128z m0 128H341.333333v42.666667h128z m0 128H341.333333v42.666667h128z m0 128H341.333333v42.666667h128z m128-512h-42.666666v42.666667h42.666666z m0 128h-42.666666v42.666667h42.666666z m0 128h-42.666666v42.666667h42.666666z m0 128h-42.666666v42.666667h42.666666z m0 128h-42.666666v42.666667h42.666666z"  horiz-adv-x="1024" />

    
    <glyph glyph-name="24gf-chartBarUpward" unicode="&#59480;" d="M640 304v-352a37.373333 37.373333 0 0 0-37.333333-37.333333H464a37.373333 37.373333 0 0 0-37.333333 37.333333V304a37.373333 37.373333 0 0 0 37.333333 37.333333h138.666667a37.373333 37.373333 0 0 0 37.333333-37.333333z m261.333333 208h-138.666666a37.373333 37.373333 0 0 1-37.333334-37.333333v-522.666667a37.373333 37.373333 0 0 1 37.333334-37.333333h138.666666a37.373333 37.373333 0 0 1 37.333334 37.333333V474.666667a37.373333 37.373333 0 0 1-37.333334 37.333333z m-597.333333-298.666667H165.333333a37.373333 37.373333 0 0 1-37.333333-37.333333v-224a37.373333 37.373333 0 0 1 37.333333-37.333333h138.666667a37.373333 37.373333 0 0 1 37.333333 37.333333v224a37.373333 37.373333 0 0 1-37.333333 37.333333z m633.04 626.86a21.333333 21.333333 0 0 1-4.533333 6.8l-0.046667 0.046667A21.213333 21.213333 0 0 1 917.333333 853.333333h-128a21.333333 21.333333 0 0 1 0-42.666666h76.5L618.666667 563.5 505.753333 676.42a21.333333 21.333333 0 0 1-30.173333 0l-341.333333-341.333333a21.333333 21.333333 0 0 1 30.173333-30.173334L490.666667 631.166667l112.913333-112.92a21.333333 21.333333 0 0 1 30.173333 0L896 780.5V704a21.333333 21.333333 0 0 1 42.666667 0V832a21.333333 21.333333 0 0 1-1.626667 8.193333z"  horiz-adv-x="1024" />

    
    <glyph glyph-name="24gf-chartBarDownward" unicode="&#59481;" d="M341.333333 474.666667v-522.666667a37.373333 37.373333 0 0 0-37.333333-37.333333H165.333333a37.373333 37.373333 0 0 0-37.333333 37.333333V474.666667a37.373333 37.373333 0 0 0 37.333333 37.333333h138.666667a37.373333 37.373333 0 0 0 37.333333-37.333333z m261.333334-133.333334H464a37.373333 37.373333 0 0 1-37.333333-37.333333v-352a37.373333 37.373333 0 0 1 37.333333-37.333333h138.666667a37.373333 37.373333 0 0 1 37.333333 37.333333V304a37.373333 37.373333 0 0 1-37.333333 37.333333z m298.666666-128h-138.666666a37.373333 37.373333 0 0 1-37.333334-37.333333v-224a37.373333 37.373333 0 0 1 37.333334-37.333333h138.666666a37.373333 37.373333 0 0 1 37.333334 37.333333v224a37.373333 37.373333 0 0 1-37.333334 37.333333z m16 256a21.333333 21.333333 0 0 1-21.333333-21.333333v-76.5L591.086667 676.42a21.333333 21.333333 0 0 1-30.173334 0L448 563.5 164.42 847.086667a21.333333 21.333333 0 0 1-30.173333-30.173334l298.666666-298.666666a21.333333 21.333333 0 0 1 30.173334 0L576 631.166667 865.833333 341.33333300000004H789.333333a21.333333 21.333333 0 0 1 0-42.666666h128a21.213333 21.213333 0 0 1 14.993334 6.16A21.213333 21.213333 0 0 1 938.666667 320V448a21.333333 21.333333 0 0 1-21.333334 21.333333z"  horiz-adv-x="1024" />

    
    <glyph glyph-name="24gf-chartPie" unicode="&#59482;" d="M938.666667 362.66666699999996a440.906667 440.906667 0 0 0-35.46-173.773334 453.766667 453.766667 0 0 0-238.766667-238.766666 443.52 443.52 0 0 0-347.546667 0 453.766667 453.766667 0 0 0-238.766666 238.766666 443.52 443.52 0 0 0 0 347.546667 453.766667 453.766667 0 0 0 238.766666 238.766667A440.906667 440.906667 0 0 0 490.666667 810.666667a21.333333 21.333333 0 0 0 21.333333-21.333334v-405.333333h405.333333a21.333333 21.333333 0 0 0 21.333334-21.333333z m11.8 240.446666A405.373333 405.373333 0 0 1 576 853.333333a21.333333 21.333333 0 0 1-21.333333-21.333333v-384a21.333333 21.333333 0 0 1 21.333333-21.333333h384a21.333333 21.333333 0 0 1 21.333333 21.333333 403.333333 403.333333 0 0 1-30.866666 155.113333z"  horiz-adv-x="1024" />

    
    <glyph glyph-name="24gf-chartLineDownward" unicode="&#59483;" d="M981.333333-64a21.333333 21.333333 0 0 0-21.333333-21.333333H64a21.333333 21.333333 0 0 0-21.333333 21.333333V832a21.333333 21.333333 0 0 0 42.666666 0v-874.666667h874.666667a21.333333 21.333333 0 0 0 21.333333-21.333333zM171.666667 607.333333a63.293333 63.293333 0 0 1 1.426666-6.193333 64.146667 64.146667 0 0 1 44.053334-44.053333 63.293333 63.293333 0 0 1 6.186666-1.42c1.046667-0.186667 2.106667-0.353333 3.173334-0.486667a65.006667 65.006667 0 0 1 16.306666 0c1.066667 0.133333 2.126667 0.3 3.173334 0.486667a63.453333 63.453333 0 0 1 20.613333 7.526666l207.026667-177.446666c-0.7-1.813333-1.333333-3.666667-1.866667-5.56a63.293333 63.293333 0 0 1-1.426667-6.186667c-0.186667-1.046667-0.353333-2.106667-0.486666-3.173333a65.006667 65.006667 0 0 1 0-16.306667c0.133333-1.066667 0.3-2.126667 0.486666-3.173333a63.293333 63.293333 0 0 1 1.426667-6.193334 64.146667 64.146667 0 0 1 44.053333-44.053333 63.293333 63.293333 0 0 1 6.186667-1.433333c1.046667-0.186667 2.106667-0.353333 3.173333-0.486667a65.006667 65.006667 0 0 1 16.306667 0c1.066667 0.133333 2.126667 0.3 3.173333 0.486667a63.293333 63.293333 0 0 1 6.193334 1.426666 64.146667 64.146667 0 0 1 44.053333 44.053334 63.293333 63.293333 0 0 1 1.433333 6.186666c0.186667 1.046667 0.353333 2.106667 0.486667 3.173334a65.006667 65.006667 0 0 1 0 16.306666c-0.133333 1.066667-0.3 2.126667-0.486667 3.173334-0.086667 0.48-0.18 0.953333-0.273333 1.433333L705.9 441.333333a63.6 63.6 0 0 1 29.433333-13.666666c1.046667-0.186667 2.106667-0.353333 3.173334-0.486667a64.74 64.74 0 0 1 16.06 0l74-148.06a64 64 0 0 1-15.506667-26.906667 63.293333 63.293333 0 0 1-1.426667-6.193333c-0.186667-1.046667-0.353333-2.106667-0.486666-3.173333a65.006667 65.006667 0 0 1 0-16.306667c0.133333-1.066667 0.3-2.126667 0.486666-3.173333a63.293333 63.293333 0 0 1 1.426667-6.193334 64.146667 64.146667 0 0 1 44.053333-44.053333 63.293333 63.293333 0 0 1 6.193334-1.426667c1.046667-0.186667 2.106667-0.353333 3.173333-0.486666a65.006667 65.006667 0 0 1 16.306667 0c1.066667 0.133333 2.126667 0.3 3.173333 0.486666a63.293333 63.293333 0 0 1 6.193333 1.426667 64.146667 64.146667 0 0 1 44.053334 44.053333 63.293333 63.293333 0 0 1 1.426666 6.193334c0.186667 1.046667 0.353333 2.106667 0.486667 3.173333a65.006667 65.006667 0 0 1 0 16.306667c-0.133333 1.066667-0.3 2.126667-0.486667 3.173333a63.293333 63.293333 0 0 1-1.426666 6.193333 64.146667 64.146667 0 0 1-44.053334 44.053334 63.293333 63.293333 0 0 1-6.193333 1.426666c-1.046667 0.186667-2.106667 0.353333-3.173333 0.486667a64.74 64.74 0 0 1-16.06 0l-74 148.06a64 64 0 0 1 15.506666 26.906667 63.293333 63.293333 0 0 1 1.426667 6.193333c0.186667 1.046667 0.353333 2.106667 0.486667 3.173333a65.006667 65.006667 0 0 1 0 16.306667c-0.133333 1.066667-0.3 2.126667-0.486667 3.173333a63.293333 63.293333 0 0 1-1.426667 6.193334 64.146667 64.146667 0 0 1-44.053333 44.053333 63.293333 63.293333 0 0 1-6.193333 1.426667c-1.046667 0.186667-2.106667 0.353333-3.173334 0.486666a65.006667 65.006667 0 0 1-16.306666 0c-1.066667-0.133333-2.126667-0.3-3.173334-0.486666a63.293333 63.293333 0 0 1-6.193333-1.426667 64.146667 64.146667 0 0 1-44.053333-44.053333 63.293333 63.293333 0 0 1-1.426667-6.193334c-0.186667-1.046667-0.353333-2.106667-0.486667-3.173333a65.006667 65.006667 0 0 1 0-16.306667c0.133333-1.066667 0.3-2.126667 0.486667-3.173333 0.086667-0.48 0.18-0.953333 0.273333-1.433333L574.1 412A63.6 63.6 0 0 1 544.666667 425.666667c-1.046667 0.186667-2.106667 0.353333-3.173334 0.486666a65.006667 65.006667 0 0 1-16.306666 0c-1.066667-0.133333-2.126667-0.3-3.173334-0.486666a63.453333 63.453333 0 0 1-20.613333-7.526667L294.373333 595.586667c0.7 1.813333 1.333333 3.666667 1.866667 5.56a63.293333 63.293333 0 0 1 1.426667 6.186666c0.186667 1.046667 0.353333 2.106667 0.486666 3.173334a65.006667 65.006667 0 0 1 0 16.306666c-0.133333 1.066667-0.3 2.126667-0.486666 3.173334a63.293333 63.293333 0 0 1-1.426667 6.193333 64.146667 64.146667 0 0 1-44.053333 44.053333 63.293333 63.293333 0 0 1-6.186667 1.433334c-1.046667 0.186667-2.106667 0.353333-3.173333 0.486666a65.006667 65.006667 0 0 1-16.306667 0c-1.066667-0.133333-2.126667-0.3-3.173333-0.486666a63.293333 63.293333 0 0 1-6.193334-1.426667 64.146667 64.146667 0 0 1-44.053333-44.053333 63.293333 63.293333 0 0 1-1.433333-6.186667c-0.186667-1.046667-0.353333-2.106667-0.486667-3.173333a65.006667 65.006667 0 0 1 0-16.306667c0.153333-1.073333 0.3-2.133333 0.486667-3.186667z"  horiz-adv-x="1024" />

    
    <glyph glyph-name="24gf-chartScatter" unicode="&#59484;" d="M981.333333-64a21.333333 21.333333 0 0 0-21.333333-21.333333H64a21.333333 21.333333 0 0 0-21.333333 21.333333V832a21.333333 21.333333 0 0 0 42.666666 0v-874.666667h874.666667a21.333333 21.333333 0 0 0 21.333333-21.333333zM234.666667 170.66666699999996a64 64 0 1 1-64 64 64 64 0 0 1 64-64z m298.666666 298.666666a64 64 0 1 1-64 64 64 64 0 0 1 64-64zM448 256a64 64 0 1 1-64 64 64 64 0 0 1 64-64z m256 42.666667a64 64 0 1 1-64 64 64 64 0 0 1 64-64zM277.333333 554.666667a64 64 0 1 1-64 64 64 64 0 0 1 64-64z m490.666667-341.333334a64 64 0 1 1 64-64 64 64 0 0 1-64 64z m106.666667 298.666667a64 64 0 1 1-64 64 64 64 0 0 1 64-64z"  horiz-adv-x="1024" />

    
    <glyph glyph-name="24gf-chartLineUpward" unicode="&#59485;" d="M981.333333-64a21.333333 21.333333 0 0 0-21.333333-21.333333H64a21.333333 21.333333 0 0 0-21.333333 21.333333V832a21.333333 21.333333 0 0 0 42.666666 0v-874.666667h874.666667a21.333333 21.333333 0 0 0 21.333333-21.333333zM171.666667 223.33333300000004a63.293333 63.293333 0 0 1 1.426666-6.193333 64.146667 64.146667 0 0 1 44.053334-44.053333 63.293333 63.293333 0 0 1 6.193333-1.426667c1.046667-0.186667 2.106667-0.353333 3.173333-0.486667a65.006667 65.006667 0 0 1 16.306667 0c1.066667 0.133333 2.126667 0.3 3.173333 0.486667a63.293333 63.293333 0 0 1 6.193334 1.426667 64.146667 64.146667 0 0 1 44.053333 44.053333 63.293333 63.293333 0 0 1 1.426667 6.193333c0.186667 1.046667 0.353333 2.106667 0.486666 3.173334a65.006667 65.006667 0 0 1 0 16.306666c-0.133333 1.066667-0.3 2.126667-0.486666 3.173334a63.293333 63.293333 0 0 1-1.426667 6.193333 63.96 63.96 0 0 1-3.813333 10.073333l128 128a63.96 63.96 0 0 1 10.073333-3.813333 63.293333 63.293333 0 0 1 6.166667-1.44c1.046667-0.186667 2.106667-0.353333 3.173333-0.486667a65.006667 65.006667 0 0 1 16.306667 0c1.066667 0.133333 2.126667 0.3 3.173333 0.486667a63.293333 63.293333 0 0 1 6.193333 1.426667 63.96 63.96 0 0 1 10.073334 3.813333l64-64a63.96 63.96 0 0 1-3.813334-10.073333 63.293333 63.293333 0 0 1-1.44-6.166667c-0.186667-1.046667-0.353333-2.106667-0.486666-3.173333a65.006667 65.006667 0 0 1 0-16.306667c0.133333-1.066667 0.3-2.126667 0.486666-3.173333a63.293333 63.293333 0 0 1 1.426667-6.193334 64.146667 64.146667 0 0 1 44.053333-44.053333 63.293333 63.293333 0 0 1 6.186667-1.433333c1.046667-0.186667 2.106667-0.353333 3.173333-0.486667a65.006667 65.006667 0 0 1 16.306667 0c1.066667 0.133333 2.126667 0.3 3.173333 0.486667a63.293333 63.293333 0 0 1 6.193334 1.426666 64.146667 64.146667 0 0 1 44.053333 44.053334 63.293333 63.293333 0 0 1 1.433333 6.186666c0.186667 1.046667 0.353333 2.106667 0.486667 3.173334a65.006667 65.006667 0 0 1 0 16.306666c-0.133333 1.066667-0.3 2.126667-0.486667 3.173334a63.4 63.4 0 0 1-7.333333 20.306666l198.28 228.786667a65.006667 65.006667 0 0 1 5.886667-2 63.293333 63.293333 0 0 1 6.193333-1.426667c1.046667-0.186667 2.106667-0.353333 3.173333-0.486666a65.006667 65.006667 0 0 1 16.306667 0c1.066667 0.133333 2.126667 0.3 3.173333 0.486666a63.293333 63.293333 0 0 1 6.193334 1.426667 64.146667 64.146667 0 0 1 44.053333 44.053333 63.293333 63.293333 0 0 1 1.426667 6.193334c0.186667 1.046667 0.353333 2.106667 0.486666 3.173333a65.006667 65.006667 0 0 1 0 16.306667c-0.133333 1.066667-0.3 2.126667-0.486666 3.173333a63.293333 63.293333 0 0 1-1.426667 6.193333 64.146667 64.146667 0 0 1-44.053333 44.053334 63.293333 63.293333 0 0 1-6.193334 1.426666c-1.046667 0.186667-2.106667 0.353333-3.173333 0.486667a65.006667 65.006667 0 0 1-16.306667 0c-1.066667-0.133333-2.126667-0.3-3.173333-0.486667a63.293333 63.293333 0 0 1-6.193333-1.426666 64.146667 64.146667 0 0 1-44.053334-44.053334 63.293333 63.293333 0 0 1-1.426666-6.193333c-0.186667-1.046667-0.353333-2.106667-0.486667-3.173333a65.006667 65.006667 0 0 1 0-16.306667c0.133333-1.066667 0.3-2.126667 0.486667-3.173333a63.4 63.4 0 0 1 7.333333-20.306667L620.74 358.246667a65.006667 65.006667 0 0 1-5.886667 2 63.293333 63.293333 0 0 1-6.186666 1.42c-1.046667 0.186667-2.106667 0.353333-3.173334 0.486666a65.006667 65.006667 0 0 1-16.306666 0c-1.066667-0.133333-2.126667-0.3-3.173334-0.486666a63.293333 63.293333 0 0 1-6.193333-1.426667 63.96 63.96 0 0 1-10.073333-3.813333l-64 64a63.96 63.96 0 0 1 3.813333 10.073333 63.293333 63.293333 0 0 1 1.44 6.166667c0.186667 1.046667 0.353333 2.106667 0.486667 3.173333a65.006667 65.006667 0 0 1 0 16.306667c-0.133333 1.066667-0.3 2.126667-0.486667 3.173333a63.293333 63.293333 0 0 1-1.426667 6.193333 64.146667 64.146667 0 0 1-44.053333 44.053334 63.293333 63.293333 0 0 1-6.186667 1.433333c-1.046667 0.186667-2.106667 0.353333-3.173333 0.486667a65.006667 65.006667 0 0 1-16.306667 0c-1.066667-0.133333-2.126667-0.3-3.173333-0.486667a63.293333 63.293333 0 0 1-6.193333-1.426667 64.146667 64.146667 0 0 1-44.053334-44.053333 63.293333 63.293333 0 0 1-1.433333-6.186667c-0.186667-1.046667-0.353333-2.106667-0.486667-3.173333a65.006667 65.006667 0 0 1 0-16.306667c0.133333-1.066667 0.3-2.126667 0.486667-3.173333a63.293333 63.293333 0 0 1 1.426667-6.193333 63.96 63.96 0 0 1 3.813333-10.073334l-128-128a63.96 63.96 0 0 1-10.073333 3.813334 63.293333 63.293333 0 0 1-6.166667 1.44c-1.046667 0.186667-2.106667 0.353333-3.173333 0.486666a65.006667 65.006667 0 0 1-16.306667 0c-1.066667-0.133333-2.126667-0.3-3.173333-0.486666a63.293333 63.293333 0 0 1-6.193334-1.426667 64.146667 64.146667 0 0 1-44.053333-44.053333 63.293333 63.293333 0 0 1-1.433333-6.186667c-0.186667-1.046667-0.353333-2.106667-0.486667-3.173333a65.006667 65.006667 0 0 1 0-16.306667c0.153333-1.073333 0.3-2.133333 0.486667-3.186667z"  horiz-adv-x="1024" />

    
    <glyph glyph-name="24gf-bag" unicode="&#59519;" d="M384 640h-42.666667v42.666667a170.666667 170.666667 0 1 0 341.333334 0v-42.666667h-42.666667v42.666667c0 70.58-57.42 128-128 128s-128-57.42-128-128z m550-665.386667l-77.333333 618.666667a53.42 53.42 0 0 1-52.913334 46.72H682.666667v-133.74a42.666667 42.666667 0 1 0-42.666667 0V640H384v-133.74a42.666667 42.666667 0 1 0-42.666667 0V640H220.246667A53.42 53.42 0 0 1 167.333333 593.28l-77.333333-618.666667a53.333333 53.333333 0 0 1 52.913333-59.946666h738.173334a53.333333 53.333333 0 0 1 52.92 59.946666z"  horiz-adv-x="1024" />

    
    <glyph glyph-name="24gf-bagFull" unicode="&#59520;" d="M934-25.38666699999999l-77.333333 618.666667a53.42 53.42 0 0 1-52.913334 46.72h-5.586666L633.753333 804.42a21.333333 21.333333 0 0 1-30.173333 0L554.666667 755.5 463.086667 847.086667a21.333333 21.333333 0 0 1-30.173334 0L225.826667 640h-5.58A53.42 53.42 0 0 1 167.333333 593.28l-77.333333-618.666667a53.333333 53.333333 0 0 1 52.913333-59.946666h738.173334a53.333333 53.333333 0 0 1 52.92 59.946666z m-251.333333 457.793334V298.66666699999996a170.666667 170.666667 0 1 0-341.333334 0V432.406667a42.666667 42.666667 0 1 0 42.666667 0V298.66666699999996c0-70.58 57.42-128 128-128s128 57.42 128 128V432.406667a42.666667 42.666667 0 1 0 42.666667 0z"  horiz-adv-x="1024" />

    
    <glyph glyph-name="24gf-bag2" unicode="&#59521;" d="M976.666667-25.38666699999999l-77.333334 618.666667a53.42 53.42 0 0 1-52.913333 46.72H725.333333v-133.74a42.666667 42.666667 0 1 0-42.666666 0V640H469.333333v-133.74a42.666667 42.666667 0 1 0-42.666666 0V640H341.333333v64c0 58.813333 47.853333 106.666667 106.666667 106.666667a107.333333 107.333333 0 0 0 21.333333-2.153334A148.346667 148.346667 0 0 1 426.666667 704v-64h42.666666v64c0 58.813333 47.853333 106.666667 106.666667 106.666667s106.666667-47.853333 106.666667-106.666667v-64h42.666666v64A149.48 149.48 0 0 1 511.94 838.98 149.333333 149.333333 0 0 1 298.666667 704v-64H177.58A53.42 53.42 0 0 1 124.666667 593.28l-77.333334-618.666667a53.333333 53.333333 0 0 1 52.913334-59.946666h823.506666a53.333333 53.333333 0 0 1 52.92 59.946666z m-724 618.666667l-77.333334-618.666667a53.206667 53.206667 0 0 1 0.666667-17.28H100.246667a10.666667 10.666667 0 0 0-10.58 12l77.333333 618.666667a10.666667 10.666667 0 0 0 10.58 9.333333H253.333333c-0.266667-1.333333-0.5-2.666667-0.666666-4.053333z"  horiz-adv-x="1024" />

    
    <glyph glyph-name="24gf-box2" unicode="&#59522;" d="M94.586667 597.333333l112.466666 187.44a53.593333 53.593333 0 0 0 45.733334 25.893334H512v-213.333334zM554.666667 597.333333h417.413333l-112.466667 187.44a53.593333 53.593333 0 0 1-45.733333 25.893334H554.666667z m426.666666-42.666666v-544a53.393333 53.393333 0 0 0-53.333333-53.333334H138.666667a53.393333 53.393333 0 0 0-53.333334 53.333334V554.666667z m-298.666666-192a21.333333 21.333333 0 0 1-21.333334 21.333333H405.333333a21.333333 21.333333 0 0 1 0-42.666667h256a21.333333 21.333333 0 0 1 21.333334 21.333334z"  horiz-adv-x="1024" />

    
    <glyph glyph-name="24gf-box" unicode="&#59523;" d="M341.333333 554.666667h341.333334v-170.666667H341.333333z m334.386667 42.666666l-60.953333 213.333334h-205.533334l-60.953333-213.333334z m-371.813333 0l60.953333 213.333334H210.12a53.593333 53.593333 0 0 1-45.733333-25.893334L51.92 597.333333z m416.186666 0h252l-112.466666 187.44a53.593333 53.593333 0 0 1-45.733334 25.893334H659.14zM981.333333 554.666667v-544a53.393333 53.393333 0 0 0-53.333333-53.333334H96a53.393333 53.393333 0 0 0-53.333333 53.333334V554.666667h256v-192a21.333333 21.333333 0 0 1 21.333333-21.333334h384a21.333333 21.333333 0 0 1 21.333333 21.333334V554.666667z m-213.333333-448a21.333333 21.333333 0 0 1-21.333333 21.333333H618.666667a21.333333 21.333333 0 0 1 0-42.666667h128a21.333333 21.333333 0 0 1 21.333333 21.333334z m85.333333 0a21.333333 21.333333 0 0 1-21.333333 21.333333 21.333333 21.333333 0 1 1 21.333333-21.333333z"  horiz-adv-x="1024" />

    
    <glyph glyph-name="24gf-bagFull2" unicode="&#59524;" d="M976.666667-25.38666699999999l-77.333334 618.666667a53.42 53.42 0 0 1-52.913333 46.72h-48.253333L633.753333 804.42a21.333333 21.333333 0 0 1-30.173333 0L554.666667 755.5 463.086667 847.086667a21.333333 21.333333 0 0 1-30.173334 0L225.826667 640h-48.246667A53.42 53.42 0 0 1 124.666667 593.28l-77.333334-618.666667a53.333333 53.333333 0 0 1 52.913334-59.946666h823.506666a53.333333 53.333333 0 0 1 52.92 59.946666z m-724 618.666667l-77.333334-618.666667a53.206667 53.206667 0 0 1 0.666667-17.28H100.246667a10.666667 10.666667 0 0 0-10.58 12l77.333333 618.666667a10.666667 10.666667 0 0 0 10.58 9.333333H253.333333c-0.266667-1.333333-0.5-2.666667-0.666666-4.053333z m472.666666-160.873333V277.33333300000004a149.333333 149.333333 0 0 0-298.666666 0V432.406667a42.666667 42.666667 0 1 0 42.666666 0V277.33333300000004c0-58.813333 47.853333-106.666667 106.666667-106.666666s106.666667 47.853333 106.666667 106.666666V432.406667a42.666667 42.666667 0 1 0 42.666666 0z"  horiz-adv-x="1024" />

    
    <glyph glyph-name="24gf-cart2" unicode="&#59525;" d="M384-42.66666699999996a42.666667 42.666667 0 1 0-42.666667 42.666667 42.713333 42.713333 0 0 0 42.666667-42.666667z m341.333333 42.666667a42.666667 42.666667 0 1 1 42.666667-42.666667 42.713333 42.713333 0 0 1-42.666667 42.666667z m246.48 615.926667a37.333333 37.333333 0 0 1-32.613333 24c-0.76 0.04-1.52 0.066667-2.286667 0.066666H170.826667L127.2 795.106667A21.333333 21.333333 0 0 1 106.666667 810.666667H21.333333a21.333333 21.333333 0 0 1 0-42.666667h69.173334l174.5-620.44a85.333333 85.333333 0 0 1 75.16-61.946667c2.306667-0.186667 4.666667-0.28 6.98-0.28h376.5a85.333333 85.333333 0 0 1 79.9 55.373334l168.32 448.853333a37.333333 37.333333 0 0 1-0.053334 26.366667z"  horiz-adv-x="1024" />

    
    <glyph glyph-name="24gf-banknote" unicode="&#59526;" d="M640 362.66666699999996a106.666667 106.666667 0 1 0-106.666667 106.666666 106.666667 106.666667 0 0 0 106.666667-106.666666z m256 108.806666v-217.613333A107.006667 107.006667 0 0 1 812.806667 170.66666699999996H253.86A107.006667 107.006667 0 0 1 170.666667 253.86V471.473333A107.006667 107.006667 0 0 1 253.86 554.666667h558.946667A107.006667 107.006667 0 0 1 896 471.473333zM298.666667 362.66666699999996a21.333333 21.333333 0 1 1-21.333334-21.333334 21.333333 21.333333 0 0 1 21.333334 21.333334z m384 0c0 82.473333-66.86 149.333333-149.333334 149.333333S384 445.14 384 362.66666699999996s66.86-149.333333 149.333333-149.333334 149.333333 66.86 149.333334 149.333334z m128 0a21.333333 21.333333 0 1 1-21.333334-21.333334 21.333333 21.333333 0 0 1 21.333334 21.333334z m213.333333 266.666666v-533.333333a53.393333 53.393333 0 0 0-53.333333-53.333333H96a53.393333 53.393333 0 0 0-53.333333 53.333333V629.333333a53.393333 53.393333 0 0 0 53.333333 53.333334h874.666667a53.393333 53.393333 0 0 0 53.333333-53.333334z m-85.333333-138.666666a21.333333 21.333333 0 0 1-21.333334 21.333333 64.073333 64.073333 0 0 0-64 64 21.333333 21.333333 0 0 1-21.333333 21.333333H234.666667a21.333333 21.333333 0 0 1-21.333334-21.333333 64.073333 64.073333 0 0 0-64-64 21.333333 21.333333 0 0 1-21.333333-21.333333v-256a21.333333 21.333333 0 0 1 21.333333-21.333334 64.073333 64.073333 0 0 0 64-64 21.333333 21.333333 0 0 1 21.333334-21.333333h597.333333a21.333333 21.333333 0 0 1 21.333333 21.333333 64.073333 64.073333 0 0 0 64 64 21.333333 21.333333 0 0 1 21.333334 21.333334z"  horiz-adv-x="1024" />

    
    <glyph glyph-name="24gf-cart4" unicode="&#59527;" d="M768-42.66666699999996a42.666667 42.666667 0 1 0-42.666667 42.666667 42.713333 42.713333 0 0 0 42.666667-42.666667z m-426.666667 42.666667a42.666667 42.666667 0 1 1 42.666667-42.666667 42.713333 42.713333 0 0 1-42.666667 42.666667z m625.333334 623.013333a37.226667 37.226667 0 0 1-31.333334 16.986667H170.826667L127.2 795.106667A21.333333 21.333333 0 0 1 106.666667 810.666667H21.333333a21.333333 21.333333 0 0 1 0-42.666667h69.173334l174.5-620.44A85.333333 85.333333 0 0 1 347.146667 85.33333300000004H789.333333a21.333333 21.333333 0 0 1 0 42.666667H347.146667a42.806667 42.806667 0 0 0-41.066667 31.113333L290.826667 213.33333300000004h456.913333a85.413333 85.413333 0 0 1 78 50.666667l143.773333 323.5a37.206667 37.206667 0 0 1-2.846666 35.513333z"  horiz-adv-x="1024" />

    
    <glyph glyph-name="24gf-cart6" unicode="&#59528;" d="M384-42.66666699999996a42.666667 42.666667 0 1 0-42.666667 42.666667 42.713333 42.713333 0 0 0 42.666667-42.666667z m341.333333 42.666667a42.666667 42.666667 0 1 1 42.666667-42.666667 42.713333 42.713333 0 0 1-42.666667 42.666667z m240.533334 622.293333a37.086667 37.086667 0 0 1-31.753334 17.706667H170.826667L127.2 795.106667A21.333333 21.333333 0 0 1 106.666667 810.666667H21.333333a21.333333 21.333333 0 0 1 0-42.666667h69.173334l174.5-620.44A85.333333 85.333333 0 0 1 347.146667 85.33333300000004H789.333333a21.333333 21.333333 0 0 1 0 42.666667H347.146667a42.806667 42.806667 0 0 0-41.066667 31.113333l-11.746667 41.753334 462.753334 51.42a85.013333 85.013333 0 0 1 66.9 46.666666L967.506667 586a37.093333 37.093333 0 0 1-1.64 36.293333z"  horiz-adv-x="1024" />

    
    <glyph glyph-name="24gf-cart5" unicode="&#59529;" d="M384-42.66666699999996a42.666667 42.666667 0 1 0-42.666667 42.666667 42.713333 42.713333 0 0 0 42.666667-42.666667z m341.333333 42.666667a42.666667 42.666667 0 1 1 42.666667-42.666667 42.713333 42.713333 0 0 1-42.666667 42.666667z m240.533334 622.293333a37.086667 37.086667 0 0 1-31.753334 17.706667H298.666667a21.333333 21.333333 0 0 1-20.553334-27.04L381.133333 242.08000000000004a37.166667 37.166667 0 0 1 35.886667-27.333333 39.053333 39.053333 0 0 1 4.206667 0.233333l335.86 37.333333a85.013333 85.013333 0 0 1 66.9 46.666667L967.506667 586a37.093333 37.093333 0 0 1-1.64 36.293333zM789.333333 128H347.146667a42.806667 42.806667 0 0 0-41.066667 31.113333l-178.88 636A21.333333 21.333333 0 0 1 106.666667 810.666667H21.333333a21.333333 21.333333 0 0 1 0-42.666667h69.173334l174.5-620.44A85.333333 85.333333 0 0 1 347.146667 85.33333300000004H789.333333a21.333333 21.333333 0 0 1 0 42.666667z"  horiz-adv-x="1024" />

    
    <glyph glyph-name="24gf-cart3" unicode="&#59530;" d="M384-42.66666699999996a42.666667 42.666667 0 1 0-42.666667 42.666667 42.713333 42.713333 0 0 0 42.666667-42.666667z m341.333333 42.666667a42.666667 42.666667 0 1 1 42.666667-42.666667 42.713333 42.713333 0 0 1-42.666667 42.666667z m241.333334 623.013333a37.226667 37.226667 0 0 1-31.333334 16.986667H318.613333a37.333333 37.333333 0 0 1-36.446666-45.433333l75.44-339.466667A53.333333 53.333333 0 0 1 409.666667 213.33333300000004h338.073333a85.413333 85.413333 0 0 1 78 50.666667l143.773333 323.5a37.206667 37.206667 0 0 1-2.846666 35.513333zM789.333333 128H347.146667a42.806667 42.806667 0 0 0-41.066667 31.113333l-178.88 636A21.333333 21.333333 0 0 1 106.666667 810.666667H21.333333a21.333333 21.333333 0 0 1 0-42.666667h69.173334l174.5-620.44A85.333333 85.333333 0 0 1 347.146667 85.33333300000004H789.333333a21.333333 21.333333 0 0 1 0 42.666667z"  horiz-adv-x="1024" />

    
    <glyph glyph-name="24gf-cart9" unicode="&#59531;" d="M384-42.66666699999996a42.666667 42.666667 0 1 0-42.666667 42.666667 42.713333 42.713333 0 0 0 42.666667-42.666667z m341.333333 42.666667a42.666667 42.666667 0 1 1 42.666667-42.666667 42.713333 42.713333 0 0 1-42.666667 42.666667z m240.533334 622.293333a37.086667 37.086667 0 0 1-31.753334 17.706667H298.666667a21.333333 21.333333 0 0 1-20.553334-27.04L381.133333 242.08000000000004a37.166667 37.166667 0 0 1 35.886667-27.333333 39.053333 39.053333 0 0 1 4.206667 0.233333l335.86 37.333333a85.013333 85.013333 0 0 1 66.9 46.666667L967.506667 586a37.093333 37.093333 0 0 1-1.64 36.293333zM789.333333 128H331.546667a42.666667 42.666667 0 0 0-42.08 49.68l6.426666 38.573333a85.806667 85.806667 0 0 1-2.613333 39.126667L127.053333 795.606667A21.333333 21.333333 0 0 1 106.666667 810.666667H21.333333a21.333333 21.333333 0 0 1 0-42.666667h69.58l161.586667-525.166667a42.893333 42.893333 0 0 0 1.333333-19.56l-6.453333-38.606666a85.333333 85.333333 0 0 1 84.166667-99.333334H789.333333a21.333333 21.333333 0 0 1 0 42.666667z"  horiz-adv-x="1024" />

    
    <glyph glyph-name="24gf-cart7" unicode="&#59532;" d="M384-42.66666699999996a42.666667 42.666667 0 1 0-42.666667 42.666667 42.713333 42.713333 0 0 0 42.666667-42.666667z m341.333333 42.666667a42.666667 42.666667 0 1 1 42.666667-42.666667 42.713333 42.713333 0 0 1-42.666667 42.666667z m241.333334 623.013333a37.226667 37.226667 0 0 1-31.333334 16.986667H319.72a37.333333 37.333333 0 0 1-36-47.333333L378.266667 252.39333299999998a53.486667 53.486667 0 0 1 51.386666-39.06h318.086667a85.413333 85.413333 0 0 1 78 50.666667l143.773333 323.5a37.206667 37.206667 0 0 1-2.846666 35.513333zM789.333333 128H331.546667a42.666667 42.666667 0 0 0-42.08 49.68l6.426666 38.573333a85.806667 85.806667 0 0 1-2.613333 39.126667L127.053333 795.606667A21.333333 21.333333 0 0 1 106.666667 810.666667H21.333333a21.333333 21.333333 0 0 1 0-42.666667h69.58l161.586667-525.166667a42.893333 42.893333 0 0 0 1.333333-19.56l-6.453333-38.606666a85.333333 85.333333 0 0 1 84.166667-99.333334H789.333333a21.333333 21.333333 0 0 1 0 42.666667z"  horiz-adv-x="1024" />

    
    <glyph glyph-name="24gf-cart10" unicode="&#59533;" d="M768-42.66666699999996a42.666667 42.666667 0 1 0-42.666667 42.666667 42.713333 42.713333 0 0 0 42.666667-42.666667z m-426.666667 42.666667a42.666667 42.666667 0 1 1 42.666667-42.666667 42.713333 42.713333 0 0 1-42.666667 42.666667z m624.533334 622.293333a37.086667 37.086667 0 0 1-31.753334 17.706667H174.933333l-47.88 155.606667A21.333333 21.333333 0 0 1 106.666667 810.666667H21.333333a21.333333 21.333333 0 0 1 0-42.666667h69.58l161.586667-525.166667a42.933333 42.933333 0 0 0 1.333333-19.526666v-0.14l-6.453333-38.5a85.333333 85.333333 0 0 1 84.166667-99.333334H789.333333a21.333333 21.333333 0 0 1 0 42.666667H331.546667a42.666667 42.666667 0 0 0-42.08 49.68l3.84 23.073333 463.78 51.533334a85.013333 85.013333 0 0 1 66.9 46.666666L967.506667 586a37.093333 37.093333 0 0 1-1.64 36.293333z"  horiz-adv-x="1024" />

    
    <glyph glyph-name="24gf-cart8" unicode="&#59534;" d="M768-42.66666699999996a42.666667 42.666667 0 1 0-42.666667 42.666667 42.713333 42.713333 0 0 0 42.666667-42.666667z m-426.666667 42.666667a42.666667 42.666667 0 1 1 42.666667-42.666667 42.713333 42.713333 0 0 1-42.666667 42.666667z m625.333334 623.013333a37.226667 37.226667 0 0 1-31.333334 16.986667H174.933333l-47.88 155.606667A21.333333 21.333333 0 0 1 106.666667 810.666667H21.333333a21.333333 21.333333 0 0 1 0-42.666667h69.58l161.586667-525.166667a42.893333 42.893333 0 0 0 1.333333-19.56l-6.453333-38.606666a85.333333 85.333333 0 0 1 84.166667-99.333334H789.333333a21.333333 21.333333 0 0 1 0 42.666667H331.546667a42.666667 42.666667 0 0 0-42.08 49.68l5.94 35.653333h452.333333a85.413333 85.413333 0 0 1 78 50.666667l143.773333 323.5a37.206667 37.206667 0 0 1-2.846666 35.513333z"  horiz-adv-x="1024" />

    
    <glyph glyph-name="24gf-cartFull2" unicode="&#59535;" d="M768-42.66666699999996a42.666667 42.666667 0 1 0-42.666667 42.666667 42.713333 42.713333 0 0 0 42.666667-42.666667z m-426.666667 42.666667a42.666667 42.666667 0 1 1 42.666667-42.666667 42.713333 42.713333 0 0 1-42.666667 42.666667z m630.48 615.926667a37.333333 37.333333 0 0 1-32.613333 24c-0.76 0.04-1.52 0.066667-2.286667 0.066666h-100.48a32 32 0 0 1-7.56 11.96l-144.913333 144.92a32 32 0 0 1-45.253333 0L597.333333 755.5 513.293333 839.54a32 32 0 0 1-45.253333 0L268.493333 640h-97.666666L127.2 795.106667A21.333333 21.333333 0 0 1 106.666667 810.666667H21.333333a21.333333 21.333333 0 0 1 0-42.666667h69.173334l174.5-620.44a85.333333 85.333333 0 0 1 75.16-61.946667c2.306667-0.186667 4.666667-0.28 6.98-0.28h376.5a85.333333 85.333333 0 0 1 79.9 55.373334l168.32 448.853333a37.333333 37.333333 0 0 1-0.053334 26.366667z"  horiz-adv-x="1024" />

    
    <glyph glyph-name="24gf-cartFull3" unicode="&#59536;" d="M384-42.66666699999996a42.666667 42.666667 0 1 0-42.666667 42.666667 42.713333 42.713333 0 0 0 42.666667-42.666667z m341.333333 42.666667a42.666667 42.666667 0 1 1 42.666667-42.666667 42.713333 42.713333 0 0 1-42.666667 42.666667z m241.333334 623.013333a37.226667 37.226667 0 0 1-31.333334 16.986667h-56.28a32 32 0 0 1-7.56 11.96l-144.866666 144.913333a32 32 0 0 1-45.253334 0L640 755.5 555.96 839.54a32 32 0 0 1-45.253333 0L310.22 639.0533330000001a37.333333 37.333333 0 0 1-28.053333-44.486666l75.44-339.466667A53.333333 53.333333 0 0 1 409.666667 213.33333300000004h338.073333a85.413333 85.413333 0 0 1 78 50.666667l143.773333 323.5a37.206667 37.206667 0 0 1-2.846666 35.513333zM789.333333 128H347.146667a42.806667 42.806667 0 0 0-41.066667 31.113333l-178.88 636A21.333333 21.333333 0 0 1 106.666667 810.666667H21.333333a21.333333 21.333333 0 0 1 0-42.666667h69.173334l174.5-620.44A85.333333 85.333333 0 0 1 347.146667 85.33333300000004H789.333333a21.333333 21.333333 0 0 1 0 42.666667z"  horiz-adv-x="1024" />

    
    <glyph glyph-name="24gf-cartFull4" unicode="&#59537;" d="M384-42.66666699999996a42.666667 42.666667 0 1 0-42.666667 42.666667 42.713333 42.713333 0 0 0 42.666667-42.666667z m341.333333 42.666667a42.666667 42.666667 0 1 1 42.666667-42.666667 42.713333 42.713333 0 0 1-42.666667 42.666667z m241.333334 623.013333a37.226667 37.226667 0 0 1-31.333334 16.986667h-98.9a32 32 0 0 1-7.56 11.96l-144.913333 144.913333a32 32 0 0 1-45.253333 0L597.333333 755.5 513.293333 839.54a32 32 0 0 1-45.253333 0L268.493333 640h-97.666666L127.2 795.106667A21.333333 21.333333 0 0 1 106.666667 810.666667H21.333333a21.333333 21.333333 0 0 1 0-42.666667h69.173334l174.5-620.44A85.333333 85.333333 0 0 1 347.146667 85.33333300000004H789.333333a21.333333 21.333333 0 0 1 0 42.666667H347.146667a42.806667 42.806667 0 0 0-41.066667 31.113333L290.826667 213.33333300000004h456.913333a85.413333 85.413333 0 0 1 78 50.666667l143.773333 323.5a37.206667 37.206667 0 0 1-2.846666 35.513333z"  horiz-adv-x="1024" />

    
    <glyph glyph-name="24gf-cartFull" unicode="&#59538;" d="M384-42.66666699999996a42.666667 42.666667 0 1 0-42.666667 42.666667 42.713333 42.713333 0 0 0 42.666667-42.666667z m341.333333 42.666667a42.666667 42.666667 0 1 1 42.666667-42.666667 42.713333 42.713333 0 0 1-42.666667 42.666667z m242.266667 623.933333a37.333333 37.333333 0 0 1-30.666667 16.066667h-53.413333l-164.433333 164.42a21.333333 21.333333 0 0 1-30.173334 0L640 755.5 548.42 847.086667a21.333333 21.333333 0 0 1-30.173333 0L311.16 640h-13.333333a37.333333 37.333333 0 0 1-36.22-46.386667L378 128h-30.853333a42.806667 42.806667 0 0 0-41.066667 31.113333l-178.88 636A21.333333 21.333333 0 0 1 106.666667 810.666667H21.333333a21.333333 21.333333 0 0 1 0-42.666667h69.173334l174.5-620.44A85.333333 85.333333 0 0 1 347.146667 85.33333300000004h376.5a85.333333 85.333333 0 0 1 79.9 55.373334l168.32 448.853333a37.333333 37.333333 0 0 1-4.266667 34.373333z"  horiz-adv-x="1024" />

    
    <glyph glyph-name="24gf-cart" unicode="&#59539;" d="M384-42.66666699999996a42.666667 42.666667 0 1 0-42.666667 42.666667 42.713333 42.713333 0 0 0 42.666667-42.666667z m341.333333 42.666667a42.666667 42.666667 0 1 1 42.666667-42.666667 42.713333 42.713333 0 0 1-42.666667 42.666667z m242.266667 623.933333a37.333333 37.333333 0 0 1-30.666667 16.066667H297.826667a37.333333 37.333333 0 0 1-36.22-46.386667L378 128h-30.853333a42.806667 42.806667 0 0 0-41.066667 31.113333l-178.88 636A21.333333 21.333333 0 0 1 106.666667 810.666667H21.333333a21.333333 21.333333 0 0 1 0-42.666667h69.173334l174.5-620.44A85.333333 85.333333 0 0 1 347.146667 85.33333300000004h376.5a85.333333 85.333333 0 0 1 79.9 55.373334l168.32 448.853333a37.333333 37.333333 0 0 1-4.266667 34.373333z"  horiz-adv-x="1024" />

    
    <glyph glyph-name="24gf-cartFull5" unicode="&#59540;" d="M384-42.66666699999996a42.666667 42.666667 0 1 0-42.666667 42.666667 42.713333 42.713333 0 0 0 42.666667-42.666667z m341.333333 42.666667a42.666667 42.666667 0 1 1 42.666667-42.666667 42.713333 42.713333 0 0 1-42.666667 42.666667z m240.533334 622.293333a37.086667 37.086667 0 0 1-31.753334 17.706667h-55.013333a32 32 0 0 1-7.56 11.96l-144.913333 144.913333a32 32 0 0 1-45.253334 0L640 755.5 555.96 839.54a32 32 0 0 1-45.253333 0L311.16 640H298.666667a21.333333 21.333333 0 0 1-20.553334-27.04L381.133333 242.08000000000004a37.166667 37.166667 0 0 1 35.886667-27.333333 39.053333 39.053333 0 0 1 4.206667 0.233333l335.86 37.333333a85.013333 85.013333 0 0 1 66.9 46.666667L967.506667 586a37.093333 37.093333 0 0 1-1.64 36.293333zM789.333333 128H347.146667a42.806667 42.806667 0 0 0-41.066667 31.113333l-178.88 636A21.333333 21.333333 0 0 1 106.666667 810.666667H21.333333a21.333333 21.333333 0 0 1 0-42.666667h69.173334l174.5-620.44A85.333333 85.333333 0 0 1 347.146667 85.33333300000004H789.333333a21.333333 21.333333 0 0 1 0 42.666667z"  horiz-adv-x="1024" />

    
    <glyph glyph-name="24gf-cartFull8" unicode="&#59541;" d="M384-42.66666699999996a42.666667 42.666667 0 1 0-42.666667 42.666667 42.713333 42.713333 0 0 0 42.666667-42.666667z m341.333333 42.666667a42.666667 42.666667 0 1 1 42.666667-42.666667 42.713333 42.713333 0 0 1-42.666667 42.666667z m241.333334 623.013333a37.226667 37.226667 0 0 1-31.333334 16.986667h-98.9a32 32 0 0 1-7.56 11.96l-144.913333 144.913333a32 32 0 0 1-45.253333 0L597.333333 755.5 513.293333 839.54a32 32 0 0 1-45.253333 0L268.493333 640H174.933333l-47.88 155.606667A21.333333 21.333333 0 0 1 106.666667 810.666667H21.333333a21.333333 21.333333 0 0 1 0-42.666667h69.58l161.586667-525.166667a42.893333 42.893333 0 0 0 1.333333-19.56l-6.453333-38.606666a85.333333 85.333333 0 0 1 84.166667-99.333334H789.333333a21.333333 21.333333 0 0 1 0 42.666667H331.546667a42.666667 42.666667 0 0 0-42.08 49.68l5.94 35.653333h452.333333a85.413333 85.413333 0 0 1 78 50.666667l143.773333 323.5a37.206667 37.206667 0 0 1-2.846666 35.513333z"  horiz-adv-x="1024" />

    
    <glyph glyph-name="24gf-cartFull9" unicode="&#59542;" d="M384-42.66666699999996a42.666667 42.666667 0 1 0-42.666667 42.666667 42.713333 42.713333 0 0 0 42.666667-42.666667z m341.333333 42.666667a42.666667 42.666667 0 1 1 42.666667-42.666667 42.713333 42.713333 0 0 1-42.666667 42.666667z m240.533334 622.293333a37.086667 37.086667 0 0 1-31.753334 17.706667h-55.013333a32 32 0 0 1-7.56 11.96l-144.913333 144.913333a32 32 0 0 1-45.253334 0L640 755.5 555.96 839.54a32 32 0 0 1-45.253333 0L311.16 640H298.666667a21.333333 21.333333 0 0 1-20.553334-27.04L381.133333 242.08000000000004a37.166667 37.166667 0 0 1 35.886667-27.333333 39.053333 39.053333 0 0 1 4.206667 0.233333l335.86 37.333333a85.013333 85.013333 0 0 1 66.9 46.666667L967.506667 586a37.093333 37.093333 0 0 1-1.64 36.293333zM789.333333 128H331.546667a42.666667 42.666667 0 0 0-42.08 49.68l6.426666 38.573333a85.806667 85.806667 0 0 1-2.613333 39.126667L127.053333 795.606667A21.333333 21.333333 0 0 1 106.666667 810.666667H21.333333a21.333333 21.333333 0 0 1 0-42.666667h69.58l161.586667-525.166667a42.893333 42.893333 0 0 0 1.333333-19.56l-6.453333-38.606666a85.333333 85.333333 0 0 1 84.166667-99.333334H789.333333a21.333333 21.333333 0 0 1 0 42.666667z"  horiz-adv-x="1024" />

    
    <glyph glyph-name="24gf-cartFull10" unicode="&#59543;" d="M768-42.66666699999996a42.666667 42.666667 0 1 0-42.666667 42.666667 42.713333 42.713333 0 0 0 42.666667-42.666667z m-426.666667 42.666667a42.666667 42.666667 0 1 1 42.666667-42.666667 42.713333 42.713333 0 0 1-42.666667 42.666667z m624.533334 622.293333a37.086667 37.086667 0 0 1-31.753334 17.706667h-93.28l-164.413333 164.42a21.333333 21.333333 0 0 1-30.173333 0L597.333333 755.5 505.753333 847.086667a21.333333 21.333333 0 0 1-30.173333 0L268.493333 640H174.933333l-47.88 155.606667A21.333333 21.333333 0 0 1 106.666667 810.666667H21.333333a21.333333 21.333333 0 0 1 0-42.666667h69.58l161.586667-525.166667a42.933333 42.933333 0 0 0 1.333333-19.526666v-0.14l-6.453333-38.5a85.333333 85.333333 0 0 1 84.166667-99.333334H789.333333a21.333333 21.333333 0 0 1 0 42.666667H331.546667a42.666667 42.666667 0 0 0-42.08 49.68l3.84 23.073333 463.78 51.533334a85.013333 85.013333 0 0 1 66.9 46.666666L967.506667 586a37.093333 37.093333 0 0 1-1.64 36.293333z"  horiz-adv-x="1024" />

    
    <glyph glyph-name="24gf-cartFull6" unicode="&#59544;" d="M768-42.66666699999996a42.666667 42.666667 0 1 0-42.666667 42.666667 42.713333 42.713333 0 0 0 42.666667-42.666667z m-426.666667 42.666667a42.666667 42.666667 0 1 1 42.666667-42.666667 42.713333 42.713333 0 0 1-42.666667 42.666667z m624.533334 622.293333a37.086667 37.086667 0 0 1-31.753334 17.706667h-97.68a32 32 0 0 1-7.56 11.96l-144.913333 144.913333a32 32 0 0 1-45.253333 0L597.333333 755.5 513.293333 839.54a32 32 0 0 1-45.253333 0L268.493333 640h-97.666666L127.2 795.106667A21.333333 21.333333 0 0 1 106.666667 810.666667H21.333333a21.333333 21.333333 0 0 1 0-42.666667h69.173334l174.5-620.44A85.333333 85.333333 0 0 1 347.146667 85.33333300000004H789.333333a21.333333 21.333333 0 0 1 0 42.666667H347.146667a42.806667 42.806667 0 0 0-41.066667 31.113333l-11.746667 41.753334 462.753334 51.42a85.013333 85.013333 0 0 1 66.9 46.666666L967.506667 586a37.093333 37.093333 0 0 1-1.64 36.293333z"  horiz-adv-x="1024" />

    
    <glyph glyph-name="24gf-debitCard" unicode="&#59545;" d="M981.333333 512H42.666667V597.333333h938.666666zM213.333333 170.66666699999996h213.333334V298.66666699999996H213.333333z m768 469.333333v32a53.393333 53.393333 0 0 1-53.333333 53.333333H96a53.393333 53.393333 0 0 1-53.333333-53.333333v-32z m0-170.666667v-416a53.393333 53.393333 0 0 0-53.333333-53.333333H96a53.393333 53.393333 0 0 0-53.333333 53.333333V469.333333zM469.333333 304a37.373333 37.373333 0 0 1-37.333333 37.333333H208a37.373333 37.373333 0 0 1-37.333333-37.333333v-138.666667a37.373333 37.373333 0 0 1 37.333333-37.333333h224a37.373333 37.373333 0 0 1 37.333333 37.333333z m298.666667-112a21.333333 21.333333 0 0 1-21.333333 21.333333H618.666667a21.333333 21.333333 0 0 1 0-42.666666h128a21.333333 21.333333 0 0 1 21.333333 21.333333z m85.333333 0a21.333333 21.333333 0 1 1-21.333333-21.333333 21.333333 21.333333 0 0 1 21.333333 21.333333z"  horiz-adv-x="1024" />

    
    <glyph glyph-name="24gf-cartFull7" unicode="&#59546;" d="M768-42.66666699999996a42.666667 42.666667 0 1 0-42.666667 42.666667 42.713333 42.713333 0 0 0 42.666667-42.666667z m-426.666667 42.666667a42.666667 42.666667 0 1 1 42.666667-42.666667 42.713333 42.713333 0 0 1-42.666667 42.666667z m625.333334 623.013333a37.226667 37.226667 0 0 1-31.333334 16.986667h-56.28a32 32 0 0 1-7.56 11.96l-144.866666 144.913333a32 32 0 0 1-45.253334 0L640 755.5 555.96 839.54a32 32 0 0 1-45.253333 0L309.84 638.666667a37.333333 37.333333 0 0 1-26.093333-46L378.266667 252.39333299999998a53.486667 53.486667 0 0 1 51.386666-39.06h318.086667a85.413333 85.413333 0 0 1 78 50.666667l143.773333 323.5a37.206667 37.206667 0 0 1-2.846666 35.513333zM789.333333 128H331.546667a42.666667 42.666667 0 0 0-42.08 49.68l6.426666 38.573333a85.806667 85.806667 0 0 1-2.613333 39.126667L127.053333 795.606667A21.333333 21.333333 0 0 1 106.666667 810.666667H21.333333a21.333333 21.333333 0 0 1 0-42.666667h69.58l161.586667-525.166667a42.893333 42.893333 0 0 0 1.333333-19.56l-6.453333-38.606666a85.333333 85.333333 0 0 1 84.166667-99.333334H789.333333a21.333333 21.333333 0 0 1 0 42.666667z"  horiz-adv-x="1024" />

    
    <glyph glyph-name="24gf-tag" unicode="&#59547;" d="M952.46 379.04666699999996l-416 416A52.986667 52.986667 0 0 1 498.746667 810.666667H138.666667a53.393333 53.393333 0 0 1-53.333334-53.333334v-360.08a52.986667 52.986667 0 0 1 15.62-37.713333l416-416a53.333333 53.333333 0 0 1 75.426667 0l360.08 360.08a53.4 53.4 0 0 1 0 75.426667zM426.666667 554.666667a85.333333 85.333333 0 1 0-85.333334 85.333333 85.426667 85.426667 0 0 0 85.333334-85.333333z"  horiz-adv-x="1024" />

    
    <glyph glyph-name="24gf-receipt" unicode="&#59548;" d="M960 853.333333H106.666667a21.333333 21.333333 0 0 1 0-42.666666h64v-874.666667a21.333333 21.333333 0 0 1 30.873333-19.08l76.766667 38.38 97.773333-39.106667a21.333333 21.333333 0 0 1 15.84 0L490.666667-44.30666699999995l98.746666-39.5a21.333333 21.333333 0 0 1 15.84 0l100.266667 40.106667 164-40.993333a21.02 21.02 0 0 1 5.173333-0.666667 21.333333 21.333333 0 0 1 21.333334 21.333333V810.666667h64a21.333333 21.333333 0 0 1 0 42.666666zM320 725.333333h85.333333a21.333333 21.333333 0 0 0 0-42.666666H320a21.333333 21.333333 0 0 0 0 42.666666z m298.666667-426.666666a21.333333 21.333333 0 0 0 21.333333-21.333334v-128a21.333333 21.333333 0 0 0-21.333333-21.333333h-64v-21.333333a21.333333 21.333333 0 0 0-42.666667 0v21.333333h-64a21.333333 21.333333 0 0 0 0 42.666667h149.333333V256H448a21.333333 21.333333 0 0 0-21.333333 21.333333V405.333333a21.333333 21.333333 0 0 0 21.333333 21.333334h64v21.333333a21.333333 21.333333 0 0 0 42.666667 0v-21.333333h64a21.333333 21.333333 0 0 0 0-42.666667H469.333333v-85.333333z m128 256H320a21.333333 21.333333 0 0 0 0 42.666666h426.666667a21.333333 21.333333 0 0 0 0-42.666666z m0 128H490.666667a21.333333 21.333333 0 0 0 0 42.666666h256a21.333333 21.333333 0 0 0 0-42.666666z"  horiz-adv-x="1024" />

    
    <glyph glyph-name="24gf-receipt2" unicode="&#59549;" d="M832 853.333333H149.333333c-58.813333 0-106.666667-47.853333-106.666666-106.666666v-256a21.333333 21.333333 0 0 1 21.333333-21.333334h106.666667V704a21.333333 21.333333 0 0 0 42.666666 0v-768a21.333333 21.333333 0 0 1 30.873334-19.08l76.766666 38.38 97.773334-39.106667a21.333333 21.333333 0 0 1 15.84 0L533.333333-44.30666699999995l98.746667-39.5a21.333333 21.333333 0 0 1 15.84 0l100.266667 40.106667 164-40.993333a21.02 21.02 0 0 1 5.173333-0.666667 21.333333 21.333333 0 0 1 21.333333 21.333333V746.666667C938.666667 805.48 890.813333 853.333333 832 853.333333zM362.666667 725.333333h85.333333a21.333333 21.333333 0 0 0 0-42.666666H362.666667a21.333333 21.333333 0 0 0 0 42.666666z m298.666666-426.666666a21.333333 21.333333 0 0 0 21.333334-21.333334v-128a21.333333 21.333333 0 0 0-21.333334-21.333333h-64v-21.333333a21.333333 21.333333 0 0 0-42.666666 0v21.333333h-64a21.333333 21.333333 0 0 0 0 42.666667h149.333333V256H490.666667a21.333333 21.333333 0 0 0-21.333334 21.333333V405.333333a21.333333 21.333333 0 0 0 21.333334 21.333334h64v21.333333a21.333333 21.333333 0 0 0 42.666666 0v-21.333333h64a21.333333 21.333333 0 0 0 0-42.666667H512v-85.333333z m128 256H362.666667a21.333333 21.333333 0 0 0 0 42.666666h426.666666a21.333333 21.333333 0 0 0 0-42.666666z m0 128H533.333333a21.333333 21.333333 0 0 0 0 42.666666h256a21.333333 21.333333 0 0 0 0-42.666666z"  horiz-adv-x="1024" />

    
    <glyph glyph-name="24gf-tag2" unicode="&#59550;" d="M952.46 336.38l-416 416A52.986667 52.986667 0 0 1 498.746667 768H424.18a361.706667 361.706667 0 0 0 2.486667-42.666667c0-42.713333-7.266667-83.2-20.473334-114-5.146667-12-10.746667-21.546667-16.48-29.08A85.286667 85.286667 0 1 0 341.333333 597.333333c6 0 16.573333 9.64 25.646667 30.806667C377.793333 653.38 384 688.8066670000001 384 725.333333a314.76 314.76 0 0 1-2.873333 42.666667H301.54c2.82 20.533333 7.653333 39.366667 14.146667 54.526667C324.76 843.693333 335.333333 853.333333 341.333333 853.333333s16.573333-9.64 25.646667-30.806666c6.493333-15.16 11.333333-34 14.146667-54.526667h43.053333c-3.166667 26.56-9.286667 51.046667-18 71.333333C385.066667 888.666667 356.486667 896 341.333333 896s-43.733333-7.333333-64.86-56.666667c-8.666667-20.286667-14.82-44.773333-18-71.333333H138.666667a53.393333 53.393333 0 0 1-53.333334-53.333333v-360.08a52.986667 52.986667 0 0 1 15.62-37.713334l416-416a53.333333 53.333333 0 0 1 75.426667 0l360.08 360.08a53.4 53.4 0 0 1 0 75.426667z"  horiz-adv-x="1024" />

    
    <glyph glyph-name="24gf-tags" unicode="&#59551;" d="M867.126867 379.04666699999996l-416 416A52.986667 52.986667 0 0 1 413.413533 810.666667H53.333533a53.393333 53.393333 0 0 1-53.333333-53.333334v-360.08a52.986667 52.986667 0 0 1 15.62-37.713333l416-416a53.333333 53.333333 0 0 1 75.426667 0l360.08 360.08a53.4 53.4 0 0 1 0 75.426667zM341.333533 554.666667a85.333333 85.333333 0 1 0-85.333333 85.333333 85.426667 85.426667 0 0 0 85.333333-85.333333z m653.793334-251.046667l-382.706667-382.706667a21.333333 21.333333 0 0 0-30.173333 30.173334l382.706666 382.706666a10.666667 10.666667 0 0 1 0 15.08L539.5802 774.246667a21.333333 21.333333 0 0 0 30.173333 30.173333l425.373334-425.373333a53.4 53.4 0 0 0 0-75.426667z"  horiz-adv-x="1024" />

    
    <glyph glyph-name="24gf-tags4" unicode="&#59552;" d="M995.126867 260.95333300000004l-360.08-360.08a53.333333 53.333333 0 0 0-71.333334-3.68l356.22 356.22a64 64 0 0 1 0 90.506667L495.8402 768h45.573333a52.986667 52.986667 0 0 0 37.713334-15.62l416-416a53.4 53.4 0 0 0 0-75.426667z m-128 75.426667l-416 416A52.986667 52.986667 0 0 1 413.413533 768H338.846867a361.706667 361.706667 0 0 0 2.486666-42.666667c0-42.713333-7.266667-83.2-20.473333-114-5.146667-12-10.746667-21.546667-16.48-29.08A85.286667 85.286667 0 1 0 256.0002 597.333333c6 0 16.573333 9.64 25.646667 30.806667C292.4602 653.38 298.666867 688.8066670000001 298.666867 725.333333a314.76 314.76 0 0 1-2.873334 42.666667H216.206867c2.82 20.533333 7.653333 39.366667 14.146666 54.526667C239.426867 843.693333 250.0002 853.333333 256.0002 853.333333s16.573333-9.64 25.646667-30.806666c6.493333-15.16 11.333333-34 14.146666-54.526667h43.053334c-3.166667 26.56-9.286667 51.046667-18 71.333333C299.733533 888.666667 271.153533 896 256.0002 896s-43.733333-7.333333-64.86-56.666667c-8.666667-20.286667-14.82-44.773333-18-71.333333H53.333533a53.393333 53.393333 0 0 1-53.333333-53.333333v-360.08a52.986667 52.986667 0 0 1 15.62-37.713334l416-416a53.333333 53.333333 0 0 1 75.426667 0l360.08 360.08a53.4 53.4 0 0 1 0 75.426667z"  horiz-adv-x="1024" />

    
    <glyph glyph-name="24gf-wallet" unicode="&#59553;" d="M746.666667 213.33333300000004h192v-160a53.393333 53.393333 0 0 0-53.333334-53.333333H96a53.393333 53.393333 0 0 0-53.333333 53.333333V682.666667a85.426667 85.426667 0 0 0 85.333333 85.333333h586.666667a53.393333 53.393333 0 0 0 53.333333-53.333333v-32H149.333333a21.333333 21.333333 0 0 1 0-42.666667h736a53.393333 53.393333 0 0 0 53.333334-53.333333v-160h-192c-58.813333 0-106.666667-47.853333-106.666667-106.666667s47.853333-106.666667 106.666667-106.666667z m197.333333 213.333334h-5.333333v-42.666667h-192a64 64 0 0 1 0-128h192v-42.666667h5.333333a37.373333 37.373333 0 0 1 37.333333 37.333334V389.333333a37.373333 37.373333 0 0 1-37.333333 37.333334z"  horiz-adv-x="1024" />

    
    <glyph glyph-name="24gf-tags3" unicode="&#59554;" d="M867.12685 336.38001099999997l-415.999992 415.999992A52.986666 52.986666 0 0 1 413.413525 768.000002H338.84686a361.70666 361.70666 0 0 0 2.486667-42.666665c0-42.713332-7.266667-83.199998-20.473333-113.999998-5.146667-12-10.746666-21.546666-16.48-29.08A85.286665 85.286665 0 1 0 256.000195 597.333339c6 0 16.573333 9.64 25.646666 30.806666C292.460194 653.380005 298.666861 688.806671 298.666861 725.333337a314.759994 314.759994 0 0 1-2.873333 42.666665H216.206862c2.82 20.533333 7.653333 39.366666 14.146667 54.526666C239.426862 843.693334 250.000195 853.333334 256.000195 853.333334s16.573333-9.64 25.646666-30.806666c6.493333-15.16 11.333333-33.999999 14.146667-54.526666h43.053332c-3.166667 26.559999-9.286666 51.046666-18 71.333332C299.733527 888.666667 271.153528 896 256.000195 896s-43.733332-7.333333-64.859999-56.666666c-8.666666-20.286666-14.82-44.773332-17.999999-71.333332H53.333532a53.393332 53.393332 0 0 1-53.333332-53.333332v-360.079993a52.986666 52.986666 0 0 1 15.62-37.713332l415.999992-415.999992a53.333332 53.333332 0 0 1 75.426665 0l360.079993 360.079993a53.399999 53.399999 0 0 1 0 75.426665zM597.333522-127.99998000000005a21.333333 21.333333 0 0 0-15.086667 36.419999l382.706659 382.706659a10.666666 10.666666 0 0 1 0 15.08L539.580189 731.580003a21.333333 21.333333 0 0 0 30.173333 30.173333l425.373325-425.373325a53.399999 53.399999 0 0 0 0-75.426665l-382.706659-382.706659A21.266666 21.266666 0 0 0 597.333522-127.99998000000005z"  horiz-adv-x="1024" />

    
    <glyph glyph-name="24gf-tags2" unicode="&#59555;" d="M995.126867 303.62l-360.08-360.08a53.333333 53.333333 0 0 0-71.333334-3.68l356.22 356.22a64 64 0 0 1 0 90.506667L495.8402 810.666667h45.573333a52.986667 52.986667 0 0 0 37.713334-15.62l416-416a53.4 53.4 0 0 0 0-75.426667z m-128 0l-360.08-360.08a53.333333 53.333333 0 0 0-75.426667 0l-416 416A52.986667 52.986667 0 0 0 0.0002 397.253333V757.333333a53.393333 53.393333 0 0 0 53.333333 53.333334h360.08a52.986667 52.986667 0 0 0 37.713334-15.62l416-416a53.4 53.4 0 0 0 0-75.426667zM341.333533 554.666667a85.333333 85.333333 0 1 1-85.333333-85.333334 85.426667 85.426667 0 0 1 85.333333 85.333334z"  horiz-adv-x="1024" />

    
    <glyph glyph-name="24gf-obelus" unicode="&#59556;" d="M981.333333 362.66666699999996a21.333333 21.333333 0 0 0-21.333333-21.333334H106.666667a21.333333 21.333333 0 0 0 0 42.666667h853.333333a21.333333 21.333333 0 0 0 21.333333-21.333333z m-448-234.666667a106.666667 106.666667 0 1 1 106.666667-106.666667 106.666667 106.666667 0 0 1-106.666667 106.666667z m0 469.333333a106.666667 106.666667 0 1 1-106.666666 106.666667 106.666667 106.666667 0 0 1 106.666666-106.666667z"  horiz-adv-x="1024" />

    
    <glyph glyph-name="24gf-minusCircle" unicode="&#59557;" d="M533.333333 810.666667c-247.426667 0-448-200.573333-448-448s200.573333-448 448-448 448 200.573333 448 448-200.573333 448-448 448z m213.333334-469.333334H320a21.333333 21.333333 0 0 0 0 42.666667h426.666667a21.333333 21.333333 0 0 0 0-42.666667z"  horiz-adv-x="1024" />

    
    <glyph glyph-name="24gf-percent" unicode="&#59558;" d="M847.086667 688.913333l-640-640a21.333333 21.333333 0 0 0-30.173334 30.173334l640 640a21.333333 21.333333 0 1 0 30.173334-30.173334zM746.666667 256a106.666667 106.666667 0 1 1 106.666666-106.666667 106.666667 106.666667 0 0 1-106.666666 106.666667zM277.333333 512a106.666667 106.666667 0 1 1-106.666666 106.666667 106.666667 106.666667 0 0 1 106.666666-106.666667z"  horiz-adv-x="1024" />

    
    <glyph glyph-name="24gf-plusCircle" unicode="&#59559;" d="M533.333333 810.666667c-247.426667 0-448-200.573333-448-448s200.573333-448 448-448 448 200.573333 448 448-200.573333 448-448 448z m213.333334-469.333334H554.666667v-192a21.333333 21.333333 0 0 0-42.666667 0V341.33333300000004H320a21.333333 21.333333 0 0 0 0 42.666667h192V576a21.333333 21.333333 0 0 0 42.666667 0v-192h192a21.333333 21.333333 0 0 0 0-42.666667z"  horiz-adv-x="1024" />

    
    <glyph glyph-name="24gf-heartPulse2" unicode="&#59560;" d="M586.306667 593.106667C557.046667 632.4666669999999 554.666667 659.713333 554.666667 688.76 554.666667 756 609.333333 810.666667 676.573333 810.666667A121.866667 121.866667 0 0 0 768 769.413333 121.866667 121.866667 0 0 0 859.426667 810.666667C926.666667 810.666667 981.333333 756 981.333333 688.76c0-29.046667-2.38-56.293333-31.64-95.653333-26.786667-36-75.426667-82.78-167.88-161.333334a21.333333 21.333333 0 0 0-27.626666 0c-92.453333 78.553333-141.093333 125.306667-167.88 161.333334zM1002.666667 298.66666699999996H576a21.333333 21.333333 0 0 1-20.513333-15.473334l-63.446667-222.06L340.666667 666.506667A21.333333 21.333333 0 0 1 320 682.666667h-0.28a21.333333 21.333333 0 0 1-20.546667-16.706667L217.553333 298.66666699999996H21.333333a21.333333 21.333333 0 0 1 0-42.666667h213.333334a21.333333 21.333333 0 0 1 20.826666 16.706667l65.726667 295.78L470-26.506666999999993a21.333333 21.333333 0 0 1 20.313333-16.16h0.353334a21.333333 21.333333 0 0 1 20.513333 15.473334L592.093333 256H1002.666667a21.333333 21.333333 0 0 1 0 42.666667z"  horiz-adv-x="1024" />

    
    <glyph glyph-name="24gf-heart" unicode="&#59561;" d="M961.206667 654.3199999999999A256.066667 256.066667 0 0 1 512 696.24 256 256 0 0 1 42.666667 554.666667c0-35.96 1.826667-66.606667 10.753333-99.293334 10.06-36.84 28.233333-72.96 57.193333-113.673333 30.993333-43.56 75.62-93.766667 136.44-153.48 63.013333-61.866667 145.153333-135.733333 251.133334-225.806667a21.333333 21.333333 0 0 1 27.626666 0c106 90.073333 188.12 163.94 251.133334 225.806667 60.82 59.713333 105.446667 109.92 136.44 153.48 28.96 40.713333 47.133333 76.833333 57.193333 113.673333 8.926667 32.666667 10.753333 63.333333 10.753333 99.293334a254.433333 254.433333 0 0 1-20.126666 99.653333z"  horiz-adv-x="1024" />

    
    <glyph glyph-name="24gf-heartPulse" unicode="&#59562;" d="M940.513333 384a486.42 486.42 0 0 0-27.126666-42.3c-30.993333-43.56-75.62-93.766667-136.44-153.48-63.013333-61.866667-145.153333-135.733333-251.133334-225.806667a21.333333 21.333333 0 0 0-27.626666 0c-106 90.073333-188.12 163.94-251.133334 225.806667-60.82 59.713333-105.446667 109.92-136.44 153.48A486.42 486.42 0 0 0 83.486667 384H234.666667a21.333333 21.333333 0 0 1 15.086666 6.246667l64.4 64.42 114.766667-229.526667A21.333333 21.333333 0 0 1 448 213.33333300000004h1.126667a21.333333 21.333333 0 0 1 18.873333 13.84L578.8 522.666667l106.12-212.24a21.333333 21.333333 0 0 1 34.166667-5.546667L798.166667 384zM62.98 426.666667h162.853333l79.08 79.086666a21.333333 21.333333 0 0 0 34.166667-5.546666L445.2 287.96666700000003 556 583.493333a21.333333 21.333333 0 0 0 39.053333 2.046667L709.846667 356l64.4 64.406667A21.333333 21.333333 0 0 0 789.333333 426.666667h171.686667a281.12 281.12 0 0 1 9.56 28.733333c8.926667 32.666667 10.753333 63.333333 10.753333 99.293333a256 256 0 0 1-469.333333 141.546667A256 256 0 0 1 42.666667 554.666667c0-35.96 1.826667-66.606667 10.753333-99.293334A281.12 281.12 0 0 1 62.98 426.666667z"  horiz-adv-x="1024" />

    
    <glyph glyph-name="24gf-bookmark" unicode="&#59569;" d="M842.666667 853.333333H181.333333a53.393333 53.393333 0 0 1-53.333333-53.333333v-864a21.333333 21.333333 0 0 1 32.146667-18.386667L512 124.58000000000004l351.853333-206.966667A21.333333 21.333333 0 0 1 896-64V800a53.393333 53.393333 0 0 1-53.333333 53.333333z"  horiz-adv-x="1024" />

    
    <glyph glyph-name="24gf-bookmark2" unicode="&#59570;" d="M832 853.333333H192c-58.813333 0-106.666667-47.853333-106.666667-106.666666v-810.666667a21.333333 21.333333 0 0 1 33.166667-17.753333L426.666667 123.69333300000005l308.166666-205.446666A21.333333 21.333333 0 0 1 768-64V704a21.333333 21.333333 0 0 0 42.666667 0v-234.666667h106.666666a21.333333 21.333333 0 0 1 21.333334 21.333334V746.666667c0 58.813333-47.853333 106.666667-106.666667 106.666666z"  horiz-adv-x="1024" />

    
    <glyph glyph-name="24gf-bookmarkMinus" unicode="&#59571;" d="M618.666667 469.333333h192v-533.333333a21.333333 21.333333 0 0 0-32.146667-18.386667L426.666667 124.58000000000004l-351.853334-206.966667A21.333333 21.333333 0 0 0 42.666667-64V800a53.393333 53.393333 0 0 0 53.333333 53.333333h661.333333a53.393333 53.393333 0 0 0 53.333334-53.333333v-288H618.666667a21.333333 21.333333 0 0 1 0-42.666667z m341.333333 42.666667h-149.333333v-42.666667h149.333333a21.333333 21.333333 0 0 1 0 42.666667z"  horiz-adv-x="1024" />

    
    <glyph glyph-name="24gf-bookmarks2" unicode="&#59572;" d="M938.666667 800v-736a21.333333 21.333333 0 0 0-32.666667-18.093333l-10 6.266666V757.333333a53.393333 53.393333 0 0 1-53.333333 53.333334H257.073333A53.426667 53.426667 0 0 0 309.333333 853.333333h576a53.393333 53.393333 0 0 0 53.333334-53.333333z m-138.666667-32H181.333333a53.393333 53.393333 0 0 1-53.333333-53.333333v-778.666667a21.333333 21.333333 0 0 1 32.666667-18.093333l330 206.266666 330-206.266666a21.333333 21.333333 0 0 1 32.666666 18.093333V714.666667a53.393333 53.393333 0 0 1-53.333333 53.333333z"  horiz-adv-x="1024" />

    
    <glyph glyph-name="24gf-newspaper2" unicode="&#59573;" d="M682.666667 117.33333300000004a53.393333 53.393333 0 0 0 53.333333 53.333334h201.86q0.8 10.6 0.806667 21.333333V800a53.393333 53.393333 0 0 1-53.333334 53.333333H181.333333a53.393333 53.393333 0 0 1-53.333333-53.333333v-832a53.393333 53.393333 0 0 1 53.333333-53.333333h480q10.733333 0 21.333334 0.806666z m-64 565.333334h128a21.333333 21.333333 0 0 0 0-42.666667H618.666667a21.333333 21.333333 0 0 0 0 42.666667z m0-170.666667h128a21.333333 21.333333 0 0 0 0-42.666667H618.666667a21.333333 21.333333 0 0 0 0 42.666667zM298.666667 661.333333a21.333333 21.333333 0 0 0 38 13.333334l132.666666-165.853334V661.333333a21.333333 21.333333 0 0 0 42.666667 0v-213.333333a21.333333 21.333333 0 0 0-38-13.333333L341.333333 600.52V448a21.333333 21.333333 0 0 0-42.666666 0z m21.333333-362.666666h426.666667a21.333333 21.333333 0 0 0 0-42.666667H320a21.333333 21.333333 0 0 0 0 42.666667z m298.666667-213.333334H320a21.333333 21.333333 0 0 0 0 42.666667h298.666667a21.333333 21.333333 0 0 0 0-42.666667z m312.586666 42.666667A277.406667 277.406667 0 0 0 725.333333-77.91999999999996V117.33333300000004a10.666667 10.666667 0 0 0 10.666667 10.666667z"  horiz-adv-x="1024" />

    
    <glyph glyph-name="24gf-newspaper" unicode="&#59574;" d="M885.333333 853.333333H181.333333a53.393333 53.393333 0 0 1-53.333333-53.333333v-832a53.393333 53.393333 0 0 1 53.333333-53.333333h704a53.393333 53.393333 0 0 1 53.333334 53.333333V800a53.393333 53.393333 0 0 1-53.333334 53.333333zM298.666667 661.333333a21.333333 21.333333 0 0 0 38 13.333334l132.666666-165.853334V661.333333a21.333333 21.333333 0 0 0 42.666667 0v-213.333333a21.333333 21.333333 0 0 0-38-13.333333L341.333333 600.52V448a21.333333 21.333333 0 0 0-42.666666 0z m448-576H320a21.333333 21.333333 0 0 0 0 42.666667h426.666667a21.333333 21.333333 0 0 0 0-42.666667z m0 170.666667H320a21.333333 21.333333 0 0 0 0 42.666667h426.666667a21.333333 21.333333 0 0 0 0-42.666667z m0 213.333333H618.666667a21.333333 21.333333 0 0 0 0 42.666667h128a21.333333 21.333333 0 0 0 0-42.666667z m0 170.666667H618.666667a21.333333 21.333333 0 0 0 0 42.666667h128a21.333333 21.333333 0 0 0 0-42.666667z"  horiz-adv-x="1024" />

    
    <glyph glyph-name="24gf-newspaper3" unicode="&#59575;" d="M960 682.666667a21.333333 21.333333 0 0 1-21.333333-21.333334v-640a21.333333 21.333333 0 0 0-42.666667 0V800a53.393333 53.393333 0 0 1-53.333333 53.333333H138.666667a53.393333 53.393333 0 0 1-53.333334-53.333333v-832a53.393333 53.393333 0 0 1 53.333334-53.333333h757.333333a85.426667 85.426667 0 0 1 85.333333 85.333333V661.333333a21.333333 21.333333 0 0 1-21.333333 21.333334zM256 661.333333a21.333333 21.333333 0 0 0 38 13.333334l132.666667-165.853334V661.333333a21.333333 21.333333 0 0 0 42.666666 0v-213.333333a21.333333 21.333333 0 0 0-38-13.333333L298.666667 600.52V448a21.333333 21.333333 0 0 0-42.666667 0z m448-576H277.333333a21.333333 21.333333 0 0 0 0 42.666667h426.666667a21.333333 21.333333 0 0 0 0-42.666667z m0 170.666667H277.333333a21.333333 21.333333 0 0 0 0 42.666667h426.666667a21.333333 21.333333 0 0 0 0-42.666667z m0 213.333333H576a21.333333 21.333333 0 0 0 0 42.666667h128a21.333333 21.333333 0 0 0 0-42.666667z m0 170.666667H576a21.333333 21.333333 0 0 0 0 42.666667h128a21.333333 21.333333 0 0 0 0-42.666667z"  horiz-adv-x="1024" />

    
    </font>
</defs>
</svg>
