<?xml version="1.0" standalone="no"?>
<!DOCTYPE svg PUBLIC "-//W3C//DTD SVG 1.1//EN" "http://www.w3.org/Graphics/SVG/1.1/DTD/svg11.dtd" >
<!--
2013-9-30: Created.
-->
<svg>
<metadata>
Created by iconfont
</metadata>
<defs>

<font id="D3III16glMobius" horiz-adv-x="1024" >
  <font-face
    font-family="D3III16glMobius"
    font-weight="500"
    font-stretch="normal"
    units-per-em="1024"
    ascent="896"
    descent="-128"
  />
    <missing-glyph />
    
    <glyph glyph-name="16gl-1" unicode="&#60292;" d="M672 832H416a32 32 0 0 1-32-32 96.11 96.11 0 0 0-96-96 32 32 0 0 1-32-32v-128a32 32 0 0 1 32-32h96v-544a32 32 0 0 1 32-32h256a32 32 0 0 1 32 32V800a32 32 0 0 1-32 32z m-227.21-64H640v-96.08A159.19 159.19 0 0 1 544 704H415.91a159.33 159.33 0 0 1 28.88 64zM448 512h64v-512h-64z m192-512h-64V528a48.05 48.05 0 0 1-48 48H320v64h224a96.11 96.11 0 0 0 96-96z"  horiz-adv-x="1024" />

    
    <glyph glyph-name="16gl-2" unicode="&#60293;" d="M896 544v64A224 224 0 0 1 672 832H160a32 32 0 0 1-32-32v-256a32 32 0 0 1 32-32h314.43L158.81 143.78999999999996a128.1 128.1 0 0 1-30.81-83.3V-32a32 32 0 0 1 32-32h704a32 32 0 0 1 32 32V224a32 32 0 0 1-32 32H674.58L889 524a32 32 0 0 1 7 20zM672 768a160.15 160.15 0 0 0 140.5-83.5A159 159 0 0 1 736 704H192v64zM192 0v60.49a64 64 0 0 0 15.41 41.65L558.72 512h75.7L295.7 116.83000000000004A32 32 0 0 1 320 64h512v-64z m640 128H389.58l55 64.18a32 32 0 0 1 3.42-0.18h384zM499.29 256l229 267.17A32 32 0 0 1 704 576H192v64h544a96.13 96.13 0 0 0 95.42-85.5L592.62 256z"  horiz-adv-x="1024" />

    
    <glyph glyph-name="16gl-5" unicode="&#60294;" d="M873.52 830.56A31.89 31.89 0 0 1 864 832H160a32 32 0 0 1-32-32v-329.34a224 224 0 0 1 123.82-200.35L280.45 256H160a32 32 0 0 1-32-32v-256a32 32 0 0 1 32-32h448a288 288 0 0 1 288 288v73.34a224 224 0 0 1-123.82 200.35L743.55 512H864a32 32 0 0 1 32 32V800a32 32 0 0 1-22.48 30.56zM832 768v-64H192v64zM192 470.66V640h640v-64H288a32 32 0 0 1-32-32v-79.11a111.1 111.1 0 0 1 61.42-99.38L536.45 256h-112.9l-143.1 71.55A159.13 159.13 0 0 0 192 470.66z m220.62 7.25L678 345.24A47.11 47.11 0 0 0 656.89 256h-18.33a51.49 51.49 0 0 1-27.18 34.09L346 422.76a46.84 46.84 0 0 0-26 42.13V512h65.44a51.49 51.49 0 0 1 27.18-34.09zM608 0H192v64h480a222.38 222.38 0 0 1 122.87 36.64C754.74 40 686 0 608 0z m224 297.34V288c0-88.22-71.78-160-160-160H192v64h464.89a111.11 111.11 0 0 1 49.69 210.49L487.56 512h112.89l143.1-71.55A159.13 159.13 0 0 0 832 297.34000000000003z"  horiz-adv-x="1024" />

    
    <glyph glyph-name="16gl-0" unicode="&#60295;" d="M802.27 738.27A317.89 317.89 0 0 1 576 832H448a320 320 0 0 1-320-320v-256a320 320 0 0 1 320-320h128a320 320 0 0 1 320 320V512a317.89 317.89 0 0 1-93.73 226.27zM192 512c0 141.16 114.84 256 256 256h128c100.29 0 187.28-58 229.25-142.17A285.94 285.94 0 0 1 608 704H480a224 224 0 0 1-224-224v-96c0-105.87 86.13-192 192-192h64a127.3 127.3 0 0 1 52.66 11.34A128.17 128.17 0 0 0 448 128h-32c-123.51 0-224 100.49-224 224z m256-192V448a64 64 0 0 0 128 0v-128a64 64 0 0 0-128 0zM218.75 142.16999999999996A285.94 285.94 0 0 1 416 64h32c105.87 0 192 86.13 192 192V448a127.3 127.3 0 0 1-11.34 52.66A128.18 128.18 0 0 0 704 384v-160c0-123.51-100.49-224-224-224h-32c-100.29 0-187.28 58-229.25 142.17zM832 256c0-100.29-58-187.28-142.17-229.25A285.94 285.94 0 0 1 768 224V384c0 105.87-86.13 192-192 192h-64a128.14 128.14 0 0 1-128-128v-128a127.3 127.3 0 0 1 11.34-52.66A128.18 128.18 0 0 0 320 384v96c0 88.22 71.78 160 160 160h128c123.51 0 224-100.49 224-224z"  horiz-adv-x="1024" />

    
    <glyph glyph-name="16gl-4" unicode="&#60296;" d="M928 448h-96V800a32 32 0 0 1-32 32H590.14a127.36 127.36 0 0 1-99.95-48L156.05 366.28999999999996a128.46 128.46 0 0 1-28.05-80v-127.63a31.92 31.92 0 0 1 11-22.79 32.09 32.09 0 0 1 9.53-5.75h0.22A31.89 31.89 0 0 1 160 128h352v-160a32 32 0 0 1 32-32h256a32 32 0 0 1 32 32V128h96a32 32 0 0 1 32 32V416a32 32 0 0 1-32 32zM192 286.33000000000004a64.27 64.27 0 0 0 14 40L540.17 744a63.66 63.66 0 0 0 50 24H640v-448h-64V640a32 32 0 0 1-57 20L192 251.22000000000003zM457 320l55 68.77V320z m119-320V128h64v-128z m320 192h-64v64h64z m0 128h-96a32 32 0 0 1-32-32v-288h-64V160a32 32 0 0 1-32 32H226.58L512 548.77v-57.54L365.41 308a32 32 0 0 1 25-52H672a32 32 0 0 1 32 32V768h64v-352a32 32 0 0 1 32-32h96z"  horiz-adv-x="1024" />

    
    <glyph glyph-name="16gl-3" unicode="&#60297;" d="M830.39 766.39A222.53 222.53 0 0 1 672 832H160a32 32 0 0 1-32-32v-256a32 32 0 0 1 32-32h352a32.05 32.05 0 0 0 30-20.78l-84.38-84.38-0.09-0.09-0.13-0.12a32 32 0 0 1-6-36.94l28.6-57.24V288a32 32 0 0 0-32-32H160a32 32 0 0 1-32-32v-256a32 32 0 0 1 32-32h448a288 288 0 0 1 288 288 32 32 0 0 1-7 20L781.61 378.21000000000004 883.2 454.4A32 32 0 0 1 896 480V608a222.53 222.53 0 0 1-65.61 158.39zM672 768c73.16 0 135-49.35 154-116.51A207.12 207.12 0 0 1 688 704H192v64zM448 192a96.17 96.17 0 0 1 91.38 66.56l36-45.07A96.14 96.14 0 0 0 480 128H192v64zM192 0v64h288c88.22 0 160 71.78 160 160a32 32 0 0 1-7 20L522.88 381.63l75.75 75.74A32 32 0 0 1 608 480a95.56 95.56 0 0 1-5.49 32H672a32 32 0 0 0 28.92-18.31L588.8 409.6c-0.27-0.2-0.54-0.39-0.8-0.6a32 32 0 0 1-5-45l121-151.23V208c0-114.69-93.31-208-208-208z m495 14.41c0.43 0.42 0.87 0.83 1.29 1.26A270.19 270.19 0 0 1 768 208v16a32 32 0 0 1-7 20L653.61 378.21000000000004 755.2 454.4A32 32 0 0 1 768 480a96.11 96.11 0 0 1-96 96H192v64h496c79.4 0 144-64.6 144-144l-115.2-86.4a32 32 0 0 1-6.4-44.8c0.2-0.27 0.42-0.52 0.62-0.78L831.74 213.10000000000002c-4.38-90.98-63.31-167.89-144.74-198.69z"  horiz-adv-x="1024" />

    
    <glyph glyph-name="16gl-7" unicode="&#60298;" d="M864 832H160a32 32 0 0 1-32-32v-256a32 32 0 0 1 32-32h317.11a1121.38 1121.38 0 0 1-209.28-476.07l-11.31-62.21A32 32 0 0 1 288-64h256a32 32 0 0 1 31.24 25.06l2.76 12.29a1058.45 1058.45 0 0 0 241.56 472.49l44.11 49.62a127.88 127.88 0 0 1 32.33 85V800a32 32 0 0 1-32 32z m-32-64v-64H192v64zM330.79 24.480000000000018A1057.21 1057.21 0 0 0 558.84 512h74.89a1121.64 1121.64 0 0 1-242-502.35l-1.96-9.65h-63.43zM832 580.5a63.92 63.92 0 0 0-16.17-42.5l-44.11-49.62A1122.78 1122.78 0 0 1 518.41 0h-63.36a1057.65 1057.65 0 0 0 240.17 485.38l32.86 37.55A32 32 0 0 1 704 576H192v64h640z"  horiz-adv-x="1024" />

    
    <glyph glyph-name="16gl-6" unicode="&#60299;" d="M811.65 555.65A286.15 286.15 0 0 1 608 640h-68.77L575 792v0.08l0.14 0.59A32 32 0 0 1 544 832H288a32 32 0 0 1-31.15-24.67l-128-544A32.27 32.27 0 0 1 128 256v-32a288 288 0 0 1 288-288h192a288 288 0 0 1 288 288V352a286.15 286.15 0 0 1-84.35 203.65zM313.34 768h62.26L256.85 263.33000000000004A32.27 32.27 0 0 1 256 256v-32a32 32 0 0 1 32-32h256a95.73 95.73 0 0 1 27.87 4.13A96.17 96.17 0 0 0 480 128H288a96.11 96.11 0 0 0-96 96v28.29zM544 320a32 32 0 0 0 0-64h-95.17l15.09 64zM416 0a223.29 223.29 0 0 0-159.77 67.17A160.64 160.64 0 0 1 288 64h192c88.22 0 160 71.78 160 160v64a95.73 95.73 0 0 1-4.13 27.87A96.17 96.17 0 0 0 704 224c0-123.51-100.49-224-224-224z m256 9.32q6 5.34 11.67 11A286.15 286.15 0 0 1 768 224c0 88.22-71.78 160-160 160H438.59a32 32 0 0 1-31.15-24.66L383.07 256h-62.2l120.47 512h62.26l-66-280.67A32 32 0 0 1 468.71 448H608c123.51 0 224-100.49 224-224 0-101.29-67.58-187.08-160-214.68z m139.65 418.33A286.15 286.15 0 0 1 608 512h-98.89l15.06 64H608c101.29 0 187.08-67.58 214.68-160q-5.34 5.93-11.03 11.65z"  horiz-adv-x="1024" />

    
    <glyph glyph-name="16gl-C" unicode="&#60300;" d="M864 832H576a447.66 447.66 0 0 1-448-448v-64a383.71 383.71 0 0 1 384-384h352a32 32 0 0 1 32 32V224a32 32 0 0 1-32 32H512a64.07 64.07 0 0 0-64 64c0 105.87 86.13 192 192 192h224a32 32 0 0 1 32 32V800a32 32 0 0 1-32 32z m-288-64h256v-64H512a382.86 382.86 0 0 1-237-81.8C345.41 711 454.17 768 576 768z m256-576v-64H624a175.75 175.75 0 0 0-137.77 66.61A128.06 128.06 0 0 1 512 192zM384 320v-16a240 240 0 0 1 240-240h208v-64H608c-158.8 0-288 129.2-288 288 0 89.79 53.12 167.4 129.57 203.09A254.12 254.12 0 0 1 384 320z m160 256a288 288 0 0 1-288-288 350.95 350.95 0 0 1 103.1-248.9l0.34-0.33C259.78 93 192 198.76 192 320c0 176.45 143.55 320 320 320h320v-64z"  horiz-adv-x="1024" />

    
    <glyph glyph-name="16gl-D" unicode="&#60301;" d="M929.81 597.48A383.71 383.71 0 0 1 576 832H160a32 32 0 0 1-32-32v-832a32 32 0 0 1 32-32h352a447.66 447.66 0 0 1 448 448v64a381.65 381.65 0 0 1-30.19 149.48zM576 768c176.45 0 320-143.55 320-320S752.45 128 576 128H448v64h128a256 256 0 1 1 0 512H192v64z m-32-256a96.11 96.11 0 0 0 96-96v-32a128.14 128.14 0 0 0-128-128h-64V512zM192 640h384c105.87 0 192-86.13 192-192a192.06 192.06 0 0 0-92.1-163.9A190.79 190.79 0 0 1 704 384v32c0 88.22-71.78 160-160 160H288a32 32 0 0 1-32-32v-544h-64z m320-640H320V512h64v-416a32 32 0 0 1 32-32h160a382.86 382.86 0 0 1 237 81.8C742.59 57 633.83 0 512 0z"  horiz-adv-x="1024" />

    
    <glyph glyph-name="16gl-A" unicode="&#60302;" d="M1021.05-18.590000000000032L654.21 776.23A96.27 96.27 0 0 1 567.05 832H480a32 32 0 0 1-29-18.59l-384-832A32 32 0 0 1 96-64h215.05a96.27 96.27 0 0 1 87.16 55.77l41 88.84 255.45-127.72A160.84 160.84 0 0 1 766.22-64H992a32 32 0 0 1 29 45.41z m-680.94 37.18A32.11 32.11 0 0 0 311.05 0H274l61.21 132.61L382 109.25z m383.17-8.45L438.41 152.57000000000005l-0.16 0.08-103.77 51.89-0.81 0.39a31.83 31.83 0 0 1-24 1.37h-0.05a31.84 31.84 0 0 1-18.53-16.59c-0.06-0.12-0.12-0.25-0.17-0.37L203.53 0H146l354.47 768H558L339 293.40999999999997c-0.05-0.09-0.08-0.18-0.12-0.27a32 32 0 0 1 14.86-41.76l291.2-145.6a32 32 0 0 1 45.91 33.63c1 0.46 0.22 2.4-2.55 8.4L579.24 384 608 446.3 814 0h-47.78a96.41 96.41 0 0 0-42.94 10.14zM544 307.64l47.92-103.82-77.87 38.93zM884.47 0L637.05 536.0799999999999a32 32 0 0 1-58 0.2l-0.1-0.2-122.17-264.69-46.73 23.36L608 723.64 942 0z"  horiz-adv-x="1024" />

    
    <glyph glyph-name="16gl-8" unicode="&#60303;" d="M830.39 766.39A222.53 222.53 0 0 1 672 832H416a288 288 0 0 1-288-288 32 32 0 0 1 2.29-11.88L188 387.74l-54.67-82A32 32 0 0 1 128 288v-128a224 224 0 0 1 224-224h320a224 224 0 0 1 224 224 31.92 31.92 0 0 1-1.64 10.12l-59.81 179.42 58.07 116.15A32 32 0 0 1 896 480V608a222.53 222.53 0 0 1-65.61 158.39zM672 768c73.16 0 135-49.35 154-116.51A207.12 207.12 0 0 1 688 704H544c-88.22 0-160-71.78-160-160a32 32 0 0 1 2.29-11.88L445.94 383l-28.3-84.88A31.92 31.92 0 0 1 416 288a95.56 95.56 0 0 1 5.49-32H352a32.06 32.06 0 0 0-31 23.88l57.39 86.07c0 0.06 0.07 0.12 0.11 0.17l0.09 0.13a31.92 31.92 0 0 1 3.09 29.63L320 550.1600000000001V560c0 114.69 93.31 208 208 208zM544 512a32.07 32.07 0 0 0 31.36-25.69l-60-120a31.93 31.93 0 0 1-1.74-24.43l24.24-72.7A32.07 32.07 0 0 0 512 256a32.05 32.05 0 0 0-31.71 27.68l30.06 90.19a31.81 31.81 0 0 1 0 20.25l-30.07 90.2A32.05 32.05 0 0 0 512 512zM337 753.58l-1.28-1.25A270.19 270.19 0 0 1 256 560v-16a32 32 0 0 1 2.29-11.88L316 387.74l-54.67-82A32 32 0 0 1 256 288a96.11 96.11 0 0 1 96-96h160a95.77 95.77 0 0 1 47.41 12.57l16.3-48.89A32.05 32.05 0 0 0 544 128H336c-79.4 0-144 64.6-144 144v6.31l58.43 87.64c0 0.06 0.07 0.12 0.11 0.17l0.09 0.13a31.92 31.92 0 0 1 3.09 29.63L192.08 550c2.45 93.09 62.01 172.22 144.92 203.58zM352 0c-73.16 0-135 49.35-154 116.51A207.12 207.12 0 0 1 336 64h208a96.11 96.11 0 0 1 96 96 31.92 31.92 0 0 1-1.64 10.12l-59.81 179.42 58.07 116.15A32 32 0 0 1 640 480a95.56 95.56 0 0 1-5.49 32H672a32.06 32.06 0 0 0 31.38-25.69l-60-120a31.93 31.93 0 0 1-1.74-24.43L704 154.80999999999995V144c0-79.4-64.6-144-144-144z m363.49 6A207.14 207.14 0 0 1 768 144v16a31.92 31.92 0 0 1-1.64 10.12l-59.81 179.42 58.07 116.15A32 32 0 0 1 768 480a96.11 96.11 0 0 1-96 96H512a95.64 95.64 0 0 1-63.69-24.23A96.14 96.14 0 0 0 544 640h144c79.4 0 144-64.6 144-144v-8.45l-60.62-121.24a31.86 31.86 0 0 1-1.73-24.45L831.92 155c-2.17-70.94-50.79-130.43-116.43-149z"  horiz-adv-x="1024" />

    
    <glyph glyph-name="16gl-comma" unicode="&#60304;" d="M608 448H352a32 32 0 0 1-32-32v-256a32 32 0 0 1 32-32h94.81a95.4 95.4 0 0 0-51.88-70.76l-57.24-28.62A32 32 0 0 1 320 0v-32a32 32 0 0 1 32-32h32a256.15 256.15 0 0 1 251.43 207.51A31.85 31.85 0 0 1 640 160V416a32 32 0 0 1-32 32zM384 256h64v-64h-64z m52.66-248.66A160 160 0 0 1 512 143.11V288a32 32 0 0 1-32 32h-96v64h192v-192c0-87.62-59-161.71-139.34-184.66z"  horiz-adv-x="1024" />

    
    <glyph glyph-name="16gl-B" unicode="&#60305;" d="M834.55 418.46l59.81 179.42A31.92 31.92 0 0 1 896 608 224 224 0 0 1 672 832H160a32 32 0 0 1-32-32v-832a32 32 0 0 1 32-32h512a224 224 0 0 1 224 224V288a32 32 0 0 1-3.38 14.31zM831.92 613l-62.27-186.86v-0.05c-1.39-4.19-1.87-6.46-1.54-7.6a31.89 31.89 0 0 1 3.29-16.8L832 280.45000000000005V272c0-79.4-64.6-144-144-144H320V512h64v-288a32 32 0 0 1 32-32h256a96.11 96.11 0 0 1 96 96 32 32 0 0 1-3.38 14.31l-58.07 116.15 59.81 179.42A31.92 31.92 0 0 1 768 608v16a207.14 207.14 0 0 1-52.51 138c65.64-18.57 114.26-78.06 116.43-149zM512 416a31.85 31.85 0 0 1 3.38-14.29l60-120A32.06 32.06 0 0 0 544 256h-96V512h32a32 32 0 0 0 32-32v-64z m48 352c79.4 0 144-64.6 144-144v-10.81l-62.35-187.05v-0.05c-1.39-4.19-1.87-6.46-1.54-7.6a31.89 31.89 0 0 1 3.29-16.8l60-120A32.06 32.06 0 0 0 672 256h-37.49a95.56 95.56 0 0 1 5.49 32 32 32 0 0 1-3.38 14.31l-58.07 116.15 59.81 179.42A31.92 31.92 0 0 1 640 608a96.11 96.11 0 0 1-96 96H192v64z m112-768H192V640h352a32.05 32.05 0 0 0 31.71-27.68l-23.17-69.51A95.8 95.8 0 0 1 480 576H288a32 32 0 0 1-32-32v-448a32 32 0 0 1 32-32h400a207.12 207.12 0 0 1 138 52.51C807 49.35000000000002 745.16 0 672 0z"  horiz-adv-x="1024" />

    
    <glyph glyph-name="16gl-exclamation" unicode="&#60306;" d="M608 832H352a32 32 0 0 1-32-32v-576a32 32 0 0 1 32-32h256a32 32 0 0 1 32 32V800a32 32 0 0 1-32 32z m-32-64v-64h-96a159.19 159.19 0 0 1-96-32.08V768z m0-512h-64V512h64z m-80 320a48.05 48.05 0 0 1-48-48v-272h-64V544a96.11 96.11 0 0 0 96 96h96v-64z m112-448H352a32 32 0 0 1-32-32v-128a32 32 0 0 1 32-32h256a32 32 0 0 1 32 32V96a32 32 0 0 1-32 32z m-32-128H384v64h192z"  horiz-adv-x="1024" />

    
    <glyph glyph-name="16gl-ellipsis" unicode="&#60307;" d="M224 256H32a32 32 0 0 1-32-32v-256a32 32 0 0 1 32-32h192a32 32 0 0 1 32 32V224a32 32 0 0 1-32 32z m-32-64v-64H64v64zM64 64h128v-64H64z m544 192H416a32 32 0 0 1-32-32v-256a32 32 0 0 1 32-32h192a32 32 0 0 1 32 32V224a32 32 0 0 1-32 32z m-32-64v-64H448v64zM448 64h128v-64H448z m544 192H800a32 32 0 0 1-32-32v-256a32 32 0 0 1 32-32h192a32 32 0 0 1 32 32V224a32 32 0 0 1-32 32z m-32-64v-64H832v64zM832 64h128v-64H832z"  horiz-adv-x="1024" />

    
    <glyph glyph-name="16gl-F" unicode="&#60308;" d="M864 832H256a128.14 128.14 0 0 1-128-128v-736a32 32 0 0 1 32-32h256a32 32 0 0 1 32 32V128h416a32 32 0 0 1 32 32V416a32 32 0 0 1-32 32H448v64h416a32 32 0 0 1 32 32V800a32 32 0 0 1-32 32z m-608-64h576v-64H256a127.23 127.23 0 0 1-64-17.18V704a64.07 64.07 0 0 0 64 64z m192-576v64h384v-64z m-32 192h416v-64H416a32 32 0 0 1-32-32v-288h-64V512h64v-96a32 32 0 0 1 32-32zM288 576a32 32 0 0 1-32-32v-544h-64V576a64.07 64.07 0 0 0 64 64h576v-64z"  horiz-adv-x="1024" />

    
    <glyph glyph-name="16gl-colon" unicode="&#60309;" d="M608 256H352a32 32 0 0 1-32-32v-256a32 32 0 0 1 32-32h256a32 32 0 0 1 32 32V224a32 32 0 0 1-32 32z m-32-128h-64v64h64zM384 0V192h64v-96a32 32 0 0 1 32-32h96v-64z m224 704H352a32 32 0 0 1-32-32v-256a32 32 0 0 1 32-32h256a32 32 0 0 1 32 32V672a32 32 0 0 1-32 32z m-32-64v-192h-64v96a32 32 0 0 1-32 32h-96v64zM384 512h64v-64h-64z"  horiz-adv-x="1024" />

    
    <glyph glyph-name="16gl-E" unicode="&#60310;" d="M864 832H256a128.14 128.14 0 0 1-128-128v-640a128.14 128.14 0 0 1 128-128h608a32 32 0 0 1 32 32V448a32 32 0 0 1-32 32H448v32h416a32 32 0 0 1 32 32V800a32 32 0 0 1-32 32z m-608-64h576v-64H256a127.23 127.23 0 0 1-64-17.18V704a64.07 64.07 0 0 0 64 64z m576-544H448v64h384z m-384-64h384v-32H448z m-32 256h416v-64H416a32 32 0 0 1-32-32v-224a32 32 0 0 1 32-32h416v-64H384a64.07 64.07 0 0 0-64 64V512h64v-64a32 32 0 0 1 32-32zM288 576a32 32 0 0 1-32-32v-480a127.23 127.23 0 0 1 17.18-64H256a64.07 64.07 0 0 0-64 64V576a64.07 64.07 0 0 0 64 64h576v-64z"  horiz-adv-x="1024" />

    
    <glyph glyph-name="16gl-9" unicode="&#60311;" d="M811.65 747.65A286.15 286.15 0 0 1 608 832H416a288 288 0 0 1-288-288v-128a288 288 0 0 1 288-288h68.77l-35.92-152.67A32 32 0 0 1 480-64h256a32 32 0 0 1 31.15 24.67l128 544A32.27 32.27 0 0 1 896 512v32a286.15 286.15 0 0 1-84.35 203.65zM416 768h128c88.22 0 160-71.78 160-160v-92.29L582.66 0H520.4l66 280.67a32 32 0 0 1-36.81 38.83 32.65 32.65 0 0 1-5.59 0.5H416a96 96 0 0 0-27.87 187.87A95.73 95.73 0 0 1 384 480v-40a56.06 56.06 0 0 1 56-56h145.44a32 32 0 0 1 31.12 24.68l22.59 96A32.27 32.27 0 0 1 640 512v64a128.14 128.14 0 0 1-128 128h-96a286.15 286.15 0 0 1-203.65-84.35q-5.7-5.7-11-11.67C228.92 700.42 314.71 768 416 768z m159.13-256l-15.06-64H448v32a32 32 0 0 0 32 32zM416 192c-123.51 0-224 100.49-224 224s100.49 224 224 224h96a64.07 64.07 0 0 0 64-64H416c-88.22 0-160-71.78-160-160s71.78-160 160-160h98.89l-15.06-64z m416 323.71L710.66 0H648.4l118.75 504.67A32.27 32.27 0 0 1 768 512v96a222.38 222.38 0 0 1-36.64 122.87C792 690.74 832 622 832 544z"  horiz-adv-x="1024" />

    
    <glyph glyph-name="16gl-G" unicode="&#60312;" d="M864 832H576a447.66 447.66 0 0 1-448-448v-64a383.71 383.71 0 0 1 384-384h352a32 32 0 0 1 32 32V352a32 32 0 0 1-32 32H608a32 32 0 0 1-32-32v-96h-64a64.07 64.07 0 0 0-64 64c0 105.87 86.13 192 192 192h224a32 32 0 0 1 32 32V800a32 32 0 0 1-32 32z m-288-64h256v-64H512a382.86 382.86 0 0 1-237-81.8C345.41 711 454.17 768 576 768z m64-448h64v-64h-64z m96-128a32 32 0 0 1 32 32v96h64v-192H624a175.75 175.75 0 0 0-137.77 66.61A128.06 128.06 0 0 1 512 192zM384 320v-16a240 240 0 0 1 240-240h208v-64H608c-158.8 0-288 129.2-288 288 0 89.79 53.12 167.4 129.57 203.09A254.12 254.12 0 0 1 384 320z m160 256a288 288 0 0 1-288-288 350.95 350.95 0 0 1 103.1-248.9l0.34-0.33C259.78 93 192 198.76 192 320c0 176.45 143.55 320 320 320h320v-64z"  horiz-adv-x="1024" />

    
    <glyph glyph-name="16gl-I" unicode="&#60313;" d="M672 832H416a32 32 0 0 1-32-32v-832a32 32 0 0 1 32-32h256a32 32 0 0 1 32 32V800a32 32 0 0 1-32 32z m-32-64v-64h-96a159.19 159.19 0 0 1-96-32.08V768z m0-768h-64V512h64z m-80 576a48.05 48.05 0 0 1-48-48v-528h-64V544a96.11 96.11 0 0 0 96 96h96v-64z"  horiz-adv-x="1024" />

    
    <glyph glyph-name="16gl-hyphen" unicode="&#60314;" d="M800 512H224a32 32 0 0 1-32-32v-256a32 32 0 0 1 32-32h576a32 32 0 0 1 32 32V480a32 32 0 0 1-32 32z m-544-64h96.08A159.19 159.19 0 0 1 320 352v-96h-64z m192-112v-80h-64v96a96.11 96.11 0 0 0 96 96h288v-64H496a48.05 48.05 0 0 1-48-48z m320-80H512v64h256z"  horiz-adv-x="1024" />

    
    <glyph glyph-name="16gl-H" unicode="&#60315;" d="M864 832H608a32 32 0 0 1-32-32v-224H448V800a32 32 0 0 1-32 32H160a32 32 0 0 1-32-32v-832a32 32 0 0 1 32-32h256a32 32 0 0 1 32 32V256h128v-288a32 32 0 0 1 32-32h256a32 32 0 0 1 32 32V800a32 32 0 0 1-32 32z m-160-64v-192h-64V768z m-512 0h64v-768h-64z m224-448a32 32 0 0 1-32-32v-288h-64V768h64v-320a64.07 64.07 0 0 1 64-64h96a32 32 0 0 0 32-32v-32z m224 32a95.56 95.56 0 0 1-5.49 32H704v-384h-64z m192-352h-64V384a64.07 64.07 0 0 1-64 64H448v64h288a32 32 0 0 1 32 32V768h64z"  horiz-adv-x="1024" />

    
    <glyph glyph-name="16gl-J" unicode="&#60316;" d="M864 832H608a32 32 0 0 1-32-32v-480a64 64 0 0 0-128 0v96a32 32 0 0 1-32 32H160a32 32 0 0 1-32-32v-128a351.72 351.72 0 0 1 352-352h64a351.72 351.72 0 0 1 352 352V800a32 32 0 0 1-32 32z m-224-64h64v-368a144.1 144.1 0 0 0-72.06-124.71A127.35 127.35 0 0 1 640 320zM512 192h48c114.69 0 208 93.31 208 208V768h64v-384c0-141.16-114.84-256-256-256a128.17 128.17 0 0 0-116.66 75.34A127.3 127.3 0 0 1 512 192z m-320 96v96h64v-160a285.9 285.9 0 0 1 54.53-168.71C238.74 107.72000000000003 192 192.5 192 288z m352-288c-123.51 0-224 100.49-224 224V384h64v-128c0-105.87 86.13-192 192-192a317.84 317.84 0 0 1 223.29 90.81C751.13 62.879999999999995 654.78 0 544 0z"  horiz-adv-x="1024" />

    
    <glyph glyph-name="16gl-L" unicode="&#60317;" d="M864 256H448V800a32 32 0 0 1-32 32H160a32 32 0 0 1-32-32v-736a128.14 128.14 0 0 1 128-128h608a32 32 0 0 1 32 32V224a32 32 0 0 1-32 32z m-32-64v-64H448v64zM192 64V768h64v-704a127.23 127.23 0 0 1 17.18-64H256a64.07 64.07 0 0 0-64 64z m192-64a64.07 64.07 0 0 0-64 64V768h64v-672a32 32 0 0 1 32-32h416v-64z"  horiz-adv-x="1024" />

    
    <glyph glyph-name="16gl-O" unicode="&#60318;" d="M866.27 738.27A317.91 317.91 0 0 1 640 832H384A320 320 0 0 1 64 512v-256a320 320 0 0 1 320-320h256a320 320 0 0 1 320 320V512a317.89 317.89 0 0 1-93.73 226.27zM128 512c0 141.16 114.84 256 256 256h256c100.29 0 187.28-58 229.25-142.17A285.94 285.94 0 0 1 672 704H416a224 224 0 0 1-224-224v-96c0-105.87 86.13-192 192-192h192a127.3 127.3 0 0 1 52.66 11.34A128.18 128.18 0 0 0 512 128H352c-123.51 0-224 100.49-224 224z m256-192V448a64.07 64.07 0 0 0 64 64h128a64.07 64.07 0 0 0 64-64v-128a64.07 64.07 0 0 0-64-64H448a64.07 64.07 0 0 0-64 64z m0-320c-100.29 0-187.28 58-229.25 142.17A285.94 285.94 0 0 1 352 64h160c105.87 0 192 86.13 192 192V448a127.3 127.3 0 0 1-11.34 52.66A128.18 128.18 0 0 0 768 384v-160c0-123.51-100.49-224-224-224z m512 256c0-100.29-58-187.28-142.17-229.25A285.94 285.94 0 0 1 832 224V384c0 105.87-86.13 192-192 192H448a128.14 128.14 0 0 1-128-128v-128a127.3 127.3 0 0 1 11.34-52.66A128.18 128.18 0 0 0 256 384v96c0 88.22 71.78 160 160 160h256c123.51 0 224-100.49 224-224z"  horiz-adv-x="1024" />

    
    <glyph glyph-name="16gl-N" unicode="&#60319;" d="M864 832H608a32 32 0 0 1-32-32v-242.74L338.75 794.51A127.15 127.15 0 0 1 248.24 832H160a32 32 0 0 1-32-32v-832a32 32 0 0 1 32-32h256a32 32 0 0 1 32 32V210.75l237.25-237.26A127.15 127.15 0 0 1 775.76-64H864a32 32 0 0 1 32 32V800a32 32 0 0 1-32 32z m-160-64v-530.75l-64 64V768z m-512 0h56.24a64.54 64.54 0 0 0 7.76-0.48V0h-64z m192-768h-64V722.75l256-256v-101.5L438.63 502.63A32 32 0 0 1 384 480v-480z m448 0h-56.24a63.58 63.58 0 0 0-45.25 18.75L448 301.26V402.75l137.37-137.37 128-128A32 32 0 0 1 768 160V768h64z"  horiz-adv-x="1024" />

    
    <glyph glyph-name="16gl-P" unicode="&#60320;" d="M811.65 747.65A286.15 286.15 0 0 1 608 832H160a32 32 0 0 1-32-32v-832a32 32 0 0 1 32-32h256a32 32 0 0 1 32 32V128h160a288 288 0 0 1 288 288V544a286.15 286.15 0 0 1-84.35 203.65zM608 768c123.51 0 224-100.49 224-224S731.51 320 608 320H416a32 32 0 0 1-32-32v-288h-64V512h64v-96a32 32 0 0 1 32-32h192c88.22 0 160 71.78 160 160s-71.78 160-160 160H192v64z m-32-288a32 32 0 0 0-32-32h-96v64h128zM192 640h416a96 96 0 0 0 27.87-187.87A95.78 95.78 0 0 1 640 480v40a56.06 56.06 0 0 1-56 56H288a32 32 0 0 1-32-32v-544h-64z m416-448H448v64h160a286.15 286.15 0 0 1 203.65 84.35q5.7 5.7 11 11.67C795.08 259.58000000000004 709.29 192 608 192z"  horiz-adv-x="1024" />

    
    <glyph glyph-name="16gl-period" unicode="&#60321;" d="M608 256H352a32 32 0 0 1-32-32v-256a32 32 0 0 1 32-32h256a32 32 0 0 1 32 32V224a32 32 0 0 1-32 32z m-32-64v-192h-64v96a32 32 0 0 1-32 32h-96v64zM384 64h64v-64h-64z"  horiz-adv-x="1024" />

    
    <glyph glyph-name="16gl-M" unicode="&#60322;" d="M937.52 830.56A31.89 31.89 0 0 1 928 832h-91.5a127.88 127.88 0 0 1-85-32.33L512 586.81 272.54 799.67l-0.13 0.11-0.52 0.47-1 0.88A127.86 127.86 0 0 1 187.5 832H96a32 32 0 0 1-32-32v-832a32 32 0 0 1 32-32h256a32 32 0 0 1 32 32V295l106.74-94.88a32 32 0 0 1 42.52 0L640 295v-327a32 32 0 0 1 32-32h256a32 32 0 0 1 32 32V800a32 32 0 0 1-22.48 30.56zM192 0h-64V768h59.5c1.55 0 3.09-0.06 4.63-0.17-0.09-1.14-0.13-2.3-0.13-3.46z m128 0h-64V728.74l234.74-208.66a32 32 0 0 1 7.63-5q-15.19-24.68-29.08-50.26l-96 85.36A32 32 0 0 1 320 526.22z m64 455l73.42-65.26a32 32 0 0 1 50 9.53l2.58 5.23a987.52 987.52 0 0 0 228.25 297.8L794 751.83A63.92 63.92 0 0 0 836.5 768h43.33l-84.9-75.47a1051.24 1051.24 0 0 1-242.93-317l-49.94-99.87L384 380.59000000000003z m320-455V351.85l64 56.89V0z m192 0h-64V480a32 32 0 0 1-53 24.1l-0.22-0.18-163.67-145.45A987.37 987.37 0 0 0 837.45 644.7l58.55 52z"  horiz-adv-x="1024" />

    
    <glyph glyph-name="16gl-questionMark" unicode="&#60323;" d="M832 544A288 288 0 0 1 544 832h-64a351.75 351.75 0 0 1-352-352v-64a32 32 0 0 1 32-32h256a32 32 0 0 1 32 32v32a64.11 64.11 0 0 0 47.92 61.95L386.29 235.88A32 32 0 0 1 416 192h256a32 32 0 0 1 29.71 20.12l128 320A32 32 0 0 1 832 544z m-640-64c0 95.5 46.74 180.28 118.53 232.71A285.9 285.9 0 0 1 256 544v-96h-64z m192 32v-64h-64v96c0 123.51 100.49 224 224 224a223.29 223.29 0 0 0 159.77-67.17A160.64 160.64 0 0 1 672 704h-96c-105.87 0-192-86.13-192-192z m181.66 0h59.08l-102.4-256h-59.07z m84.67-256h-59.07l110.45 276.11A32 32 0 0 1 672 576H512a127.3 127.3 0 0 1-52.66-11.34A128.17 128.17 0 0 0 576 640h96a96.12 96.12 0 0 0 95.83-90.26zM672 128H416a32 32 0 0 1-32-32v-128a32 32 0 0 1 32-32h256a32 32 0 0 1 32 32V96a32 32 0 0 1-32 32z m-32-128H448v64h192z"  horiz-adv-x="1024" />

    
    <glyph glyph-name="16gl-Q" unicode="&#60324;" d="M1024 96.46000000000004V224a32 32 0 0 1-24.24 31L960 265V512A320 320 0 0 1 640 832H384A320 320 0 0 1 64 512v-256a320 320 0 0 1 320-320h224a31 31 0 0 1 4 0.25l250 31.26L984.24-63a31.53 31.53 0 0 1 7.76-1 32 32 0 0 1 32 32V96.46000000000004zM384 448a64.07 64.07 0 0 0 64 64h128a64.07 64.07 0 0 0 64-64v-128a64.07 64.07 0 0 0-64-64H448a64.07 64.07 0 0 0-64 64z m64-256h160a31 31 0 0 1 4 0.25l250 31.26L960 199v-62l-88.24 22a32 32 0 0 1-11.73 0.71L606 128h-94a128.18 128.18 0 0 0-116.66 75.34A127.3 127.3 0 0 1 448 192z m-64 576h256c141.16 0 256-114.84 256-256v-231l-24.24 6a32 32 0 0 1-11.73 0.71l-28-3.5V480A224 224 0 0 1 608 704H352a285.94 285.94 0 0 1-197.25-78.17C196.72 710 283.71 768 384 768zM128 256V416c0 123.51 100.49 224 224 224h256c88.22 0 160-71.78 160-160v-203.75l-75.58-9.45A127.36 127.36 0 0 1 704 320V448a128.14 128.14 0 0 1-128 128H384c-105.87 0-192-86.13-192-192v-160a285.94 285.94 0 0 1 78.17-197.25C186 68.72000000000003 128 155.71000000000004 128 256z m743.76-225a32 32 0 0 1-11.73 0.71L606 0H480c-123.51 0-224 100.49-224 224V384a128.18 128.18 0 0 0 75.34 116.66A127.3 127.3 0 0 1 320 448v-192c0-105.87 86.13-192 192-192h96a31 31 0 0 1 4 0.25l250 31.26L960 71v-62z"  horiz-adv-x="1024" />

    
    <glyph glyph-name="16gl-R" unicode="&#60325;" d="M811.65 747.65A286.15 286.15 0 0 1 608 832H160a32 32 0 0 1-32-32v-832a32 32 0 0 1 32-32h256a32 32 0 0 1 32 32V512h96a32 32 0 0 0 32-32v-50.75l-54.63-54.62a32 32 0 0 1-7.08-34.51l41.11-102.79a286.68 286.68 0 0 0 20.6-107V-32a32 32 0 0 1 32-32h256a32 32 0 0 1 32 32V130.37a350.33 350.33 0 0 1-25.18 130.73l-33.27 83.19 49.08 49.08A32 32 0 0 1 896 416V544a286.15 286.15 0 0 1-84.35 203.65z m-16.78-80.29A222.38 222.38 0 0 1 672 704H416a32 32 0 0 1-32-32v-672h-64V768h288c78 0 146.74-40.05 186.87-100.64zM192 768h64v-768h-64z m512-338.75l-54.63-54.62a32 32 0 0 1-7.08-34.51l41.11-102.79a286.68 286.68 0 0 0 20.6-107V0h-64V130.37a350.33 350.33 0 0 1-25.18 130.73l-33.27 83.19 49.08 49.08A32 32 0 0 1 640 416v64a95.56 95.56 0 0 1-5.49 32H672a32 32 0 0 0 32-32z m128 0l-54.63-54.62a32 32 0 0 1-7.08-34.51l41.11-102.79a286.68 286.68 0 0 0 20.6-107V0h-64V130.37a350.33 350.33 0 0 1-25.18 130.73l-33.27 83.19 49.08 49.08A32 32 0 0 1 768 416v64a96.11 96.11 0 0 1-96 96H448v64h224c88.22 0 160-71.78 160-160z"  horiz-adv-x="1024" />

    
    <glyph glyph-name="16gl-quoteRight" unicode="&#60326;" d="M416 832H160a32 32 0 0 1-32-32v-256a32 32 0 0 1 32-32h94.81a95.4 95.4 0 0 0-51.88-70.76l-57.24-28.62A32 32 0 0 1 128 384v-32a32 32 0 0 1 32-32h32a256.15 256.15 0 0 1 251.43 207.51A31.85 31.85 0 0 1 448 544V800a32 32 0 0 1-32 32zM192 640h64v-64h-64z m52.66-248.66A160 160 0 0 1 320 527.11V672a32 32 0 0 1-32 32h-96v64h192v-192c0-87.61-59-161.71-139.34-184.66zM864 832H608a32 32 0 0 1-32-32v-256a32 32 0 0 1 32-32h94.81a95.37 95.37 0 0 0-51.88-70.76l-57.24-28.62A32 32 0 0 1 576 384v-32a32 32 0 0 1 32-32h32a256.15 256.15 0 0 1 251.43 207.51A31.85 31.85 0 0 1 896 544V800a32 32 0 0 1-32 32zM640 640h64v-64h-64z m52.66-248.66A160 160 0 0 1 768 527.11V672a32 32 0 0 1-32 32h-96v64h192v-192c0-87.61-59-161.71-139.34-184.66z"  horiz-adv-x="1024" />

    
    <glyph glyph-name="16gl-K" unicode="&#60327;" d="M676.34 384l215.83 400.83A32 32 0 0 1 864 832H646.23a95.89 95.89 0 0 1-84.53-50.49l-49.7-92.3-49.7 92.3A95.89 95.89 0 0 1 377.77 832H160a32 32 0 0 1-32-32v-832a32 32 0 0 1 32-32h217.77a95.87 95.87 0 0 1 84.53 50.49l49.7 92.3 49.7-92.3A95.87 95.87 0 0 1 646.23-64H864a32 32 0 0 1 28.17 47.17z m78.77 384h55.31L640 451.5l-27.66 51.36zM192 768h76.89l206.77-384L448 332.64l-3.73 6.93-0.27 0.43-127.74 237.3a32 32 0 0 1-60.26-15V0h-64z m454.23-768a32 32 0 0 0-28.18 16.83l-69.71 129.46L576 197.64999999999998 682.42 0z m108.88 0L604.35 280a1.09 1.09 0 0 1-0.08 0.15l-0.1 0.18a32 32 0 0 1-56.34 0l-64-118.84-0.1-0.2-0.07-0.13L406 16.83000000000004A32 32 0 0 0 377.77 0H320V435.36l64-118.86v-110.79a32 32 0 0 1 60.27-15l32 59.44a1.09 1.09 0 0 1 0.08 0.15l63.82 118.53a0.21 0.21 0 0 1 0 0.06 32 32 0 0 1 0 30.28L341.58 768h36.19A32 32 0 0 0 406 751.17l77.67-144.24A32 32 0 0 1 512 589.71a32 32 0 0 1 28.38 17.22l77.67 144.24A32 32 0 0 0 646.23 768h36.19L547.83 518a32 32 0 0 1 0-30.28 0.21 0.21 0 0 1 0-0.06l63.82-118.53a1.09 1.09 0 0 1 0.08-0.15l0.1-0.18L810.42 0z"  horiz-adv-x="1024" />

    
    <glyph glyph-name="16gl-quoteLeft" unicode="&#60328;" d="M821.07 710.76l57.24 28.62A32 32 0 0 1 896 768V800a32 32 0 0 1-32 32h-32a256.15 256.15 0 0 1-251.43-207.51A31.85 31.85 0 0 1 576 608v-256a32 32 0 0 1 32-32h256a32 32 0 0 1 32 32V608a32 32 0 0 1-32 32h-94.81a95.37 95.37 0 0 0 51.88 70.76zM832 512h-64v64h64zM727.9 709a159.84 159.84 0 0 1-23.9-84.11V480a32 32 0 0 1 32-32h96v-64H640V576c0 87.61 59 161.71 139.34 184.66A159.85 159.85 0 0 1 727.9 709zM416 832h-32a256.15 256.15 0 0 1-251.43-207.51A31.85 31.85 0 0 1 128 608v-256a32 32 0 0 1 32-32h256a32 32 0 0 1 32 32V608a32 32 0 0 1-32 32h-94.81a95.4 95.4 0 0 0 51.88 70.76l57.24 28.62A32 32 0 0 1 448 768V800a32 32 0 0 1-32 32z m-32-320h-64v64h64zM279.9 709a159.84 159.84 0 0 1-23.9-84.11V480a32 32 0 0 1 32-32h96v-64H192V576c0 87.61 59 161.71 139.34 184.66A159.75 159.75 0 0 1 279.9 709z"  horiz-adv-x="1024" />

    
    <glyph glyph-name="16gl-T" unicode="&#60329;" d="M928 832H160a32 32 0 0 1-32-32v-256a32 32 0 0 1 32-32h224v-544a32 32 0 0 1 32-32h256a32 32 0 0 1 32 32V512h224a32 32 0 0 1 32 32V800a32 32 0 0 1-32 32z m-32-64v-64H192v64zM448 512h64v-512h-64z m192-512h-64V544a32 32 0 0 1-32 32H192v64h384a64.07 64.07 0 0 0 64-64z m64 576a127.23 127.23 0 0 1-17.18 64H896v-64z"  horiz-adv-x="1024" />

    
    <glyph glyph-name="16gl-V" unicode="&#60330;" d="M1019 817.25A32 32 0 0 1 992 832H777a96.27 96.27 0 0 1-87.16-55.77L544 460.36 398.21 776.23A96.27 96.27 0 0 1 311.05 832H96a32 32 0 0 1-29-45.41l384-832A32 32 0 0 1 480-64h87a96.27 96.27 0 0 1 87.16 55.77L1021 786.59a32 32 0 0 1-2 30.66z m-271.11-67.84A32.11 32.11 0 0 0 777 768h37L608 321.70000000000005 579.24 384zM500.47 0L146 768h57.52L558 0zM608 44.360000000000014L274 768h37a32.11 32.11 0 0 0 29.06-18.59l174.82-378.67 0.15-0.33L579 231.91999999999996a32 32 0 0 1 58-0.11v0.11L884.47 768H942z"  horiz-adv-x="1024" />

    
    <glyph glyph-name="16gl-semicolon" unicode="&#60331;" d="M672 704H416a32 32 0 0 1-32-32v-128a32 32 0 0 1 32-32h256a32 32 0 0 1 32 32V672a32 32 0 0 1-32 32z m-224-64h192v-64H448zM672 448H416a32 32 0 0 1-32-32v-256a32 32 0 0 1 32-32h94.81a95.4 95.4 0 0 0-51.88-70.76l-57.24-28.62A32 32 0 0 1 384 0v-32a32 32 0 0 1 32-32h32a256.15 256.15 0 0 1 251.43 207.51A31.85 31.85 0 0 1 704 160V416a32 32 0 0 1-32 32zM448 256h64v-64h-64z m52.66-248.66A160 160 0 0 1 576 143.11V288a32 32 0 0 1-32 32h-96v64h192v-192c0-87.62-59-161.71-139.34-184.66z"  horiz-adv-x="1024" />

    
    <glyph glyph-name="16gl-W" unicode="&#60332;" d="M928 832H672a32 32 0 0 1-32-32v-327l-106.74 94.92a32 32 0 0 1-42.52 0L384 473V800a32 32 0 0 1-32 32H96a32 32 0 0 1-32-32v-832a32 32 0 0 1 32-32h91.5a127.86 127.86 0 0 1 83.34 30.85l1.05 0.9L512 181.19000000000005l239.46-212.86a127.88 127.88 0 0 1 85-32.33H928a32 32 0 0 1 32 32V800a32 32 0 0 1-32 32z m-96-64h64v-696.74l-58.55 52a987.37 987.37 0 0 0-222.34 286.27l163.63-145.45A32 32 0 0 1 832 288z m-128 0h64v-408.74l-64 56.89zM187.5 0H128V768h64v-764.37c0-1.16 0-2.32 0.13-3.46-1.54-0.11-3.08-0.17-4.63-0.17z m303.29 248h-0.05L256 39.25999999999999V768h64v-526.22a32 32 0 0 1 53.21-24h0.05l96 85.36q13.88-25.59 29.08-50.27a31.86 31.86 0 0 1-7.56-5zM836.5 0a63.92 63.92 0 0 0-42.5 16.17l-55.75 49.53A987.52 987.52 0 0 0 510 363.5l-2.64 5.27a32 32 0 0 1-42.93 14.31 31.46 31.46 0 0 1-7-4.77L384 313v74.41l118.05 104.93L552 392.47a1051.24 1051.24 0 0 1 242.94-317L879.83 0z"  horiz-adv-x="1024" />

    
    <glyph glyph-name="16gl-U" unicode="&#60333;" d="M928 832H672a32 32 0 0 1-32-32v-448a96 96 0 0 0-192 0V800a32 32 0 0 1-32 32H160a32 32 0 0 1-32-32v-480a383.71 383.71 0 0 1 384-384h64a383.71 383.71 0 0 1 384 384V800a32 32 0 0 1-32 32z m-224-64h64v-352a160.15 160.15 0 0 0-83.5-140.5A159 159 0 0 1 704 352zM544 192h64a224 224 0 0 1 224 224V768h64v-368c0-150-122-272-272-272h-16a160.15 160.15 0 0 0-140.5 83.5A159 159 0 0 1 544 192zM192 320V768h64v-512a317.53 317.53 0 0 1 63.58-191.51C242.14 122.95000000000005 192 215.72000000000003 192 320z m384-320c-141.16 0-256 114.84-256 256V768h64v-480a224 224 0 0 1 224-224h16a334.78 334.78 0 0 1 221.07 83C788.06 58.620000000000005 688.75 0 576 0z"  horiz-adv-x="1024" />

    
    <glyph glyph-name="16gl-Z" unicode="&#60334;" d="M896 700.2V800a32 32 0 0 1-32 32H160a32 32 0 0 1-32-32v-256a32 32 0 0 1 32-32h229.39L148.33 137A127.75 127.75 0 0 1 128 67.79999999999995V-32a32 32 0 0 1 32-32h704a32 32 0 0 1 32 32V224a32 32 0 0 1-32 32H634.61l241.06 375A127.75 127.75 0 0 1 896 700.2zM832 768v-64H192v64zM192 0v67.8a63.78 63.78 0 0 0 10.17 34.61L465.47 512h83.92L293.08 113.29999999999995A32 32 0 0 1 320 64h512v-64z m640 128H378.61l41.15 64H832zM460.9 256l174 270.7A32 32 0 0 1 608 576H192v64h613.39L558.53 256z"  horiz-adv-x="1024" />

    
    <glyph glyph-name="16gl-Y" unicode="&#60335;" d="M956.84 813.86A32 32 0 0 1 928 832H638.76a95.51 95.51 0 0 1-75-36l-53.19-66.48-50 65A96.6 96.6 0 0 1 384.49 832H96a32 32 0 0 1-25.36-51.51L384 373.12V-32a32 32 0 0 1 32-32h256a32 32 0 0 1 32 32V468.77L953 780a32 32 0 0 1 3.84 33.86zM384.49 768a32.21 32.21 0 0 0 25.36-12.49l59.6-77.51L429 627.53 321 768z m-144.25 0l162.61-211.39a32 32 0 0 1 50.69-0.91l81.53 101.91 0.38 0.48L613.77 756a31.87 31.87 0 0 0 25 12h62.66L425.91 423.61 161 768zM640 0h-64V308.77l64 80zM519 340a31.87 31.87 0 0 1-7-20v-320h-64V348.78L783.38 768h78z"  horiz-adv-x="1024" />

    
    <glyph glyph-name="16gl-X" unicode="&#60336;" d="M648.37 384l305 396.49A32 32 0 0 1 928 832H639.51a96.6 96.6 0 0 1-76.09-37.47l-48-62.45L459.6 798a95.83 95.83 0 0 1-73.28 34H96a32 32 0 0 1-24.43-52.67L406.08 384 71.57-11.330000000000041A32 32 0 0 1 96-64h290.32a95.83 95.83 0 0 1 73.28 34l55.79 65.93 48-62.45A96.6 96.6 0 0 1 639.51-64H928a32 32 0 0 1 25.36 51.51z m-262 384a32 32 0 0 0 24.43-11.33l64.71-76.48L439.19 633 325 768z m-145.16 0L416 561.4300000000001a32 32 0 0 1 49.81 1.17l75.91 98.68 0.26 0.35 72.22 93.88A32.21 32.21 0 0 0 639.51 768H703L446.81 434.94 165 768z m0-768H165l307.11 363 0.18 0.2 0.09 0.1 0.09 0.12c0.3 0.36 0.6 0.72 0.88 1.08l0.05 0.07L783.76 768H863L583.09 404.1z m398.35 0a32.21 32.21 0 0 0-25.36 12.49l-56.52 73.41 41.51 49.1L703 0z m144.25 0l-158 205.41a32.52 32.52 0 0 1-4.7 4.92 32 32 0 0 1-45.1-3.76l-83.51-98.69-0.33-0.39-81.36-96.16A32 32 0 0 0 386.32 0H325l281.81 333.06L863 0z"  horiz-adv-x="1024" />

    
    <glyph glyph-name="16gl-S" unicode="&#60337;" d="M873.52 830.56A31.89 31.89 0 0 1 864 832H416a288 288 0 0 1-288-288v-73.34a224 224 0 0 1 123.82-200.35L280.45 256H160a32 32 0 0 1-32-32v-256a32 32 0 0 1 32-32h448a288 288 0 0 1 288 288v73.34a224 224 0 0 1-123.82 200.35L743.55 512H864a32 32 0 0 1 32 32V800a32 32 0 0 1-22.48 30.56zM416 768h416v-64H352a222.38 222.38 0 0 1-122.87-36.64C269.26 727.95 338 768 416 768zM192 470.66V480c0 88.22 71.78 160 160 160h480v-64H367.11a111.11 111.11 0 0 1-49.69-210.49L536.45 256h-112.9l-143.1 71.55A159.13 159.13 0 0 0 192 470.66z m220.62 7.25L678 345.24A47.11 47.11 0 0 0 656.89 256h-18.33a51.49 51.49 0 0 1-27.18 34.09L346 422.76A47.11 47.11 0 0 0 367.11 512h18.33a51.49 51.49 0 0 1 27.18-34.09zM608 0H192v64h480a222.38 222.38 0 0 1 122.87 36.64C754.74 40 686 0 608 0z m224 297.34V288c0-88.22-71.78-160-160-160H192v64h464.89a111.11 111.11 0 0 1 49.69 210.49L487.56 512h112.89l143.1-71.55A159.13 159.13 0 0 0 832 297.34000000000003z"  horiz-adv-x="1024" />

    


  </font>
</defs>
</svg>
