<?xml version="1.0" standalone="no"?>
<!DOCTYPE svg PUBLIC "-//W3C//DTD SVG 1.1//EN" "http://www.w3.org/Graphics/SVG/1.1/DTD/svg11.dtd" >
<!--
2013-9-30: Created.
-->
<svg>
<metadata>
Created by iconfont
</metadata>
<defs>

<font id="D3III16glBasic" horiz-adv-x="1024" >
  <font-face
    font-family="D3III16glBasic"
    font-weight="500"
    font-stretch="normal"
    units-per-em="1024"
    ascent="896"
    descent="-128"
  />
    <missing-glyph />
    
    <glyph glyph-name="16gl-building" unicode="&#59408;" d="M480 0h-96V681.78a31.91 31.91 0 0 0 26.74 31.57L704 762.23V288a32 32 0 0 1 64 0V576h64v-288a32 32 0 0 1 64 0V608a32 32 0 0 1-32 32h-96V800a32 32 0 0 1-37.26 31.56l-330.52-55.08a95.7 95.7 0 0 1-80.22-94.7V0H192v69.49a85 85 0 0 1 38.69 28.58C247.48 120.05999999999995 256 151.65999999999997 256 192c0 38.71-7.76 82.7-20.75 117.66C212.41 371.1 181.72 384 160 384s-52.41-12.9-75.25-74.34C71.76 274.70000000000005 64 230.71000000000004 64 192c0-40.34 8.52-71.94 25.31-93.93A85 85 0 0 1 128 69.49000000000001V0H96a32 32 0 0 1 0-64h384a32 32 0 0 1 0 64zM160 128c-7.91 0-32 0-32 64a294.27 294.27 0 0 0 13.31 85.37c6.9 21.74 14.12 33.82 18.69 39.51 4.57-5.69 11.79-17.77 18.69-39.51A294.27 294.27 0 0 0 192 192c0-64-24.09-64-32-64z m288 448h64v-64h-64z m192-64h-64v64h64z m-192-64h64v-64h-64z m192-64h-64v64h64z m-64-64h64v-64h-64z m-128 0h64v-64h-64z m0-128h64v-64h-64z m431.59-65.26a128 128 0 0 1-223.18 0A96 96 0 0 1 672-64h192a96 96 0 0 1 15.59 190.74zM864 0H672a32 32 0 0 0 0 64h5.47a32 32 0 0 1 30.17 21.34 64 64 0 0 0 120.72 0A32 32 0 0 1 858.53 64H864a32 32 0 0 0 0-64z"  horiz-adv-x="1024" />

    
    <glyph glyph-name="16gl-building3" unicode="&#59409;" d="M896 512H768V768a64.07 64.07 0 0 1-64 64H320a64.07 64.07 0 0 1-64-64v-128H128a64.07 64.07 0 0 1-64-64v-608a32 32 0 0 1 32-32h832a32 32 0 0 1 32 32V448a64.07 64.07 0 0 1-64 64z m0-512H768V448h128zM320 768h384v-768h-64V256a64.07 64.07 0 0 1-64 64H448a64.07 64.07 0 0 1-64-64v-256h-64z m-64-192v-576H128V576z m192-576V256h128v-256z"  horiz-adv-x="1024" />

    
    <glyph glyph-name="16gl-bricks" unicode="&#59410;" d="M832 768H192a64.07 64.07 0 0 1-64-64v-640a64.07 64.07 0 0 1 64-64h640a64.07 64.07 0 0 1 64 64V704a64.07 64.07 0 0 1-64 64zM384 192V320h256v-128z m-192 0V320h128v-128z m224 320a32 32 0 0 1 0 64h-32V704h256v-128h-96a32 32 0 0 1-32-32v-160H192V512z m288-192h32a32 32 0 0 1 0 64H576V512h256v-320H704z m128 256H704V704h128zM320 704v-128H192V704zM192 128h320v-64H192z m640-64H576v64h256v-64z"  horiz-adv-x="1024" />

    
    <glyph glyph-name="16gl-church" unicode="&#59411;" d="M448 416a96 96 0 1 1 96 96 96.11 96.11 0 0 1-96-96z m128 0a32 32 0 1 0-32 32 32 32 0 0 0 32-32z m402.6-230L768 336.47V448a32 32 0 0 1 22.63 54.63L576 717.26V768h32a32 32 0 0 1 0 64h-32V864a32 32 0 0 1-64 0v-32h-32a32 32 0 0 1 0-64h32v-50.74L297.37 502.63A32 32 0 0 1 320 448v-111.53L109.4 186a32 32 0 0 1 18.6-58v-160a32 32 0 0 1 32-32h768a32 32 0 0 1 32 32V128a32 32 0 0 1 18.6 58zM320 0H192V160a31.75 31.75 0 0 1-0.57 6L320 257.82000000000005z m256 0h-64v96a32 32 0 0 0 64 0z m128 0h-64v96a96 96 0 0 1-192 0v-96h-64V498.75l160 160 160-160z m192 160v-160H768V257.82000000000005L896.57 166a31.75 31.75 0 0 1-0.57-6z"  horiz-adv-x="1024" />

    
    <glyph glyph-name="16gl-building2" unicode="&#59412;" d="M943.38 0H448V763.1l356.53-50.93A32.15 32.15 0 0 0 832 680.49v-599.87c28.22-32.12 64-12.55 64 15.38V680.49a96 96 0 0 1-82.42 95L420.53 831.6800000000001c-16.3 2.33-33-8.1-36.53-27.3V697l-183.28-45.84A95.85 95.85 0 0 1 128 558v-558H80.62C48.5-28.220000000000027 68.07-64 96-64h832c27.93 0 47.5 35.78 15.38 64zM384 0H192V558a32 32 0 0 0 24.24 31.05L384 631z m256 512h-64v64h64z m128 0h-64v64h64z m0-128h-64v64h64z m0-128h-64v64h64z m0-128h-64v64h64zM640 384h-64v64h64z m0-128h-64v64h64z m0-128h-64v64h64zM320 384h-64v64h64z m0-128h-64v64h64z m0-128h-64v64h64z"  horiz-adv-x="1024" />

    
    <glyph glyph-name="16gl-city" unicode="&#59413;" d="M928 0h-32V544a32 32 0 0 1-32 32h-32v96a32 32 0 0 1-32 32h-96V800a32 32 0 0 1-37.26 31.56l-330.52-55.08a95.7 95.7 0 0 1-80.22-94.7V512h-64v96a32 32 0 0 1-64 0v-96H96a32 32 0 0 1-32-32v-384a32 32 0 0 1 64 0V448h128v-128h-32a32 32 0 0 1-32-32v-288H96a32 32 0 0 1 0-64h832a32 32 0 0 1 0 64zM768 576h-64v64h64zM256 0V256h128v-256z m192 0V288a32 32 0 0 1-32 32h-96V681.78a31.91 31.91 0 0 0 26.74 31.57L640 762.23V576h-96a32 32 0 0 1-32-32v-544z m128 0V512h256v-512z m128 384h64v-64h-64z m0-128h64v-64h-64z m0-128h64v-64h-64zM384 576h64v-64h-64z m0-128h64v-64h-64z"  horiz-adv-x="1024" />

    
    <glyph glyph-name="16gl-door" unicode="&#59414;" d="M864 0h-32V768a64.07 64.07 0 0 1-64 64H256a64.07 64.07 0 0 1-64-64v-768h-32a32 32 0 0 1 0-64h704a32 32 0 0 1 0 64z m-480 0V640h256v-160a32 32 0 0 1 64 0V672a32 32 0 0 1-32 32H352a32 32 0 0 1-32-32v-672h-64V768h512v-768z m320 224v-128a32 32 0 0 0-64 0V224a32 32 0 0 0 64 0z m0 128a32 32 0 0 0-32-32h-64a32 32 0 0 0 0 64h64a32 32 0 0 0 32-32z"  horiz-adv-x="1024" />

    
    <glyph glyph-name="16gl-city2" unicode="&#59415;" d="M928 0h-32V544a32 32 0 0 1-38.28 31.38L832 570.23V736a32 32 0 0 1-64 0v-83.6l-128 42.66V736a32 32 0 0 1-17.69 28.62l-128 64a32 32 0 0 1-28.62 0l-128-64A32 32 0 0 1 320 736v-50.75l-54.63-54.62A32 32 0 0 1 256 608v-96h-64v96a32 32 0 0 1-64 0v-96H96a32 32 0 0 1-32-32v-384a32 32 0 0 1 64 0V448h128v-96a33.4 33.4 0 0 1 0.26-4l-50-33.34A32 32 0 0 1 192 288v-288H96a32 32 0 0 1 0-64h832a32 32 0 0 1 0 64zM640 627.6l128-42.66v-27.51l-128-25.6zM384 0H256V270.87l64 42.67 64-42.67z m128 427.53V0h-64V288a32 32 0 0 1-14.25 26.63l-96 64A32 32 0 0 1 320 384V594.75l54.63 54.62A32 32 0 0 1 384 672v44.22l96 48 96-48V518a96.31 96.31 0 0 1-64-90.47zM832 0H576V427.53a32.09 32.09 0 0 0 25.72 31.38L832 505z m-64 320h-64v64h64z m0-128h-64v64h64z m0-128h-64v64h64zM384 576h64v-64h-64z m0-128h64v-64h-64z"  horiz-adv-x="1024" />

    
    <glyph glyph-name="16gl-city3" unicode="&#59416;" d="M928 0h-32v69.49A96.16 96.16 0 0 1 960 160c0 23.36-8.54 59.39-21.24 89.64-7.53 17.93-16 32.65-25.21 43.75-18.23 22-37 26.61-49.55 26.61s-31.32-4.62-49.55-26.61c-9.2-11.1-17.68-25.82-25.21-43.75C776.54 219.39 768 183.36 768 160a96.16 96.16 0 0 1 64-90.51V0H512V576h320v-160a32 32 0 0 1 64 0V608a32 32 0 0 1-32 32h-32v96a32 32 0 0 1-32 32H544a32 32 0 0 1-32-32v-96h-5.5a96.43 96.43 0 0 1-62.63 59.87 96.4 96.4 0 0 1-60.32 62.79A32.43 32.43 0 0 1 384 768V800a32 32 0 0 1-64 0v-32a32.43 32.43 0 0 1 0.45-5.34 96.4 96.4 0 0 1-60.32-62.79A96.16 96.16 0 0 1 192 608v-96h-32a32 32 0 0 1-32-32v-96H96a32 32 0 0 1-32-32v-256a32 32 0 0 1 64 0V320h192v-320H96a32 32 0 0 1 0-64h832a32 32 0 0 1 0 64z m-83.06 216.49c7.37 19.83 14.54 31 19.06 36.4 4.52-5.39 11.69-16.57 19.06-36.4C891.55 193.63 896 170.76999999999998 896 160a32 32 0 0 0-64 0c0 10.77 4.45 33.63 12.94 56.49zM576 704h192v-64H576zM192 448h64v-64h-64z m192-448V352a32 32 0 0 1-32 32h-32v96a32 32 0 0 1-32 32h-32v96a32 32 0 0 0 32 32 32 32 0 0 1 32 32 32 32 0 0 0 64 0 32 32 0 0 1 32-32 32 32 0 0 0 32-32v-608z m256 320h-64v64h64z m128 128h-64v64h64z m-128 0h-64v64h64z m0-256h-64v64h64z m-64-64h64v-64h-64z m128 256h64v-64h-64zM256 192h-64v64h64z m-64-64h64v-64h-64z"  horiz-adv-x="1024" />

    
    <glyph glyph-name="16gl-home2" unicode="&#59417;" d="M982.63 406.63l-393.2 393.2a109.64 109.64 0 0 1-154.86 0l-393.2-393.2a32 32 0 0 1 45.26-45.26L128 402.75V32a96.11 96.11 0 0 1 96-96h576a96.11 96.11 0 0 1 96 96V402.75l41.37-41.38a32 32 0 0 1 45.26 45.26zM832 32a32 32 0 0 0-32-32H224a32 32 0 0 0-32 32V466.75l287.83 287.82a45.54 45.54 0 0 0 64.34 0L832 466.75z"  horiz-adv-x="1024" />

    
    <glyph glyph-name="16gl-city4" unicode="&#59418;" d="M896 384h-64V768a64.07 64.07 0 0 1-64 64H320a64.07 64.07 0 0 1-64-64v-128H128a64.07 64.07 0 0 1-64-64v-608a32 32 0 0 1 32-32h832a32 32 0 0 1 32 32V320a64.07 64.07 0 0 1-64 64zM320 768h448v-384a64.07 64.07 0 0 1-64-64v-320H512V128h96a32 32 0 0 1 0 64h-96V576a64.07 64.07 0 0 1-64 64H320zM128 0V576h320v-576z m640 0V320h128v-320zM192 384h64v-64h-64z m0-128h64v-64h-64z m0-128h64v-64h-64z m128 256h64v-64h-64zM192 512h64v-64h-64z m128 0h64v-64h-64z m0-256h64v-64h-64z m0-128h64v-64h-64z m384 448h-64v64h64z m0-128h-64v64h64z"  horiz-adv-x="1024" />

    
    <glyph glyph-name="16gl-home3" unicode="&#59419;" d="M864 320a32 32 0 0 1-32-32v-256a32 32 0 0 0-32-32H640V160a96.11 96.11 0 0 1-96 96h-64a96.11 96.11 0 0 1-96-96v-160H224a32 32 0 0 0-32 32V288a32 32 0 0 1-64 0v-256a96.11 96.11 0 0 1 96-96h576a96.11 96.11 0 0 1 96 96V288a32 32 0 0 1-32 32zM448 0V160a32 32 0 0 0 32 32h64a32 32 0 0 0 32-32v-160z m534.63 361.37a32 32 0 0 0-45.26 0l-393.2 393.2a45.54 45.54 0 0 1-64.34 0l-393.2-393.2a32 32 0 0 0-45.26 45.26l393.2 393.2a109.64 109.64 0 0 0 154.86 0l393.2-393.2a32 32 0 0 0 0-45.26z"  horiz-adv-x="1024" />

    
    <glyph glyph-name="16gl-gate2" unicode="&#59420;" d="M64 736a32 32 0 0 0 32 32h32a32 32 0 0 0 64 0h32a32 32 0 0 0 0-64H96a32 32 0 0 0-32 32z m960-128v-576a32 32 0 0 0-32-32H864a32 32 0 0 0-32 32v32H256v-32a32 32 0 0 0-32-32H96a32 32 0 0 0-32 32V608a32 32 0 0 0 32 32h128a32 32 0 0 0 32-32v-96h64v96a32 32 0 0 0 64 0v-352h64V672a32 32 0 0 0 64 0v-160h64V672a32 32 0 0 0 64 0v-160h64v96a32 32 0 0 0 64 0v-96h64v96a32 32 0 0 0 32 32h128a32 32 0 0 0 32-32z m-832-32h-64v-512h64z m320-320h64V448h-64z m-256 0h64V448h-64z m576-64h-96a32 32 0 0 0-32 32V448h-64v-224a32 32 0 0 0-32-32H256v-64h576z m0 256h-64v-192h64z m128 128h-64v-512h64z m-96 128h128a32 32 0 0 1 0 64h-32a32 32 0 0 1-64 0h-32a32 32 0 0 1 0-64z"  horiz-adv-x="1024" />

    
    <glyph glyph-name="16gl-gate" unicode="&#59421;" d="M1024 672a96 96 0 1 1-175.73-53.42A63.73 63.73 0 0 1 832 576v-122.1a313.21 313.21 0 0 1-41.74 40.1q-10.75 8.6-22.26 16.35V608a32 32 0 0 1-64 0v-63.25a398 398 0 0 1-64 20.47V672a32 32 0 0 1-64 0v-97.18Q560.13 576 544 576t-32-1.19V672a32 32 0 0 1-64 0v-416h-64V608a32 32 0 0 1-64 0v-97.65a323.25 323.25 0 0 1-64-56.52V576a63.73 63.73 0 0 1-16.27 42.58 96 96 0 1 1-159.46 0A63.73 63.73 0 0 1 64 576v-544a32 32 0 0 1 32-32h128a32 32 0 0 1 32 32v32h576v-32a32 32 0 0 1 32-32h128a32 32 0 0 1 32 32V576a63.73 63.73 0 0 1-16.27 42.58A95.46 95.46 0 0 1 1024 672z m-96 32a32 32 0 1 0-32-32 32 32 0 0 0 32 32z m-96-416v-32h-64V428.5c41.44-39.81 64-88.97 64-140.5zM512 510.61c10.6 0.91 21.3 1.39 32 1.39s21.45-0.47 32-1.38V256h-64z m-192-82V256h-64v32c0 52 22.79 101.19 64 140.64zM160 704a32 32 0 1 0-32-32 32 32 0 0 0 32 32z m32-640h-64V576h64z m64 64v64h352a32 32 0 0 1 32 32V499.25a322 322 0 0 0 64-25.1V224a32 32 0 0 1 32-32h96v-64z m704-64h-64V576h64z"  horiz-adv-x="1024" />

    
    <glyph glyph-name="16gl-home" unicode="&#59422;" d="M800-64H224a96.11 96.11 0 0 0-96 96V288a32 32 0 0 0 64 0v-256a32 32 0 0 1 32-32h576a32 32 0 0 1 32 32V288a32 32 0 0 0 64 0v-256a96.11 96.11 0 0 0-96-96z m160 416a31.9 31.9 0 0 0-22.63 9.37l-393.2 393.2a45.48 45.48 0 0 1-64.34 0l-393.2-393.2a32 32 0 0 0-45.26 45.26l393.2 393.2a109.64 109.64 0 0 0 154.86 0l393.2-393.2A32 32 0 0 0 960 352z"  horiz-adv-x="1024" />

    
    <glyph glyph-name="16gl-home6" unicode="&#59423;" d="M982.63 406.63L896 493.25V672a32 32 0 0 1-64 0v-114.75L589.43 799.83a109.64 109.64 0 0 1-154.86 0l-393.2-393.2a32 32 0 0 1 45.26-45.26L128 402.75V32a96.11 96.11 0 0 1 96-96h576a96.11 96.11 0 0 1 96 96V402.75l41.37-41.38a32 32 0 0 1 45.26 45.26zM832 32a32 32 0 0 0-32-32H224a32 32 0 0 0-32 32V466.75l287.83 287.82a45.54 45.54 0 0 0 64.34 0L832 466.75z"  horiz-adv-x="1024" />

    
    <glyph glyph-name="16gl-home4" unicode="&#59424;" d="M800-64H224a96.11 96.11 0 0 0-96 96V402.75l-41.37-41.38a32 32 0 0 0-45.26 45.26l96 96 297.2 297.2a109.64 109.64 0 0 0 154.86 0l297.18-297.19 96-96a32 32 0 0 0-45.26-45.26L896 402.75V32a96.11 96.11 0 0 0-96-96z m-160 64h160a32 32 0 0 1 32 32V466.75L544.17 754.5699999999999a45.48 45.48 0 0 1-64.34 0L192 466.75V32a32 32 0 0 1 32-32h160V160a96.11 96.11 0 0 0 96 96h64a96.11 96.11 0 0 0 96-96z m-192 0h128V160a32 32 0 0 1-32 32h-64a32 32 0 0 1-32-32z"  horiz-adv-x="1024" />

    
    <glyph glyph-name="16gl-home8" unicode="&#59425;" d="M982.63 406.63L896 493.25V672a32 32 0 0 1-64 0v-114.75L589.43 799.83a109.64 109.64 0 0 1-154.86 0l-393.2-393.2a32 32 0 0 1 45.26-45.26L128 402.75V32a96.11 96.11 0 0 1 96-96h576a96.11 96.11 0 0 1 96 96V402.75l41.37-41.38a32 32 0 0 1 45.26 45.26zM576 0H448V160a32 32 0 0 0 32 32h64a32 32 0 0 0 32-32z m256 32a32 32 0 0 0-32-32H640V160a96.11 96.11 0 0 1-96 96h-64a96.11 96.11 0 0 1-96-96v-160H224a32 32 0 0 0-32 32V466.75l287.83 287.82a45.54 45.54 0 0 0 64.34 0L832 466.75z"  horiz-adv-x="1024" />

    
    <glyph glyph-name="16gl-home7" unicode="&#59426;" d="M982.63 361.37a32 32 0 0 0-45.26 0l-393.2 393.2a45.54 45.54 0 0 1-64.34 0l-393.2-393.2a32 32 0 0 0-45.26 45.26l393.2 393.2a109.64 109.64 0 0 0 154.86 0L832 557.25V672a32 32 0 0 0 64 0v-178.75l86.63-86.62a32 32 0 0 0 0-45.26zM896 288v-256a96.11 96.11 0 0 0-96-96H224a96.11 96.11 0 0 0-96 96V288a32 32 0 0 0 64 0v-256a32 32 0 0 1 32-32h160V160a96.11 96.11 0 0 0 96 96h64a96.11 96.11 0 0 0 96-96v-160h160a32 32 0 0 1 32 32V288a32 32 0 0 0 64 0zM576 160a32 32 0 0 1-32 32h-64a32 32 0 0 1-32-32v-160h128z"  horiz-adv-x="1024" />

    
    <glyph glyph-name="16gl-home5" unicode="&#59427;" d="M800-64H224a96.11 96.11 0 0 0-96 96V288a32 32 0 0 0 64 0v-256a32 32 0 0 1 32-32h576a32 32 0 0 1 32 32V288a32 32 0 0 0 64 0v-256a96.11 96.11 0 0 0-96-96z m160 416a31.9 31.9 0 0 0-22.63 9.37l-393.2 393.2a45.48 45.48 0 0 1-64.34 0l-393.2-393.2a32 32 0 0 0-45.26 45.26l393.2 393.2a109.64 109.64 0 0 0 154.86 0L832 557.25V672a32 32 0 0 0 64 0v-178.75l86.63-86.62A32 32 0 0 0 960 352z"  horiz-adv-x="1024" />

    
    <glyph glyph-name="16gl-home9" unicode="&#59428;" d="M896 288v-256a96.11 96.11 0 0 0-96-96H224a96.11 96.11 0 0 0-96 96V288a32 32 0 0 0 64 0v-256a32 32 0 0 1 32-32h576a32 32 0 0 1 32 32V288a32 32 0 0 0 64 0z m86.63 118.63L896 493.25V704a64.07 64.07 0 0 1-64 64h-64a64.07 64.07 0 0 1-64-64v-18.75L589.43 799.83a109.64 109.64 0 0 1-154.86 0l-393.2-393.2a32 32 0 0 1 45.26-45.26l393.2 393.2a45.54 45.54 0 0 0 64.34 0l169.2-169.2A32 32 0 0 1 768 608v96h64v-224a32 32 0 0 1 9.37-22.63l96-96a32 32 0 0 1 45.26 45.26z"  horiz-adv-x="1024" />

    
    <glyph glyph-name="16gl-fence" unicode="&#59429;" d="M945.75 698.63l-96 64a32 32 0 0 1-35.5 0l-96-64A32 32 0 0 1 704 672v-32h-64v32a32 32 0 0 1-14.25 26.63l-96 64a32 32 0 0 1-35.5 0l-96-64A32 32 0 0 1 384 672v-32h-64v32a32 32 0 0 1-14.25 26.63l-96 64a32 32 0 0 1-35.5 0l-96-64A32 32 0 0 1 64 672v-640a32 32 0 0 1 32-32h192a32 32 0 0 1 32 32v32h64v-32a32 32 0 0 1 32-32h192a32 32 0 0 1 32 32v32h64v-32a32 32 0 0 1 32-32h192a32 32 0 0 1 32 32V672a32 32 0 0 1-14.25 26.63zM640 448h64v-192h-64z m64 128v-64h-64v64zM320 448h64v-192h-64z m64 128v-64h-64v64zM256 64H128V654.87l64 42.67 64-42.67z m64 64v64h64v-64z m256-64H448V654.87l64 42.67 64-42.67z m64 64v64h64v-64z m256-64H768V654.87l64 42.67 64-42.67z"  horiz-adv-x="1024" />

    
    <glyph glyph-name="16gl-home10" unicode="&#59430;" d="M982.63 406.63L896 493.25V704a64.07 64.07 0 0 1-64 64h-64a64.07 64.07 0 0 1-64-64v-18.75L589.43 799.83a109.64 109.64 0 0 1-154.86 0l-297.19-297.2-96-96a32 32 0 0 1 45.26-45.26L128 402.75V32a96.11 96.11 0 0 1 96-96h576a96.11 96.11 0 0 1 96 96V402.75l41.37-41.38a32 32 0 0 1 45.26 45.26zM768 704h64v-146.75l-64 64z m64-672a32 32 0 0 0-32-32H224a32 32 0 0 0-32 32V466.75l287.83 287.82a45.54 45.54 0 0 0 64.34 0L832 466.75z"  horiz-adv-x="1024" />

    
    <glyph glyph-name="16gl-hospital" unicode="&#59431;" d="M448 352a32 32 0 0 0 32 32h128a32 32 0 0 0 0-64H480a32 32 0 0 0-32 32z m576 224v-608a32 32 0 0 0-32-32H96a32 32 0 0 0-32 32V576a64.07 64.07 0 0 0 64 64h128v64a64.07 64.07 0 0 0 64 64h32a32 32 0 0 0 0-64h-32v-704h64V192a64.07 64.07 0 0 0 64 64h192a64.07 64.07 0 0 0 64-64v-192h64V704h-32a32 32 0 0 0 0 64h32a64.07 64.07 0 0 0 64-64v-64h128a64.07 64.07 0 0 0 64-64zM128 0h128V576H128z m512 0V192H448v-192z m320 576H832v-576h128zM480 704h32v-32a32 32 0 0 1 64 0v32h32a32 32 0 0 1 0 64h-32V800a32 32 0 0 1-64 0v-32h-32a32 32 0 0 1 0-64z"  horiz-adv-x="1024" />

    
    <glyph glyph-name="16gl-hotel2" unicode="&#59432;" d="M640 576h-64v64h64zM192 192h-64v-64h64z m0 256h-64v-64h64z m448 64h-64v-64h64zM192 320h-64v-64h64z m320 64H384v-64h128z m128 0h-64v-64h64zM512 256H384v-64h128z m0 256H384v-64h128z m0 128H384v-64h128z m128-384h-64v-64h64z m192-32v32h-64v-256h224a32 32 0 0 0 0-64H32a32 32 0 0 0-32 32V576a64.07 64.07 0 0 0 64 64h64v96a32 32 0 0 0 64 0v-96h64V768a64.07 64.07 0 0 0 64 64h384a64.07 64.07 0 0 0 64-64v-64h64v32a32 32 0 0 0 32 32h128a32 32 0 0 0 32-32v-512a32 32 0 0 0-32-32H864a32 32 0 0 0-32 32z m64 32h64V704h-64zM256 576H64v-576h192z m448 192H320v-768h384z m64-256h64V640h-64z m64-192V448h-64v-128z"  horiz-adv-x="1024" />

    
    <glyph glyph-name="16gl-home12" unicode="&#59433;" d="M982.63 406.63L896 493.26V704a64.07 64.07 0 0 1-64 64h-64a64.07 64.07 0 0 1-64-64v-18.74L589.43 799.83a109.51 109.51 0 0 1-154.86 0l-393.2-393.2a32 32 0 0 1 45.26-45.26L128 402.75V32a96.11 96.11 0 0 1 96-96h576a96.11 96.11 0 0 1 96 96V402.74l41.37-41.37a32 32 0 0 1 45.26 45.26zM832 704v-146.75l-64 64V704zM448 0V160a32 32 0 0 0 32 32h64a32 32 0 0 0 32-32v-160z m352 0H640V160a96.11 96.11 0 0 1-96 96h-64a96.11 96.11 0 0 1-96-96v-160H224a32 32 0 0 0-32 32V466.75l287.83 287.82a45.54 45.54 0 0 0 64.34 0L832 466.75V32a32 32 0 0 0-32-32z"  horiz-adv-x="1024" />

    
    <glyph glyph-name="16gl-school" unicode="&#59434;" d="M992 0h-32V384h32a32 32 0 0 1 28.62 46.31l-55.15 110.31A63.67 63.67 0 0 1 908.22 576h-223l-96 96A64.35 64.35 0 0 1 576 682.1800000000001v58l46.25-30.84A32 32 0 0 1 640 704h32a32 32 0 0 1 0 64h-22.31l-87.94 58.63A32 32 0 0 1 512 800v-117.82A64.35 64.35 0 0 1 498.75 672l-96-96h-223a63.67 63.67 0 0 1-57.25-35.38L67.38 430.31A32 32 0 0 1 96 384h32v-384H96a32 32 0 0 1 0-64h896a32 32 0 0 1 0 64z m-83.78 512l32-64h-127l-64 64z m-728.44 0h159l-64-64h-127zM512 0v96a32 32 0 0 0 64 0v-96z m320 0v32a32 32 0 0 1-64 0v-32H640v96a96 96 0 0 1-192 0v-96H320v32a32 32 0 1 1-64 0v-32h-64V384h96a32 32 0 0 1 22.63 9.37L438.55 521.3l0.15 0.15L544 626.75l233.37-233.38A32 32 0 0 1 800 384h96v-384zM544 512a96 96 0 1 1 96-96 96.11 96.11 0 0 1-96 96z m0-128a32 32 0 1 0 32 32 32 32 0 0 0-32-32z m224-64h64v-64h-64z m-128 0h64v-64h-64z m-384 0h64v-64h-64z m128 0h64v-64h-64z m384-128h64v-64h-64z m-512 0h64v-64h-64z"  horiz-adv-x="1024" />

    
    <glyph glyph-name="16gl-home11" unicode="&#59435;" d="M800-64H224a96.11 96.11 0 0 0-96 96V288a32 32 0 0 0 64 0v-256a32 32 0 0 1 32-32h160V160a96.11 96.11 0 0 0 96 96h64a96.11 96.11 0 0 0 96-96v-160h160a32 32 0 0 1 32 32V288a32 32 0 0 0 64 0v-256a96.11 96.11 0 0 0-96-96z m-352 64h128V160a32 32 0 0 1-32 32h-64a32 32 0 0 1-32-32z m512 352a31.9 31.9 0 0 0-22.63 9.37l-96 96A32 32 0 0 0 832 480V704h-64v-96a32 32 0 0 0-54.63-22.63l-169.2 169.2a45.48 45.48 0 0 1-64.34 0l-393.2-393.2a32 32 0 0 0-45.26 45.26l393.2 393.2a109.64 109.64 0 0 0 154.86 0L704 685.25V704a64.07 64.07 0 0 0 64 64h64a64.07 64.07 0 0 0 64-64v-210.75l86.63-86.62A32 32 0 0 0 960 352z"  horiz-adv-x="1024" />

    
    <glyph glyph-name="16gl-hotel" unicode="&#59436;" d="M640 448h-64v64h64z m0-64h-64v-64h64z m0-128h-64v-64h64z m-448-64h-64v-64h64z m0 128h-64v-64h64z m448 320h-64v-64h64z m-128 0H384v-64h128z m0-384H384v-64h128z m510.43-4.61a32 32 0 0 0-10.28-34.75L991.65 200l6.82-25.5a32 32 0 0 0-48.33-35.11L928 153.77999999999997l-22.14-14.36a32 32 0 0 0-48.33 35.11l6.82 25.5-20.5 16.61a32 32 0 0 0 18.46 56.82l26.35 1.39 9.47 24.63a32 32 0 0 0 59.74 0l9.47-24.63 26.35-1.39a32 32 0 0 0 28.74-22.07z m-79.76-27.57A32.09 32.09 0 0 0 928 234.48000000000002a32.09 32.09 0 0 0-14.67-10.66 32 32 0 0 0 5.61-17.24 32 32 0 0 0 18.12 0 32 32 0 0 0 5.61 17.24zM512 512H384v-64h128z m321.57 251.39a32 32 0 0 0 28.74 22.07l26.35 1.39 9.47 24.63a32 32 0 0 0 59.74 0l9.47-24.63 26.35-1.39a32 32 0 0 0 18.46-56.82L991.65 712l6.82-25.5a32 32 0 0 0-48.33-35.11L928 665.78l-22.14-14.36a32 32 0 0 0-48.33 35.11l6.82 25.5-20.5 16.61a32 32 0 0 0-10.28 34.75z m79.76-27.57a32 32 0 0 0 5.61-17.24 32 32 0 0 0 18.12 0 32 32 0 0 0 5.61 17.24A32.09 32.09 0 0 0 928 746.48a32.09 32.09 0 0 0-14.67-10.66z m109.1-228.43a32 32 0 0 0-10.28-34.75L991.65 456l6.82-25.5a32 32 0 0 0-48.33-35.11L928 409.78l-22.14-14.36a32 32 0 0 0-48.33 35.11l6.82 25.5-20.5 16.61a32 32 0 0 0 18.46 56.82l26.35 1.39 9.47 24.63a32 32 0 0 0 59.74 0l9.47-24.63 26.35-1.39a32 32 0 0 0 28.74-22.07z m-79.76-27.57A32.09 32.09 0 0 0 928 490.48a32.09 32.09 0 0 0-14.67-10.66 32 32 0 0 0 5.61-17.24 32 32 0 0 0 18.12 0 32 32 0 0 0 5.61 17.24zM512 384H384v-64h128z m512-416a32 32 0 0 0-32-32H32a32 32 0 0 0-32 32V576a64.07 64.07 0 0 0 64 64h64v96a32 32 0 0 0 64 0v-96h64V768a64.07 64.07 0 0 0 64 64h384a64.07 64.07 0 0 0 64-64v-768h224a32 32 0 0 0 32-32zM256 576H64v-576h192z m448 192H320v-768h384zM192 448h-64v-64h64z"  horiz-adv-x="1024" />

    
    <glyph glyph-name="16gl-store2" unicode="&#59437;" d="M480 320H288a32 32 0 0 1-32-32v-192a32 32 0 0 1 32-32h192a32 32 0 0 1 32 32V288a32 32 0 0 1-32 32z m-32-192H320V256h128z m576 384a32 32 0 0 1-4.22 15.88L910.21 719.63A96.2 96.2 0 0 1 826.86 768H261.14a96.2 96.2 0 0 1-83.35-48.37L68.22 527.88A32 32 0 0 1 64 512a128.09 128.09 0 0 1 64-110.82V32a96.11 96.11 0 0 1 96-96h640a96.11 96.11 0 0 1 96 96V401.18A128.09 128.09 0 0 1 1024 512zM854.64 687.88l104.9-183.57A64 64 0 0 0 832 512v1.51a0.91 0.91 0 0 1 0 0.17c0 0.44-0.05 0.87-0.1 1.31v0.4c0 0.34-0.08 0.67-0.13 1s-0.07 0.48-0.11 0.72-0.07 0.43-0.11 0.65-0.13 0.7-0.21 1c0 0.11 0 0.22-0.08 0.33-0.1 0.45-0.21 0.89-0.33 1.33v0.1c-0.14 0.51-0.29 1-0.46 1.51L769.73 704h57.13a32.07 32.07 0 0 0 27.78-16.12z m-472.28 6A31.94 31.94 0 0 1 384 704h63.93l-15.25-233.54a64 64 0 0 0-112.49 36.91z m129.57 8c0.05 0.7 0.06 1.4 0.06 2.09h64c0-0.69 0-1.39 0.06-2.09l15.22-233a64 64 0 0 0-94.58 0z m143.39-231.42L640.07 704H704a31.94 31.94 0 0 1 1.64-10.12l62.17-186.51a64 64 0 0 0-112.49-36.91z m-422 217.42A32.07 32.07 0 0 0 261.14 704h57.13l-60.63-181.88q-0.25-0.74-0.45-1.47a0.74 0.74 0 0 1 0-0.14c-0.12-0.43-0.23-0.86-0.33-1.3 0-0.12-0.06-0.24-0.08-0.37-0.08-0.33-0.14-0.67-0.2-1s-0.09-0.46-0.13-0.69-0.06-0.45-0.1-0.68-0.09-0.69-0.13-1v-0.37c0-0.44-0.08-0.89-0.1-1.34a0.66 0.66 0 0 1 0-0.14v-1.54a64 64 0 0 0-127.54-7.69zM640 0V192a64 64 0 0 0 128 0v-192z m256 32a32 32 0 0 0-32-32h-32V192a128 128 0 0 1-256 0v-192H224a32 32 0 0 0-32 32V384a127.73 127.73 0 0 1 96 43.42 127.94 127.94 0 0 1 176-15.36 128.07 128.07 0 0 1 160 0 127.94 127.94 0 0 1 176 15.36A127.73 127.73 0 0 1 896 384z"  horiz-adv-x="1024" />

    
    <glyph glyph-name="16gl-window" unicode="&#59438;" d="M928 64h-32V704a64.07 64.07 0 0 1-64 64H192a64.07 64.07 0 0 1-64-64v-32a32 32 0 0 1 64 0v32h256v-512H192V416a32 32 0 0 1-64 0v-224a64.07 64.07 0 0 1 64-64h452q-2.7-31.35-3.55-64H96a32 32 0 0 1 0-64h832a32 32 0 0 1 0 64zM512 192V704h128.46c1.95-65.81 10.17-116.88 25.47-158.94 13.83-38.06 33.3-69.81 63.55-103.06-39-82.16-64.34-163.19-77.8-250z m192.45-128c3.86 135.58 32.74 250.82 92.17 369.69a32 32 0 0 1-6 36.94c-53.2 53.21-82.15 105.87-86.14 233.37H832v-640zM352 384a32 32 0 0 0-32 32v64a32 32 0 0 0 64 0v-64a32 32 0 0 0-32-32z m288 96v-64a32 32 0 0 0-64 0v64a32 32 0 0 0 64 0zM252.62 593.69l-32-64a32 32 0 1 0-57.24 28.62l32 64a32 32 0 0 0 57.24-28.62z m33.69-53.07a32 32 0 0 0 14.31-42.93l-16-32a32 32 0 1 0-57.24 28.62l16 32a32 32 0 0 0 42.93 14.31z"  horiz-adv-x="1024" />

    
    <glyph glyph-name="16gl-store" unicode="&#59439;" d="M928 320a32 32 0 0 1-32-32v-256a32 32 0 0 0-32-32h-32V192a128 128 0 0 1-256 0v-192H224a32 32 0 0 0-32 32V288a32 32 0 0 1-64 0v-256a96.11 96.11 0 0 1 96-96h640a96.11 96.11 0 0 1 96 96V288a32 32 0 0 1-32 32zM640 0V192a64 64 0 0 0 128 0v-192z m-160 64a32 32 0 0 1 32 32V288a32 32 0 0 1-32 32H288a32 32 0 0 1-32-32v-192a32 32 0 0 1 32-32zM320 256h128v-128H320z m699.78 271.88L910.21 719.63A96.2 96.2 0 0 1 826.86 768H261.14a96.2 96.2 0 0 1-83.35-48.37L68.22 527.88A32 32 0 0 1 64 512a127.95 127.95 0 0 1 224-84.58 127.94 127.94 0 0 1 176-15.36 128.07 128.07 0 0 1 160 0 127.94 127.94 0 0 1 176 15.36A127.95 127.95 0 0 1 1024 512a32 32 0 0 1-4.22 15.88zM192 448a64.09 64.09 0 0 0-63.54 56.31l104.9 183.57A32.07 32.07 0 0 0 261.14 704h57.13l-60.63-181.88q-0.25-0.74-0.45-1.47a0.74 0.74 0 0 1 0-0.14c-0.12-0.43-0.23-0.86-0.33-1.3 0-0.12-0.06-0.24-0.08-0.37-0.08-0.33-0.14-0.67-0.2-1s-0.09-0.46-0.13-0.69-0.06-0.45-0.1-0.68-0.09-0.69-0.13-1v-0.37c0-0.44-0.08-0.89-0.1-1.34a0.66 0.66 0 0 1 0-0.14v-1.54A64.07 64.07 0 0 0 192 448z m192 0a64.06 64.06 0 0 0-63.81 59.37l62.17 186.51A31.94 31.94 0 0 1 384 704h63.93l-15.25-233.54A63.91 63.91 0 0 0 384 448z m160 0a63.89 63.89 0 0 0-47.29 20.88l15.22 233c0.05 0.7 0.06 1.4 0.06 2.09h64c0-0.69 0-1.39 0.06-2.09l15.22-233A63.89 63.89 0 0 0 544 448z m160 0a63.89 63.89 0 0 0-48.68 22.46L640.07 704H704a31.94 31.94 0 0 1 1.64-10.12l62.17-186.51A64.06 64.06 0 0 0 704 448z m192 0a64.07 64.07 0 0 0-64 64v1.51a0.91 0.91 0 0 1 0 0.17c0 0.44-0.05 0.87-0.1 1.31v0.4c0 0.34-0.08 0.67-0.13 1s-0.07 0.48-0.11 0.72-0.07 0.43-0.11 0.65-0.13 0.7-0.21 1c0 0.11 0 0.22-0.08 0.33-0.1 0.45-0.21 0.89-0.33 1.33v0.1c-0.14 0.51-0.29 1-0.46 1.51L769.73 704h57.13a32.07 32.07 0 0 0 27.78-16.12l104.9-183.57A64.09 64.09 0 0 0 896 448z"  horiz-adv-x="1024" />

    
    <glyph glyph-name="16gl-chartBarUpward" unicode="&#59455;" d="M336 256h-96a48.05 48.05 0 0 1-48-48v-224a48.05 48.05 0 0 1 48-48h96a48.05 48.05 0 0 1 48 48V208a48.05 48.05 0 0 1-48 48z m-16-256h-64V192h64z m528 512h-96a48.05 48.05 0 0 1-48-48v-480a48.05 48.05 0 0 1 48-48h96a48.05 48.05 0 0 1 48 48V464a48.05 48.05 0 0 1-48 48z m-16-512h-64V448h64zM592 384h-96a48.05 48.05 0 0 1-48-48v-352a48.05 48.05 0 0 1 48-48h96a48.05 48.05 0 0 1 48 48V336a48.05 48.05 0 0 1-48 48z m-16-384h-64V320h64zM896 800.15V704a32 32 0 0 0-64 0v18.75L630.63 521.37a32 32 0 0 0-45.26 0L480 626.75 246.63 393.37a32 32 0 0 0-45.26 45.26l256 256a32 32 0 0 0 45.26 0L608 589.25 786.75 768H768a32 32 0 0 0 0 64h96.19A32 32 0 0 0 896 800.19z"  horiz-adv-x="1024" />

    
    <glyph glyph-name="16gl-chartPie" unicode="&#59456;" d="M480-64a409.51 409.51 0 0 0-161.41 32.94A421.24 421.24 0 0 0 96.94 190.59000000000003a411.93 411.93 0 0 0 0 322.82 421.24 421.24 0 0 0 221.65 221.65A409.51 409.51 0 0 0 480 768a32 32 0 0 0 32-32v-352h352a32 32 0 0 0 32-32 409.51 409.51 0 0 0-32.94-161.41 421.24 421.24 0 0 0-221.65-221.65A409.51 409.51 0 0 0 480-64z m-32 766.56C268.84 686.35 128 535.31 128 352c0-194.09 157.91-352 352-352 183.31 0 334.35 140.84 350.56 320H480a32 32 0 0 0-32 32zM928 448H608a32 32 0 0 0-32 32V800a32 32 0 0 0 32 32 352 352 0 0 0 352-352 32 32 0 0 0-32-32z m-288 64h254.18A287.82 287.82 0 0 1 640 766.1800000000001z"  horiz-adv-x="1024" />

    
    <glyph glyph-name="16gl-chartBarDownward" unicode="&#59457;" d="M336 512h-96a48.05 48.05 0 0 1-48-48v-480a48.05 48.05 0 0 1 48-48h96a48.05 48.05 0 0 1 48 48V464a48.05 48.05 0 0 1-48 48z m-16-512h-64V448h64z m272 384h-96a48.05 48.05 0 0 1-48-48v-352a48.05 48.05 0 0 1 48-48h96a48.05 48.05 0 0 1 48 48V336a48.05 48.05 0 0 1-48 48z m-16-384h-64V320h64z m272 256h-96a48.05 48.05 0 0 1-48-48v-224a48.05 48.05 0 0 1 48-48h96a48.05 48.05 0 0 1 48 48V208a48.05 48.05 0 0 1-48 48z m-16-256h-64V192h64z m64 512v-96.19A32 32 0 0 0 864.19 384H768a32 32 0 0 0 0 64h18.75L608 626.75 502.63 521.37a32 32 0 0 0-45.26 0l-256 256a32 32 0 0 0 45.26 45.26L480 589.25l105.37 105.38a32 32 0 0 0 45.26 0L832 493.25V512a32 32 0 0 0 64 0z"  horiz-adv-x="1024" />

    
    <glyph glyph-name="16gl-chartLineDownward" unicode="&#59458;" d="M960-32a32 32 0 0 0-32-32H96a32 32 0 0 0-32 32V800a32 32 0 0 0 64 0v-800h800a32 32 0 0 0 32-32zM192 608a96 96 0 1 0 187.63-28.72l111.16-83.37a96 96 0 0 0 110.77-3.08l41.36 27.58a96 96 0 1 0 162.18-43.05l47-94.09A96 96 0 1 0 768 288a95.71 95.71 0 0 0 26.9 66.64l-47 94.09a96.71 96.71 0 0 0-11.9-0.73 95.55 95.55 0 0 0-57.56 19.17l-41.36-27.58a96 96 0 1 0-184.71 5.13l-111.16 83.37A96 96 0 0 0 192 608z m672-288a32 32 0 1 1 32-32 32 32 0 0 1-32 32zM704 544a32 32 0 1 1 32 32 32 32 0 0 1-32-32zM512 416a32 32 0 1 1 32 32 32 32 0 0 1-32-32zM256 608a32 32 0 1 1 32 32 32 32 0 0 1-32-32z"  horiz-adv-x="1024" />

    
    <glyph glyph-name="16gl-chartLineUpward" unicode="&#59459;" d="M960-32a32 32 0 0 0-32-32H96a32 32 0 0 0-32 32V800a32 32 0 0 0 64 0v-800h800a32 32 0 0 0 32-32zM192 288a96 96 0 0 0 137.39 86.64l64 64a96 96 0 1 0 176.68 8L623 402.53A95.54 95.54 0 0 0 672 416a96.54 96.54 0 0 0 23.59-2.92l91.58 137.36A96 96 0 1 0 864 512a96.54 96.54 0 0 0-23.59 2.92l-91.58-137.36A96 96 0 1 0 582 353.37l-52.91 44.1a96.11 96.11 0 0 0-90.44-4.11l-64-64A96 96 0 1 0 192 288z m640 320a32 32 0 1 1 32 32 32 32 0 0 1-32-32zM672 352a32 32 0 1 1 32-32 32 32 0 0 1-32 32zM448 480a32 32 0 1 1 32 32 32 32 0 0 1-32-32zM256 288a32 32 0 1 1 32 32 32 32 0 0 1-32-32z"  horiz-adv-x="1024" />

    
    <glyph glyph-name="16gl-chartScatter" unicode="&#59460;" d="M928-64H96a32 32 0 0 0-32 32V800a32 32 0 0 0 64 0v-800h800a32 32 0 0 0 0-64zM288 320a32 32 0 1 1 32-32 32 32 0 0 1-32 32m0 64a96 96 0 1 0-96-96 96 96 0 0 0 96 96z m256 64a32 32 0 1 1 32-32 32 32 0 0 1-32 32m0 64a96 96 0 1 0-96-96 96 96 0 0 0 96 96zM352 640a32 32 0 1 1 32-32 32 32 0 0 1-32 32m0 64a96 96 0 1 0-96-96 96 96 0 0 0 96 96z m384-448a32 32 0 1 1 32-32 32 32 0 0 1-32 32m0 64a96 96 0 1 0-96-96 96 96 0 0 0 96 96z m64 288a32 32 0 1 1 32-32 32 32 0 0 1-32 32m0 64a96 96 0 1 0-96-96 96 96 0 0 0 96 96z"  horiz-adv-x="1024" />

    
    <glyph glyph-name="16gl-bag" unicode="&#59466;" d="M956.32 6.3700000000000045l-57.6 576A63.8 63.8 0 0 1 835 640H704v32c0 88.22-71.78 160-160 160s-160-71.78-160-160v-32H253a63.8 63.8 0 0 1-63.68-57.63l-57.6-576A64 64 0 0 1 195.36-64h697.28a64 64 0 0 1 63.68 70.37zM448 672a96 96 0 0 0 192 0v-32H448z m444.64-672H195.36L253 576h131v-72.61a64 64 0 1 1 64 0V576h192v-72.61a64 64 0 1 1 64 0V576h131l57.7-576z"  horiz-adv-x="1024" />

    
    <glyph glyph-name="16gl-bag2" unicode="&#59467;" d="M956.32 6.3700000000000045l-57.6 576A63.8 63.8 0 0 1 835 640H704v64A128 128 0 0 1 512 814.84 128 128 0 0 1 320 704v-64H189a63.8 63.8 0 0 1-63.68-57.63l-57.6-576A64 64 0 0 1 131.36-64h761.28a64 64 0 0 1 63.68 70.37zM640 704v-64H512v64a64 64 0 0 0 128 0z m-256 0a64 64 0 0 0 80 61.95A127.13 127.13 0 0 1 448 704v-64h-64zM189 576h63.68l-57-569.63a61.88 61.88 0 0 1-0.31-6.37h-64z m703.64-576H259.36L317 576h131v-72.61a64 64 0 1 1 64 0V576h128v-72.61a64 64 0 1 1 64 0V576h131l57.7-576z"  horiz-adv-x="1024" />

    
    <glyph glyph-name="16gl-bagFull2" unicode="&#59468;" d="M956.32 6.3700000000000045l-57.6 576A63.8 63.8 0 0 1 835 640h-85.74L630.63 758.63a32 32 0 0 1-45.26 0L544 717.26 438.63 822.63a32 32 0 0 1-45.26 0L210.75 640H189a63.8 63.8 0 0 1-63.68-57.63l-57.6-576A64 64 0 0 1 131.36-64h761.28a64 64 0 0 1 63.68 70.37zM608 690.75L658.74 640h-37.49l-32 32z m-192 64l105.36-105.36 9.36-9.36H301.25zM189 576h63.68l-57-569.63a61.88 61.88 0 0 1-0.31-6.37h-64z m703.64-576H259.36L317 576h518l57.7-576zM736 448a64 64 0 0 0-32-55.39V256a128 128 0 0 0-256 0V392.61a64 64 0 1 0 64 0V256a64 64 0 0 1 128 0V392.61A64 64 0 1 0 736 448z"  horiz-adv-x="1024" />

    
    <glyph glyph-name="16gl-bagFull" unicode="&#59469;" d="M956.32 6.3700000000000045l-57.6 576A63.8 63.8 0 0 1 835 640h-21.74L694.63 758.63a32 32 0 0 1-45.26 0L608 717.26 502.63 822.63a32 32 0 0 1-45.26 0L274.75 640H253a63.8 63.8 0 0 1-63.68-57.63l-57.6-576A64 64 0 0 1 195.36-64h697.28a64 64 0 0 1 63.68 70.37zM672 690.75L722.74 640h-37.49l-32 32z m-192 64l105.36-105.36 9.36-9.36H365.25zM892.64 0H195.36L253 576h582l57.7-576zM736 448a64 64 0 0 0-32-55.39V288c0-88.22-71.78-160-160-160s-160 71.78-160 160V392.61a64 64 0 1 0 64 0V288a96 96 0 0 1 192 0V392.61A64 64 0 1 0 736 448z"  horiz-adv-x="1024" />

    
    <glyph glyph-name="16gl-banknote" unicode="&#59470;" d="M960 704H128a64.07 64.07 0 0 1-64-64v-576a64.07 64.07 0 0 1 64-64h832a64.07 64.07 0 0 1 64 64V640a64.07 64.07 0 0 1-64 64z m0-640H128V640h832v-576z m-96 448a32 32 0 0 0-32 32 32 32 0 0 1-32 32H288a32 32 0 0 1-32-32 32 32 0 0 0-32-32 32 32 0 0 1-32-32v-256a32 32 0 0 1 32-32 32 32 0 0 0 32-32 32 32 0 0 1 32-32h512a32 32 0 0 1 32 32 32 32 0 0 0 32 32 32 32 0 0 1 32 32V480a32 32 0 0 1-32 32z m-32-261.48A96.49 96.49 0 0 1 773.48 192h-459A96.49 96.49 0 0 1 256 250.51999999999998v203A96.49 96.49 0 0 1 314.52 512h459A96.49 96.49 0 0 1 832 453.48zM544 448a96 96 0 1 1 96-96 96.11 96.11 0 0 1-96 96z m0-128a32 32 0 1 0 32 32 32 32 0 0 0-32-32z m-160 32a32 32 0 1 0-32 32 32 32 0 0 0 32-32z m384 0a32 32 0 1 0-32 32 32 32 0 0 0 32-32z"  horiz-adv-x="1024" />

    
    <glyph glyph-name="16gl-box2" unicode="&#59471;" d="M960 545.37a1.48 1.48 0 0 0 0 0.21c0 0.67-0.09 1.33-0.16 2v0.33c-0.07 0.58-0.16 1.16-0.26 1.73v0.28a31.71 31.71 0 0 1-1 4c-0.21 0.67-0.45 1.32-0.71 2v0.07a31.38 31.38 0 0 1-1.83 3.78l-0.13 0.23c-0.34 0.58-0.69 1.16-1.06 1.72l-0.12 0.17-118.6 177.61a63.88 63.88 0 0 1-53.26 28.5H305.13a63.85 63.85 0 0 1-53.25-28.5L133.52 562l-0.14-0.21c-0.38-0.57-0.74-1.16-1.08-1.75a2.39 2.39 0 0 1-0.13-0.21 32.26 32.26 0 0 1-1.83-3.79v-0.06c-0.27-0.66-0.51-1.32-0.73-2a31.87 31.87 0 0 1-1-4 2.56 2.56 0 0 0-0.05-0.27c-0.1-0.58-0.19-1.16-0.26-1.74v-0.32c-0.07-0.66-0.13-1.32-0.16-2a1.48 1.48 0 0 0 0-0.21V64a64.07 64.07 0 0 1 64-64H896a64.07 64.07 0 0 1 64 64V544v1.37zM868.21 576H576V704h206.87zM305.13 704H512v-128H219.79zM896 64H192V512h704v-448zM640 352a32 32 0 0 0-32-32H480a32 32 0 0 0 0 64h128a32 32 0 0 0 32-32z"  horiz-adv-x="1024" />

    
    <glyph glyph-name="16gl-cart" unicode="&#59472;" d="M704-64a64 64 0 1 0 64 64 64.07 64.07 0 0 0-64-64z m0 64z m-320-64a64 64 0 1 0 64 64 64.07 64.07 0 0 0-64-64z m0 64z m429.31 191.71L950.5 575.86A48 48 0 0 1 905.3 640H352a32 32 0 0 1 0-64h530.59L753 213.24A32.06 32.06 0 0 0 722.9 192H368.65a32.11 32.11 0 0 0-30.84 23.44l-147 529.12A32 32 0 0 1 160 768H96a32 32 0 0 1 0-64h39.68l140.47-505.69a96.28 96.28 0 0 1 92.5-70.31H722.9a96.22 96.22 0 0 1 90.41 63.71z"  horiz-adv-x="1024" />

    
    <glyph glyph-name="16gl-cart3" unicode="&#59473;" d="M704-64a64 64 0 1 0 64 64 64.07 64.07 0 0 0-64-64z m0 64z m-320-64a64 64 0 1 0 64 64 64.07 64.07 0 0 0-64-64z m0 64z m372.67 256H416a32 32 0 0 0 0 64h340.67a31.85 31.85 0 0 1 29.71 20.12L880.73 576H352a32 32 0 0 0 0 64h552.37a48 48 0 0 0 44.56-65.83L845.8 316.35A95.54 95.54 0 0 0 756.67 256z m147.7 320zM832 160a32 32 0 0 1-32 32H368.65a32.11 32.11 0 0 0-30.84 23.44l-147 529.12A32 32 0 0 1 160 768H96a32 32 0 0 1 0-64h39.68l140.47-505.69a96.28 96.28 0 0 1 92.5-70.31H800a32 32 0 0 1 32 32z"  horiz-adv-x="1024" />

    
    <glyph glyph-name="16gl-cart2" unicode="&#59474;" d="M704-64a64 64 0 1 0 64 64 64.07 64.07 0 0 0-64-64z m0 64z m-320-64a64 64 0 1 0 64 64 64.07 64.07 0 0 0-64-64z m0 64z m338.9 128H368.65a96.28 96.28 0 0 0-92.5 70.31L135.68 704H96a32 32 0 0 0 0 64h64a32 32 0 0 0 30.83-23.44l29-104.56H905.3a48 48 0 0 0 45.2-64.14L813.31 191.71000000000004A96.22 96.22 0 0 0 722.9 128zM237.66 576l100.15-360.56A32.11 32.11 0 0 1 368.65 192H722.9a32.06 32.06 0 0 1 30.1 21.24L882.59 576z"  horiz-adv-x="1024" />

    
    <glyph glyph-name="16gl-cart4" unicode="&#59475;" d="M768 0a64 64 0 1 0-64 64 64.07 64.07 0 0 0 64-64z m-384 64a64 64 0 1 1 64-64 64.07 64.07 0 0 1-64 64z m564.93 510.17L845.8 316.35A95.54 95.54 0 0 0 756.67 256H326.55l11.26-40.56A32.11 32.11 0 0 1 368.65 192H800a32 32 0 0 0 0-64H368.65a96.28 96.28 0 0 0-92.5 70.31L135.68 704H96a32 32 0 0 0 0 64h64a32 32 0 0 0 30.83-23.44l29-104.56h684.54a48 48 0 0 0 44.56-65.83z m-68.2 1.83H237.66l71.11-256h447.9a31.85 31.85 0 0 1 29.71 20.12z"  horiz-adv-x="1024" />

    
    <glyph glyph-name="16gl-box" unicode="&#59476;" d="M960 545.37a1.48 1.48 0 0 0 0 0.21c0 0.67-0.09 1.33-0.16 2v0.33c-0.07 0.58-0.16 1.16-0.26 1.73v0.28a31.71 31.71 0 0 1-1 4c-0.21 0.67-0.45 1.32-0.71 2v0.07a31.38 31.38 0 0 1-1.83 3.78l-0.13 0.23c-0.34 0.58-0.69 1.16-1.06 1.72l-0.12 0.17-118.6 177.61a63.88 63.88 0 0 1-53.26 28.5H241.13a63.85 63.85 0 0 1-53.25-28.5L69.52 562l-0.14-0.21c-0.38-0.57-0.74-1.16-1.08-1.75a2.39 2.39 0 0 1-0.13-0.21 32.26 32.26 0 0 1-1.84-3.83v-0.06c-0.27-0.66-0.51-1.32-0.73-2a31.87 31.87 0 0 1-1-4 2.56 2.56 0 0 0 0-0.27c-0.1-0.58-0.19-1.16-0.26-1.74v-0.32c-0.07-0.66-0.13-1.32-0.16-2a1.48 1.48 0 0 0 0-0.21V64a64.07 64.07 0 0 1 64-64H896a64.07 64.07 0 0 1 64 64V544v1.37zM868.21 576H695.06L652.4 704h130.47zM384 512h256v-128H384z m200.94 192l42.66-128H396.4l42.66 128z m-343.81 0H371.6l-42.66-128H155.79zM896 64H128V512h192v-160a32 32 0 0 1 32-32h320a32 32 0 0 1 32 32V512h192v-448z m-192 96a32 32 0 0 0-32-32h-64a32 32 0 0 0 0 64h64a32 32 0 0 0 32-32z m128 0a32 32 0 1 0-32 32 32 32 0 0 0 32-32z"  horiz-adv-x="1024" />

    
    <glyph glyph-name="16gl-cart6" unicode="&#59477;" d="M448 0a64 64 0 1 0-64 64 64.07 64.07 0 0 0 64-64z m256 64a64 64 0 1 1 64-64 64.07 64.07 0 0 1-64 64z m241 506.53L843.2 366.84000000000003a96.28 96.28 0 0 0-70.09-51.76l-442.49-73.75 7.19-25.89A32.11 32.11 0 0 1 368.65 192H800a32 32 0 0 0 0-64H368.65a96.28 96.28 0 0 0-92.5 70.31L135.68 704H96a32 32 0 0 0 0 64h64a32 32 0 0 0 30.83-23.44l29-104.56h682.28A48 48 0 0 0 945 570.53zM876.22 576H237.66l75.74-272.66 449.19 74.87A32 32 0 0 1 786 395.46z"  horiz-adv-x="1024" />

    
    <glyph glyph-name="16gl-cart5" unicode="&#59478;" d="M704-64a64 64 0 1 0 64 64 64.07 64.07 0 0 0-64-64z m0 64z m-320-64a64 64 0 1 0 64 64 64.07 64.07 0 0 0-64-64z m0 64z m32 256a32 32 0 0 0-5.22 63.56l351.85 58.65A32 32 0 0 1 786 395.46L876.22 576H352a32 32 0 0 0 0 64h550.11A48 48 0 0 0 945 570.53L843.2 366.84000000000003a96.28 96.28 0 0 0-70.09-51.76l-351.85-58.64a31.85 31.85 0 0 0-5.26-0.44z m486.11 320zM832 160a32 32 0 0 1-32 32H368.65a32.11 32.11 0 0 0-30.84 23.44l-147 529.12A32 32 0 0 1 160 768H96a32 32 0 0 1 0-64h39.68l140.47-505.69a96.28 96.28 0 0 1 92.5-70.31H800a32 32 0 0 1 32 32z"  horiz-adv-x="1024" />

    
    <glyph glyph-name="16gl-cart7" unicode="&#59479;" d="M704-64a64 64 0 1 0 64 64 64.07 64.07 0 0 0-64-64z m0 64z m-320-64a64 64 0 1 0 64 64 64.07 64.07 0 0 0-64-64z m0 64z m372.67 256H416a32 32 0 0 0 0 64h340.67a31.85 31.85 0 0 1 29.71 20.12L880.73 576H352a32 32 0 0 0 0 64h552.37a48 48 0 0 0 44.56-65.83L845.8 316.35A95.54 95.54 0 0 0 756.67 256z m147.7 320zM832 160a32 32 0 0 1-32 32H338a32 32 0 0 0-31.05 39.76l8 31.85a96.13 96.13 0 0 1-0.83 49.66L190.77 744.79A32 32 0 0 1 160 768H96a32 32 0 0 1 0-64h39.86l116.66-408.31a32.07 32.07 0 0 0 0.28-16.56l-8-31.85A96 96 0 0 1 338 128h462a32 32 0 0 1 32 32z"  horiz-adv-x="1024" />

    
    <glyph glyph-name="16gl-cart9" unicode="&#59480;" d="M704-64a64 64 0 1 0 64 64 64.07 64.07 0 0 0-64-64z m0 64z m-320-64a64 64 0 1 0 64 64 64.07 64.07 0 0 0-64-64z m0 64z m32 256a32 32 0 0 0-5.22 63.56l351.85 58.65A32 32 0 0 1 786 395.46L876.22 576H352a32 32 0 0 0 0 64h550.11A48 48 0 0 0 945 570.53L843.2 366.84000000000003a96.28 96.28 0 0 0-70.09-51.76l-351.85-58.64a31.85 31.85 0 0 0-5.26-0.44z m486.11 320zM832 160a32 32 0 0 1-32 32H338a32 32 0 0 0-31.05 39.76l8 31.85a96.13 96.13 0 0 1-0.83 49.66L190.77 744.79A32 32 0 0 1 160 768H96a32 32 0 0 1 0-64h39.86l116.66-408.31a32.07 32.07 0 0 0 0.28-16.56l-8-31.85A96 96 0 0 1 338 128h462a32 32 0 0 1 32 32z"  horiz-adv-x="1024" />

    
    <glyph glyph-name="16gl-cart8" unicode="&#59481;" d="M768 0a64 64 0 1 0-64 64 64.07 64.07 0 0 0 64-64z m-384 64a64 64 0 1 1 64-64 64.07 64.07 0 0 1-64 64z m564.93 510.17L845.8 316.35A95.54 95.54 0 0 0 756.67 256H313l-6.06-24.24A32 32 0 0 1 338 192h462a32 32 0 0 0 0-64H338a96 96 0 0 0-93.13 119.28l8 31.85a32.07 32.07 0 0 1-0.28 16.56L135.86 704H96a32 32 0 0 0 0 64h64a32 32 0 0 0 30.77-23.21L220.71 640h683.66a48 48 0 0 0 44.56-65.83z m-68.2 1.83H239l73.14-256h444.53a31.85 31.85 0 0 1 29.71 20.12z"  horiz-adv-x="1024" />

    
    <glyph glyph-name="16gl-cart10" unicode="&#59482;" d="M768 0a64 64 0 1 0-64 64 64.07 64.07 0 0 0 64-64z m-384 64a64 64 0 1 1 64-64 64.07 64.07 0 0 1-64 64z m561 506.53L843.2 366.84000000000003a96.28 96.28 0 0 0-70.09-51.76l-464.72-77.46-1.47-5.86A32 32 0 0 1 338 192h462a32 32 0 0 0 0-64H338a96 96 0 0 0-93.13 119.28l6.39 25.72c0.05 0.21 0.11 0.43 0.16 0.64l1.38 5.5a32.07 32.07 0 0 1-0.28 16.56L135.86 704H96a32 32 0 0 0 0 64h64a32 32 0 0 0 30.77-23.21L220.71 640h681.4A48 48 0 0 0 945 570.53zM876.22 576H239l75.06-262.73a96.49 96.49 0 0 0 2.19-9.45l446.34 74.39A32 32 0 0 1 786 395.46z"  horiz-adv-x="1024" />

    
    <glyph glyph-name="16gl-cartFull2" unicode="&#59483;" d="M448 0a64 64 0 1 0-64 64 64.07 64.07 0 0 0 64-64z m256 64a64 64 0 1 1 64-64 64.07 64.07 0 0 1-64 64z m246.5 511.86L813.31 191.71000000000004A96.22 96.22 0 0 0 722.9 128H368.65a96.28 96.28 0 0 0-92.5 70.31L135.68 704H96a32 32 0 0 0 0 64h64a32 32 0 0 0 30.83-23.44l29-104.56h54.87L457.37 822.63a32 32 0 0 0 45.26 0L608 717.26l41.37 41.37a32 32 0 0 0 45.26 0L813.26 640h92a48 48 0 0 0 45.2-64.14zM653.25 672l32-32h37.49L672 690.75z m-288-32h229.5l-9.36 9.36L480 754.75z m517.34-64H237.66l100.15-360.56A32.11 32.11 0 0 1 368.65 192H722.9a32.06 32.06 0 0 1 30.1 21.24z"  horiz-adv-x="1024" />

    
    <glyph glyph-name="16gl-cartFull4" unicode="&#59484;" d="M448 0a64 64 0 1 0-64 64 64.07 64.07 0 0 0 64-64z m256 64a64 64 0 1 1 64-64 64.07 64.07 0 0 1-64 64z m244.93 510.17L845.8 316.35A95.54 95.54 0 0 0 756.67 256H326.55l11.26-40.56A32.11 32.11 0 0 1 368.65 192H800a32 32 0 0 0 0-64H368.65a96.28 96.28 0 0 0-92.5 70.31L135.68 704H96a32 32 0 0 0 0 64h64a32 32 0 0 0 30.83-23.44l29-104.56h54.87L446.06 811.31a48 48 0 0 0 67.88 0L608 717.25l30.06 30.06a48 48 0 0 0 67.88 0L813.26 640h91.11a48 48 0 0 0 44.56-65.83zM653.25 672l32-32h37.49L672 690.75z m-288-32h229.5l-9.36 9.36L480 754.75z m515.48-64H237.66l71.11-256h447.9a31.85 31.85 0 0 1 29.71 20.12z"  horiz-adv-x="1024" />

    
    <glyph glyph-name="16gl-cartFull" unicode="&#59485;" d="M768 0a64 64 0 1 0-64 64 64.07 64.07 0 0 0 64-64z m-384 64a64 64 0 1 1 64-64 64.07 64.07 0 0 1-64 64z m566.5 511.86L813.31 191.71000000000004A96.22 96.22 0 0 0 722.9 128H368.65a96.28 96.28 0 0 0-92.5 70.31L135.68 704H96a32 32 0 0 0 0 64h64a32 32 0 0 0 30.83-23.44l147-529.12A32.11 32.11 0 0 1 368.65 192H722.9a32.06 32.06 0 0 1 30.1 21.24L882.59 576H349.72l-0.88 0.07-0.9 0.1-0.64 0.09c-0.33 0-0.65 0.1-1 0.16l-0.55 0.1c-0.33 0.06-0.66 0.14-1 0.22s-0.36 0.07-0.53 0.12l-1 0.26-0.56 0.16-0.88 0.28-0.63 0.21-0.77 0.3-0.71 0.27-0.67 0.3-0.78 0.35-0.57 0.28-0.85 0.43-0.48 0.27-0.89 0.51-0.43 0.27c-0.3 0.19-0.59 0.37-0.88 0.57l-0.43 0.3q-0.43 0.29-0.84 0.6l-0.48 0.36-0.75 0.59-0.6 0.52-0.58 0.5c-0.38 0.35-0.76 0.71-1.12 1.07-0.36 0.37-0.72 0.75-1.07 1.13l-0.49 0.57-0.53 0.61-0.59 0.75-0.36 0.48c-0.21 0.27-0.4 0.55-0.6 0.83l-0.3 0.44c-0.2 0.29-0.38 0.58-0.56 0.87l-0.28 0.45c-0.17 0.28-0.34 0.58-0.5 0.87l-0.28 0.49c-0.15 0.28-0.29 0.56-0.43 0.84s-0.19 0.38-0.28 0.58-0.24 0.51-0.35 0.77l-0.3 0.68-0.27 0.69-0.3 0.8-0.21 0.6c-0.09 0.3-0.19 0.6-0.29 0.9l-0.15 0.54c-0.09 0.33-0.18 0.65-0.26 1l-0.12 0.51c-0.08 0.33-0.15 0.67-0.22 1 0 0.17-0.06 0.34-0.09 0.51-0.06 0.34-0.13 0.68-0.18 1s0 0.39-0.07 0.59-0.08 0.63-0.11 0.95-0.05 0.52-0.06 0.78-0.05 0.52-0.06 0.78v1.67 1.49c0 0.26 0 0.52 0.06 0.78s0 0.52 0.06 0.78 0.07 0.64 0.11 0.95 0.05 0.39 0.07 0.59 0.12 0.68 0.18 1c0 0.17 0.05 0.34 0.09 0.51 0.07 0.35 0.14 0.69 0.22 1l0.12 0.51c0.08 0.33 0.17 0.65 0.26 1l0.15 0.54c0.1 0.3 0.2 0.6 0.29 0.9l0.21 0.6 0.3 0.8 0.27 0.69 0.3 0.68c0.11 0.26 0.23 0.52 0.35 0.77s0.19 0.39 0.28 0.58 0.28 0.56 0.43 0.84l0.28 0.49c0.16 0.29 0.33 0.59 0.5 0.87l0.28 0.45c0.18 0.29 0.36 0.58 0.56 0.87l0.3 0.44c0.2 0.28 0.39 0.56 0.6 0.83l0.36 0.48 0.59 0.75 0.53 0.61 0.49 0.57c0.35 0.38 0.71 0.76 1.07 1.13l192 192a32 32 0 0 0 45.26 0L672 717.25l41.37 41.38a32 32 0 0 0 45.26 0L877.26 640h28a48 48 0 0 0 45.2-64.14zM717.25 672l32-32h37.49L736 690.75z m-288-32h229.5l-9.36 9.36L544 754.75z"  horiz-adv-x="1024" />

    
    <glyph glyph-name="16gl-cartFull3" unicode="&#59486;" d="M448 0a64 64 0 1 0-64 64 64.07 64.07 0 0 0 64-64z m256 64a64 64 0 1 1 64-64 64.07 64.07 0 0 1-64 64z m244.93 510.17L845.8 316.35A95.54 95.54 0 0 0 756.67 256H416a32 32 0 0 0 0 64h340.67a31.85 31.85 0 0 1 29.71 20.12L880.73 576H349.72l-0.88 0.07-0.9 0.1-0.64 0.09c-0.33 0-0.65 0.1-1 0.16l-0.55 0.1c-0.33 0.06-0.66 0.14-1 0.22s-0.36 0.07-0.53 0.12l-1 0.26-0.56 0.16-0.88 0.28-0.63 0.21-0.77 0.3-0.71 0.27-0.67 0.3-0.78 0.35-0.57 0.28-0.85 0.43-0.48 0.27-0.89 0.51-0.43 0.27c-0.3 0.19-0.59 0.37-0.88 0.57l-0.43 0.3q-0.43 0.29-0.84 0.6l-0.48 0.36-0.75 0.59-0.6 0.52-0.58 0.5c-0.38 0.35-0.76 0.71-1.12 1.07-0.36 0.37-0.72 0.75-1.07 1.13l-0.49 0.57c-0.18 0.2-0.36 0.4-0.53 0.61l-0.58 0.74-0.38 0.49c-0.2 0.27-0.39 0.55-0.58 0.83s-0.21 0.29-0.31 0.44-0.38 0.57-0.56 0.87-0.19 0.29-0.28 0.45-0.34 0.57-0.5 0.86l-0.28 0.51c-0.15 0.27-0.28 0.55-0.42 0.82s-0.2 0.39-0.29 0.59-0.24 0.51-0.35 0.76l-0.3 0.7-0.27 0.68-0.3 0.8c-0.07 0.2-0.14 0.4-0.2 0.6l-0.3 0.91-0.15 0.53c-0.09 0.33-0.18 0.65-0.26 1l-0.12 0.5c-0.08 0.34-0.15 0.68-0.22 1 0 0.17-0.06 0.34-0.09 0.51-0.06 0.34-0.13 0.68-0.18 1s0 0.39-0.07 0.58-0.08 0.64-0.11 1-0.05 0.52-0.06 0.78-0.05 0.52-0.06 0.78v1.66 1.5c0 0.26 0 0.52 0.06 0.77s0 0.53 0.06 0.79 0.07 0.63 0.11 0.95 0.05 0.39 0.07 0.59 0.11 0.68 0.18 1c0 0.17 0.05 0.34 0.09 0.51 0.07 0.35 0.14 0.68 0.22 1l0.12 0.51c0.08 0.33 0.17 0.65 0.26 1l0.15 0.55c0.1 0.3 0.19 0.6 0.29 0.89l0.21 0.61 0.3 0.8 0.27 0.69 0.3 0.68c0.11 0.26 0.23 0.52 0.35 0.77s0.19 0.39 0.28 0.58 0.28 0.56 0.43 0.84l0.28 0.49 0.5 0.88 0.28 0.44c0.18 0.29 0.36 0.58 0.56 0.87l0.3 0.44c0.2 0.28 0.39 0.56 0.6 0.83l0.36 0.48 0.59 0.75 0.53 0.61 0.49 0.57c0.35 0.38 0.71 0.76 1.07 1.13L510.06 811.31a48 48 0 0 0 67.88 0L672 717.25l30.06 30.06a48 48 0 0 0 67.88 0L877.26 640h27.11a48 48 0 0 0 44.56-65.83zM717.25 672l32-32h37.49L736 690.75z m-288-32h229.5l-9.36 9.36L544 754.75zM800 192H368.65a32.11 32.11 0 0 0-30.84 23.44l-147 529.12A32 32 0 0 1 160 768H96a32 32 0 0 1 0-64h39.68l140.47-505.69a96.28 96.28 0 0 1 92.5-70.31H800a32 32 0 0 1 0 64z"  horiz-adv-x="1024" />

    
    <glyph glyph-name="16gl-cartFull5" unicode="&#59487;" d="M768 0a64 64 0 1 0-64 64 64.07 64.07 0 0 0 64-64z m-384 64a64 64 0 1 1 64-64 64.07 64.07 0 0 1-64 64z m561 506.53L843.2 366.84000000000003a96.28 96.28 0 0 0-70.09-51.76l-351.85-58.64a32 32 0 1 0-10.52 63.12l351.85 58.65A32 32 0 0 1 786 395.46L876.22 576h-526.5l-0.88 0.07-0.89 0.1-0.65 0.09c-0.33 0-0.65 0.1-1 0.16l-0.55 0.1c-0.33 0.06-0.66 0.14-1 0.22l-0.54 0.12-0.94 0.26-0.57 0.16-0.88 0.28-0.63 0.21-0.77 0.29-0.71 0.28-0.67 0.29-0.79 0.36-0.56 0.28c-0.28 0.14-0.57 0.28-0.85 0.44l-0.48 0.26-0.89 0.51-0.43 0.27-0.89 0.57-0.42 0.29-0.85 0.61-0.45 0.35-0.77 0.6-0.58 0.5-0.6 0.52c-0.36 0.33-0.71 0.67-1.06 1l-0.09 0.08-0.08 0.09c-0.34 0.34-0.68 0.7-1 1.06l-0.51 0.59-0.51 0.59-0.59 0.76c-0.12 0.15-0.25 0.31-0.36 0.47s-0.41 0.55-0.6 0.84l-0.3 0.43c-0.2 0.29-0.38 0.58-0.56 0.87l-0.28 0.44-0.5 0.88-0.28 0.49q-0.23 0.42-0.42 0.84c-0.1 0.19-0.2 0.38-0.29 0.58s-0.24 0.51-0.35 0.77l-0.3 0.68-0.27 0.69-0.3 0.8c-0.07 0.2-0.14 0.4-0.2 0.6l-0.3 0.91-0.15 0.53c-0.09 0.33-0.18 0.65-0.26 1l-0.12 0.5c-0.08 0.34-0.15 0.68-0.22 1 0 0.17-0.06 0.34-0.09 0.51-0.06 0.34-0.13 0.68-0.18 1s0 0.39-0.07 0.58-0.08 0.64-0.11 1-0.05 0.52-0.06 0.78-0.05 0.52-0.06 0.78v1.66 1.5c0 0.26 0 0.52 0.06 0.77s0 0.53 0.06 0.79 0.07 0.63 0.11 0.95 0.05 0.39 0.07 0.59 0.11 0.68 0.18 1c0 0.17 0.05 0.34 0.09 0.51 0.07 0.35 0.14 0.68 0.22 1l0.12 0.51c0.08 0.33 0.17 0.65 0.26 1l0.15 0.55 0.29 0.89 0.21 0.61 0.3 0.79 0.27 0.7 0.3 0.68c0.11 0.26 0.23 0.52 0.35 0.77s0.19 0.39 0.28 0.58 0.28 0.56 0.43 0.84l0.27 0.48 0.51 0.89 0.27 0.43c0.19 0.3 0.37 0.59 0.57 0.89l0.29 0.42c0.2 0.28 0.4 0.57 0.61 0.85s0.24 0.3 0.35 0.46l0.6 0.76 0.51 0.59 0.51 0.59c0.33 0.36 0.67 0.72 1 1.06l0.08 0.09L510.06 811.31a48 48 0 0 0 67.88 0L672 717.25l30.06 30.06a48 48 0 0 0 67.88 0L877.26 640h24.85A48 48 0 0 0 945 570.53zM717.25 672l32-32h37.49L736 690.75z m-288-32h229.5l-9.36 9.36L544 754.75zM800 192H368.65a32.11 32.11 0 0 0-30.84 23.44l-147 529.12A32 32 0 0 1 160 768H96a32 32 0 0 1 0-64h39.68l140.47-505.69a96.28 96.28 0 0 1 92.5-70.31H800a32 32 0 0 1 0 64z"  horiz-adv-x="1024" />

    
    <glyph glyph-name="16gl-cartFull6" unicode="&#59488;" d="M448 0a64 64 0 1 0-64 64 64.07 64.07 0 0 0 64-64z m256 64a64 64 0 1 1 64-64 64.07 64.07 0 0 1-64 64z m241 506.53L843.2 366.84000000000003a96.28 96.28 0 0 0-70.09-51.76l-442.49-73.75 7.19-25.89A32.11 32.11 0 0 1 368.65 192H800a32 32 0 0 0 0-64H368.65a96.28 96.28 0 0 0-92.5 70.31L135.68 704H96a32 32 0 0 0 0 64h64a32 32 0 0 0 30.83-23.44l29-104.56h54.87L446.06 811.31a48 48 0 0 0 67.88 0L608 717.25l30.06 30.06a48 48 0 0 0 67.88 0L813.26 640h88.85A48 48 0 0 0 945 570.53zM653.25 672l32-32h37.49L672 690.75z m-288-32h229.5l-9.36 9.36L480 754.75z m511-64H237.66l75.74-272.66 449.19 74.87A32 32 0 0 1 786 395.46z"  horiz-adv-x="1024" />

    
    <glyph glyph-name="16gl-cartFull9" unicode="&#59489;" d="M768 0a64 64 0 1 0-64 64 64.07 64.07 0 0 0 64-64z m-384 64a64 64 0 1 1 64-64 64.07 64.07 0 0 1-64 64z m561 506.53L843.2 366.84000000000003a96.28 96.28 0 0 0-70.09-51.76l-351.85-58.64a32 32 0 1 0-10.52 63.12l351.85 58.65A32 32 0 0 1 786 395.46L876.22 576h-526.5l-0.88 0.07-0.89 0.1-0.65 0.09c-0.33 0-0.65 0.1-1 0.16l-0.55 0.1c-0.33 0.06-0.66 0.14-1 0.22l-0.54 0.12-0.94 0.26-0.57 0.16-0.88 0.28-0.63 0.21-0.77 0.29-0.71 0.28-0.67 0.29-0.79 0.36-0.56 0.28c-0.28 0.14-0.57 0.28-0.85 0.44l-0.48 0.26-0.89 0.51-0.43 0.27-0.89 0.57-0.42 0.29-0.85 0.61-0.45 0.35-0.77 0.6-0.58 0.5-0.6 0.52c-0.36 0.33-0.71 0.67-1.06 1l-0.09 0.08-0.08 0.09c-0.34 0.34-0.68 0.7-1 1.06l-0.51 0.59-0.51 0.59-0.59 0.76c-0.12 0.15-0.25 0.31-0.36 0.47s-0.41 0.55-0.6 0.84l-0.3 0.43c-0.2 0.29-0.38 0.58-0.56 0.87l-0.28 0.44-0.5 0.88-0.28 0.49q-0.23 0.42-0.42 0.84c-0.1 0.19-0.2 0.38-0.29 0.58s-0.24 0.51-0.35 0.77l-0.3 0.68-0.27 0.69-0.3 0.8c-0.07 0.2-0.14 0.4-0.2 0.6l-0.3 0.91-0.15 0.53c-0.09 0.33-0.18 0.65-0.26 1l-0.12 0.5c-0.08 0.34-0.15 0.68-0.22 1 0 0.17-0.06 0.34-0.09 0.51-0.06 0.34-0.13 0.68-0.18 1s0 0.39-0.07 0.58-0.08 0.64-0.11 1-0.05 0.52-0.06 0.78-0.05 0.52-0.06 0.78v1.66 1.5c0 0.26 0 0.52 0.06 0.77s0 0.53 0.06 0.79 0.07 0.63 0.11 0.95 0.05 0.39 0.07 0.59 0.11 0.68 0.18 1c0 0.17 0.05 0.34 0.09 0.51 0.07 0.35 0.14 0.68 0.22 1l0.12 0.51c0.08 0.33 0.17 0.65 0.26 1l0.15 0.55 0.29 0.89 0.21 0.61 0.3 0.79 0.27 0.7 0.3 0.68c0.11 0.26 0.23 0.52 0.35 0.77s0.19 0.39 0.28 0.58 0.28 0.56 0.43 0.84l0.27 0.48 0.51 0.89 0.27 0.43c0.19 0.3 0.37 0.59 0.57 0.89l0.29 0.42c0.2 0.28 0.4 0.57 0.61 0.85s0.24 0.3 0.35 0.46l0.6 0.76 0.51 0.59 0.51 0.59c0.33 0.36 0.67 0.72 1 1.06l0.08 0.09L510.06 811.31a48 48 0 0 0 67.88 0L672 717.25l30.06 30.06a48 48 0 0 0 67.88 0L877.26 640h24.85A48 48 0 0 0 945 570.53zM717.25 672l32-32h37.49L736 690.75z m-288-32h229.5l-9.36 9.36L544 754.75zM800 192H338a32 32 0 0 0-31.05 39.76l8 31.85a96.13 96.13 0 0 1-0.83 49.66L190.77 744.79A32 32 0 0 1 160 768H96a32 32 0 0 1 0-64h39.86l116.66-408.31a32.07 32.07 0 0 0 0.28-16.56l-8-31.85A96 96 0 0 1 338 128h462a32 32 0 0 1 0 64z"  horiz-adv-x="1024" />

    
    <glyph glyph-name="16gl-debitCard" unicode="&#59490;" d="M896 704H128a64.07 64.07 0 0 1-64-64v-576a64.07 64.07 0 0 1 64-64h768a64.07 64.07 0 0 1 64 64V640a64.07 64.07 0 0 1-64 64z m-768-64h768v-64H128z m0-128h768v-64H128z m768-448H128V384h768v-320z m-192 96a32 32 0 0 0-32-32h-64a32 32 0 0 0 0 64h64a32 32 0 0 0 32-32zM400 320H240a48.05 48.05 0 0 1-48-48v-96a48.05 48.05 0 0 1 48-48h160a48.05 48.05 0 0 1 48 48v96a48.05 48.05 0 0 1-48 48z m-16-128H256v64h128z m448-32a32 32 0 1 0-32 32 32 32 0 0 0 32-32z"  horiz-adv-x="1024" />

    
    <glyph glyph-name="16gl-cartFull8" unicode="&#59491;" d="M768 0a64 64 0 1 0-64 64 64.07 64.07 0 0 0 64-64z m-384 64a64 64 0 1 1 64-64 64.07 64.07 0 0 1-64 64z m564.93 510.17L845.8 316.35A95.54 95.54 0 0 0 756.67 256H313l-6.06-24.24A32 32 0 0 1 338 192h462a32 32 0 0 0 0-64H338a96 96 0 0 0-93.13 119.28l8 31.85a32.07 32.07 0 0 1-0.28 16.56L135.86 704H96a32 32 0 0 0 0 64h64a32 32 0 0 0 30.77-23.21L220.71 640h54L446.06 811.31a48 48 0 0 0 67.88 0L608 717.25l30.06 30.06a48 48 0 0 0 67.88 0L813.26 640h91.11a48 48 0 0 0 44.56-65.83zM653.25 672l32-32h37.49L672 690.75z m-288-32h229.5l-9.36 9.36L480 754.75z m515.48-64H239l73.14-256h444.53a31.85 31.85 0 0 1 29.71 20.12z"  horiz-adv-x="1024" />

    
    <glyph glyph-name="16gl-cartFull10" unicode="&#59492;" d="M448 0a64 64 0 1 0-64 64 64.07 64.07 0 0 0 64-64z m256 64a64 64 0 1 1 64-64 64.07 64.07 0 0 1-64 64z m241 506.53L843.2 366.84000000000003a96.28 96.28 0 0 0-70.09-51.76l-464.72-77.46-1.47-5.86A32 32 0 0 1 338 192h462a32 32 0 0 0 0-64H338a96 96 0 0 0-93.13 119.28l6.39 25.72c0.05 0.21 0.11 0.43 0.16 0.64l1.38 5.5a32.07 32.07 0 0 1-0.28 16.56L135.86 704H96a32 32 0 0 0 0 64h64a32 32 0 0 0 30.77-23.21L220.71 640h54L457.37 822.63a32 32 0 0 0 45.26 0L608 717.26l41.37 41.37a32 32 0 0 0 45.26 0L813.26 640h88.85A48 48 0 0 0 945 570.53zM653.25 672l32-32h37.49L672 690.75z m-288-32h229.5l-9.36 9.36L480 754.75z m511-64H239l75.06-262.73a96.49 96.49 0 0 0 2.19-9.45l446.34 74.39A32 32 0 0 1 786 395.46z"  horiz-adv-x="1024" />

    
    <glyph glyph-name="16gl-scanCode" unicode="&#59493;" d="M928 320H160a32 32 0 0 0 0 64h768a32 32 0 0 0 0-64z m32-320v96a32 32 0 0 1-64 0v-96h-96a32 32 0 0 1 0-64h96a64.07 64.07 0 0 1 64 64z m-640-32a32 32 0 0 1-32 32h-96v96a32 32 0 0 1-64 0v-96a64.07 64.07 0 0 1 64-64h96a32 32 0 0 1 32 32z m640 640v96a64.07 64.07 0 0 1-64 64h-96a32 32 0 0 1 0-64h96v-96a32 32 0 0 1 64 0z m-768 0v96h96a32 32 0 0 1 0 64h-96a64.07 64.07 0 0 1-64-64v-96a32 32 0 0 1 64 0z"  horiz-adv-x="1024" />

    
    <glyph glyph-name="16gl-cartFull7" unicode="&#59494;" d="M768 0a64 64 0 1 0-64 64 64.07 64.07 0 0 0 64-64z m-384 64a64 64 0 1 1 64-64 64.07 64.07 0 0 1-64 64z m564.93 510.17L845.8 316.35A95.54 95.54 0 0 0 756.67 256H416a32 32 0 0 0 0 64h340.67a31.85 31.85 0 0 1 29.71 20.12L880.73 576H349.72l-0.88 0.07-0.9 0.1-0.64 0.09c-0.33 0-0.65 0.1-1 0.16l-0.55 0.1c-0.33 0.06-0.66 0.14-1 0.22s-0.36 0.07-0.53 0.12l-1 0.26-0.56 0.16-0.88 0.28-0.63 0.21-0.77 0.3-0.71 0.27-0.67 0.3-0.78 0.35-0.57 0.28-0.85 0.43-0.48 0.27-0.89 0.51-0.43 0.27c-0.3 0.19-0.59 0.37-0.88 0.57l-0.43 0.3q-0.43 0.29-0.84 0.6l-0.48 0.36-0.75 0.59-0.6 0.52-0.58 0.5c-0.38 0.35-0.76 0.71-1.12 1.07-0.36 0.37-0.72 0.75-1.07 1.13l-0.49 0.57c-0.18 0.2-0.36 0.4-0.53 0.61l-0.58 0.74-0.38 0.49c-0.2 0.27-0.39 0.55-0.58 0.83s-0.21 0.29-0.31 0.44-0.38 0.57-0.56 0.87-0.19 0.29-0.28 0.45-0.34 0.57-0.5 0.86l-0.28 0.51c-0.15 0.27-0.28 0.55-0.42 0.82s-0.2 0.39-0.29 0.59-0.24 0.51-0.35 0.76l-0.3 0.7-0.27 0.68-0.3 0.8c-0.07 0.2-0.14 0.4-0.2 0.6l-0.3 0.91-0.15 0.53c-0.09 0.33-0.18 0.65-0.26 1l-0.12 0.5c-0.08 0.34-0.15 0.68-0.22 1 0 0.17-0.06 0.34-0.09 0.51-0.06 0.34-0.13 0.68-0.18 1s0 0.39-0.07 0.58-0.08 0.64-0.11 1-0.05 0.52-0.06 0.78-0.05 0.52-0.06 0.78v1.66 1.5c0 0.26 0 0.52 0.06 0.77s0 0.53 0.06 0.79 0.07 0.63 0.11 0.95 0.05 0.39 0.07 0.59 0.11 0.68 0.18 1c0 0.17 0.05 0.34 0.09 0.51 0.07 0.35 0.14 0.68 0.22 1l0.12 0.51c0.08 0.33 0.17 0.65 0.26 1l0.15 0.55c0.1 0.3 0.19 0.6 0.29 0.89l0.21 0.61 0.3 0.8 0.27 0.69 0.3 0.68c0.11 0.26 0.23 0.52 0.35 0.77s0.19 0.39 0.28 0.58 0.28 0.56 0.43 0.84l0.28 0.49 0.5 0.88 0.28 0.44c0.18 0.29 0.36 0.58 0.56 0.87l0.3 0.44c0.2 0.28 0.39 0.56 0.6 0.83l0.36 0.48 0.59 0.75 0.53 0.61 0.49 0.57c0.35 0.38 0.71 0.76 1.07 1.13L510.06 811.31a48 48 0 0 0 67.88 0L672 717.25l30.06 30.06a48 48 0 0 0 67.88 0L877.26 640h27.11a48 48 0 0 0 44.56-65.83zM717.25 672l32-32h37.49L736 690.75z m-288-32h229.5l-9.36 9.36L544 754.75zM800 192H338a32 32 0 0 0-31.05 39.76l8 31.85a96.13 96.13 0 0 1-0.83 49.66L190.77 744.79A32 32 0 0 1 160 768H96a32 32 0 0 1 0-64h39.86l116.66-408.31a32.07 32.07 0 0 0 0.28-16.56l-8-31.85A96 96 0 0 1 338 128h462a32 32 0 0 1 0 64z"  horiz-adv-x="1024" />

    
    <glyph glyph-name="16gl-receipt" unicode="&#59495;" d="M672-64a32 32 0 0 0-14.31 3.38L544-3.7799999999999727l-113.69-56.84a32 32 0 0 0-32.06 2L320-6.460000000000036l-78.25-52.17A32 32 0 0 0 192-32V768h-32a32 32 0 0 0 0 64h768a32 32 0 0 0 0-64h-32v-800a32 32 0 0 0-49.75-26.63L768-6.460000000000036l-78.25-52.17A32 32 0 0 0 672-64zM544 64a32 32 0 0 0 14.31-3.38l111.39-55.69 80.55 53.7a32 32 0 0 0 35.5 0L832 27.789999999999964V768H256v-740.21l46.25 30.84a32 32 0 0 0 35.5 0l80.55-53.7 111.39 55.69A32 32 0 0 0 544 64z m0 32a32 32 0 0 0-32 32h-32a32 32 0 0 0 0 64h96v32h-96a32 32 0 0 0-32 32v96a32 32 0 0 0 32 32h32v32a32 32 0 0 0 64 0v-32h32a32 32 0 0 0 0-64h-96v-32h96a32 32 0 0 0 32-32v-96a32 32 0 0 0-32-32h-32a32 32 0 0 0-32-32z m192 416H352a32 32 0 0 0 0 64h384a32 32 0 0 0 0-64z m0 128H544a32 32 0 0 0 0 64h192a32 32 0 0 0 0-64z m-320 0h-64a32 32 0 0 0 0 64h64a32 32 0 0 0 0-64z"  horiz-adv-x="1024" />

    
    <glyph glyph-name="16gl-receipt2" unicode="&#59496;" d="M800 832H160a96.11 96.11 0 0 1-96-96v-192a32 32 0 0 1 32-32h96v-544a32 32 0 0 1 49.75-26.63L320-6.460000000000036l78.25-52.17a32 32 0 0 1 32.06-2L544-3.7799999999999727l113.69-56.84a32 32 0 0 1 32.06 2L768-6.460000000000036l78.25-52.17A32 32 0 0 1 896-32V736a96.11 96.11 0 0 1-96 96zM128 576V736a32 32 0 0 0 64 0v-160z m704-548.21l-46.25 30.84a32 32 0 0 1-35.5 0l-80.55-53.7-111.39 55.69a32 32 0 0 1-28.62 0L418.3 4.92999999999995l-80.55 53.7a32 32 0 0 1-35.5 0L256 27.789999999999964V736a95.56 95.56 0 0 1-5.49 32H800a32 32 0 0 0 32-32zM512 320v-32h96a32 32 0 0 0 32-32v-96a32 32 0 0 0-32-32h-32a32 32 0 0 0-64 0h-32a32 32 0 0 0 0 64h96v32h-96a32 32 0 0 0-32 32v96a32 32 0 0 0 32 32h32v32a32 32 0 0 0 64 0v-32h32a32 32 0 0 0 0-64zM320 672a32 32 0 0 0 32 32h64a32 32 0 0 0 0-64h-64a32 32 0 0 0-32 32z m448-128a32 32 0 0 0-32-32H352a32 32 0 0 0 0 64h384a32 32 0 0 0 32-32z m0 128a32 32 0 0 0-32-32H544a32 32 0 0 0 0 64h192a32 32 0 0 0 32-32z"  horiz-adv-x="1024" />

    
    <glyph glyph-name="16gl-tag2" unicode="&#59497;" d="M928 365.25l-384 384A63.61 63.61 0 0 1 498.75 768h-52.56c-3.08 27.08-10 52.22-20.31 72.82C408.08 876.4 381.85 896 352 896s-56.08-19.6-73.88-55.18c-10.3-20.6-17.23-45.74-20.31-72.82H192a64.07 64.07 0 0 1-64-64v-306.75A63.58 63.58 0 0 1 146.75 352l384-384a64 64 0 0 1 90.5 0L928 274.75a64.07 64.07 0 0 1 0 90.5zM335.37 812.2C343.55 828.56 350.89 832 352 832s8.45-3.44 16.63-19.8c6.07-12.13 10.52-27.43 13-44.2h-59.29c2.51 16.77 6.96 32.07 13.03 44.2zM576 13.25l-384 384V704h189.66c-2.51-16.77-7-32.07-13-44.2-8.21-16.36-15.55-19.8-16.66-19.8a96.1 96.1 0 1 1 64.5-25 145.07 145.07 0 0 1 9.38 16.13c10.3 20.6 17.23 45.74 20.31 72.82h52.56l384-384zM384 544a32 32 0 1 0-32 32 32 32 0 0 0 32-32z"  horiz-adv-x="1024" />

    
    <glyph glyph-name="16gl-scanCode2" unicode="&#59498;" d="M896-64h-96a32 32 0 0 0 0 64h96v96a32 32 0 0 0 64 0v-96a64.07 64.07 0 0 0-64-64z m-608 0h-96a64.07 64.07 0 0 0-64 64v96a32 32 0 0 0 64 0v-96h96a32 32 0 0 0 0-64z m640 640a32 32 0 0 0-32 32v96h-96a32 32 0 0 0 0 64h96a64.07 64.07 0 0 0 64-64v-96a32 32 0 0 0-32-32z m-768 0a32 32 0 0 0-32 32v96a64.07 64.07 0 0 0 64 64h96a32 32 0 0 0 0-64h-96v-96a32 32 0 0 0-32-32z m768-256H416a32 32 0 0 0 0 64h512a32 32 0 0 0 0-64z m-704 0h-64a32 32 0 0 0 0 64h64a32 32 0 0 0 0-64z"  horiz-adv-x="1024" />

    
    <glyph glyph-name="16gl-tag" unicode="&#59499;" d="M576-50.72000000000003A63.77 63.77 0 0 0 530.75-32l-384 384A63.58 63.58 0 0 0 128 397.25V704a64.07 64.07 0 0 0 64 64h306.75A63.61 63.61 0 0 0 544 749.26l384-384a64.07 64.07 0 0 0 0-90.5L621.25-32A63.77 63.77 0 0 0 576-50.72000000000003zM192 704v-306.75l384-384L882.75 320l-384 384z m160-256a96 96 0 1 0 96 96 96.11 96.11 0 0 0-96-96z m0 128a32 32 0 1 1 32-32 32 32 0 0 1-32 32z"  horiz-adv-x="1024" />

    
    <glyph glyph-name="16gl-tags3" unicode="&#59500;" d="M800.00021 365.25l-384 384A63.58 63.58 0 0 1 370.75021 768h-52.56c-3.08 27.08-10 52.22-20.31 72.82C280.08021 876.4 253.85021 896 224.00021 896s-56.08-19.6-73.88-55.18c-10.3-20.6-17.23-45.74-20.31-72.82H64.00021a64.07 64.07 0 0 1-64-64v-306.75A63.58 63.58 0 0 1 18.75021 352l384-384a64.07 64.07 0 0 1 90.5 0L800.00021 274.75a64.07 64.07 0 0 1 0 90.5zM207.37021 812.2C215.55021 828.56 222.89021 832 224.00021 832s8.45-3.44 16.63-19.8c6.07-12.13 10.52-27.43 13-44.2h-59.29c2.51 16.77 6.96 32.07 13.03 44.2zM448.00021 13.25l-384 384V704h189.66c-2.51-16.77-7-32.07-13-44.2-8.21-16.36-15.55-19.8-16.66-19.8a96.1 96.1 0 1 1 64.5-25 145.07 145.07 0 0 1 9.38 16.13c10.3 20.6 17.23 45.74 20.31 72.82h52.56l384-384zM256.00021 544a32 32 0 1 0-32 32 32 32 0 0 0 32-32z m384-608a32 32 0 0 0-22.63 54.63L946.75021 320 553.37021 713.37a32 32 0 0 0 45.26 45.26L992.00021 365.25a64 64 0 0 0 0-90.5L662.63021-54.629999999999995A31.9 31.9 0 0 0 640.00021-64z"  horiz-adv-x="1024" />

    
    <glyph glyph-name="16gl-tags2" unicode="&#59501;" d="M224.00021 640a96 96 0 1 1 96-96 96.11 96.11 0 0 1-96 96z m0-128a32 32 0 1 0 32 32 32 32 0 0 0-32-32z m768-146.75l-384 384A63.61 63.61 0 0 1 562.75021 768H64.00021a64.07 64.07 0 0 1-64-64v-306.75A63.58 63.58 0 0 1 18.75021 352l384-384a64.07 64.07 0 0 1 90.5 0L544.00021 18.75 594.75021-32a64 64 0 0 1 90.5 0L992.00021 274.75a64 64 0 0 1 0 90.5z m-544-352l-384 384V704h306.75l384-384z m192 0L589.25021 64 800.00021 274.75a64.07 64.07 0 0 1 0 90.5L461.25021 704h101.5l384-384z"  horiz-adv-x="1024" />

    
    <glyph glyph-name="16gl-tags" unicode="&#59502;" d="M448.00021-50.710000000000036A63.76 63.76 0 0 0 402.75021-32l-384 384A63.58 63.58 0 0 0 0.00021 397.25V704a64.07 64.07 0 0 0 64 64h306.75A63.58 63.58 0 0 0 416.00021 749.25l384-384a64.07 64.07 0 0 0 0-90.5L493.25021-32A63.76 63.76 0 0 0 448.00021-50.710000000000036zM64.00021 704v-306.75l384-384L754.75021 320l-384 384z m160-256a96 96 0 1 0 96 96 96.11 96.11 0 0 0-96-96z m0 128a32 32 0 1 1 32-32 32 32 0 0 1-32 32z m438.63-630.63L992.00021 274.75a64 64 0 0 1 0 90.5L598.63021 758.63a32 32 0 0 1-45.26-45.26L946.75021 320 617.37021-9.370000000000005a32 32 0 0 1 45.26-45.26z"  horiz-adv-x="1024" />

    
    <glyph glyph-name="16gl-wallet" unicode="&#59503;" d="M912 384h-16V512a64.07 64.07 0 0 1-64 64h-64v64a64.07 64.07 0 0 1-64 64H160a96.11 96.11 0 0 1-96-96v-544a64.07 64.07 0 0 1 64-64h704a64.07 64.07 0 0 1 64 64V192h16a48.05 48.05 0 0 1 48 48v96a48.05 48.05 0 0 1-48 48zM160 640h544v-64H160a32 32 0 0 0 0 64z m672-576H128V517.49a95.56 95.56 0 0 1 32-5.49h672v-128h-96a96 96 0 0 1 0-192h96z m64 192H736a32 32 0 0 0 0 64h160z"  horiz-adv-x="1024" />

    
    <glyph glyph-name="16gl-tags4" unicode="&#59504;" d="M994.55021 277.46000000000004c0.62 0.7 1.24 1.41 1.83 2.13v0.07a64 64 0 0 1 0 80.68v0.07c-0.59 0.72-1.21 1.43-1.83 2.13l-0.3 0.35c-0.73 0.8-1.48 1.59-2.25 2.36l-384 384A63.61 63.61 0 0 1 562.75021 768H318.19021c-3.08 27.08-10 52.22-20.31 72.82C280.08021 876.4 253.85021 896 224.00021 896s-56.08-19.6-73.88-55.18c-10.3-20.6-17.23-45.74-20.31-72.82H64.00021a64.07 64.07 0 0 1-64-64v-306.75A63.58 63.58 0 0 1 18.75021 352l384-384a64.07 64.07 0 0 1 90.5 0L544.00021 18.75 594.75021-32a63.79 63.79 0 0 1 15.32-11.32 32 32 0 0 1 52.56-11.31L992.00021 274.75c0.77 0.77 1.52 1.56 2.25 2.36zM207.37021 812.2C215.55021 828.56 222.89021 832 224.00021 832s8.45-3.44 16.63-19.8c6.07-12.13 10.52-27.43 13-44.2h-59.29c2.51 16.77 6.96 32.07 13.03 44.2zM256.00021 544a32 32 0 1 0-32 32 32 32 0 0 0 32-32z m192-530.75l-384 384V704h189.66c-2.51-16.77-7-32.07-13-44.2-8.21-16.36-15.55-19.8-16.66-19.8a96.1 96.1 0 1 1 64.5-25 145.07 145.07 0 0 1 9.38 16.13c10.3 20.6 17.23 45.74 20.31 72.82h52.56l384-384zM589.25021 64L800.00021 274.75a64.07 64.07 0 0 1 0 90.5L461.25021 704h101.5l384-384L640.00021 13.25z"  horiz-adv-x="1024" />

    
    <glyph glyph-name="16gl-minus" unicode="&#59528;" d="M928 320H160a32 32 0 0 0 0 64h768a32 32 0 0 0 0-64z"  horiz-adv-x="1024" />

    
    <glyph glyph-name="16gl-obelus" unicode="&#59529;" d="M960 352a32 32 0 0 0-32-32H160a32 32 0 0 0 0 64h768a32 32 0 0 0 32-32zM448 672a96 96 0 1 0 96-96 96 96 0 0 0-96 96z m64 0a32 32 0 1 1 32 32 32 32 0 0 1-32-32z m128-640a96 96 0 1 0-96 96 96 96 0 0 0 96-96z m-64 0a32 32 0 1 1-32-32 32 32 0 0 1 32 32z"  horiz-adv-x="1024" />

    
    <glyph glyph-name="16gl-percent" unicode="&#59530;" d="M822.63 649.37l-576-576a32 32 0 0 0-45.26 45.26l576 576a32 32 0 0 0 45.26-45.26zM192 608a96 96 0 1 0 96-96 96 96 0 0 0-96 96z m64 0a32 32 0 1 1 32 32 32 32 0 0 1-32-32z m576-448a96 96 0 1 0-96 96 96 96 0 0 0 96-96z m-64 0a32 32 0 1 1-32-32 32 32 0 0 1 32 32z"  horiz-adv-x="1024" />

    
    <glyph glyph-name="16gl-minusCircle" unicode="&#59531;" d="M544 768c-229.75 0-416-186.25-416-416s186.25-416 416-416 416 186.25 416 416-186.25 416-416 416z m0-768c-194.4 0-352 157.6-352 352s157.6 352 352 352 352-157.6 352-352-157.6-352-352-352z m224 352a32 32 0 0 0-32-32H352a32 32 0 0 0 0 64h384a32 32 0 0 0 32-32z"  horiz-adv-x="1024" />

    
    <glyph glyph-name="16gl-plus" unicode="&#59532;" d="M544-64a32 32 0 0 0-32 32V320H160a32 32 0 0 0 0 64h352V736a32 32 0 0 0 64 0v-352h352a32 32 0 0 0 0-64H576v-352a32 32 0 0 0-32-32z"  horiz-adv-x="1024" />

    
    <glyph glyph-name="16gl-plusCircle" unicode="&#59533;" d="M544 768c-229.75 0-416-186.25-416-416s186.25-416 416-416 416 186.25 416 416-186.25 416-416 416z m0-768c-194.4 0-352 157.6-352 352s157.6 352 352 352 352-157.6 352-352-157.6-352-352-352z m224 352a32 32 0 0 0-32-32H576v-160a32 32 0 0 0-64 0V320H352a32 32 0 0 0 0 64h160V544a32 32 0 0 0 64 0v-160h160a32 32 0 0 0 32-32z"  horiz-adv-x="1024" />

    
    <glyph glyph-name="16gl-plusMinus" unicode="&#59534;" d="M864 0H224a32 32 0 0 0 0 64h640a32 32 0 0 0 0-64zM544 192a32 32 0 0 0-32 32V448H224a32 32 0 0 0 0 64h288V736a32 32 0 0 0 64 0v-224h288a32 32 0 0 0 0-64H576v-224a32 32 0 0 0-32-32z"  horiz-adv-x="1024" />

    
    <glyph glyph-name="16gl-heartPulse2" unicode="&#59538;" d="M768 448a31.92 31.92 0 0 0-19.2 6.4C602.38 564.21 576 584 576 649.85a118.12 118.12 0 0 0 192 92.23 118.15 118.15 0 0 0 192-92.23c0-65.85-26.38-85.64-172.8-195.45A31.92 31.92 0 0 0 768 448z m-73.85 256A54.21 54.21 0 0 1 640 649.85c0-28 0-33.39 128-129.82 128 96.43 128 101.81 128 129.82a54.16 54.16 0 0 1-100.59 27.88 32 32 0 0 0-54.82 0A53.81 53.81 0 0 1 694.15 704zM508.62 17.690000000000055L627.78 256H992a32 32 0 0 1 0 64H608a32 32 0 0 1-28.62-17.69l-86.29-172.58-109.71 548.55a32 32 0 0 1-61.74 3.84L200.94 320H32a32 32 0 0 1 0-64h192a32 32 0 0 1 30.36 21.88l89.89 269.69 104.37-521.85a32 32 0 0 1 60-8z"  horiz-adv-x="1024" />

    
    <glyph glyph-name="16gl-heart" unicode="&#59539;" d="M512 0a31.92 31.92 0 0 0-19.2 6.4c-195.86 146.89-299.46 235.83-357.58 307C106 349.16999999999996 87.3 381.65999999999997 76.5 415.61 65.52 450.17 64 482.36 64 512a256.05 256.05 0 0 0 383.86 221.82A257 257 0 0 0 512 681.3 255.52 255.52 0 0 0 704 768a256 256 0 0 0 256-256c0-29.64-1.51-61.83-12.5-96.39-10.8-34-29.46-66.44-58.72-102.25-58.12-71.13-161.72-160.07-357.58-307A31.92 31.92 0 0 0 512 0zM320 704c-105.87 0-192-86.13-192-192 0-103.63 15.73-162.22 384-440 368.27 277.78 384 336.37 384 440 0 105.87-86.13 192-192 192-67.94 0-129.47-34.8-164.59-93.09a32 32 0 0 0-54.82 0C449.47 669.2 387.94 704 320 704z"  horiz-adv-x="1024" />

    
    <glyph glyph-name="16gl-pulse" unicode="&#59540;" d="M416 0a32 32 0 0 0-29.4 19.39L221.77 404l-33.15-66.29A32 32 0 0 0 160 320H32a32 32 0 0 0 0 64h108.22l55.16 110.31a32 32 0 0 0 58-1.7l157.27-367 166.7 555.59a32 32 0 0 0 60.06 3.41L802.23 300l33.15 66.29A32 32 0 0 0 864 384h128a32 32 0 0 0 0-64H883.78l-55.16-110.31a32 32 0 0 0-58 1.7l-157.27 367-166.7-555.59a32 32 0 0 0-28.84-22.8H416z"  horiz-adv-x="1024" />

    
    <glyph glyph-name="16gl-heartPulse" unicode="&#59541;" d="M885 693a256.1 256.1 0 0 1-308.88 40.8A257 257 0 0 1 512 681.3 255.52 255.52 0 0 1 320 768 256 256 0 0 1 64 512c0-29.64 1.52-61.83 12.5-96.39 10.8-34 29.46-66.44 58.72-102.25 58.12-71.13 161.72-160.07 357.58-307a32 32 0 0 1 38.4 0c195.86 146.89 299.46 235.83 357.58 307 29.26 35.81 47.92 68.3 58.72 102.25 11 34.56 12.5 66.75 12.5 96.39a254.33 254.33 0 0 1-75 181z m-565 11c67.94 0 129.47-34.8 164.59-93.09a32 32 0 0 1 54.82 0C574.53 669.2 636.06 704 704 704c105.87 0 192-86.13 192-192 0-22.56-0.75-43-5.71-64H736a32 32 0 0 1-22.63-9.37L677 402.23 570.63 561.75a32 32 0 0 1-55.25-3.44L412 351.63l-97.37 146.12a32 32 0 0 1-49.26 4.88L210.75 448h-77c-5 21-5.71 41.44-5.71 64C128 617.87 214.13 704 320 704z m192-632C300.24 231.75 205.05 319 162.38 384H224a32 32 0 0 1 22.63 9.37l36.4 36.4 106.34-159.52A32 32 0 0 1 416 256c0.66 0 1.32 0 2 0.06a32 32 0 0 1 26.63 17.63L548 480.37l97.41-146.12a32 32 0 0 1 49.26-4.88L749.25 384h112.37C819 319 723.76 231.75 512 72z"  horiz-adv-x="1024" />

    
    <glyph glyph-name="16gl-bookmark" unicode="&#59547;" d="M800-64a32 32 0 0 0-17.75 5.37L512 121.53999999999996 241.75-58.629999999999995A32 32 0 0 0 192-32V768a64.07 64.07 0 0 0 64 64h512a64.07 64.07 0 0 0 64-64v-800a32 32 0 0 0-32-32zM512 192a32 32 0 0 0 17.75-5.37L768 27.789999999999964V768H256v-740.21l238.25 158.84A32 32 0 0 0 512 192z"  horiz-adv-x="1024" />

    
    <glyph glyph-name="16gl-bookmark2" unicode="&#59548;" d="M736-64a32 32 0 0 0-17.75 5.37L448 121.53999999999996 177.75-58.629999999999995A32 32 0 0 0 128-32V736a96.11 96.11 0 0 0 96 96h576a96.11 96.11 0 0 0 96-96v-192a32 32 0 0 0-32-32h-96v-544a32 32 0 0 0-32-32zM448 192a32 32 0 0 0 17.75-5.37L704 27.789999999999964V736a95.59 95.59 0 0 0 5.48 32H224a32 32 0 0 1-32-32v-708.21l238.25 158.84A32 32 0 0 0 448 192z m320 384h64V736a32 32 0 0 1-64 0z"  horiz-adv-x="1024" />

    
    <glyph glyph-name="16gl-bookmarkMinus" unicode="&#59549;" d="M768 352v-384a32 32 0 0 0-49.75-26.63L448 121.53999999999996 177.75-58.629999999999995A32 32 0 0 0 128-32V768a64.07 64.07 0 0 0 64 64h512a64.07 64.07 0 0 0 64-64v-160a32 32 0 0 0-64 0V768H192v-740.21l238.25 158.84a32 32 0 0 0 35.5 0L704 27.789999999999964V352a32 32 0 0 0 64 0z m96 160H608a32 32 0 0 1 0-64h256a32 32 0 0 1 0 64z"  horiz-adv-x="1024" />

    
    <glyph glyph-name="16gl-bookmarkPlus" unicode="&#59550;" d="M768 224v-256a32 32 0 0 0-49.75-26.63L448 121.53999999999996 177.75-58.629999999999995A32 32 0 0 0 128-32V768a64.07 64.07 0 0 0 64 64h512a64.07 64.07 0 0 0 64-64v-32a32 32 0 0 0-64 0v32H192v-740.21l238.25 158.84a32 32 0 0 0 35.5 0L704 27.789999999999964V224a32 32 0 0 0 64 0z m96 288h-96v96a32 32 0 0 1-64 0v-96h-96a32 32 0 0 1 0-64h96v-96a32 32 0 0 1 64 0v96h96a32 32 0 0 1 0 64z"  horiz-adv-x="1024" />

    
    <glyph glyph-name="16gl-newspaper2" unicode="&#59551;" d="M832 832H192a64.07 64.07 0 0 1-64-64v-768a64.07 64.07 0 0 1 64-64h416a288 288 0 0 1 288 288V768a64.07 64.07 0 0 1-64 64zM192 0V768h640v-544a223.82 223.82 0 0 0-2.3-32H704a64.07 64.07 0 0 1-64-64v-125.7a223.82 223.82 0 0 0-32-2.3z m512 21.64V128h106.36A225.46 225.46 0 0 0 704 21.639999999999986zM576 480a32 32 0 0 0 32 32h64a32 32 0 0 0 0-64h-64a32 32 0 0 0-32 32z m0 128a32 32 0 0 0 32 32h64a32 32 0 0 0 0-64h-64a32 32 0 0 0-32 32z m0-448a32 32 0 0 0-32-32H352a32 32 0 0 0 0 64h192a32 32 0 0 0 32-32zM320 288a32 32 0 0 0 32 32h320a32 32 0 0 0 0-64H352a32 32 0 0 0-32 32z m0 128V608a32 32 0 0 0 58.63 17.75L448 521.69V608a32 32 0 0 0 64 0v-192a32 32 0 0 0-58.63-17.75L384 502.31V416a32 32 0 0 0-64 0z"  horiz-adv-x="1024" />

    
    <glyph glyph-name="16gl-bookmarks" unicode="&#59552;" d="M736-64a32 32 0 0 0-19.2 6.4L480 120 243.2-57.60000000000002A32 32 0 0 0 192-32V640a64.07 64.07 0 0 0 64 64h448a64.07 64.07 0 0 0 64-64v-672a32 32 0 0 0-32-32zM480 192a31.92 31.92 0 0 0 19.2-6.4L704 32V640H256v-608l204.8 153.6A31.92 31.92 0 0 0 480 192z m416-32V768a64.07 64.07 0 0 1-64 64H416a32 32 0 0 1 0-64h416v-608a32 32 0 0 1 64 0z"  horiz-adv-x="1024" />

    
    <glyph glyph-name="16gl-bookmarks2" unicode="&#59553;" d="M832 832H384a64.07 64.07 0 0 1-64-64v-64h-64a64.07 64.07 0 0 1-64-64v-672a32 32 0 0 1 51.2-25.6L480 120l236.8-177.6A32 32 0 0 1 768-32V128l76.8-57.6A32 32 0 0 1 896 96V768a64.07 64.07 0 0 1-64 64zM704 32L499.2 185.60000000000002a32 32 0 0 1-38.4 0L256 32V640h448z m128 128l-64 48V640a64.07 64.07 0 0 1-64 64H384v64h448z"  horiz-adv-x="1024" />

    
    <glyph glyph-name="16gl-newspaper3" unicode="&#59554;" d="M864-64H128a64.07 64.07 0 0 0-64 64V768a64.07 64.07 0 0 0 64 64h640a64.07 64.07 0 0 0 64-64v-672a32 32 0 0 0-64 0V768H128v-768h736a32 32 0 0 1 32 32V608a32 32 0 0 0 64 0v-576a96.11 96.11 0 0 0-96-96zM640 160a32 32 0 0 1-32 32H288a32 32 0 0 1 0-64h320a32 32 0 0 1 32 32z m0 128a32 32 0 0 1-32 32H288a32 32 0 0 1 0-64h320a32 32 0 0 1 32 32z m0 192a32 32 0 0 1-32 32h-64a32 32 0 0 1 0-64h64a32 32 0 0 1 32 32z m0 128a32 32 0 0 1-32 32h-64a32 32 0 0 1 0-64h64a32 32 0 0 1 32 32zM425.27 385.37A32 32 0 0 1 448 416V608a32 32 0 0 1-64 0v-86.31l-69.37 104.06A32 32 0 0 1 256 608v-192a32 32 0 0 1 64 0v86.31l69.37-104.06a32 32 0 0 1 35.9-12.88z"  horiz-adv-x="1024" />

    
    <glyph glyph-name="16gl-newspaper4" unicode="&#59555;" d="M864-64H128a64.07 64.07 0 0 0-64 64V768a64.07 64.07 0 0 0 64 64h640a64.07 64.07 0 0 0 64-64v-128h64a64.07 64.07 0 0 0 64-64v-544a96.11 96.11 0 0 0-96-96z m-32 640v-544a32 32 0 0 1 64 0V576zM128 768v-768h645.48a95.59 95.59 0 0 0-5.48 32V768z m480-640H288a32 32 0 0 0 0 64h320a32 32 0 0 0 0-64z m0 128H288a32 32 0 0 0 0 64h320a32 32 0 0 0 0-64z m0 192h-64a32 32 0 0 0 0 64h64a32 32 0 0 0 0-64z m0 128h-64a32 32 0 0 0 0 64h64a32 32 0 0 0 0-64zM425.27 385.37A32 32 0 0 1 448 416V608a32 32 0 0 1-64 0v-86.31l-69.37 104.06A32 32 0 0 1 256 608v-192a32 32 0 0 1 64 0v86.31l69.37-104.06a32 32 0 0 1 35.9-12.88z"  horiz-adv-x="1024" />

    
    <glyph glyph-name="16gl-newspapers2" unicode="&#59556;" d="M896 704h-64v64a64.07 64.07 0 0 1-64 64H128a64.07 64.07 0 0 1-64-64v-640a64.07 64.07 0 0 1 64-64h64v-64a64.07 64.07 0 0 1 64-64h640a64.07 64.07 0 0 1 64 64V640a64.07 64.07 0 0 1-64 64z m-768 64h640v-640H128z m768-768H256v64h512a64.07 64.07 0 0 1 64 64V640h64zM512 480a32 32 0 0 0 32 32h64a32 32 0 0 0 0-64h-64a32 32 0 0 0-32 32z m0 128a32 32 0 0 0 32 32h64a32 32 0 0 0 0-64h-64a32 32 0 0 0-32 32zM256 288a32 32 0 0 0 32 32h320a32 32 0 0 0 0-64H288a32 32 0 0 0-32 32z m0 128V608a32 32 0 0 0 58.63 17.75L384 521.69V608a32 32 0 0 0 64 0v-192a32 32 0 0 0-58.63-17.75L320 502.31V416a32 32 0 0 0-64 0z"  horiz-adv-x="1024" />

    
    <glyph glyph-name="16gl-label" unicode="&#59557;" d="M718.87 64H128a64.07 64.07 0 0 0-64 64V640a64.07 64.07 0 0 0 64 64h590.87a63.88 63.88 0 0 0 53.26-28.5l170.66-256a63.82 63.82 0 0 0 0-71l-170.66-256a63.88 63.88 0 0 0-53.26-28.5z m0 576H128v-512h590.88l170.66 256z"  horiz-adv-x="1024" />

    
    <glyph glyph-name="16gl-newspapers" unicode="&#59558;" d="M896-64H288a32 32 0 0 0 0 64h608V608a32 32 0 0 0 64 0v-608a64.07 64.07 0 0 0-64-64z m-64 192V768a64.07 64.07 0 0 1-64 64H128a64.07 64.07 0 0 1-64-64v-640a64.07 64.07 0 0 1 64-64h640a64.07 64.07 0 0 1 64 64z m-64 640v-640H128V768zM640 288a32 32 0 0 1-32 32H288a32 32 0 0 1 0-64h320a32 32 0 0 1 32 32z m0 192a32 32 0 0 1-32 32h-64a32 32 0 0 1 0-64h64a32 32 0 0 1 32 32z m0 128a32 32 0 0 1-32 32h-64a32 32 0 0 1 0-64h64a32 32 0 0 1 32 32zM425.27 385.37A32 32 0 0 1 448 416V608a32 32 0 0 1-64 0v-86.31l-69.37 104.06A32 32 0 0 1 256 608v-192a32 32 0 0 1 64 0v86.31l69.37-104.06a32 32 0 0 1 35.9-12.88z"  horiz-adv-x="1024" />

    
    <glyph glyph-name="16gl-newspaper" unicode="&#59559;" d="M832-64H192a64.07 64.07 0 0 0-64 64V768a64.07 64.07 0 0 0 64 64h640a64.07 64.07 0 0 0 64-64v-768a64.07 64.07 0 0 0-64-64zM192 768v-768h640V768z m480-640H352a32 32 0 0 0 0 64h320a32 32 0 0 0 0-64z m0 128H352a32 32 0 0 0 0 64h320a32 32 0 0 0 0-64z m0 192h-64a32 32 0 0 0 0 64h64a32 32 0 0 0 0-64z m0 128h-64a32 32 0 0 0 0 64h64a32 32 0 0 0 0-64zM489.27 385.37A32 32 0 0 1 512 416V608a32 32 0 0 1-64 0v-86.31l-69.37 104.06A32 32 0 0 1 320 608v-192a32 32 0 0 1 64 0v86.31l69.37-104.06a32 32 0 0 1 35.9-12.88z"  horiz-adv-x="1024" />

    
    <glyph glyph-name="16gl-banknotes" unicode="&#59576;" d="M960 576H128a64.07 64.07 0 0 1-64-64v-576a64.07 64.07 0 0 1 64-64h832a64.07 64.07 0 0 1 64 64V512a64.07 64.07 0 0 1-64 64z m0-640H128V512h832v-576z m-96 448a32 32 0 0 0-32 32 32 32 0 0 1-32 32H288a32 32 0 0 1-32-32 32 32 0 0 0-32-32 32 32 0 0 1-32-32v-256a32 32 0 0 1 32-32 32 32 0 0 0 32-32 32 32 0 0 1 32-32h512a32 32 0 0 1 32 32 32 32 0 0 0 32 32 32 32 0 0 1 32 32V352a32 32 0 0 1-32 32z m-32-261.48A96.49 96.49 0 0 1 773.48 64h-459A96.49 96.49 0 0 1 256 122.51999999999998v203A96.49 96.49 0 0 1 314.52 384h459A96.49 96.49 0 0 1 832 325.48zM544 320a96 96 0 1 1 96-96 96.11 96.11 0 0 1-96 96z m0-128a32 32 0 1 0 32 32 32 32 0 0 0-32-32z m-160 32a32 32 0 1 0-32 32 32 32 0 0 0 32-32z m384 0a32 32 0 1 0-32 32 32 32 0 0 0 32-32z m160 416H160a32 32 0 0 0 0 64h768a32 32 0 0 0 0-64z m-64 128H224a32 32 0 0 0 0 64h640a32 32 0 0 0 0-64z"  horiz-adv-x="1024" />

    
    <glyph glyph-name="16gl-podium" unicode="&#59578;" d="M960 0H64a64.07 64.07 0 0 0-64 64V512a64.07 64.07 0 0 0 64 64h256V704a64.07 64.07 0 0 0 64 64h256a64.07 64.07 0 0 0 64-64v-320h256a64.07 64.07 0 0 0 64-64v-256a64.07 64.07 0 0 0-64-64z m-256 64h256V320H704z m-320 0h256V704H384v-160zM64 512v-448h256V512z"  horiz-adv-x="1024" />

    
    <glyph glyph-name="16gl-podium2" unicode="&#59579;" d="M960 384H704V704a64.07 64.07 0 0 1-64 64H384a64.07 64.07 0 0 1-64-64v-128H64a64.07 64.07 0 0 1-64-64v-448a64.07 64.07 0 0 1 64-64h896a64.07 64.07 0 0 1 64 64V320a64.07 64.07 0 0 1-64 64zM320 64H64V512h256z m320 0H384V544 704h256z m320 0H704V320h256zM224 368a16 16 0 0 1-32 0 32 32 0 0 0-64 0 80 80 0 0 0 160 0c0-39.25-32.48-74.53-64.68-92.09-1.71-0.94-3.43-1.85-5.14-2.76-9.67-5.14-15.31-8.29-18.87-13.18a23.84 23.84 0 0 1-2.32-4h59a32 32 0 0 0 0-64H160a32 32 0 0 0-32 32c0 31.45 6.4 55.53 19.55 73.62 12.41 17.06 28 25.37 40.59 32 1.51 0.8 3 1.61 4.54 2.43C209.07 341 224 358.15 224 368z m256 240a32 32 0 0 0 32 32h32a32 32 0 0 0 32-32v-192a32 32 0 0 0-64 0V576a32 32 0 0 0-32 32z m336-544a80.09 80.09 0 0 0-80 80 32 32 0 0 0 64 0 16 16 0 1 1 16 16 32 32 0 0 0 0 64 16 16 0 1 1-16 16 32 32 0 0 0-64 0 80 80 0 1 0 144-48 80 80 0 0 0-64-128z"  horiz-adv-x="1024" />

    
    <glyph glyph-name="16gl-podium3" unicode="&#59580;" d="M960 192H704V384a64.07 64.07 0 0 1-64 64H384a64.07 64.07 0 0 1-64-64v-64H64a64.07 64.07 0 0 1-64-64v-256a64.07 64.07 0 0 1 64-64h896a64.07 64.07 0 0 1 64 64V128a64.07 64.07 0 0 1-64 64zM320 0H64V256h256z m320 0H384V288v96h256z m320 0H704V128h256zM410.32 625.45l-13-76a32 32 0 0 1 46.43-33.73L512 551.5799999999999l68.29-35.9a32 32 0 0 1 46.43 33.73l-13 76 55.24 53.85a32 32 0 0 1-17.73 54.58L574.84 745 540.7 814.16a32 32 0 0 1-57.4 0L449.16 745l-76.35-11.1a32 32 0 0 1-17.73-54.58zM475 684.06a32 32 0 0 1 24.1 17.51l12.9 26.12 12.89-26.12A32 32 0 0 1 549 684.06l28.83-4.19L557 659.54a32 32 0 0 1-9.21-28.33l4.93-28.71-25.83 13.5a32 32 0 0 1-29.78 0l-25.79-13.5 4.93 28.71a32 32 0 0 1-9.25 28.33l-20.86 20.33z"  horiz-adv-x="1024" />

    
    <glyph glyph-name="16gl-starEmpty" unicode="&#59581;" d="M554.51 681.91a32 32 0 0 0-28.72 17.84L512 727.69l-13.79-27.94a32 32 0 1 0-57.39 28.33l42.48 86.08a32 32 0 0 0 57.4 0l42.48-86.08a32 32 0 0 0-28.67-46.17z m219.33-174.19A32 32 0 0 1 746.77 544l-78.35 11.38-35 71A32 32 0 0 1 576 598l42.47-86a32 32 0 0 1 24.1-17.5l95-13.81a31.95 31.95 0 0 1 36.27 27.07zM903 392.28l68.74 67A32 32 0 0 1 954 513.87l-95 13.81a32 32 0 0 1-9.21-63.34l30.84-4.48-22.31-21.75A32 32 0 0 1 903 392.28zM752.34 142.86a32 32 0 0 1 26.13 36.95l-13.38 78 56.69 55.26a32 32 0 1 1-44.67 45.83l-68.74-67a32 32 0 0 1-9.2-28.33L715.39 169a32 32 0 0 1 31.5-26.59 32.6 32.6 0 0 1 5.45 0.45z m48.8-200.75a32 32 0 0 1 12.73 31.3L797.64 68a32 32 0 1 1-63.07-10.82l5.26-30.71L712.25 41a32 32 0 0 1-29.78-56.65l85-44.67a32 32 0 0 1 33.7 2.43zM625.3 50.559999999999945a32 32 0 0 1-13.44 43.21l-85 44.68a32 32 0 0 1-29.78 0l-85-44.68a32 32 0 1 1 29.78-56.64L512 74l70.08-36.84a32 32 0 0 1 43.22 13.43zM256.56-60.32000000000005l85 44.67A32 32 0 0 1 311.75 41l-27.58-14.5 5.26 30.71A32 32 0 1 1 226.36 68l-16.23-94.62a32 32 0 0 1 46.43-33.73zM308.61 169l16.23 94.62a32 32 0 0 1-9.21 28.33l-68.74 67a32 32 0 1 1-44.67-45.83l56.69-55.26-13.38-78a32 32 0 0 1 26.13-36.95 32.6 32.6 0 0 1 5.45-0.46 32 32 0 0 1 31.5 26.55zM166.25 392.86a32 32 0 0 1-0.58 45.25l-22.31 21.75 30.84 4.48a32 32 0 0 1-9.2 63.34l-95-13.81a32 32 0 0 1-17.73-54.58l68.74-67a32 32 0 0 1 45.25 0.58z m120.18 87.79l95 13.81a32 32 0 0 1 24.1 17.54L448 598a32 32 0 0 1-57.4 28.32l-35-71L277.23 544a32 32 0 1 1 9.2-63.34z"  horiz-adv-x="1024" />

    
    <glyph glyph-name="16gl-star" unicode="&#59582;" d="M782.33-64a31.88 31.88 0 0 0-14.89 3.68L512 74 256.56-60.32000000000005a32 32 0 0 0-46.43 33.73l48.78 284.44L52.26 459.29A32 32 0 0 0 70 513.87l285.59 41.5L483.3 814.16a32 32 0 0 0 57.4 0l127.72-258.79L954 513.87a32 32 0 0 0 17.73-54.58L765.09 257.85l48.78-284.44A32 32 0 0 0 782.33-64zM512 142.12a32 32 0 0 0 14.89-3.67l212.94-112-40.66 237.16a32 32 0 0 0 9.2 28.33l172.27 167.92-238.07 34.6a32 32 0 0 0-24.1 17.5L512 727.69 405.53 512a32 32 0 0 0-24.09-17.5l-238.08-34.6 172.27-167.96a32 32 0 0 0 9.21-28.33L284.17 26.5l212.94 112a32 32 0 0 0 14.89 3.62z"  horiz-adv-x="1024" />

    
    <glyph glyph-name="16gl-starHalf" unicode="&#59583;" d="M737.57 480.65l-95 13.81a32 32 0 0 0-24.1 17.5L576 598a32 32 0 0 0 57.39 28.32l35-71L746.77 544a32 32 0 1 0-9.2-63.34z m242.27 11.44A32 32 0 0 1 954 513.87l-95 13.81a32 32 0 0 1-9.21-63.34l30.84-4.48-22.31-21.75A32 32 0 0 1 903 392.28l68.74 67a32 32 0 0 1 8.1 32.81zM777.11 358.94000000000005l-68.74-67a32 32 0 0 1-9.2-28.33L715.39 169a32 32 0 0 1 31.5-26.59 32.6 32.6 0 0 1 5.45 0.46 32 32 0 0 1 26.13 36.95l-13.38 78 56.69 55.26a32 32 0 1 1-44.67 45.83zM797.64 68a32 32 0 1 1-63.07-10.82l5.26-30.71L712.25 41a32 32 0 0 1-29.78-56.65l85-44.67a32 32 0 0 1 46.43 33.73z m-185.78 25.77l-85 44.68a31.94 31.94 0 0 1-29.78 0l-0.21-0.11-0.09-0.05L284.17 26.5l40.67 237.11a32 32 0 0 1-9.21 28.33L143.36 459.86l238.08 34.6A32 32 0 0 1 405.53 512L512 727.69l13.79-27.94a32 32 0 0 1 57.39 28.33L540.7 814.16a32 32 0 0 1-57.39 0L355.58 555.37 70 513.87a32 32 0 0 1-17.73-54.58l206.64-201.44-48.78-284.44a32 32 0 0 1 46.43-33.73L512 74l70.08-36.84a32 32 0 1 1 29.78 56.64z"  horiz-adv-x="1024" />

    
    <glyph glyph-name="16gl-atSign" unicode="&#59591;" d="M924.78 558.39a448 448 0 1 1-173.89-553.45 32 32 0 0 1-34.17 54.12A382.81 382.81 0 0 0 512 0c-211.74 0-384 172.26-384 384s172.26 384 384 384 384-172.26 384-384v-32a96 96 0 0 0-192 0V544a32 32 0 0 1-64 0v-17a191.24 191.24 0 0 1-128 49c-105.87 0-192-86.13-192-192s86.13-192 192-192a191.76 191.76 0 0 1 152.33 75.28A160 160 0 0 1 800 192c88.22 0 160 71.78 160 160v32a445.19 445.19 0 0 1-35.22 174.39zM512 256a128 128 0 1 0 128 128 128.14 128.14 0 0 0-128-128z"  horiz-adv-x="1024" />

    
    <glyph glyph-name="16gl-bubble2" unicode="&#59592;" d="M224-64a32 32 0 0 0-32 32V128a320 320 0 0 0 192 576h256a320 320 0 0 0 0-640H384c-6.05 0-12.14 0.17-18.23 0.52L246.63-54.629999999999995A32 32 0 0 0 224-64z m160 704c-141.16 0-256-114.84-256-256a255.81 255.81 0 0 1 113.8-212.9 32 32 0 0 0 14.2-26.59v-99.26l75 75a32 32 0 0 0 26 9.2 261.2 261.2 0 0 1 27-1.45h256c141.16 0 256 114.84 256 256S781.16 640 640 640z"  horiz-adv-x="1024" />

    
    <glyph glyph-name="16gl-atSignCircle" unicode="&#59593;" d="M512 832C264.58 832 64 631.4200000000001 64 384s200.58-448 448-448 448 200.58 448 448S759.42 832 512 832z m0-832c-212.08 0-384 171.92-384 384s171.92 384 384 384 384-171.92 384-384-171.92-384-384-384z m226.27 610.27a320.15 320.15 0 1 1-25.11-475.15 32 32 0 1 1-40.25 49.75A253.18 253.18 0 0 0 512 128c-141.16 0-256 114.84-256 256s114.84 256 256 256 256-114.84 256-256a64 64 0 0 0-128 0v96a32 32 0 0 1-61.19 13.14A128 128 0 1 1 608 299.41999999999996 127.95 127.95 0 0 1 832 384a317.89 317.89 0 0 1-93.73 226.27zM512 320a64 64 0 1 0 64 64 64.07 64.07 0 0 0-64-64z"  horiz-adv-x="1024" />

    
    <glyph glyph-name="16gl-bubble3" unicode="&#59594;" d="M224-64a32 32 0 0 0-32 32v96h-32a96.11 96.11 0 0 0-96 96V608a96.11 96.11 0 0 0 96 96h704a96.11 96.11 0 0 0 96-96v-448a96.11 96.11 0 0 0-96-96H365.25L246.63-54.629999999999995A32 32 0 0 0 224-64z m-64 704a32 32 0 0 1-32-32v-448a32 32 0 0 1 32-32h64a32 32 0 0 0 32-32v-50.75l73.37 73.38A32 32 0 0 0 352 128h512a32 32 0 0 1 32 32V608a32 32 0 0 1-32 32z"  horiz-adv-x="1024" />

    
    <glyph glyph-name="16gl-bubble" unicode="&#59595;" d="M96-64a32 32 0 0 0-16.46 59.44c62.27 37.36 104.43 69 134.59 101.64-41.13 31.44-75.58 69.42-100.71 111.3C81.09 262.25 64 323 64 384c0 52.53 12.14 103.44 36.07 151.32 22.9 45.82 55.57 86.87 97.1 122C281.52 728.7 393.32 768 512 768s230.48-39.3 314.83-110.67c41.53-35.14 74.2-76.19 97.1-122C947.87 487.44 960 436.53 960 384s-12.13-103.44-36.07-151.32c-22.9-45.82-55.57-86.87-97.1-122C742.48 39.299999999999955 630.68 0 512 0a525 525 0 0 0-91.38 8C340.79-39.14999999999998 228.94-64 96-64z m416 768c-211.74 0-384-143.55-384-320 0-100 54.71-192.44 150.09-253.67a32 32 0 0 0 8.52-45.85c-19.66-26.82-44-51.79-76-77.27 91.89 12.37 150.74 38.53 186.52 61.47a32 32 0 0 0 23.65 4.42A458.42 458.42 0 0 1 512 64c211.74 0 384 143.55 384 320S723.74 704 512 704z"  horiz-adv-x="1024" />

    
    <glyph glyph-name="16gl-bubbleDots3" unicode="&#59596;" d="M864 704H160a96.11 96.11 0 0 1-96-96v-448a96.11 96.11 0 0 1 96-96h32v-96a32 32 0 0 1 54.63-22.63L365.25 64H864a96.11 96.11 0 0 1 96 96V608a96.11 96.11 0 0 1-96 96z m32-544a32 32 0 0 0-32-32H352a32 32 0 0 1-22.63-9.37L256 45.25V96a32 32 0 0 1-32 32h-64a32 32 0 0 0-32 32V608a32 32 0 0 0 32 32h704a32 32 0 0 0 32-32zM384 384a64 64 0 1 0-64 64 64 64 0 0 0 64-64z m192 0a64 64 0 1 0-64 64 64 64 0 0 0 64-64z m192 0a64 64 0 1 0-64 64 64 64 0 0 0 64-64z"  horiz-adv-x="1024" />

    
    <glyph glyph-name="16gl-bubbles2" unicode="&#59597;" d="M448.02061 96a32 32 0 0 0-32-32h-96c-6.05 0-12.14 0.17-18.23 0.52L182.65061-54.629999999999995A32 32 0 0 0 128.02061-32V128a320 320 0 0 0 192 576h256a320.12 320.12 0 0 0 301.78-213.34 32 32 0 1 0-60.34-21.32A256.45 256.45 0 0 1 576.02061 640H320.02061C178.86061 640 64.02061 525.1600000000001 64.02061 384a255.81 255.81 0 0 1 113.8-212.9 32 32 0 0 0 14.2-26.59v-99.26l75 75a32 32 0 0 0 26 9.2 261.2 261.2 0 0 1 27-1.45h96a32 32 0 0 0 32-32z m576 96a191.54 191.54 0 0 0-64-143.09V-32a32 32 0 0 0-54.63-22.63l-55.46 55.46c-5.91-0.55-11.91-0.83-17.91-0.83H704.02061c-105.87 0-192 86.13-192 192s86.13 192 192 192h128c105.87 0 192-86.13 192-192z m-64 0a128.14 128.14 0 0 1-128 128H704.02061a128 128 0 0 1 0-256h128a129.08 129.08 0 0 1 23.48 2.15 32 32 0 0 0 28.46-8.83L896.02061 45.25V64a32 32 0 0 0 12.78 25.59A127.05 127.05 0 0 1 960.02061 192z"  horiz-adv-x="1024" />

    
    <glyph glyph-name="16gl-bubbles" unicode="&#59598;" d="M511.93 35.08000000000004a32 32 0 0 0-29.87-34c-11.25-0.72-22.71-1.09-34.06-1.09a525 525 0 0 0-91.38 8C276.79-39.14999999999998 164.94-64 32-64a32 32 0 0 0-16.46 59.44c62.27 37.36 104.43 69 134.59 101.64C109 128.51999999999998 74.55 166.5 49.42 208.38 17.09 262.25 0 323 0 384c0 52.53 12.14 103.44 36.07 151.32 22.9 45.82 55.57 86.87 97.1 122C217.52 728.7 329.32 768 448 768c83.29 0 164.58-19.7 235.08-57 69.24-36.58 125.59-88.61 162.92-150.45a32 32 0 0 0-54.78-33.1C725.46 636.35 593.94 704 448 704 236.26 704 64 560.45 64 384c0-100 54.71-192.44 150.09-253.67a32 32 0 0 0 8.52-45.85c-19.66-26.82-44-51.79-76-77.27 91.89 12.37 150.74 38.53 186.52 61.47a32 32 0 0 0 23.65 4.42A458.42 458.42 0 0 1 448 64c10 0 20.06 0.32 29.94 1a32 32 0 0 0 33.99-29.92z m510.91-75.62A32 32 0 0 0 992-64c-85.49 0-143.52 34.21-179.68 67.35A293.77 293.77 0 0 0 768 0c-67.47 0-131.11 22.71-179.22 63.94-23.87 20.46-42.67 44.4-55.87 71.16a199.44 199.44 0 0 0 0 177.8c13.2 26.76 32 50.7 55.87 71.16C636.89 425.29 700.53 448 768 448s131.11-22.71 179.22-63.94c23.87-20.46 42.67-44.4 55.87-71.16A199.25 199.25 0 0 0 1024 224a202.59 202.59 0 0 0-28.76-103.35A230.93 230.93 0 0 0 944 61.27999999999997c17-28.28 38.6-50.28 64.46-65.84a32 32 0 0 0 14.38-35.98z m-137.37 138.1C932.83 128.21000000000004 960 174.29999999999995 960 224c0 88.22-86.13 160-192 160s-192-71.78-192-160 86.13-160 192-160a228.49 228.49 0 0 1 48.12 5.09 31.62 31.62 0 0 0 6.75 0.72 32 32 0 0 0 23.19-9.95 189.32 189.32 0 0 1 45.21-35 307.51 307.51 0 0 0-17.43 32.38 32 32 0 0 0 11.63 40.32z"  horiz-adv-x="1024" />

    
    <glyph glyph-name="16gl-bubbleDots" unicode="&#59599;" d="M96-64a32 32 0 0 0-16.46 59.44c62.27 37.36 104.43 69 134.59 101.64-41.13 31.44-75.58 69.42-100.71 111.3C81.09 262.25 64 323 64 384c0 52.53 12.14 103.44 36.07 151.32 22.9 45.82 55.57 86.87 97.1 122C281.52 728.7 393.32 768 512 768s230.48-39.3 314.83-110.67c41.53-35.14 74.2-76.19 97.1-122C947.87 487.44 960 436.53 960 384s-12.13-103.44-36.07-151.32c-22.9-45.82-55.57-86.87-97.1-122C742.48 39.299999999999955 630.68 0 512 0a525 525 0 0 0-91.38 8C340.79-39.14999999999998 228.94-64 96-64z m416 768c-211.74 0-384-143.55-384-320 0-100 54.71-192.44 150.09-253.67a32 32 0 0 0 8.52-45.85c-19.66-26.82-44-51.79-76-77.27 91.89 12.37 150.74 38.53 186.52 61.47a32 32 0 0 0 23.65 4.42A458.42 458.42 0 0 1 512 64c211.74 0 384 143.55 384 320S723.74 704 512 704zM320 448a64 64 0 1 1 64-64 64 64 0 0 1-64 64z m192 0a64 64 0 1 1 64-64 64 64 0 0 1-64 64z m192 0a64 64 0 1 1 64-64 64 64 0 0 1-64 64z"  horiz-adv-x="1024" />

    
    <glyph glyph-name="16gl-bubbles4" unicode="&#59600;" d="M284.42 219.37a32 32 0 0 0-13.71-43.13C208.84 144.23000000000002 128.53 128 32 128a32 32 0 0 0-16.46 59.44C62.68 215.73000000000002 95 240 117.86 264.78999999999996c-30.92 22.55-57 49.55-76.48 79.38C14.31 385.63 0 432.6 0 480c0 39.83 9.71 78.39 28.86 114.6C47 629 72.9 659.74 105.74 686c66.09 52.87 153.55 82 246.26 82 91.4 0 178-28.41 243.75-80a32 32 0 1 0-39.5-50.36C501.69 680.4300000000001 429.15 704 352 704c-78.24 0-151.5-24.14-206.28-68C93 593.87 64 538.46 64 480c0-70.31 43.6-137.53 116.63-179.82a32 32 0 0 0 10.61-45.4C179 236.28999999999996 164 218.94000000000005 145.05 201.70000000000005c36.85 6.91 69.3 17.44 96.24 31.38a32 32 0 0 0 43.13-13.71z m738.42-259.91A32 32 0 0 0 992-64c-140.37 0-223.22 34.67-269.89 66.9A434.27 434.27 0 0 0 672 0c-92.71 0-180.17 29.12-246.26 82-32.84 26.27-58.7 57-76.88 91.41C329.71 209.61 320 248.16999999999996 320 288s9.71 78.39 28.86 114.6C367 437 392.9 467.74 425.74 494c66.09 52.87 153.55 82 246.26 82s180.17-29.12 246.26-82c32.84-26.27 58.7-57 76.88-91.41 19.15-36.2 28.86-74.76 28.86-114.59 0-47.4-14.31-94.37-41.38-135.83-19.48-29.83-45.56-56.83-76.48-79.38 22.86-24.79 55.18-49.06 102.32-77.35a32 32 0 0 0 14.38-35.98zM828.25 87.77999999999997a32 32 0 0 0 15.12 20.4C916.4 150.47000000000003 960 217.69000000000005 960 288c0 58.46-29 113.87-81.72 156-54.78 43.83-128 68-206.28 68s-151.5-24.14-206.28-68C413 401.87 384 346.46000000000004 384 288s29-113.88 81.72-156c54.78-43.83 128-68 206.28-68a368.75 368.75 0 0 1 53.94 4 32.07 32.07 0 0 0 24.29-6.37c31.22-24.2 75.29-41.77 128.63-51.81C860 27 845 44.32000000000005 832.76 62.77999999999997a32 32 0 0 0-4.51 25z"  horiz-adv-x="1024" />

    
    <glyph glyph-name="16gl-bubbleDots2" unicode="&#59601;" d="M224-64a32 32 0 0 0-32 32V128a320 320 0 0 0 192 576h256a320 320 0 0 0 0-640H384c-6.05 0-12.14 0.17-18.23 0.52L246.63-54.629999999999995A32 32 0 0 0 224-64z m160 704c-141.16 0-256-114.84-256-256a255.81 255.81 0 0 1 113.8-212.9 32 32 0 0 0 14.2-26.59v-99.26l75 75a32 32 0 0 0 26 9.2 261.2 261.2 0 0 1 27-1.45h256c141.16 0 256 114.84 256 256S781.16 640 640 640z m-64-192a64 64 0 1 1 64-64 64 64 0 0 1-64 64z m192 0a64 64 0 1 1 64-64 64 64 0 0 1-64 64z m192 0a64 64 0 1 1 64-64 64 64 0 0 1-64 64z"  horiz-adv-x="1024" />

    
    <glyph glyph-name="16gl-bubbles3" unicode="&#59602;" d="M448 96a32 32 0 0 0-32-32H301.25L182.63-54.629999999999995A32 32 0 0 0 128-32v96H96a96.11 96.11 0 0 0-96 96V608a96.11 96.11 0 0 0 96 96h704a96.11 96.11 0 0 0 96-96v-128a32 32 0 0 0-64 0V608a32 32 0 0 1-32 32H96a32 32 0 0 1-32-32v-448a32 32 0 0 1 32-32h64a32 32 0 0 0 32-32v-50.75l73.37 73.38A32 32 0 0 0 288 128h128a32 32 0 0 0 32-32z m576 192v-192a96.17 96.17 0 0 0-64-90.52V-32a32 32 0 0 0-54.63-22.63L850.75 0H608a96.11 96.11 0 0 0-96 96V288a96.11 96.11 0 0 0 96 96h320a96.11 96.11 0 0 0 96-96z m-64 0a32 32 0 0 1-32 32H608a32 32 0 0 1-32-32v-192a32 32 0 0 1 32-32h256a32 32 0 0 0 22.63-9.37l11.4-11.4A32 32 0 0 0 928 64a32 32 0 0 1 32 32z"  horiz-adv-x="1024" />

    
    <glyph glyph-name="16gl-bubbles5" unicode="&#59603;" d="M255.68 285.74a32 32 0 0 0-36.22-27.14 254.79 254.79 0 0 0-35.81 7.79l-65-65A32 32 0 0 0 64 224V342.67999999999995A256 256 0 0 0 256 768h192a254.57 254.57 0 0 0 179.16-73.14 32 32 0 0 0-44.79-45.72A190.9 190.9 0 0 1 448 704H256c-105.87 0-192-86.13-192-192a190.9 190.9 0 0 1 54.86-134.35 32 32 0 0 0 9.14-22.4v-54l24.45 24.45a32 32 0 0 0 34.19 7.21 191.27 191.27 0 0 1 41.9-11 32 32 0 0 0 27.14-36.17zM1024 320a254.4 254.4 0 0 0-64-169.32V32a32 32 0 0 0-54.63-22.63l-65 65A255.65 255.65 0 0 0 768 64H576a256 256 0 1 0 0 512h192a256 256 0 0 0 256-256z m-64 0c0 105.87-86.13 192-192 192H576c-105.87 0-192-86.13-192-192s86.13-192 192-192h192a191.16 191.16 0 0 1 69.36 12.91 32 32 0 0 0 34.19-7.21L896 109.25v54a32 32 0 0 0 9.14 22.4A190.9 190.9 0 0 1 960 320z"  horiz-adv-x="1024" />

    
    <glyph glyph-name="16gl-bubbles6" unicode="&#59604;" d="M246.63 310.63a32 32 0 0 0 0-45.26l-128-128A32 32 0 0 0 64 160V261.48A96.17 96.17 0 0 0 0 352V672a96.11 96.11 0 0 0 96 96h512a96.11 96.11 0 0 0 96-96 32 32 0 0 0-64 0 32 32 0 0 1-32 32H96a32 32 0 0 1-32-32v-320a32 32 0 0 1 32-32 32 32 0 0 0 32-32v-50.75l73.37 73.38a32 32 0 0 0 45.26 0zM1024 480v-320a96.17 96.17 0 0 0-64-90.52V-32a32 32 0 0 0-54.63-22.63L786.75 64H416a96.11 96.11 0 0 0-96 96V480a96.11 96.11 0 0 0 96 96h512a96.11 96.11 0 0 0 96-96z m-64 0a32 32 0 0 1-32 32H416a32 32 0 0 1-32-32v-320a32 32 0 0 1 32-32h384a32 32 0 0 0 22.63-9.37L896 45.25V96a32 32 0 0 0 32 32 32 32 0 0 1 32 32z"  horiz-adv-x="1024" />

    
    <glyph glyph-name="16gl-bubbleDots4" unicode="&#59605;" d="M512-64a31.9 31.9 0 0 0-22.63 9.37L370.75 64H160a96.11 96.11 0 0 0-96 96V608a96.11 96.11 0 0 0 96 96h704a96.11 96.11 0 0 0 96-96v-448a96.11 96.11 0 0 0-96-96H653.25L534.63-54.629999999999995A31.9 31.9 0 0 0 512-64zM160 640a32 32 0 0 1-32-32v-448a32 32 0 0 1 32-32h224a32 32 0 0 0 22.63-9.37L512 13.25l105.37 105.38A32 32 0 0 0 640 128h224a32 32 0 0 1 32 32V608a32 32 0 0 1-32 32z m224-256a64 64 0 1 0-64 64 64 64 0 0 0 64-64z m128 64a64 64 0 1 1 64-64 64 64 0 0 1-64 64z m192 0a64 64 0 1 1 64-64 64 64 0 0 1-64 64z"  horiz-adv-x="1024" />

    
    <glyph glyph-name="16gl-bubbles7" unicode="&#59606;" d="M96 128a32 32 0 0 0-32 32V261.48A96.17 96.17 0 0 0 0 352V672a96.11 96.11 0 0 0 96 96h512a96.11 96.11 0 0 0 96-96 32 32 0 0 0-64 0 32 32 0 0 1-32 32H96a32 32 0 0 1-32-32v-320a32 32 0 0 1 32-32 32 32 0 0 0 32-32v-50.75l73.37 73.38a32 32 0 0 0 45.26-45.26l-128-128A32 32 0 0 0 96 128z m598.63-118.63L749.25 64H928a96.11 96.11 0 0 1 96 96V480a96.11 96.11 0 0 1-96 96H416a96.11 96.11 0 0 1-96-96v-320a96.11 96.11 0 0 1 96-96h178.75l54.62-54.63a32 32 0 0 1 45.26 0zM928 512a32 32 0 0 0 32-32v-320a32 32 0 0 0-32-32H736a32 32 0 0 1-22.63-9.37L672 77.25l-41.37 41.38A32 32 0 0 1 608 128H416a32 32 0 0 0-32 32V480a32 32 0 0 0 32 32z"  horiz-adv-x="1024" />

    
    <glyph glyph-name="16gl-bubble4" unicode="&#59607;" d="M512-64a31.9 31.9 0 0 0-22.63 9.37L370.75 64H160a96.11 96.11 0 0 0-96 96V608a96.11 96.11 0 0 0 96 96h704a96.11 96.11 0 0 0 96-96v-448a96.11 96.11 0 0 0-96-96H653.25L534.63-54.629999999999995A31.9 31.9 0 0 0 512-64zM160 640a32 32 0 0 1-32-32v-448a32 32 0 0 1 32-32h224a32 32 0 0 0 22.63-9.37L512 13.25l105.37 105.38A32 32 0 0 0 640 128h224a32 32 0 0 1 32 32V608a32 32 0 0 1-32 32z"  horiz-adv-x="1024" />

    
    <glyph glyph-name="16gl-bubblesDots5" unicode="&#59608;" d="M255.68 285.74a32 32 0 0 0-36.22-27.14 254.79 254.79 0 0 0-35.81 7.79l-65-65A32 32 0 0 0 64 224V342.67999999999995A256 256 0 0 0 256 768h192a254.57 254.57 0 0 0 179.16-73.14 32 32 0 0 0-44.79-45.72A190.9 190.9 0 0 1 448 704H256c-105.87 0-192-86.13-192-192a190.9 190.9 0 0 1 54.86-134.35 32 32 0 0 0 9.14-22.4v-54l24.45 24.45a32 32 0 0 0 34.19 7.21 191.27 191.27 0 0 1 41.9-11 32 32 0 0 0 27.14-36.17zM1024 320a254.4 254.4 0 0 0-64-169.32V32a32 32 0 0 0-54.63-22.63l-65 65A255.65 255.65 0 0 0 768 64H576a256 256 0 1 0 0 512h192a256 256 0 0 0 256-256z m-64 0c0 105.87-86.13 192-192 192H576c-105.87 0-192-86.13-192-192s86.13-192 192-192h192a191.16 191.16 0 0 1 69.36 12.91 32 32 0 0 0 34.19-7.21L896 109.25v54a32 32 0 0 0 9.14 22.4A190.9 190.9 0 0 1 960 320z m-400 0a48 48 0 1 0-48 48 48 48 0 0 0 48-48zM272 512a48 48 0 1 0-48 48 48 48 0 0 0 48-48z m400-144a48 48 0 1 1 48-48 48 48 0 0 1-48 48z m160 0a48 48 0 1 1 48-48 48 48 0 0 1-48 48z"  horiz-adv-x="1024" />

    
    <glyph glyph-name="16gl-envelope" unicode="&#59609;" d="M896 0H128a64.07 64.07 0 0 0-64 64V640a64.07 64.07 0 0 0 64 64h768a64.07 64.07 0 0 0 64-64v-576a64.07 64.07 0 0 0-64-64zM128 594.75V64h768V594.75L557.25 256a64.07 64.07 0 0 0-90.5 0zM173.25 640L512 301.25 850.75 640z"  horiz-adv-x="1024" />

    
    <glyph glyph-name="16gl-bubblesDots2" unicode="&#59610;" d="M448.02061 96a32 32 0 0 0-32-32h-96c-6.05 0-12.14 0.17-18.23 0.52L182.65061-54.629999999999995A32 32 0 0 0 128.02061-32V128a320 320 0 0 0 192 576h256a320.12 320.12 0 0 0 301.78-213.34 32 32 0 1 0-60.34-21.32A256.45 256.45 0 0 1 576.02061 640H320.02061C178.86061 640 64.02061 525.1600000000001 64.02061 384a255.81 255.81 0 0 1 113.8-212.9 32 32 0 0 0 14.2-26.59v-99.26l75 75a32 32 0 0 0 26 9.2 261.2 261.2 0 0 1 27-1.45h96a32 32 0 0 0 32-32z m576 96a191.54 191.54 0 0 0-64-143.09V-32a32 32 0 0 0-54.63-22.63l-55.46 55.46c-5.91-0.55-11.91-0.83-17.91-0.83H704.02061c-105.87 0-192 86.13-192 192s86.13 192 192 192h128c105.87 0 192-86.13 192-192z m-64 0a128.14 128.14 0 0 1-128 128H704.02061a128 128 0 0 1 0-256h128a129.08 129.08 0 0 1 23.48 2.15 32 32 0 0 0 28.46-8.83L896.02061 45.25V64a32 32 0 0 0 12.78 25.59A127.05 127.05 0 0 1 960.02061 192zM320.02061 384a64 64 0 1 0-64 64 64 64 0 0 0 64-64z m128 64a64 64 0 1 1 64-64 64 64 0 0 1-64 64z"  horiz-adv-x="1024" />

    
    <glyph glyph-name="16gl-bubblesDots3" unicode="&#59611;" d="M448 96a32 32 0 0 0-32-32H301.25L182.63-54.629999999999995A32 32 0 0 0 128-32v96H96a96.11 96.11 0 0 0-96 96V608a96.11 96.11 0 0 0 96 96h704a96.11 96.11 0 0 0 96-96v-128a32 32 0 0 0-64 0V608a32 32 0 0 1-32 32H96a32 32 0 0 1-32-32v-448a32 32 0 0 1 32-32h64a32 32 0 0 0 32-32v-50.75l73.37 73.38A32 32 0 0 0 288 128h128a32 32 0 0 0 32-32z m576 192v-192a96.17 96.17 0 0 0-64-90.52V-32a32 32 0 0 0-54.63-22.63L850.75 0H608a96.11 96.11 0 0 0-96 96V288a96.11 96.11 0 0 0 96 96h320a96.11 96.11 0 0 0 96-96z m-64 0a32 32 0 0 1-32 32H608a32 32 0 0 1-32-32v-192a32 32 0 0 1 32-32h256a32 32 0 0 0 22.63-9.37l11.4-11.4A32 32 0 0 0 928 64a32 32 0 0 1 32 32z m-640 96a64 64 0 1 0-64 64 64 64 0 0 0 64-64z m128 64a64 64 0 1 1 64-64 64 64 0 0 1-64 64z"  horiz-adv-x="1024" />

    
    <glyph glyph-name="16gl-bubblesDots" unicode="&#59612;" d="M511.93 35.08000000000004a32 32 0 0 0-29.87-34c-11.25-0.72-22.71-1.09-34.06-1.09a525 525 0 0 0-91.38 8C276.79-39.14999999999998 164.94-64 32-64a32 32 0 0 0-16.46 59.44c62.27 37.36 104.43 69 134.59 101.64C109 128.51999999999998 74.55 166.5 49.42 208.38 17.09 262.25 0 323 0 384c0 52.53 12.14 103.44 36.07 151.32 22.9 45.82 55.57 86.87 97.1 122C217.52 728.7 329.32 768 448 768c83.29 0 164.58-19.7 235.08-57 69.24-36.58 125.59-88.61 162.92-150.45a32 32 0 0 0-54.78-33.1C725.46 636.35 593.94 704 448 704 236.26 704 64 560.45 64 384c0-100 54.71-192.44 150.09-253.67a32 32 0 0 0 8.52-45.85c-19.66-26.82-44-51.79-76-77.27 91.89 12.37 150.74 38.53 186.52 61.47a32 32 0 0 0 23.65 4.42A458.42 458.42 0 0 1 448 64c10 0 20.06 0.32 29.94 1a32 32 0 0 0 33.99-29.92z m510.91-75.62A32 32 0 0 0 992-64c-85.49 0-143.52 34.21-179.68 67.35A293.77 293.77 0 0 0 768 0c-67.47 0-131.11 22.71-179.22 63.94-23.87 20.46-42.67 44.4-55.87 71.16a199.44 199.44 0 0 0 0 177.8c13.2 26.76 32 50.7 55.87 71.16C636.89 425.29 700.53 448 768 448s131.11-22.71 179.22-63.94c23.87-20.46 42.67-44.4 55.87-71.16A199.25 199.25 0 0 0 1024 224a202.59 202.59 0 0 0-28.76-103.35A230.93 230.93 0 0 0 944 61.27999999999997c17-28.28 38.6-50.28 64.46-65.84a32 32 0 0 0 14.38-35.98z m-137.37 138.1C932.83 128.21000000000004 960 174.29999999999995 960 224c0 88.22-86.13 160-192 160s-192-71.78-192-160 86.13-160 192-160a228.49 228.49 0 0 1 48.12 5.09 31.62 31.62 0 0 0 6.75 0.72 32 32 0 0 0 23.19-9.95 189.32 189.32 0 0 1 45.21-35 307.51 307.51 0 0 0-17.43 32.38 32 32 0 0 0 11.63 40.32zM320 384a64 64 0 1 0-64 64 64 64 0 0 0 64-64z m128 64a64 64 0 1 1 64-64 64 64 0 0 1-64 64z"  horiz-adv-x="1024" />

    
    <glyph glyph-name="16gl-envelope2" unicode="&#59613;" d="M896 0H128a64.07 64.07 0 0 0-64 64V640a64.07 64.07 0 0 0 64 64h768a64.07 64.07 0 0 0 64-64v-576a64.07 64.07 0 0 0-64-64z m-722.75 64h677.5L608 306.75 557.25 256a64.07 64.07 0 0 0-90.5 0L416 306.75z m480 288L896 109.22000000000003V594.75zM128 594.75v-485.5L370.75 352z m384-293.5L850.75 640h-677.5z"  horiz-adv-x="1024" />

    
    </font>
</defs>
</svg>
