<?xml version="1.0" standalone="no"?>
<!DOCTYPE svg PUBLIC "-//W3C//DTD SVG 1.1//EN" "http://www.w3.org/Graphics/SVG/1.1/DTD/svg11.dtd" >
<!--
2013-9-30: Created.
-->
<svg>
<metadata>
Created by iconfont
</metadata>
<defs>

<font id="D3III24glBasic" horiz-adv-x="1024" >
  <font-face
    font-family="D3III24glBasic"
    font-weight="500"
    font-stretch="normal"
    units-per-em="1024"
    ascent="896"
    descent="-128"
  />
    <missing-glyph />
    
    <glyph glyph-name="24gl-building2" unicode="&#59441;" d="M960-42.66666699999996H426.666667V806.8199999999999l415.853333-69.333333a63.8 63.8 0 0 0 53.48-63.106667V21.33333300000004a21.333333 21.333333 0 0 1 42.666667 0V674.38a106.666667 106.666667 0 0 1-89.133334 105.213333l-440.666666 73.446667A21.333333 21.333333 0 0 1 384 832v-111.906667l-221.333333-63.233333a106.666667 106.666667 0 0 1-77.333334-102.56V-42.66666699999996H64a21.333333 21.333333 0 0 1 0-42.666666h896a21.333333 21.333333 0 0 1 0 42.666666z m-576 0H128V554.3a64.28 64.28 0 0 0 46.42 61.54L384 675.72z m213.333333 597.333334h-42.666666V640h42.666666z m85.333334 0h-42.666667V640h42.666667z m0-128h-42.666667V512h42.666667z m0-128h-42.666667V384h42.666667z m0-128h-42.666667V256h42.666667z m-42.666667-42.666667h42.666667v-85.333333h-42.666667z m-42.666667 298.666667h-42.666666V512h42.666666z m0-128h-42.666666V384h42.666666z m0-128h-42.666666V256h42.666666z m-42.666666-42.666667h42.666666v-85.333333h-42.666666z m213.333333 426.666667h-42.666667V640h42.666667z m0-128h-42.666667V512h42.666667z m0-128h-42.666667V384h42.666667z m0-128h-42.666667V256h42.666667z m-42.666667-42.666667h42.666667v-85.333333h-42.666667zM256 426.666667h-42.666667V512h42.666667z m0-128h-42.666667V384h42.666667z m0-128h-42.666667V256h42.666667z m0-128h-42.666667v85.333333h42.666667z"  horiz-adv-x="1024" />

    
    <glyph glyph-name="24gl-building" unicode="&#59442;" d="M576-42.66666699999996H341.333333V712.106667a63.8 63.8 0 0 0 57.633334 63.686666L725.333333 808.426667V192a21.333333 21.333333 0 0 1 42.666667 0V640h128v-448a21.333333 21.333333 0 0 1 42.666667 0V640a42.713333 42.713333 0 0 1-42.666667 42.666667h-128V832a21.333333 21.333333 0 0 1-23.453333 21.226667l-349.826667-34.98A106.666667 106.666667 0 0 1 298.666667 712.106667V-42.66666699999996H170.666667v89.5c10.873333 4.526667 20.14 12.666667 27.04 23.953334C208.22 88 213.333333 111.94000000000005 213.333333 144c0 31.2-5 66.666667-13.38 94.84-4.613333 15.513333-10 28.14-16.093333 37.526667C171.946667 294.79999999999995 158.506667 298.66666699999996 149.333333 298.66666699999996s-22.613333-3.866667-34.526666-22.3c-6.066667-9.386667-11.48-22-16.093334-37.526667C90.333333 210.66666699999996 85.333333 175.20000000000005 85.333333 144c0-32.06 5.113333-56 15.626667-73.213333 6.9-11.293333 16.166667-19.426667 27.04-23.953334V-42.66666699999996H64a21.333333 21.333333 0 0 1 0-42.666666h512a21.333333 21.333333 0 0 1 0 42.666666z m-438.833333 260.44c4.306667 17 8.82 27.446667 12.166666 33.333334 3.333333-5.873333 7.86-16.32 12.166667-33.333334A314.266667 314.266667 0 0 0 170.666667 144c0-13.76-1.54-58.666667-21.333334-58.666667s-21.333333 44.906667-21.333333 58.666667a314.266667 314.266667 0 0 0 9.166667 73.773333zM469.333333 597.333333h-42.666666V682.666667h42.666666z m85.333334 0h-42.666667V682.666667h42.666667z m85.333333 0h-42.666667V682.666667h42.666667zM469.333333 469.333333h-42.666666V554.666667h42.666666z m85.333334 0h-42.666667V554.666667h42.666667z m85.333333 0h-42.666667V554.666667h42.666667zM469.333333 341.33333300000004h-42.666666V426.666667h42.666666z m85.333334 0h-42.666667V426.666667h42.666667z m42.666666 85.333334h42.666667v-85.333334h-42.666667z m-128-213.333334h-42.666666V298.66666699999996h42.666666z m85.333334 0h-42.666667V298.66666699999996h42.666667z m85.333333 0h-42.666667V298.66666699999996h42.666667z m-213.333333-42.666666h42.666666v-85.333334h-42.666666z m85.333333 0h42.666667v-85.333334h-42.666667z m341.333333 298.666666h-42.666666V554.666667h42.666666z m0-128h-42.666666V426.666667h42.666666z m-42.666666-42.666666h42.666666v-85.333334h-42.666666z m150.12-243.133334a85.513333 85.513333 0 0 1-41.026667 26.433334 106.666667 106.666667 0 0 1-173.093333 3.333333h-21.333334a85.333333 85.333333 0 0 1 0-170.666667h170.666667a85.333333 85.333333 0 0 1 64.786667 140.866667zM896-42.66666699999996h-170.666667a42.666667 42.666667 0 0 0 0 85.333334h32.753334a21.333333 21.333333 0 0 1 18.466666 10.666666 64 64 0 0 0 111.253334-0.666666 21.333333 21.333333 0 0 1 15.146666-10.586667A42.666667 42.666667 0 0 0 896-42.66666699999996z"  horiz-adv-x="1024" />

    
    <glyph glyph-name="24gl-bricks" unicode="&#59443;" d="M885.333333 810.666667H138.666667a53.393333 53.393333 0 0 1-53.333334-53.333334v-746.666666a53.393333 53.393333 0 0 1 53.333334-53.333334h746.666666a53.393333 53.393333 0 0 1 53.333334 53.333334V757.333333a53.393333 53.393333 0 0 1-53.333334 53.333334z m-544-640V341.33333300000004h341.333334v-170.666666z m-213.333333 0V341.33333300000004h170.666667v-170.666666z m320 384a21.333333 21.333333 0 0 1 0 42.666666H341.333333V768h341.333334v-170.666667H533.333333a21.333333 21.333333 0 0 1-21.333333-21.333333v-192H128V554.666667z m277.333333-213.333334h106.666667a21.333333 21.333333 0 0 1 0 42.666667H554.666667V554.666667h341.333333v-384h-170.666667z m170.666667 416v-160h-170.666667V768h160a10.666667 10.666667 0 0 0 10.666667-10.666667zM138.666667 768h160v-170.666667H128V757.333333a10.666667 10.666667 0 0 0 10.666667 10.666667z m-10.666667-757.333333v117.333333h384v-128H138.666667a10.666667 10.666667 0 0 0-10.666667 10.666667z m757.333333-10.666667H554.666667v128h341.333333v-117.333333a10.666667 10.666667 0 0 0-10.666667-10.666667z"  horiz-adv-x="1024" />

    
    <glyph glyph-name="24gl-church" unicode="&#59444;" d="M490.666667 341.33333300000004c58.813333 0 106.666667 47.853333 106.666666 106.666667s-47.853333 106.666667-106.666666 106.666667-106.666667-47.853333-106.666667-106.666667 47.853333-106.666667 106.666667-106.666667z m0 170.666667a64 64 0 1 0-64-64 64.073333 64.073333 0 0 0 64 64z m438.5-323.58L682.666667 352.753333V512a21.333333 21.333333 0 0 1 15.086666 36.42L512 734.166667V810.666667h21.333333a21.333333 21.333333 0 0 1 0 42.666666h-21.333333V874.666667a21.333333 21.333333 0 0 1-42.666667 0v-21.333334h-21.333333a21.333333 21.333333 0 0 1 0-42.666666h21.333333v-76.5L283.58 548.4200000000001A21.333333 21.333333 0 0 1 298.666667 512v-159.246667l-246.5-164.333333a21.333333 21.333333 0 0 1 23.666666-35.506667l9.5 6.333334V-64a21.333333 21.333333 0 0 1 21.333334-21.333333h768a21.333333 21.333333 0 0 1 21.333333 21.333333v223.246667l9.5-6.333334a21.333333 21.333333 0 1 1 23.666667 35.506667zM192 85.33333300000004a21.333333 21.333333 0 0 1-21.333333-21.333333v-106.666667h-42.666667v230.36l170.666667 113.78V-42.66666699999996H213.333333v106.666667a21.333333 21.333333 0 0 1-21.333333 21.333333z m149.333333 255.826667v204.666667l149.333334 149.333333 149.333333-149.333333V-42.66666699999996h-42.666667v149.333334c0 58.813333-47.853333 106.666667-106.666666 106.666666s-106.666667-47.853333-106.666667-106.666666v-149.333334h-42.666667zM426.666667-42.66666699999996v149.333334a64 64 0 0 0 128 0v-149.333334z m426.666666 0h-42.666666v106.666667a21.333333 21.333333 0 0 1-42.666667 0v-106.666667h-85.333333V301.473333l170.666666-113.78z"  horiz-adv-x="1024" />

    
    <glyph glyph-name="24gl-building3" unicode="&#59445;" d="M928 512h-117.333333V800a53.393333 53.393333 0 0 1-53.333334 53.333333H309.333333a53.393333 53.393333 0 0 1-53.333333-53.333333v-117.333333H96a53.393333 53.393333 0 0 1-53.333333-53.333334v-693.333333a21.333333 21.333333 0 0 1 21.333333-21.333333h896a21.333333 21.333333 0 0 1 21.333333 21.333333V458.666667a53.393333 53.393333 0 0 1-53.333333 53.333333zM298.666667 800a10.666667 10.666667 0 0 0 10.666666 10.666667h448a10.666667 10.666667 0 0 0 10.666667-10.666667v-842.666667H640v245.333334a53.393333 53.393333 0 0 1-53.333333 53.333333H480a53.393333 53.393333 0 0 1-53.333333-53.333333v-245.333334H298.666667zM85.333333-42.66666699999996V629.333333a10.666667 10.666667 0 0 0 10.666667 10.666667h160v-682.666667z m384 0v245.333334a10.666667 10.666667 0 0 0 10.666667 10.666666h106.666667a10.666667 10.666667 0 0 0 10.666666-10.666666v-245.333334z m341.333334 0V469.333333h117.333333a10.666667 10.666667 0 0 0 10.666667-10.666666v-501.333334z"  horiz-adv-x="1024" />

    
    <glyph glyph-name="24gl-city" unicode="&#59446;" d="M960-42.66666699999996h-21.333333V576a21.333333 21.333333 0 0 1-21.333334 21.333333h-21.333333V704a21.333333 21.333333 0 0 1-21.333333 21.333333h-149.333334V832a21.333333 21.333333 0 0 1-25.52 20.92L341.746667 781.333333A106.666667 106.666667 0 0 1 256 676.713333V512H170.666667V618.666667a21.333333 21.333333 0 0 1-42.666667 0v-106.666667H64a21.333333 21.333333 0 0 1-21.333333-21.333333v-469.333334a21.333333 21.333333 0 0 1 42.666666 0V469.333333h170.666667v-128h-64a21.333333 21.333333 0 0 1-21.333333-21.333333v-362.666667H64a21.333333 21.333333 0 0 1 0-42.666666h896a21.333333 21.333333 0 0 1 0 42.666666z m-106.666667 640h-128V682.666667h128z m-640-640V298.66666699999996h213.333334v-341.333334z m256 0V320a21.333333 21.333333 0 0 1-21.333333 21.333333H298.666667V676.713333a64.173333 64.173333 0 0 0 51.446666 62.753334L682.666667 806v-208.666667h-64a21.333333 21.333333 0 0 1-21.333334-21.333333v-618.666667z m170.666667 0V554.666667h256v-597.333334zM426.666667 640h42.666666v-85.333333h-42.666666z m0-128h42.666666v-85.333333h-42.666666z m-128-298.666667h42.666666v-85.333333h-42.666666z m469.333333 256h42.666667v-85.333333h-42.666667z m0-128h42.666667v-85.333333h-42.666667z m0-128h42.666667v-85.333333h-42.666667z m0-128h42.666667v-85.333333h-42.666667z"  horiz-adv-x="1024" />

    
    <glyph glyph-name="24gl-city2" unicode="&#59447;" d="M960-42.66666699999996h-21.333333V576a21.333333 21.333333 0 0 1-27.193334 20.513333l-15.473333-4.42V746.666667a21.333333 21.333333 0 0 1-42.666667 0v-59.333334l-170.666666 34.133334V746.666667a21.333333 21.333333 0 0 1-11.793334 19.08l-170.666666 85.333333a21.333333 21.333333 0 0 1-19.08 0l-170.666667-85.333333A21.333333 21.333333 0 0 1 298.666667 746.666667v-119.166667l-36.42-36.413333A21.333333 21.333333 0 0 1 256 576v-64H170.666667V618.666667a21.333333 21.333333 0 0 1-42.666667 0v-106.666667H64a21.333333 21.333333 0 0 1-21.333333-21.333333v-469.333334a21.333333 21.333333 0 0 1 42.666666 0V469.333333h170.666667v-81.026666l-75.833333-50.553334A21.333333 21.333333 0 0 1 170.666667 320v-362.666667H64a21.333333 21.333333 0 0 1 0-42.666666h896a21.333333 21.333333 0 0 1 0 42.666666zM853.333333 643.846667v-63.946667l-170.666666-48.76V678zM213.333333-42.66666699999996V308.58000000000004l106.666667 71.113333 106.666667-71.113333V-42.66666699999996z m256 0V320a21.333333 21.333333 0 0 1-9.5 17.753333l-128 85.333334a21.333333 21.333333 0 0 1-23.666666 0l-9.5-6.333334V567.166667l36.42 36.413333A21.333333 21.333333 0 0 1 341.333333 618.666667V733.48l149.333334 74.666667 149.333333-74.666667v-221.786667a106.98 106.98 0 0 1-42.666667-85.393333V-42.66666699999996z m170.666667 0V426.3a64.28 64.28 0 0 0 46.42 61.54L896 547.72V-42.66666699999996zM426.666667 640h42.666666v-85.333333h-42.666666z m0-128h42.666666v-85.333333h-42.666666zM298.666667 256h42.666666v-85.333333h-42.666666z m469.333333 213.333333h42.666667v-85.333333h-42.666667z m0-128h42.666667v-85.333333h-42.666667z m0-128h42.666667v-85.333333h-42.666667z m0-128h42.666667v-85.333333h-42.666667z"  horiz-adv-x="1024" />

    
    <glyph glyph-name="24gl-door" unicode="&#59448;" d="M917.333333-42.66666699999996h-21.333333V800a53.393333 53.393333 0 0 1-53.333333 53.333333H181.333333a53.393333 53.393333 0 0 1-53.333333-53.333333v-842.666667h-21.333333a21.333333 21.333333 0 0 1 0-42.666666h810.666666a21.333333 21.333333 0 0 1 0 42.666666z m-661.333333 0V725.333333h512v-277.333333a21.333333 21.333333 0 0 1 42.666667 0V746.666667a21.333333 21.333333 0 0 1-21.333334 21.333333H234.666667a21.333333 21.333333 0 0 1-21.333334-21.333333v-789.333334h-42.666666V800a10.666667 10.666667 0 0 0 10.666666 10.666667h661.333334a10.666667 10.666667 0 0 0 10.666666-10.666667v-842.666667z m554.666667 320v-256a21.333333 21.333333 0 0 0-42.666667 0V277.33333300000004a21.333333 21.333333 0 0 0 42.666667 0z m0 85.333334a21.333333 21.333333 0 0 0-21.333334-21.333334H661.333333a21.333333 21.333333 0 0 0 0 42.666667h128a21.333333 21.333333 0 0 0 21.333334-21.333333z"  horiz-adv-x="1024" />

    
    <glyph glyph-name="24gl-home" unicode="&#59449;" d="M810.666667-85.33333300000004H213.333333a85.426667 85.426667 0 0 0-85.333333 85.333333V320a21.333333 21.333333 0 0 0 42.666667 0v-320a42.713333 42.713333 0 0 1 42.666666-42.666667h597.333334a42.713333 42.713333 0 0 1 42.666666 42.666667V320a21.333333 21.333333 0 0 0 42.666667 0v-320a85.426667 85.426667 0 0 0-85.333333-85.333333z m170.666666 448a21.266667 21.266667 0 0 0-15.086666 6.246666l-432.8 432.8a30.32 30.32 0 0 1-42.893334 0l-432.8-432.8a21.333333 21.333333 0 0 0-30.173333 30.173334l432.8 432.8a73.093333 73.093333 0 0 0 103.24 0l432.8-432.8A21.333333 21.333333 0 0 0 981.333333 362.66666699999996z"  horiz-adv-x="1024" />

    
    <glyph glyph-name="24gl-gate2" unicode="&#59450;" d="M42.666667 746.666667a21.333333 21.333333 0 0 0 21.333333 21.333333h64v21.333333a21.333333 21.333333 0 0 0 42.666667 0v-21.333333h64a21.333333 21.333333 0 0 0 0-42.666667H64a21.333333 21.333333 0 0 0-21.333333 21.333334z m938.666666-85.333334v-640a21.333333 21.333333 0 0 0-21.333333-21.333333h-170.666667a21.333333 21.333333 0 0 0-21.333333 21.333333v21.333334H256v-21.333334a21.333333 21.333333 0 0 0-21.333333-21.333333H64a21.333333 21.333333 0 0 0-21.333333 21.333333V661.333333a21.333333 21.333333 0 0 0 21.333333 21.333334h170.666667a21.333333 21.333333 0 0 0 21.333333-21.333334v-106.666666h42.666667v64a21.333333 21.333333 0 0 0 42.666666 0v-448h85.333334V298.66666699999996h-21.333334a21.333333 21.333333 0 0 0-21.333333 21.333333V405.333333a21.333333 21.333333 0 0 0 21.333333 21.333334h21.333334V512h-21.333334a21.333333 21.333333 0 0 0 0 42.666667h21.333334V704a21.333333 21.333333 0 0 0 42.666666 0v-149.333333h85.333334V704a21.333333 21.333333 0 0 0 42.666666 0v-149.333333h85.333334v64a21.333333 21.333333 0 0 0 42.666666 0v-64h42.666667V661.333333a21.333333 21.333333 0 0 0 21.333333 21.333334h170.666667a21.333333 21.333333 0 0 0 21.333333-21.333334z m-256-149.333333v-341.333333h42.666667V512zM469.333333 426.666667h85.333334V512H469.333333z m-42.666666-85.333334h170.666666v42.666667H426.666667z m42.666666-170.666666h85.333334V298.66666699999996H469.333333zM256 512v-341.333333h42.666667V512z m-42.666667 128H85.333333v-597.333333h128z m554.666667-554.666667v42.666667h-64a21.333333 21.333333 0 0 0-21.333333 21.333333V512H597.333333v-85.333333h21.333334a21.333333 21.333333 0 0 0 21.333333-21.333334v-85.333333a21.333333 21.333333 0 0 0-21.333333-21.333333h-21.333334v-128h21.333334a21.333333 21.333333 0 0 0 0-42.666667H256v-42.666667z m170.666667 554.666667h-128v-597.333333h128z m-149.333334 85.333333h170.666667a21.333333 21.333333 0 0 1 0 42.666667h-64v21.333333a21.333333 21.333333 0 0 1-42.666667 0v-21.333333h-64a21.333333 21.333333 0 0 1 0-42.666667z"  horiz-adv-x="1024" />

    
    <glyph glyph-name="24gl-city4" unicode="&#59451;" d="M928 426.666667h-74.666667V800a53.393333 53.393333 0 0 1-53.333333 53.333333H266.666667a53.393333 53.393333 0 0 1-53.333334-53.333333v-117.333333H96a53.393333 53.393333 0 0 1-53.333333-53.333334v-693.333333a21.333333 21.333333 0 0 1 21.333333-21.333333h896a21.333333 21.333333 0 0 1 21.333333 21.333333V373.33333300000004a53.393333 53.393333 0 0 1-53.333333 53.333334zM256 800a10.666667 10.666667 0 0 0 10.666667 10.666667h533.333333a10.666667 10.666667 0 0 0 10.666667-10.666667v-373.333333h-32a53.393333 53.393333 0 0 1-53.333334-53.333334v-416H469.333333v170.666667h106.666667a21.333333 21.333333 0 0 1 0 42.666667H469.333333V629.333333a53.393333 53.393333 0 0 1-53.333333 53.333334H256zM85.333333-42.66666699999996V629.333333a10.666667 10.666667 0 0 0 10.666667 10.666667h320a10.666667 10.666667 0 0 0 10.666667-10.666667v-672z m682.666667 0V373.33333300000004a10.666667 10.666667 0 0 0 10.666667 10.666667h149.333333a10.666667 10.666667 0 0 0 10.666667-10.666667v-416zM128 426.666667h42.666667v-85.333334h-42.666667z m85.333333 0h42.666667v-85.333334h-42.666667zM128 554.666667h42.666667v-85.333334h-42.666667z m85.333333 0h42.666667v-85.333334h-42.666667z m-85.333333-384h42.666667v-85.333334h-42.666667z m85.333333 0h42.666667v-85.333334h-42.666667zM128 298.66666699999996h42.666667v-85.333334h-42.666667z m85.333333 0h42.666667v-85.333334h-42.666667z m85.333334 128h42.666666v-85.333334h-42.666666z m0 128h42.666666v-85.333334h-42.666666z m0-384h42.666666v-85.333334h-42.666666z m0 128h42.666666v-85.333334h-42.666666z m384 298.666666h-42.666667V682.666667h42.666667z m0-128h-42.666667V554.666667h42.666667z m0-128h-42.666667V426.666667h42.666667z m170.666666-42.666666h42.666667v-85.333334h-42.666667z m0-128h42.666667v-85.333334h-42.666667z"  horiz-adv-x="1024" />

    
    <glyph glyph-name="24gl-fence" unicode="&#59452;" d="M932.42 719.086667l-85.333333 85.333333a21.333333 21.333333 0 0 1-30.173334 0l-85.333333-85.333333A21.333333 21.333333 0 0 1 725.333333 704v-64H597.333333v64a21.333333 21.333333 0 0 1-6.246666 15.086667l-85.333334 85.333333a21.333333 21.333333 0 0 1-30.173333 0l-85.333333-85.333333A21.333333 21.333333 0 0 1 384 704v-64H256v64a21.333333 21.333333 0 0 1-6.246667 15.086667l-85.333333 85.333333a21.333333 21.333333 0 0 1-30.173333 0l-85.333334-85.333333A21.333333 21.333333 0 0 1 42.666667 704v-725.333333a21.333333 21.333333 0 0 1 21.333333-21.333334h170.666667a21.333333 21.333333 0 0 1 21.333333 21.333334v64h128v-64a21.333333 21.333333 0 0 1 21.333333-21.333334h170.666667a21.333333 21.333333 0 0 1 21.333333 21.333334v64h128v-64a21.333333 21.333333 0 0 1 21.333334-21.333334h170.666666a21.333333 21.333333 0 0 1 21.333334 21.333334V704a21.333333 21.333333 0 0 1-6.246667 15.086667zM213.333333 0H85.333333V695.166667l64 64 64-64z m170.666667 85.333333H256v85.333334h128z m0 128H256V469.333333h128z m0 298.666667H256V597.333333h128z m170.666667-512H426.666667V695.166667l64 64 64-64z m170.666666 85.333333H597.333333v85.333334h128z m0 128H597.333333V469.333333h128z m0 298.666667H597.333333V597.333333h128z m170.666667-512h-128V695.166667l64 64 64-64zM128 597.333333h42.666667v-42.666666h-42.666667z m0-426.666666h42.666667v-42.666667h-42.666667z m682.666667 0h42.666666v-42.666667h-42.666666zM469.333333 597.333333h42.666667v-42.666666h-42.666667z m0-426.666666h42.666667v-42.666667h-42.666667z m341.333334 426.666666h42.666666v-42.666666h-42.666666z"  horiz-adv-x="1024" />

    
    <glyph glyph-name="24gl-gate" unicode="&#59453;" d="M954.253333 633.06A106.24 106.24 0 0 1 981.333333 704c0 58.813333-47.853333 106.666667-106.666666 106.666667s-106.666667-47.853333-106.666667-106.666667a106.24 106.24 0 0 1 27.08-70.94A53.333333 53.333333 0 0 1 768 586.666667v-81.02a280.526667 280.526667 0 0 1-42.666667 51.133333V618.666667a21.333333 21.333333 0 0 1-42.666666 0v-28.353334a304.773333 304.773333 0 0 1-54.96 28.106667A310.533333 310.533333 0 0 1 597.333333 628.52V704a21.333333 21.333333 0 0 1-42.666666 0v-66.8a326.48 326.48 0 0 1-85.333334 0V704a21.333333 21.333333 0 0 1-42.666666 0v-75.48q-14.713333-4.073333-29-9.566667a21.333333 21.333333 0 0 1 15.333333-39.813333q6.766667 2.6 13.666667 4.826667V426.666667h-21.333334a21.333333 21.333333 0 0 1-21.333333-21.333334v-85.333333a21.333333 21.333333 0 0 1 21.333333-21.333333h21.333334v-128H341.333333V618.666667a21.333333 21.333333 0 0 1-42.666666 0v-61.886667a279.766667 279.766667 0 0 1-42.666667-51.133333V586.666667a53.333333 53.333333 0 0 1-27.08 46.393333A106.24 106.24 0 0 1 256 704c0 58.813333-47.853333 106.666667-106.666667 106.666667S42.666667 762.8133330000001 42.666667 704a106.24 106.24 0 0 1 27.08-70.94A53.333333 53.333333 0 0 1 42.666667 586.666667v-565.333334a21.333333 21.333333 0 0 1 21.333333-21.333333h170.666667a21.333333 21.333333 0 0 1 21.333333 21.333333v21.333334h512v-21.333334a21.333333 21.333333 0 0 1 21.333333-21.333333h170.666667a21.333333 21.333333 0 0 1 21.333333 21.333333V586.666667a53.333333 53.333333 0 0 1-27.08 46.393333zM874.666667 768a64 64 0 1 0-64-64 64.073333 64.073333 0 0 0 64 64z m-106.666667-405.333333v-192h-42.666667V492.253333c26.946667-37.16 42.666667-81.72 42.666667-129.586666zM469.333333 594.086667a281.406667 281.406667 0 0 0 85.333334 0V426.666667H469.333333zM426.666667 384h170.666666v-42.666667H426.666667z m42.666666-85.333333h85.333334v-128H469.333333zM298.666667 492.533333V170.66666699999996h-42.666667V362.66666699999996c0 47.02 14.893333 91.753333 42.666667 129.866666zM149.333333 768a64 64 0 1 0-64-64 64.073333 64.073333 0 0 0 64 64z m64-725.333333H85.333333V586.666667a10.666667 10.666667 0 0 0 10.666667 10.666666h106.666667a10.666667 10.666667 0 0 0 10.666666-10.666666z m42.666667 42.666666v42.666667h362.666667a21.333333 21.333333 0 0 1 0 42.666667h-21.333334V298.66666699999996h21.333334a21.333333 21.333333 0 0 1 21.333333 21.333333V405.333333a21.333333 21.333333 0 0 1-21.333333 21.333334h-21.333334V583.926667a262.06 262.06 0 0 0 85.333334-46.5V149.33333300000004a21.333333 21.333333 0 0 1 21.333333-21.333333h64v-42.666667z m682.666667-42.666666h-128V586.666667a10.666667 10.666667 0 0 0 10.666666 10.666666h106.666667a10.666667 10.666667 0 0 0 10.666667-10.666666z"  horiz-adv-x="1024" />

    
    <glyph glyph-name="24gl-home4" unicode="&#59454;" d="M810.666667-85.33333300000004H213.333333a85.426667 85.426667 0 0 0-85.333333 85.333333V439.166667L57.753333 368.91333299999997a21.333333 21.333333 0 0 0-30.173333 30.173334l432.8 432.8a73.093333 73.093333 0 0 0 103.24 0l432.8-432.8a21.333333 21.333333 0 1 0-30.173333-30.173334L896 439.166667V0a85.426667 85.426667 0 0 0-85.333333-85.333333z m-170.666667 42.666666h170.666667a42.713333 42.713333 0 0 1 42.666666 42.666667V481.833333L533.446667 801.713333a30.32 30.32 0 0 1-42.893334 0L170.666667 481.833333V0a42.713333 42.713333 0 0 1 42.666666-42.666667h170.666667v213.333334a85.426667 85.426667 0 0 0 85.333333 85.333333h85.333334a85.426667 85.426667 0 0 0 85.333333-85.333333z m-213.333333 0h170.666666v213.333334a42.713333 42.713333 0 0 1-42.666666 42.666666H469.333333a42.713333 42.713333 0 0 1-42.666666-42.666666z"  horiz-adv-x="1024" />

    
    <glyph glyph-name="24gl-home2" unicode="&#59455;" d="M810.666667-85.33333300000004H213.333333a85.426667 85.426667 0 0 0-85.333333 85.333333V439.166667L57.753333 368.91333299999997a21.333333 21.333333 0 0 0-30.173333 30.173334l432.8 432.8a73.093333 73.093333 0 0 0 103.24 0l432.8-432.8a21.333333 21.333333 0 1 0-30.173333-30.173334L896 439.166667V0a85.426667 85.426667 0 0 0-85.333333-85.333333zM170.666667 481.833333V0a42.713333 42.713333 0 0 1 42.666666-42.666667h597.333334a42.713333 42.713333 0 0 1 42.666666 42.666667V481.833333L533.446667 801.713333a30.32 30.32 0 0 1-42.893334 0z"  horiz-adv-x="1024" />

    
    <glyph glyph-name="24gl-home6" unicode="&#59456;" d="M996.42 399.086667L896 499.506667V704a21.333333 21.333333 0 0 1-42.666667 0v-161.826667L563.62 831.886667a73.093333 73.093333 0 0 1-103.24 0l-432.8-432.8a21.333333 21.333333 0 0 1 30.173333-30.173334L128 439.166667V0a85.426667 85.426667 0 0 1 85.333333-85.333333h597.333334a85.426667 85.426667 0 0 1 85.333333 85.333333V439.166667l70.246667-70.253334a21.333333 21.333333 0 1 1 30.173333 30.173334zM853.333333 0a42.713333 42.713333 0 0 0-42.666666-42.666667H213.333333a42.713333 42.713333 0 0 0-42.666666 42.666667V481.833333l319.886666 319.88a30.32 30.32 0 0 0 42.893334 0L853.333333 481.833333z"  horiz-adv-x="1024" />

    
    <glyph glyph-name="24gl-home3" unicode="&#59457;" d="M810.666667-85.33333300000004H213.333333a85.426667 85.426667 0 0 0-85.333333 85.333333V320a21.333333 21.333333 0 0 0 42.666667 0v-320a42.713333 42.713333 0 0 1 42.666666-42.666667h170.666667v213.333334a85.426667 85.426667 0 0 0 85.333333 85.333333h85.333334a85.426667 85.426667 0 0 0 85.333333-85.333333v-213.333334h170.666667a42.713333 42.713333 0 0 1 42.666666 42.666667V320a21.333333 21.333333 0 0 0 42.666667 0v-320a85.426667 85.426667 0 0 0-85.333333-85.333333z m-384 42.666666h170.666666v213.333334a42.713333 42.713333 0 0 1-42.666666 42.666666H469.333333a42.713333 42.713333 0 0 1-42.666666-42.666666z m554.666666 405.333334a21.266667 21.266667 0 0 0-15.086666 6.246666l-432.8 432.8a30.32 30.32 0 0 1-42.893334 0l-432.8-432.8a21.333333 21.333333 0 0 0-30.173333 30.173334l432.8 432.8a73.093333 73.093333 0 0 0 103.24 0l432.8-432.8A21.333333 21.333333 0 0 0 981.333333 362.66666699999996z"  horiz-adv-x="1024" />

    
    <glyph glyph-name="24gl-home7" unicode="&#59458;" d="M996.42 368.91333299999997a21.333333 21.333333 0 0 0-30.173333 0l-432.8 432.8a30.32 30.32 0 0 1-42.893334 0l-432.8-432.8a21.333333 21.333333 0 0 0-30.173333 30.173334l432.8 432.8a73.093333 73.093333 0 0 0 103.24 0L853.333333 542.173333V704a21.333333 21.333333 0 0 0 42.666667 0v-204.493333l100.42-100.42a21.333333 21.333333 0 0 0 0-30.173334zM896 320v-320a85.426667 85.426667 0 0 0-85.333333-85.333333H213.333333a85.426667 85.426667 0 0 0-85.333333 85.333333V320a21.333333 21.333333 0 0 0 42.666667 0v-320a42.713333 42.713333 0 0 1 42.666666-42.666667h170.666667v213.333334a85.426667 85.426667 0 0 0 85.333333 85.333333h85.333334a85.426667 85.426667 0 0 0 85.333333-85.333333v-213.333334h170.666667a42.713333 42.713333 0 0 1 42.666666 42.666667V320a21.333333 21.333333 0 0 0 42.666667 0z m-298.666667-149.333333a42.713333 42.713333 0 0 1-42.666666 42.666666H469.333333a42.713333 42.713333 0 0 1-42.666666-42.666666v-213.333334h170.666666z"  horiz-adv-x="1024" />

    
    <glyph glyph-name="24gl-city3" unicode="&#59459;" d="M960-42.66666699999996h-21.333333v89.753334c9.846667 4.206667 18.793333 11.293333 25.906666 20.773333 10.806667 14.413333 16.76 33.246667 16.76 53.026667 0 19-5.546667 49.873333-13.48 75.08-4.746667 15.06-10.06 27.373333-15.793333 36.6-9.666667 15.546667-21.333333 23.433333-34.726667 23.433333s-25.06-7.886667-34.726666-23.433333c-5.733333-9.226667-11.046667-21.54-15.793334-36.6-7.933333-25.206667-13.48-56.08-13.48-75.08 0-19.78 5.953333-38.613333 16.76-53.026667 7.113333-9.48 16.06-16.566667 25.906667-20.773333V-42.66666699999996H512V597.333333h384v-277.333333a21.333333 21.333333 0 0 1 42.666667 0V618.666667a21.333333 21.333333 0 0 1-21.333334 21.333333h-21.333333v64a21.333333 21.333333 0 0 1-21.333333 21.333333H576a21.333333 21.333333 0 0 1-21.333333-21.333333v-64h-44.813334a106.98 106.98 0 0 1-84.98 83.54A106.98 106.98 0 0 1 341.333333 808.52V832a21.333333 21.333333 0 0 1-42.666666 0v-23.48a106.98 106.98 0 0 1-83.54-84.98C165.613333 714.333333 128 670.8066670000001 128 618.666667v-106.666667h-21.333333a21.333333 21.333333 0 0 1-21.333334-21.333333v-64H64a21.333333 21.333333 0 0 1-21.333333-21.333334v-384a21.333333 21.333333 0 0 1 42.666666 0V384h213.333334v-426.666667H64a21.333333 21.333333 0 0 1 0-42.666666h896a21.333333 21.333333 0 0 1 0 42.666666z m-54.866667 217.78c4.46 16.046667 8.866667 26.293333 12.2 32.366667 3.333333-6.073333 7.74-16.32 12.2-32.366667 6.273333-22.573333 9.133333-43.933333 9.133334-54.226666 0-20.346667-11.26-35.553333-21.333334-35.553334s-21.333333 15.206667-21.333333 35.553334c0 10.293333 2.86 31.653333 9.133333 54.226666zM597.333333 682.666667h256v-42.666667H597.333333zM128 469.333333h128v-42.666666H128z m213.333333-512V405.333333a21.333333 21.333333 0 0 1-21.333333 21.333334h-21.333333v64a21.333333 21.333333 0 0 1-21.333334 21.333333H170.666667V618.666667a64.073333 64.073333 0 0 0 64 64 21.333333 21.333333 0 0 1 21.333333 21.333333 64 64 0 0 0 128 0 21.333333 21.333333 0 0 1 21.333333-21.333333 64.073333 64.073333 0 0 0 64-64v-661.333334z m-128 256h-42.666666V298.66666699999996h42.666666z m-42.666666-42.666666h42.666666v-85.333334h-42.666666z m469.333333 256h-42.666667V512h42.666667z m0-128h-42.666667V384h42.666667z m0-128h-42.666667V256h42.666667z m-42.666667-42.666667h42.666667v-85.333333h-42.666667z m128 298.666667h-42.666666V512h42.666666z m0-128h-42.666666V384h42.666666z m0-128h-42.666666V256h42.666666z m-42.666666-42.666667h42.666666v-85.333333h-42.666666z m128 298.666667h-42.666667V512h42.666667z m0-128h-42.666667V384h42.666667z m-42.666667-42.666667h42.666667v-85.333333h-42.666667z"  horiz-adv-x="1024" />

    
    <glyph glyph-name="24gl-home5" unicode="&#59460;" d="M810.666667-85.33333300000004H213.333333a85.426667 85.426667 0 0 0-85.333333 85.333333V320a21.333333 21.333333 0 0 0 42.666667 0v-320a42.713333 42.713333 0 0 1 42.666666-42.666667h597.333334a42.713333 42.713333 0 0 1 42.666666 42.666667V320a21.333333 21.333333 0 0 0 42.666667 0v-320a85.426667 85.426667 0 0 0-85.333333-85.333333z m170.666666 448a21.266667 21.266667 0 0 0-15.086666 6.246666l-432.8 432.8a30.32 30.32 0 0 1-42.893334 0l-432.8-432.8a21.333333 21.333333 0 0 0-30.173333 30.173334l432.8 432.8a73.093333 73.093333 0 0 0 103.24 0L853.333333 542.166667V704a21.333333 21.333333 0 0 0 42.666667 0v-204.5l100.42-100.413333A21.333333 21.333333 0 0 0 981.333333 362.66666699999996z"  horiz-adv-x="1024" />

    
    <glyph glyph-name="24gl-home10" unicode="&#59461;" d="M996.42 399.086667L896 499.506667V725.333333a42.713333 42.713333 0 0 1-42.666667 42.666667h-85.333333a42.713333 42.713333 0 0 1-42.666667-42.666667v-55.16L563.62 831.886667a73.02 73.02 0 0 1-103.24 0l-432.8-432.8a21.333333 21.333333 0 0 1 30.173333-30.173334L128 439.16V0a85.426667 85.426667 0 0 1 85.333333-85.333333h597.333334a85.426667 85.426667 0 0 1 85.333333 85.333333V439.16l70.246667-70.246667a21.333333 21.333333 0 1 1 30.173333 30.173334zM768 725.333333h85.333333v-183.16l-85.333333 85.333334z m85.333333-725.333333a42.713333 42.713333 0 0 0-42.666666-42.666667H213.333333a42.713333 42.713333 0 0 0-42.666666 42.666667V481.826667l319.886666 319.886666a30.34 30.34 0 0 0 42.893334 0L853.333333 481.826667z"  horiz-adv-x="1024" />

    
    <glyph glyph-name="24gl-home12" unicode="&#59462;" d="M996.42 399.086667L896 499.506667V725.333333a42.713333 42.713333 0 0 1-42.666667 42.666667h-85.333333a42.713333 42.713333 0 0 1-42.666667-42.666667v-55.16L563.62 831.886667a73.02 73.02 0 0 1-103.24 0l-432.8-432.8a21.333333 21.333333 0 0 1 30.173333-30.173334L128 439.16V0a85.426667 85.426667 0 0 1 85.333333-85.333333h597.333334a85.426667 85.426667 0 0 1 85.333333 85.333333V439.16l70.246667-70.246667a21.333333 21.333333 0 1 1 30.173333 30.173334zM426.666667-42.66666699999996v213.333334a42.713333 42.713333 0 0 0 42.666666 42.666666h85.333334a42.713333 42.713333 0 0 0 42.666666-42.666666v-213.333334z m426.666666 42.666667a42.713333 42.713333 0 0 0-42.666666-42.666667H640v213.333334a85.426667 85.426667 0 0 1-85.333333 85.333333H469.333333a85.426667 85.426667 0 0 1-85.333333-85.333333v-213.333334H213.333333a42.713333 42.713333 0 0 0-42.666666 42.666667V481.826667l319.886666 319.886666a30.34 30.34 0 0 0 42.893334 0L853.333333 481.826667z m0 542.173333l-85.333333 85.333334V725.333333h85.333333z"  horiz-adv-x="1024" />

    
    <glyph glyph-name="24gl-home9" unicode="&#59463;" d="M810.666667-85.33333300000004H213.333333a85.426667 85.426667 0 0 0-85.333333 85.333333V320a21.333333 21.333333 0 0 0 42.666667 0v-320a42.713333 42.713333 0 0 1 42.666666-42.666667h597.333334a42.713333 42.713333 0 0 1 42.666666 42.666667V320a21.333333 21.333333 0 0 0 42.666667 0v-320a85.426667 85.426667 0 0 0-85.333333-85.333333z m170.666666 448a21.266667 21.266667 0 0 0-15.086666 6.246666l-106.666667 106.666667A21.333333 21.333333 0 0 0 853.333333 490.666667V725.333333h-85.333333v-106.666666a21.333333 21.333333 0 0 0-36.42-15.086667l-198.133333 198.133333a30.34 30.34 0 0 1-42.893334 0l-432.8-432.8a21.333333 21.333333 0 0 0-30.173333 30.173334l432.8 432.8a73.093333 73.093333 0 0 0 103.24 0L725.333333 670.166667V725.333333a42.713333 42.713333 0 0 0 42.666667 42.666667h85.333333a42.713333 42.713333 0 0 0 42.666667-42.666667v-225.833333l100.42-100.413333A21.333333 21.333333 0 0 0 981.333333 362.66666699999996z"  horiz-adv-x="1024" />

    
    <glyph glyph-name="24gl-home8" unicode="&#59464;" d="M810.666667-85.33333300000004H213.333333a85.426667 85.426667 0 0 0-85.333333 85.333333V439.166667L57.753333 368.91333299999997a21.333333 21.333333 0 0 0-30.173333 30.173334l432.8 432.8a73.093333 73.093333 0 0 0 103.24 0L853.333333 542.166667V704a21.333333 21.333333 0 0 0 42.666667 0v-204.5l100.42-100.413333a21.333333 21.333333 0 1 0-30.173333-30.173334L896 439.166667V0a85.426667 85.426667 0 0 0-85.333333-85.333333z m-170.666667 42.666666h170.666667a42.713333 42.713333 0 0 1 42.666666 42.666667V481.833333L533.446667 801.713333a30.32 30.32 0 0 1-42.893334 0L170.666667 481.833333V0a42.713333 42.713333 0 0 1 42.666666-42.666667h170.666667v213.333334a85.426667 85.426667 0 0 0 85.333333 85.333333h85.333334a85.426667 85.426667 0 0 0 85.333333-85.333333z m-213.333333 0h170.666666v213.333334a42.713333 42.713333 0 0 1-42.666666 42.666666H469.333333a42.713333 42.713333 0 0 1-42.666666-42.666666z"  horiz-adv-x="1024" />

    
    <glyph glyph-name="24gl-store" unicode="&#59465;" d="M960 341.33333300000004a21.333333 21.333333 0 0 1-21.333333-21.333333v-320a42.713333 42.713333 0 0 0-42.666667-42.666667h-42.666667v213.333334c0 70.58-57.42 128-128 128s-128-57.42-128-128v-213.333334H170.666667a42.713333 42.713333 0 0 0-42.666667 42.666667V320a21.333333 21.333333 0 0 1-42.666667 0v-320a85.426667 85.426667 0 0 1 85.333334-85.333333h725.333333a85.426667 85.426667 0 0 1 85.333333 85.333333V320a21.333333 21.333333 0 0 1-21.333333 21.333333z m-320-384v213.333334a85.333333 85.333333 0 0 0 170.666667 0v-213.333334z m-149.333333 85.333334a21.333333 21.333333 0 0 1 21.333333 21.333333V277.33333300000004a21.333333 21.333333 0 0 1-21.333333 21.333334H234.666667a21.333333 21.333333 0 0 1-21.333334-21.333334v-213.333333a21.333333 21.333333 0 0 1 21.333334-21.333333zM256 256h213.333333v-170.666667H256z m766.033333 264.94l-110.84 240.153333A85.573333 85.573333 0 0 1 833.72 810.666667H232.946667a85.573333 85.573333 0 0 1-77.473334-49.573334L44.666667 520.94A21.233333 21.233333 0 0 1 42.666667 512c0-70.58 57.42-128 128-128a127.486667 127.486667 0 0 1 85.333333 32.62A127.953333 127.953333 0 0 1 437.333333 427.333333a128 128 0 0 1 192 0 127.833333 127.833333 0 0 1 181.333334-10.706666A127.486667 127.486667 0 0 1 896 384c70.58 0 128 57.42 128 128a21.233333 21.233333 0 0 1-1.966667 8.94zM170.666667 426.666667a85.433333 85.433333 0 0 0-85.22 80.893333l108.76 235.653333A42.8 42.8 0 0 0 232.946667 768h65.3l-62.16-310.786667A84.62 84.62 0 0 0 170.666667 426.666667z m170.666666 0a84.553333 84.553333 0 0 0-62.413333 27.14l62 310A21.426667 21.426667 0 0 1 341.333333 768h106.546667l-31.333333-296.326667A84.753333 84.753333 0 0 0 341.333333 426.666667z m192 0a84.72 84.72 0 0 0-74.093333 42.966666l31.333333 296.126667A21.2 21.2 0 0 1 490.666667 768h85.333333a21.2 21.2 0 0 1 0.12-2.24l31.333333-296.126667A84.72 84.72 0 0 0 533.333333 426.666667z m192 0a84.753333 84.753333 0 0 0-75.22 45.006666L618.786667 768H725.333333a21.426667 21.426667 0 0 1 0.413334-4.186667l62-310A84.553333 84.553333 0 0 0 725.333333 426.666667z m170.666667 0a84.62 84.62 0 0 0-65.42 30.546666L768.42 768h65.3a42.8 42.8 0 0 0 38.74-24.786667l108.76-235.653333A85.433333 85.433333 0 0 0 896 426.666667z"  horiz-adv-x="1024" />

    
    <glyph glyph-name="24gl-hotel2" unicode="&#59466;" d="M341.333333 298.66666699999996h128v-42.666667H341.333333z m0-170.666667h128v42.666667H341.333333zM128 512h-42.666667v-85.333333h42.666667z m0-384h-42.666667v-42.666667h42.666667z m0 256h-42.666667v-85.333333h42.666667z m0-128h-42.666667v-85.333333h42.666667z m426.666667 384h42.666666v42.666667h-42.666666zM341.333333 384h128v42.666667H341.333333z m213.333334 128h42.666666v42.666667h-42.666666z m0-256h42.666666v42.666667h-42.666666z m0 128h42.666666v42.666667h-42.666666zM341.333333 512h128v42.666667H341.333333z m213.333334-384h42.666666v42.666667h-42.666666zM341.333333 640h128v42.666667H341.333333z m469.333334-448v64h-42.666667v-298.666667h234.666667a21.333333 21.333333 0 0 0 0-42.666666H21.333333a21.333333 21.333333 0 0 0-21.333333 21.333333V586.666667a53.393333 53.393333 0 0 0 53.333333 53.333333h32V746.666667a21.333333 21.333333 0 0 0 42.666667 0v-106.666667h85.333333V800a53.393333 53.393333 0 0 0 53.333334 53.333333h448a53.393333 53.393333 0 0 0 53.333333-53.333333v-74.666667h42.666667v64a21.333333 21.333333 0 0 0 21.333333 21.333334h170.666667a21.333333 21.333333 0 0 0 21.333333-21.333334v-597.333333a21.333333 21.333333 0 0 0-21.333333-21.333333h-170.666667a21.333333 21.333333 0 0 0-21.333333 21.333333z m42.666666 21.333333h128V768h-128zM213.333333 597.333333H53.333333a10.666667 10.666667 0 0 1-10.666666-10.666666v-629.333334h170.666666z m512 202.666667a10.666667 10.666667 0 0 1-10.666666 10.666667H266.666667a10.666667 10.666667 0 0 1-10.666667-10.666667v-842.666667h469.333333z m42.666667-288h42.666667V682.666667h-42.666667z m42.666667-213.333333V469.333333h-42.666667v-170.666666z"  horiz-adv-x="1024" />

    
    <glyph glyph-name="24gl-home11" unicode="&#59467;" d="M996.42 368.91333299999997a21.333333 21.333333 0 0 0-30.173333 0l-106.666667 106.666667A21.333333 21.333333 0 0 0 853.333333 490.666667V725.333333h-85.333333v-106.666666a21.333333 21.333333 0 0 0-36.42-15.086667l-198.133333 198.133333a30.34 30.34 0 0 1-42.893334 0l-432.8-432.8a21.333333 21.333333 0 0 0-30.173333 30.173334l432.8 432.8a73.093333 73.093333 0 0 0 103.24 0L725.333333 670.166667V725.333333a42.713333 42.713333 0 0 0 42.666667 42.666667h85.333333a42.713333 42.713333 0 0 0 42.666667-42.666667v-225.833333l100.42-100.413333a21.333333 21.333333 0 0 0 0-30.173334zM896 320v-320a85.426667 85.426667 0 0 0-85.333333-85.333333H213.333333a85.426667 85.426667 0 0 0-85.333333 85.333333V320a21.333333 21.333333 0 0 0 42.666667 0v-320a42.713333 42.713333 0 0 1 42.666666-42.666667h170.666667v213.333334a85.426667 85.426667 0 0 0 85.333333 85.333333h85.333334a85.426667 85.426667 0 0 0 85.333333-85.333333v-213.333334h170.666667a42.713333 42.713333 0 0 1 42.666666 42.666667V320a21.333333 21.333333 0 0 0 42.666667 0z m-298.666667-362.666667v213.333334a42.713333 42.713333 0 0 1-42.666666 42.666666H469.333333a42.713333 42.713333 0 0 1-42.666666-42.666666v-213.333334z"  horiz-adv-x="1024" />

    
    <glyph glyph-name="24gl-hotel" unicode="&#59468;" d="M1002.666667-42.66666699999996h-234.666667V800a53.393333 53.393333 0 0 1-53.333333 53.333333H266.666667a53.393333 53.393333 0 0 1-53.333334-53.333333v-160H128V746.666667a21.333333 21.333333 0 0 1-42.666667 0v-106.666667H53.333333a53.393333 53.393333 0 0 1-53.333333-53.333333v-650.666667a21.333333 21.333333 0 0 1 21.333333-21.333333h981.333334a21.333333 21.333333 0 0 1 0 42.666666zM256 800a10.666667 10.666667 0 0 0 10.666667 10.666667h448a10.666667 10.666667 0 0 0 10.666666-10.666667v-842.666667H256zM42.666667-42.66666699999996V586.666667a10.666667 10.666667 0 0 0 10.666666 10.666666h160v-640zM818.566667 753.426667l38.086666-30.866667-12.666666-47.333333a21.333333 21.333333 0 0 1 32.22-23.413334l41.126666 26.666667 41.126667-26.666667A21.333333 21.333333 0 0 1 990.666667 675.2l-12.666667 47.333333 38.086667 30.866667a21.333333 21.333333 0 0 1-12.293334 37.933333l-48.96 2.586667-17.586666 45.76a21.333333 21.333333 0 0 1-39.826667 0l-17.586667-45.76-48.96-2.586667a21.333333 21.333333 0 0 1-12.306666-37.88z m77.333333-1.413334A21.333333 21.333333 0 0 1 914.666667 765.666667l2.666666 6.866666 2.666667-6.866666a21.333333 21.333333 0 0 1 18.76-13.666667l7.333333-0.386667-5.713333-4.633333a21.333333 21.333333 0 0 1-7.18-22.086667l1.906667-7.106666-6.173334 4a21.333333 21.333333 0 0 1-23.226666 0l-6.173334-4 1.906667 7.106666a21.333333 21.333333 0 0 1-7.18 22.086667l-5.713333 4.633333zM1003.793333 535.333333l-48.96 2.586667-17.586666 45.76a21.333333 21.333333 0 0 1-39.826667 0l-17.586667-45.76-48.96-2.586667a21.333333 21.333333 0 0 1-12.306666-37.88l38.086666-30.866666-12.666666-47.333334a21.333333 21.333333 0 0 1 32.22-23.413333l41.126666 26.666667 41.126667-26.666667A21.333333 21.333333 0 0 1 990.666667 419.2l-12.666667 47.333333 38.086667 30.866667a21.333333 21.333333 0 0 1-12.293334 37.933333z m-63.4-44.313333a21.333333 21.333333 0 0 1-7.18-22.086667l1.906667-7.106666-6.173333 4a21.333333 21.333333 0 0 1-23.226667 0l-6.173333-4 1.906666 7.106666a21.333333 21.333333 0 0 1-7.18 22.086667l-5.713333 4.666667 7.333333 0.386666A21.333333 21.333333 0 0 1 914.666667 509.666667l2.666666 6.866666 2.666667-6.866666a21.333333 21.333333 0 0 1 18.76-13.666667l7.333333-0.386667z m63.4-211.686667l-48.96 2.586667-17.586666 45.76a21.333333 21.333333 0 0 1-39.826667 0l-17.586667-45.76-48.96-2.586667a21.333333 21.333333 0 0 1-12.306666-37.88l38.086666-30.866666-12.666666-47.333334a21.333333 21.333333 0 0 1 32.22-23.413333l41.126666 26.666667 41.126667-26.666667a21.333333 21.333333 0 0 1 32.206667 23.36l-12.666667 47.333333 38.086667 30.866667a21.333333 21.333333 0 0 1-12.293334 37.933333z m-63.4-44.313333a21.333333 21.333333 0 0 1-7.18-22.086667l1.906667-7.106666-6.173333 4a21.333333 21.333333 0 0 1-23.226667 0l-6.173333-4 1.906666 7.106666a21.333333 21.333333 0 0 1-7.18 22.086667l-5.713333 4.666667 7.333333 0.386666A21.333333 21.333333 0 0 1 914.666667 253.66666699999996l2.666666 6.866666 2.666667-6.866666a21.333333 21.333333 0 0 1 18.76-13.666667l7.333333-0.386667zM85.333333 512h42.666667v-85.333333h-42.666667z m0-128h42.666667v-85.333333h-42.666667z m0-128h42.666667v-85.333333h-42.666667z m0-128h42.666667v-42.666667h-42.666667z m384 512H341.333333v42.666667h128z m0-128H341.333333v42.666667h128z m0-128H341.333333v42.666667h128z m0-128H341.333333v42.666667h128z m0-128H341.333333v42.666667h128z m128 512h-42.666666v42.666667h42.666666z m0-128h-42.666666v42.666667h42.666666z m0-128h-42.666666v42.666667h42.666666z m0-128h-42.666666v42.666667h42.666666z m0-128h-42.666666v42.666667h42.666666z"  horiz-adv-x="1024" />

    
    <glyph glyph-name="24gl-school" unicode="&#59469;" d="M1002.666667-42.66666699999996h-21.333334V426.666667h21.333334a21.333333 21.333333 0 0 1 19.08 30.873333l-76.486667 152.98a53.053333 53.053333 0 0 1-47.706667 29.48H627.5l-56.453333 56.46A53.26 53.26 0 0 1 554.666667 707.64V780.5l48.913333-48.92A21.333333 21.333333 0 0 1 618.666667 725.333333h85.333333a21.333333 21.333333 0 0 1 0 42.666667H627.5L548.42 847.086667A21.333333 21.333333 0 0 1 512 832v-124.36a53.26 53.26 0 0 1-16.38-11.18L439.166667 640H169.113333a53.053333 53.053333 0 0 1-47.706666-29.48L44.92 457.54A21.333333 21.333333 0 0 1 64 426.666667h21.333333v-469.333334H64a21.333333 21.333333 0 0 1 0-42.666666h938.666667a21.333333 21.333333 0 0 1 0 42.666666z m-105.113334 640a10.606667 10.606667 0 0 0 9.54-5.893333L968.146667 469.333333h-170l-128 128z m-738-5.893333a10.62 10.62 0 0 0 9.56 5.893333h227.386667l-128-128h-170zM469.333333-42.66666699999996v106.666667a64 64 0 0 0 128 0v-106.666667z m384 0v64a21.333333 21.333333 0 0 1-42.666666 0v-64H640v106.666667c0 58.813333-47.853333 106.666667-106.666667 106.666667s-106.666667-47.853333-106.666666-106.666667v-106.666667H256v64a21.333333 21.333333 0 1 1-42.666667 0v-64H128V426.666667h149.333333a21.333333 21.333333 0 0 1 15.086667 6.246666l233.373333 233.373334a10.666667 10.666667 0 0 0 15.08 0l233.373334-233.373334A21.333333 21.333333 0 0 1 789.333333 426.666667h149.333334v-469.333334zM533.333333 512c-58.813333 0-106.666667-47.853333-106.666666-106.666667s47.853333-106.666667 106.666666-106.666666 106.666667 47.853333 106.666667 106.666666-47.853333 106.666667-106.666667 106.666667z m0-170.666667a64 64 0 1 0 64 64 64.073333 64.073333 0 0 0-64-64z m0 128a21.333333 21.333333 0 0 0 21.333334-21.333333v-42.666667a21.333333 21.333333 0 0 0-21.333334-21.333333h-21.333333a21.333333 21.333333 0 0 0 0 42.666667v21.333333a21.333333 21.333333 0 0 0 21.333333 21.333333z m277.333334-128h42.666666v-85.333333h-42.666666z m-128 0h42.666666v-85.333333h-42.666666z m-469.333334 0h42.666667v-85.333333h-42.666667z m128 0h42.666667v-85.333333h-42.666667z m469.333334-170.666666h42.666666v-42.666667h-42.666666z m-128 0h42.666666v-42.666667h-42.666666z m-469.333334 0h42.666667v-42.666667h-42.666667z m128 0h42.666667v-42.666667h-42.666667z"  horiz-adv-x="1024" />

    
    <glyph glyph-name="24gl-store2" unicode="&#59470;" d="M490.666667 298.66666699999996H234.666667a21.333333 21.333333 0 0 1-21.333334-21.333334v-213.333333a21.333333 21.333333 0 0 1 21.333334-21.333333h256a21.333333 21.333333 0 0 1 21.333333 21.333333V277.33333300000004a21.333333 21.333333 0 0 1-21.333333 21.333334z m-21.333334-213.333334H256V256h213.333333z m554.666667 426.666667a21.233333 21.233333 0 0 1-2 8.94l-110.806667 240.153333A85.573333 85.573333 0 0 1 833.72 810.666667H232.946667a85.573333 85.573333 0 0 1-77.473334-49.573334L44.666667 520.94A21.233333 21.233333 0 0 1 42.666667 512a127.7 127.7 0 0 1 42.666666-95.333333v-416.666667a85.426667 85.426667 0 0 1 85.333334-85.333333h725.333333a85.426667 85.426667 0 0 1 85.333333 85.333333V416.666667a127.7 127.7 0 0 1 42.666667 95.333333z m-151.54 231.213333l108.76-235.653333a85.333333 85.333333 0 0 0-150.666667-50.346667L768.42 768h65.3a42.8 42.8 0 0 0 38.74-24.786667zM341.333333 768h106.546667l-31.333333-296.326667a85.333333 85.333333 0 0 0-137.633334-17.866666l62 310A21.426667 21.426667 0 0 1 341.333333 768z m149.213334-2.24A21.2 21.2 0 0 1 490.666667 768h85.333333a21.2 21.2 0 0 1 0.12-2.24l31.333333-296.126667a85.366667 85.366667 0 0 0-148.186666 0z m159.566666-294.086667L618.786667 768H725.333333a21.426667 21.426667 0 0 1 0.413334-4.186667l62-310a85.333333 85.333333 0 0 0-137.633334 17.866667zM194.206667 743.213333A42.8 42.8 0 0 0 232.946667 768h65.3l-62.16-310.786667a85.333333 85.333333 0 0 0-150.666667 50.346667zM640-42.66666699999996v213.333334a85.333333 85.333333 0 0 0 170.666667 0v-213.333334z m298.666667 42.666667a42.713333 42.713333 0 0 0-42.666667-42.666667h-42.666667v213.333334c0 70.58-57.42 128-128 128s-128-57.42-128-128v-213.333334H170.666667a42.713333 42.713333 0 0 0-42.666667 42.666667V391.333333a127.693333 127.693333 0 0 1 128 25.3A127.953333 127.953333 0 0 1 437.333333 427.333333a128 128 0 0 1 192 0 127.833333 127.833333 0 0 1 181.333334-10.706666A127.953333 127.953333 0 0 1 938.666667 391.333333z"  horiz-adv-x="1024" />

    
    <glyph glyph-name="24gl-window" unicode="&#59471;" d="M960 0h-21.333333V757.333333a53.393333 53.393333 0 0 1-53.333334 53.333334H138.666667a53.393333 53.393333 0 0 1-53.333334-53.333334v-138.666666a21.333333 21.333333 0 0 1 42.666667 0V757.333333a10.666667 10.666667 0 0 0 10.666667 10.666667h330.666666v-682.666667H138.666667a10.666667 10.666667 0 0 0-10.666667 10.666667V320a21.333333 21.333333 0 0 1-42.666667 0v-224a53.393333 53.393333 0 0 1 53.333334-53.333333h587.273333q-0.42-20.52-0.546667-42.666667H64a21.333333 21.333333 0 0 1 0-42.666667h896a21.333333 21.333333 0 0 1 0 42.666667z m-448 85.333333V768h213.606667c2-78.153333 14.913333-146.326667 38.54-202.886667 19.333333-46.206667 42.36-77.226667 60.993333-98.206666a583.5 583.5 0 0 1-44.773333-87.14c-14.246667-34.733333-25.186667-71.2-33.433334-111.486667-10.54-51.493333-16.873333-109.126667-19.746666-182.946667z m256.066667-85.333333c1.44 230.626667 26.953333 343.62 101.766666 457.626667a21.333333 21.333333 0 0 1-2.513333 26.553333c-23.68 24.446667-94 97.053333-99.04 283.82H885.333333a10.666667 10.666667 0 0 0 10.666667-10.666667v-757.333333zM405.333333 341.33333300000004a21.333333 21.333333 0 0 0-21.333333 21.333334V490.666667a21.333333 21.333333 0 0 0 42.666667 0v-128a21.333333 21.333333 0 0 0-21.333334-21.333334z m192 149.333334v-128a21.333333 21.333333 0 0 0-42.666666 0V490.666667a21.333333 21.333333 0 0 0 42.666666 0zM275.08 630.46l-85.333333-170.666667a21.333333 21.333333 0 0 0-38.16 19.08l85.333333 170.666667a21.333333 21.333333 0 0 0 38.16-19.08z m0-170.666667l-42.666667-85.333333a21.333333 21.333333 0 0 0-38.16 19.08l42.666667 85.333333a21.333333 21.333333 0 1 0 38.16-19.08z"  horiz-adv-x="1024" />

    
    <glyph glyph-name="24gl-hospital" unicode="&#59472;" d="M426.666667 277.33333300000004a21.333333 21.333333 0 0 0 21.333333 21.333334h170.666667a21.333333 21.333333 0 0 0 0-42.666667H448a21.333333 21.333333 0 0 0-21.333333 21.333333z m597.333333 309.333334v-650.666667a21.333333 21.333333 0 0 0-21.333333-21.333333H64a21.333333 21.333333 0 0 0-21.333333 21.333333V586.666667a53.393333 53.393333 0 0 0 53.333333 53.333333h160V714.666667a53.393333 53.393333 0 0 0 53.333333 53.333333h53.333334a21.333333 21.333333 0 0 0 0-42.666667h-53.333334a10.666667 10.666667 0 0 1-10.666666-10.666666v-757.333334h85.333333v202.666667a53.393333 53.393333 0 0 0 53.333333 53.333333h192a53.393333 53.393333 0 0 0 53.333334-53.333333v-202.666667h85.333333V714.666667a10.666667 10.666667 0 0 1-10.666667 10.666666h-53.333333a21.333333 21.333333 0 0 0 0 42.666667h53.333333a53.393333 53.393333 0 0 0 53.333334-53.333333v-74.666667h160a53.393333 53.393333 0 0 0 53.333333-53.333333zM85.333333-42.66666699999996h170.666667V597.333333H96a10.666667 10.666667 0 0 1-10.666667-10.666666z m554.666667 0v202.666667a10.666667 10.666667 0 0 1-10.666667 10.666667H437.333333a10.666667 10.666667 0 0 1-10.666666-10.666667v-202.666667z m341.333333 629.333334a10.666667 10.666667 0 0 1-10.666666 10.666666h-160v-640h170.666666zM128 426.666667h42.666667V512h-42.666667z m0-128h42.666667V384h-42.666667z m0-128h42.666667V256h-42.666667z m0-128h42.666667v85.333333h-42.666667z m768 384h42.666667V512h-42.666667z m0-128h42.666667V384h-42.666667z m0-128h42.666667V256h-42.666667z m0-128h42.666667v85.333333h-42.666667zM448 725.333333h64v-64a21.333333 21.333333 0 0 1 42.666667 0v64h64a21.333333 21.333333 0 0 1 0 42.666667h-64V832a21.333333 21.333333 0 0 1-42.666667 0v-64h-64a21.333333 21.333333 0 0 1 0-42.666667z"  horiz-adv-x="1024" />

    
    <glyph glyph-name="24gl-chartLineDownward" unicode="&#59473;" d="M981.333333-64a21.333333 21.333333 0 0 0-21.333333-21.333333H64a21.333333 21.333333 0 0 0-21.333333 21.333333V832a21.333333 21.333333 0 0 0 42.666666 0v-874.666667h874.666667a21.333333 21.333333 0 0 0 21.333333-21.333333zM170.666667 618.666667a64 64 0 1 0 123.706666-23.08l207.02-177.446667A64.04 64.04 0 0 0 574.1 412l109.84 65.9a64 64 0 1 0 108.793333-31.666667l74-148.06A64 64 0 1 0 810.666667 234.66666699999996a63.806667 63.806667 0 0 0 17.933333 44.426666l-74 148.06a64.473333 64.473333 0 0 0-7.933333-0.486666 63.76 63.76 0 0 0-40.766667 14.666666l-109.84-65.906666A64 64 0 1 0 469.333333 362.66666699999996a63.753333 63.753333 0 0 0 4.293334 23.08L266.606667 563.1933329999999A64 64 0 0 0 170.666667 618.666667z m704-362.666667a21.333333 21.333333 0 1 1 21.333333-21.333333 21.333333 21.333333 0 0 1-21.333333 21.333333z m-149.333334 234.666667a21.333333 21.333333 0 1 1 21.333334 21.333333 21.333333 21.333333 0 0 1-21.333334-21.333333zM533.333333 384a21.333333 21.333333 0 1 1 21.333334-21.333333 21.333333 21.333333 0 0 1-21.333334 21.333333zM213.333333 618.666667a21.333333 21.333333 0 1 1 21.333334 21.333333 21.333333 21.333333 0 0 1-21.333334-21.333333z"  horiz-adv-x="1024" />

    
    <glyph glyph-name="24gl-chartLineUpward" unicode="&#59474;" d="M981.333333-64a21.333333 21.333333 0 0 0-21.333333-21.333333H64a21.333333 21.333333 0 0 0-21.333333 21.333333V832a21.333333 21.333333 0 0 0 42.666666 0v-874.666667h874.666667a21.333333 21.333333 0 0 0 21.333333-21.333333zM170.666667 234.66666699999996a64 64 0 0 0 91.593333 57.76l128 128a64 64 0 1 0 115.52 0l64-64a64.153333 64.153333 0 0 0 51 1.82l198.28 228.786666a63.94 63.94 0 1 0 32.24-27.946666L652.98 330.29999999999995a64 64 0 1 0-113.406667-4.04l-64 64a64.126667 64.126667 0 0 0-55.186666 0l-128-128A64 64 0 1 0 170.666667 234.66666699999996z m682.666666 384a21.333333 21.333333 0 1 1 21.333334 21.333333 21.333333 21.333333 0 0 1-21.333334-21.333333zM597.333333 320a21.333333 21.333333 0 1 1 21.333334-21.333333 21.333333 21.333333 0 0 1-21.333334 21.333333zM426.666667 448a21.333333 21.333333 0 1 1 21.333333 21.333333 21.333333 21.333333 0 0 1-21.333333-21.333333zM213.333333 234.66666699999996a21.333333 21.333333 0 1 1 21.333334 21.333333 21.333333 21.333333 0 0 1-21.333334-21.333333z"  horiz-adv-x="1024" />

    
    <glyph glyph-name="24gl-chartBarUpward" unicode="&#59475;" d="M304 213.33333300000004H165.333333a37.373333 37.373333 0 0 1-37.333333-37.333333v-224a37.373333 37.373333 0 0 1 37.333333-37.333333h138.666667a37.373333 37.373333 0 0 1 37.333333 37.333333v224a37.373333 37.373333 0 0 1-37.333333 37.333333z m-5.333333-256H170.666667v213.333334h128z m304 384H464a37.373333 37.373333 0 0 1-37.333333-37.333333v-352a37.373333 37.373333 0 0 1 37.333333-37.333333h138.666667a37.373333 37.373333 0 0 1 37.333333 37.333333V304a37.373333 37.373333 0 0 1-37.333333 37.333333z m-5.333334-384H469.333333V298.66666699999996h128z m304 554.666667h-138.666666a37.373333 37.373333 0 0 1-37.333334-37.333333v-522.666667a37.373333 37.373333 0 0 1 37.333334-37.333333h138.666666a37.373333 37.373333 0 0 1 37.333334 37.333333V474.666667a37.373333 37.373333 0 0 1-37.333334 37.333333z m-5.333333-554.666667h-128V469.333333h128z m42.666667 874.666667v-128a21.333333 21.333333 0 0 0-42.666667 0V780.5L633.753333 518.246667a21.333333 21.333333 0 0 0-30.173333 0L490.666667 631.166667 164.42 304.91333299999997a21.333333 21.333333 0 0 0-30.173333 30.173334l341.333333 341.333333a21.333333 21.333333 0 0 0 30.173333 0L618.666667 563.5 865.833333 810.666667H789.333333a21.333333 21.333333 0 0 0 0 42.666666h128a21.213333 21.213333 0 0 0 14.993334-6.16l0.046666-0.046666A21.213333 21.213333 0 0 0 938.666667 832z"  horiz-adv-x="1024" />

    
    <glyph glyph-name="24gl-chartPie" unicode="&#59476;" d="M490.666667-85.33333300000004a440.906667 440.906667 0 0 0-173.773334 35.46 453.766667 453.766667 0 0 0-238.766666 238.766666 443.52 443.52 0 0 0 0 347.546667 453.766667 453.766667 0 0 0 238.766666 238.766667A440.906667 440.906667 0 0 0 490.666667 810.666667a21.333333 21.333333 0 0 0 21.333333-21.333334v-405.333333h405.333333a21.333333 21.333333 0 0 0 21.333334-21.333333 440.906667 440.906667 0 0 0-35.46-173.773334 453.766667 453.766667 0 0 0-238.766667-238.766666A440.906667 440.906667 0 0 0 490.666667-85.33333300000004zM469.333333 767.4466669999999C255.72 756.3066670000001 85.333333 579.006667 85.333333 362.66666699999996c0-223.5 181.833333-405.333333 405.333334-405.333334 216.34 0 393.64 170.386667 404.78 384H490.666667a21.333333 21.333333 0 0 0-21.333334 21.333334zM960 426.666667H576a21.333333 21.333333 0 0 0-21.333333 21.333333V832a21.333333 21.333333 0 0 0 21.333333 21.333333 405.373333 405.373333 0 0 0 405.333333-405.333333 21.333333 21.333333 0 0 0-21.333333-21.333333z m-362.666667 42.666666h340.666667c-5.333333 87.94-43.113333 172.666667-105.58 235.113334S685.273333 804.726667 597.333333 810z"  horiz-adv-x="1024" />

    
    <glyph glyph-name="24gl-chartScatter" unicode="&#59477;" d="M960-85.33333300000004H64a21.333333 21.333333 0 0 0-21.333333 21.333333V832a21.333333 21.333333 0 0 0 42.666666 0v-874.666667h874.666667a21.333333 21.333333 0 0 0 0-42.666666zM234.666667 256a21.333333 21.333333 0 1 1 21.333333-21.333333 21.333333 21.333333 0 0 1-21.333333 21.333333m0 42.666667a64 64 0 1 0-64-64 64 64 0 0 0 64 64z m298.666666 256a21.333333 21.333333 0 1 1 21.333334-21.333334 21.333333 21.333333 0 0 1-21.333334 21.333334m0 42.666666a64 64 0 1 0-64-64 64 64 0 0 0 64 64zM448 341.33333300000004a21.333333 21.333333 0 1 1 21.333333-21.333333 21.333333 21.333333 0 0 1-21.333333 21.333333m0 42.666667a64 64 0 1 0-64-64 64 64 0 0 0 64 64z m256 0a21.333333 21.333333 0 1 1 21.333333-21.333333 21.333333 21.333333 0 0 1-21.333333 21.333333m0 42.666667a64 64 0 1 0-64-64 64 64 0 0 0 64 64zM277.333333 640a21.333333 21.333333 0 1 1 21.333334-21.333333 21.333333 21.333333 0 0 1-21.333334 21.333333m0 42.666667a64 64 0 1 0-64-64 64 64 0 0 0 64 64z m490.666667-512a21.333333 21.333333 0 1 1 21.333333-21.333334 21.333333 21.333333 0 0 1-21.333333 21.333334m0 42.666666a64 64 0 1 0-64-64 64 64 0 0 0 64 64z m106.666667 384a21.333333 21.333333 0 1 1 21.333333-21.333333 21.333333 21.333333 0 0 1-21.333333 21.333333m0 42.666667a64 64 0 1 0-64-64 64 64 0 0 0 64 64z"  horiz-adv-x="1024" />

    
    <glyph glyph-name="24gl-chartBarDownward" unicode="&#59478;" d="M901.333333 213.33333300000004h-138.666666a37.373333 37.373333 0 0 1-37.333334-37.333333v-224a37.373333 37.373333 0 0 1 37.333334-37.333333h138.666666a37.373333 37.373333 0 0 1 37.333334 37.333333v224a37.373333 37.373333 0 0 1-37.333334 37.333333z m-5.333333-256h-128v213.333334h128zM304 512H165.333333a37.373333 37.373333 0 0 1-37.333333-37.333333v-522.666667a37.373333 37.373333 0 0 1 37.333333-37.333333h138.666667a37.373333 37.373333 0 0 1 37.333333 37.333333V474.666667a37.373333 37.373333 0 0 1-37.333333 37.333333z m-5.333333-554.666667H170.666667V469.333333h128z m304 384H464a37.373333 37.373333 0 0 1-37.333333-37.333333v-352a37.373333 37.373333 0 0 1 37.333333-37.333333h138.666667a37.373333 37.373333 0 0 1 37.333333 37.333333V304a37.373333 37.373333 0 0 1-37.333333 37.333333z m-5.333334-384H469.333333V298.66666699999996h128z m341.333334 490.666667v-128a21.213333 21.213333 0 0 0-6.16-14.993333A21.213333 21.213333 0 0 0 917.333333 298.66666699999996h-128a21.333333 21.333333 0 0 0 0 42.666666h76.5L576 631.166667 463.086667 518.246667a21.333333 21.333333 0 0 0-30.173334 0l-298.666666 298.666666a21.333333 21.333333 0 0 0 30.173333 30.173334L448 563.5l112.913333 112.92a21.333333 21.333333 0 0 0 30.173334 0L896 371.5V448a21.333333 21.333333 0 0 0 42.666667 0z"  horiz-adv-x="1024" />

    
    <glyph glyph-name="24gl-bag" unicode="&#59511;" d="M934-25.38666699999999l-77.333333 618.666667a53.42 53.42 0 0 1-52.913334 46.72H682.666667v42.666667a170.666667 170.666667 0 1 1-341.333334 0v-42.666667H220.246667A53.413333 53.413333 0 0 1 167.333333 593.28l-77.333333-618.666667a53.333333 53.333333 0 0 1 52.913333-59.946666h738.173334a53.333333 53.333333 0 0 1 52.92 59.946666zM384 682.666667c0 70.58 57.42 128 128 128s128-57.42 128-128v-42.666667H384z m505.08-721.726667a10.546667 10.546667 0 0 0-8-3.606667H142.913333a10.666667 10.666667 0 0 0-10.58 12l77.333334 618.666667a10.666667 10.666667 0 0 0 10.58 9.333333H341.333333v-91.073333a42.666667 42.666667 0 1 1 42.666667 0V597.333333h256v-91.073333a42.666667 42.666667 0 1 1 42.666667 0V597.333333h121.086666a10.666667 10.666667 0 0 0 10.58-9.333333l77.333334-618.666667a10.54 10.54 0 0 0-2.586667-8.393333z"  horiz-adv-x="1024" />

    
    <glyph glyph-name="24gl-bag2" unicode="&#59512;" d="M976.666667-25.38666699999999l-77.333334 618.666667a53.42 53.42 0 0 1-52.913333 46.72H725.333333v64A149.48 149.48 0 0 1 511.94 838.98 149.333333 149.333333 0 0 1 298.666667 704v-64H177.58A53.413333 53.413333 0 0 1 124.666667 593.28l-77.333334-618.666667a53.333333 53.333333 0 0 1 52.913334-59.946666h823.506666a53.333333 53.333333 0 0 1 52.92 59.946666zM682.666667 704v-64H469.333333v64c0 58.813333 47.853333 106.666667 106.666667 106.666667s106.666667-47.853333 106.666667-106.666667zM448 810.666667a107.333333 107.333333 0 0 0 21.333333-2.153334A148.346667 148.346667 0 0 1 426.666667 704v-64H341.333333v64c0 58.813333 47.853333 106.666667 106.666667 106.666667zM92.253333-39.059999999999945a10.54 10.54 0 0 0-2.586666 8.393333l77.333333 618.666667a10.666667 10.666667 0 0 0 10.58 9.333333H253.333333c-0.273333-1.333333-0.506667-2.666667-0.666666-4.053333l-77.333334-618.666667a53.206667 53.206667 0 0 1 0.666667-17.28H100.246667a10.546667 10.546667 0 0 0-7.993334 3.606667z m839.493334 0a10.546667 10.546667 0 0 0-8-3.606667H228.246667a10.666667 10.666667 0 0 0-10.58 12l77.333333 618.666667a10.666667 10.666667 0 0 0 10.58 9.333333H426.666667v-91.073333a42.666667 42.666667 0 1 1 42.666666 0V597.333333h213.333334v-91.073333a42.666667 42.666667 0 1 1 42.666666 0V597.333333h121.086667a10.666667 10.666667 0 0 0 10.58-9.333333l77.333333-618.666667a10.54 10.54 0 0 0-2.586666-8.393333z"  horiz-adv-x="1024" />

    
    <glyph glyph-name="24gl-bagFull" unicode="&#59513;" d="M934-25.38666699999999l-77.333333 618.666667a53.42 53.42 0 0 1-52.913334 46.72h-5.586666L633.753333 804.42a21.333333 21.333333 0 0 1-30.173333 0L554.666667 755.5 463.086667 847.086667a21.333333 21.333333 0 0 1-30.173334 0L225.826667 640h-5.58A53.413333 53.413333 0 0 1 167.333333 593.28l-77.333333-618.666667a53.333333 53.333333 0 0 1 52.913333-59.946666h738.173334a53.333333 53.333333 0 0 1 52.92 59.946666zM618.666667 759.166667L737.833333 640h-67.66l-85.333333 85.333333z m-170.666667 42.666666L609.826667 640H286.173333z m441.08-840.893333a10.546667 10.546667 0 0 0-8-3.606667H142.913333a10.666667 10.666667 0 0 0-10.58 12l77.333334 618.666667a10.666667 10.666667 0 0 0 10.58 9.333333h583.506666a10.666667 10.666667 0 0 0 10.58-9.333333l77.333334-618.666667a10.54 10.54 0 0 0-2.586667-8.393333zM704 469.333333a42.666667 42.666667 0 0 0-21.333333-36.926666V298.66666699999996a170.666667 170.666667 0 1 0-341.333334 0V432.406667a42.666667 42.666667 0 1 0 42.666667 0V298.66666699999996c0-70.58 57.42-128 128-128s128 57.42 128 128V432.406667a42.666667 42.666667 0 1 0 64 36.926666z"  horiz-adv-x="1024" />

    
    <glyph glyph-name="24gl-bagFull2" unicode="&#59514;" d="M976.666667-25.38666699999999l-77.333334 618.666667a53.42 53.42 0 0 1-52.913333 46.72h-48.253333L633.753333 804.42a21.333333 21.333333 0 0 1-30.173333 0L554.666667 755.5 463.086667 847.086667a21.333333 21.333333 0 0 1-30.173334 0L225.826667 640h-48.246667A53.413333 53.413333 0 0 1 124.666667 593.28l-77.333334-618.666667a53.333333 53.333333 0 0 1 52.913334-59.946666h823.506666a53.333333 53.333333 0 0 1 52.92 59.946666zM618.666667 759.166667L737.833333 640h-67.66l-85.333333 85.333333z m-170.666667 42.666666L609.826667 640H286.173333zM92.253333-39.059999999999945a10.54 10.54 0 0 0-2.586666 8.393333l77.333333 618.666667a10.666667 10.666667 0 0 0 10.58 9.333333H253.333333c-0.273333-1.333333-0.506667-2.666667-0.666666-4.053333l-77.333334-618.666667a53.206667 53.206667 0 0 1 0.666667-17.28H100.246667a10.546667 10.546667 0 0 0-7.993334 3.606667z m839.493334 0a10.546667 10.546667 0 0 0-8-3.606667H228.246667a10.666667 10.666667 0 0 0-10.58 12l77.333333 618.666667a10.666667 10.666667 0 0 0 10.58 9.333333h540.84a10.666667 10.666667 0 0 0 10.58-9.333333l77.333333-618.666667a10.54 10.54 0 0 0-2.586666-8.393333zM746.666667 469.333333a42.666667 42.666667 0 0 0-21.333334-36.926666V277.33333300000004a149.333333 149.333333 0 0 0-298.666666 0V432.406667a42.666667 42.666667 0 1 0 42.666666 0V277.33333300000004c0-58.813333 47.853333-106.666667 106.666667-106.666666s106.666667 47.853333 106.666667 106.666666V432.406667a42.666667 42.666667 0 1 0 64 36.926666z"  horiz-adv-x="1024" />

    
    <glyph glyph-name="24gl-banknote" unicode="&#59515;" d="M970.666667 682.666667H96a53.393333 53.393333 0 0 1-53.333333-53.333334v-533.333333a53.393333 53.393333 0 0 1 53.333333-53.333333h874.666667a53.393333 53.393333 0 0 1 53.333333 53.333333V629.333333a53.393333 53.393333 0 0 1-53.333333 53.333334z m10.666666-586.666667a10.666667 10.666667 0 0 0-10.666666-10.666667H96a10.666667 10.666667 0 0 0-10.666667 10.666667V629.333333a10.666667 10.666667 0 0 0 10.666667 10.666667h874.666667a10.666667 10.666667 0 0 0 10.666666-10.666667z m-64 416a64.073333 64.073333 0 0 0-64 64 21.333333 21.333333 0 0 1-21.333333 21.333333H234.666667a21.333333 21.333333 0 0 1-21.333334-21.333333 64.073333 64.073333 0 0 0-64-64 21.333333 21.333333 0 0 1-21.333333-21.333333v-256a21.333333 21.333333 0 0 1 21.333333-21.333334 64.073333 64.073333 0 0 0 64-64 21.333333 21.333333 0 0 1 21.333334-21.333333h597.333333a21.333333 21.333333 0 0 1 21.333333 21.333333 64.073333 64.073333 0 0 0 64 64 21.333333 21.333333 0 0 1 21.333334 21.333334V490.666667a21.333333 21.333333 0 0 1-21.333334 21.333333z m-21.333333-258.14A107.006667 107.006667 0 0 1 812.806667 170.66666699999996H253.86A107.006667 107.006667 0 0 1 170.666667 253.86V471.473333A107.006667 107.006667 0 0 1 253.86 554.666667h558.946667A107.006667 107.006667 0 0 1 896 471.473333zM298.666667 362.66666699999996a21.333333 21.333333 0 1 0-21.333334 21.333333 21.333333 21.333333 0 0 0 21.333334-21.333333z m512 0a21.333333 21.333333 0 1 0-21.333334 21.333333 21.333333 21.333333 0 0 0 21.333334-21.333333z m-128 0c0-82.473333-66.86-149.333333-149.333334-149.333334S384 280.19333300000005 384 362.66666699999996s66.86 149.333333 149.333333 149.333333 149.333333-66.86 149.333334-149.333333zM533.333333 469.333333a106.666667 106.666667 0 1 1 106.666667-106.666666 106.666667 106.666667 0 0 1-106.666667 106.666666z"  horiz-adv-x="1024" />

    
    <glyph glyph-name="24gl-box2" unicode="&#59516;" d="M981.333333 576.1600000000001v0.36c0 0.32 0 0.666667-0.04 0.953333v0.353334c-0.033333 0.373333-0.073333 0.753333-0.126666 1.12v0.126666a20.56 20.56 0 0 1-0.56 2.666667v0.08a21.213333 21.213333 0 0 1-1.506667 3.853333l-0.053333 0.093334c-0.24 0.473333-0.493333 0.933333-0.766667 1.38l-118.666667 197.626666a53.593333 53.593333 0 0 1-45.733333 25.893334H252.786667a53.593333 53.593333 0 0 1-45.733334-25.893334L88.473333 587.14c-0.273333-0.446667-0.526667-0.9-0.766666-1.333333l-0.053334-0.106667a21.273333 21.273333 0 0 1-1.506666-3.84v-0.093333a20.36 20.36 0 0 1-0.56-2.666667v-0.14c-0.053333-0.366667-0.093333-0.74-0.12-1.113333v-0.36q0-0.466667-0.04-0.94v-565.86a53.393333 53.393333 0 0 1 53.333333-53.333334H928a53.393333 53.393333 0 0 1 53.333333 53.333334V576v0.16z m-158.3 186.666667L922.32 597.333333H554.666667V768h259.213333a10.72 10.72 0 0 0 9.146667-5.18z m-579.386666 0a10.72 10.72 0 0 0 9.14 5.173333H512v-170.666667H144.346667zM938.666667 10.666666999999961a10.666667 10.666667 0 0 0-10.666667-10.666667H138.666667a10.666667 10.666667 0 0 0-10.666667 10.666667V554.666667h810.666667zM405.333333 384h256a21.333333 21.333333 0 0 0 0-42.666667H405.333333a21.333333 21.333333 0 0 0 0 42.666667z"  horiz-adv-x="1024" />

    
    <glyph glyph-name="24gl-cart" unicode="&#59517;" d="M725.333333-85.33333300000004a42.666667 42.666667 0 1 0 42.666667 42.666666 42.713333 42.713333 0 0 0-42.666667-42.666666z m0 42.666666z m-384-42.666666a42.666667 42.666667 0 1 0 42.666667 42.666666 42.713333 42.713333 0 0 0-42.666667-42.666666z m0 42.666666z m430.92 143.166667a84.946667 84.946667 0 0 1 31.293334 40.18l168.32 448.88a37.333333 37.333333 0 0 1-34.953334 50.44H320a21.333333 21.333333 0 0 1 0-42.666667h609.213333l-165.613333-441.646666a42.873333 42.873333 0 0 0-39.953333-27.686667H347.146667a42.82 42.82 0 0 0-41.073334 31.113333l-178.873333 636A21.333333 21.333333 0 0 1 106.666667 810.666667H21.333333a21.333333 21.333333 0 0 1 0-42.666667h69.173334l174.493333-620.44A85.333333 85.333333 0 0 1 347.146667 85.33333300000004h376.5a84.96 84.96 0 0 1 48.606666 15.193334z"  horiz-adv-x="1024" />

    
    <glyph glyph-name="24gl-cart2" unicode="&#59518;" d="M725.333333-85.33333300000004a42.666667 42.666667 0 1 0 42.666667 42.666666 42.713333 42.713333 0 0 0-42.666667-42.666666z m0 42.666666z m-384-42.666666a42.666667 42.666667 0 1 0 42.666667 42.666666 42.713333 42.713333 0 0 0-42.666667-42.666666z m0 42.666666z m382.313334 128H347.146667a85.333333 85.333333 0 0 0-82.146667 62.226667L90.506667 768H21.333333a21.333333 21.333333 0 0 0 0 42.666667h85.333334a21.333333 21.333333 0 0 0 20.533333-15.56L170.826667 640h766.086666a37.333333 37.333333 0 0 0 34.953334-50.44l-168.32-448.853333a85.333333 85.333333 0 0 0-79.9-55.373334zM182.826667 597.333333l123.246666-438.22a42.82 42.82 0 0 1 41.073334-31.113333h376.5a42.873333 42.873333 0 0 1 39.953333 27.686667L929.213333 597.333333z"  horiz-adv-x="1024" />

    
    <glyph glyph-name="24gl-cart3" unicode="&#59519;" d="M725.333333-85.33333300000004a42.666667 42.666667 0 1 0 42.666667 42.666666 42.713333 42.713333 0 0 0-42.666667-42.666666z m0 42.666666z m-384-42.666666a42.666667 42.666667 0 1 0 42.666667 42.666666 42.713333 42.713333 0 0 0-42.666667-42.666666z m0 42.666666z m406.406667 256H405.333333a21.333333 21.333333 0 0 0 0 42.666667h342.406667a42.713333 42.713333 0 0 1 38.993333 25.333333l140.44 316H320a21.333333 21.333333 0 0 0 0 42.666667h615.38a37.333333 37.333333 0 0 0 34.113333-52.493333L825.72 264a85.413333 85.413333 0 0 0-77.98-50.666667z m187.64 384zM810.666667 106.66666699999996a21.333333 21.333333 0 0 1-21.333334 21.333333H347.146667a42.82 42.82 0 0 0-41.073334 31.113333l-178.873333 636A21.333333 21.333333 0 0 1 106.666667 810.666667H21.333333a21.333333 21.333333 0 0 1 0-42.666667h69.173334l174.5-620.44A85.333333 85.333333 0 0 1 347.146667 85.33333300000004H789.333333a21.333333 21.333333 0 0 1 21.333334 21.333334z"  horiz-adv-x="1024" />

    
    <glyph glyph-name="24gl-cart4" unicode="&#59520;" d="M384-42.66666699999996a42.666667 42.666667 0 1 0-42.666667 42.666667 42.713333 42.713333 0 0 0 42.666667-42.666667z m341.333333 42.666667a42.666667 42.666667 0 1 1 42.666667-42.666667 42.713333 42.713333 0 0 1-42.666667 42.666667z m244.16 587.506667L825.72 264a85.413333 85.413333 0 0 0-78-50.666667H290.826667l15.246666-54.22a42.82 42.82 0 0 1 41.073334-31.113333H789.333333a21.333333 21.333333 0 0 0 0-42.666667H347.146667a85.333333 85.333333 0 0 0-82.14 62.226667L90.506667 768H21.333333a21.333333 21.333333 0 0 0 0 42.666667h85.333334a21.333333 21.333333 0 0 0 20.533333-15.56L170.826667 640h764.553333a37.333333 37.333333 0 0 0 34.113333-52.493333zM927.173333 597.333333H182.826667l96-341.333333h468.913333a42.713333 42.713333 0 0 1 38.993333 25.333333z"  horiz-adv-x="1024" />

    
    <glyph glyph-name="24gl-cart5" unicode="&#59521;" d="M725.333333-85.33333300000004a42.666667 42.666667 0 1 0 42.666667 42.666666 42.713333 42.713333 0 0 0-42.666667-42.666666z m0 42.666666z m-384-42.666666a42.666667 42.666667 0 1 0 42.666667 42.666666 42.713333 42.713333 0 0 0-42.666667-42.666666z m0 42.666666z m64 256a21.333333 21.333333 0 0 0-2.326666 42.533334l349.366666 38.8a42.506667 42.506667 0 0 1 33.453334 23.333333l139.653333 279.333333H320a21.333333 21.333333 0 0 0 0 42.666667h614.113333a37.333333 37.333333 0 0 0 33.393334-54L824 298.93333299999995a85.013333 85.013333 0 0 0-66.9-46.666666l-349.4-38.82a20.506667 20.506667 0 0 0-2.366667-0.113334z m528.806667 384zM810.666667 106.66666699999996a21.333333 21.333333 0 0 1-21.333334 21.333333H347.146667a42.82 42.82 0 0 0-41.073334 31.113333l-178.873333 636A21.333333 21.333333 0 0 1 106.666667 810.666667H21.333333a21.333333 21.333333 0 0 1 0-42.666667h69.173334l174.5-620.44A85.333333 85.333333 0 0 1 347.146667 85.33333300000004H789.333333a21.333333 21.333333 0 0 1 21.333334 21.333334z"  horiz-adv-x="1024" />

    
    <glyph glyph-name="24gl-box" unicode="&#59522;" d="M981.333333 576.1600000000001v0.36c0 0.32 0 0.666667-0.04 0.953333v0.353334c-0.033333 0.373333-0.073333 0.753333-0.126666 1.12v0.126666a20.56 20.56 0 0 1-0.56 2.666667v0.08a21.213333 21.213333 0 0 1-1.506667 3.853333l-0.053333 0.093334c-0.24 0.473333-0.493333 0.933333-0.766667 1.38l-118.666667 197.626666a53.593333 53.593333 0 0 1-45.733333 25.893334H210.12a53.593333 53.593333 0 0 1-45.733333-25.893334L45.806667 587.14c-0.273333-0.446667-0.526667-0.9-0.766667-1.333333l-0.053333-0.106667a21.273333 21.273333 0 0 1-1.506667-3.84v-0.086667a20.666667 20.666667 0 0 1-0.56-2.666666v-0.133334c-0.053333-0.373333-0.093333-0.746667-0.126667-1.12v-0.353333c0-0.32 0-0.633333-0.04-0.953333v-565.853334a53.393333 53.393333 0 0 1 53.333334-53.333333H928a53.393333 53.393333 0 0 1 53.333333 53.333333V576v0.16z m-158.3 186.666667L922.32 597.333333h-202.446667L668.666667 768h145.206666a10.72 10.72 0 0 0 9.153334-5.18zM341.333333 554.666667h341.333334v-170.666667H341.333333z m282.793334 213.333333L675.333333 597.333333H348.666667l51.2 170.666667z m-423.153334-5.18a10.72 10.72 0 0 0 9.146667 5.18H355.333333l-51.2-170.666667H101.68zM938.666667 10.666666999999961a10.666667 10.666667 0 0 0-10.666667-10.666667H96a10.666667 10.666667 0 0 0-10.666667 10.666667V554.666667h213.333334v-192a21.333333 21.333333 0 0 1 21.333333-21.333334h384a21.333333 21.333333 0 0 1 21.333333 21.333334V554.666667h213.333334z m-128 96a21.333333 21.333333 0 0 0 21.333333 21.333333 21.333333 21.333333 0 1 0-21.333333-21.333333z m-64 21.333333a21.333333 21.333333 0 0 0 0-42.666667H618.666667a21.333333 21.333333 0 0 0 0 42.666667z"  horiz-adv-x="1024" />

    
    <glyph glyph-name="24gl-cart6" unicode="&#59523;" d="M384-42.66666699999996a42.666667 42.666667 0 1 0-42.666667 42.666667 42.713333 42.713333 0 0 0 42.666667-42.666667z m341.333333 42.666667a42.666667 42.666667 0 1 1 42.666667-42.666667 42.713333 42.713333 0 0 1-42.666667 42.666667z m242.173334 586L824 298.93333299999995a85.013333 85.013333 0 0 0-66.9-46.666666l-462.766667-51.4 11.74-41.753334a42.82 42.82 0 0 1 41.073334-31.113333H789.333333a21.333333 21.333333 0 0 0 0-42.666667H347.146667a85.333333 85.333333 0 0 0-82.14 62.226667L90.506667 768H21.333333a21.333333 21.333333 0 0 0 0 42.666667h85.333334a21.333333 21.333333 0 0 0 20.533333-15.56L170.826667 640h763.286666a37.333333 37.333333 0 0 0 33.393334-54z m-42 11.333333h-742.666667l99.8-354.833333 469.733333 52.166667a42.506667 42.506667 0 0 1 33.453334 23.333333z"  horiz-adv-x="1024" />

    
    <glyph glyph-name="24gl-cart7" unicode="&#59524;" d="M725.333333-85.33333300000004a42.666667 42.666667 0 1 0 42.666667 42.666666 42.713333 42.713333 0 0 0-42.666667-42.666666z m0 42.666666z m-384-42.666666a42.666667 42.666667 0 1 0 42.666667 42.666666 42.713333 42.713333 0 0 0-42.666667-42.666666z m0 42.666666z m406.406667 256H405.333333a21.333333 21.333333 0 0 0 0 42.666667h342.406667a42.713333 42.713333 0 0 1 38.993333 25.333333l140.44 316H320a21.333333 21.333333 0 0 0 0 42.666667h615.38a37.333333 37.333333 0 0 0 34.113333-52.493333L825.72 264a85.413333 85.413333 0 0 0-77.98-50.666667z m187.64 384zM810.666667 106.66666699999996a21.333333 21.333333 0 0 1-21.333334 21.333333H331.546667a42.666667 42.666667 0 0 0-42.086667 49.68l6.433333 38.573333a85.806667 85.806667 0 0 1-2.613333 39.126667L127.053333 795.606667A21.333333 21.333333 0 0 1 106.666667 810.666667H21.333333a21.333333 21.333333 0 0 1 0-42.666667h69.58l161.586667-525.166667a42.893333 42.893333 0 0 0 1.333333-19.56l-6.453333-38.606666a85.333333 85.333333 0 0 1 84.166667-99.333334H789.333333a21.333333 21.333333 0 0 1 21.333334 21.333334z"  horiz-adv-x="1024" />

    
    <glyph glyph-name="24gl-cart9" unicode="&#59525;" d="M725.333333-85.33333300000004a42.666667 42.666667 0 1 0 42.666667 42.666666 42.713333 42.713333 0 0 0-42.666667-42.666666z m0 42.666666z m-384-42.666666a42.666667 42.666667 0 1 0 42.666667 42.666666 42.713333 42.713333 0 0 0-42.666667-42.666666z m0 42.666666z m64 256a21.333333 21.333333 0 0 0-2.326666 42.533334l349.366666 38.8a42.506667 42.506667 0 0 1 33.453334 23.333333l139.653333 279.333333H320a21.333333 21.333333 0 0 0 0 42.666667h614.113333a37.333333 37.333333 0 0 0 33.393334-54L824 298.93333299999995a85.013333 85.013333 0 0 0-66.9-46.666666l-349.4-38.82a20.506667 20.506667 0 0 0-2.366667-0.113334z m528.806667 384zM810.666667 106.66666699999996a21.333333 21.333333 0 0 1-21.333334 21.333333H331.546667a42.666667 42.666667 0 0 0-42.086667 49.68l6.433333 38.573333a85.806667 85.806667 0 0 1-2.613333 39.126667L127.053333 795.606667A21.333333 21.333333 0 0 1 106.666667 810.666667H21.333333a21.333333 21.333333 0 0 1 0-42.666667h69.58l161.586667-525.166667a42.893333 42.893333 0 0 0 1.333333-19.56l-6.453333-38.606666a85.333333 85.333333 0 0 1 84.166667-99.333334H789.333333a21.333333 21.333333 0 0 1 21.333334 21.333334z"  horiz-adv-x="1024" />

    
    <glyph glyph-name="24gl-cartFull2" unicode="&#59526;" d="M768-42.66666699999996a42.666667 42.666667 0 1 0-42.666667 42.666667 42.713333 42.713333 0 0 0 42.666667-42.666667z m-426.666667 42.666667a42.666667 42.666667 0 1 1 42.666667-42.666667 42.713333 42.713333 0 0 1-42.666667 42.666667z m630.533334 589.56l-168.32-448.853333a85.333333 85.333333 0 0 0-79.9-55.373334H347.146667a85.333333 85.333333 0 0 0-82.146667 62.226667L90.506667 768H21.333333a21.333333 21.333333 0 0 0 0 42.666667h85.333334a21.333333 21.333333 0 0 0 20.533333-15.56L170.826667 640h97.666666L468.04 839.54a32 32 0 0 0 45.253333 0L597.333333 755.5l41.373334 41.373333a32 32 0 0 0 45.253333 0L840.833333 640h96.08a37.333333 37.333333 0 0 0 34.953334-50.44zM627.5 725.333333l85.333333-85.333333h67.66L661.333333 759.166667z m-298.666667-85.333333h323.666667L490.666667 801.833333z m600.38-42.666667H182.826667l123.246666-438.22a42.82 42.82 0 0 1 41.073334-31.113333h376.5a42.873333 42.873333 0 0 1 39.953333 27.686667z"  horiz-adv-x="1024" />

    
    <glyph glyph-name="24gl-cart8" unicode="&#59527;" d="M384-42.66666699999996a42.666667 42.666667 0 1 0-42.666667 42.666667 42.713333 42.713333 0 0 0 42.666667-42.666667z m341.333333 42.666667a42.666667 42.666667 0 1 1 42.666667-42.666667 42.713333 42.713333 0 0 1-42.666667 42.666667z m244.16 587.506667L825.72 264a85.413333 85.413333 0 0 0-78-50.666667H295.406667l-5.946667-35.653333a42.666667 42.666667 0 0 1 42.086667-49.68H789.333333a21.333333 21.333333 0 0 0 0-42.666667H331.546667a85.333333 85.333333 0 0 0-84.166667 99.333334l6.426667 38.58a42.893333 42.893333 0 0 1-1.333334 19.56L90.913333 768H21.333333a21.333333 21.333333 0 0 0 0 42.666667h85.333334a21.333333 21.333333 0 0 0 20.386666-15.06L174.933333 640h760.446667a37.333333 37.333333 0 0 0 34.113333-52.493333zM927.173333 597.333333H188.066667l105.02-341.333333h454.666666a42.713333 42.713333 0 0 1 38.993334 25.333333z"  horiz-adv-x="1024" />

    
    <glyph glyph-name="24gl-cart10" unicode="&#59528;" d="M384-42.66666699999996a42.666667 42.666667 0 1 0-42.666667 42.666667 42.713333 42.713333 0 0 0 42.666667-42.666667z m341.333333 42.666667a42.666667 42.666667 0 1 1 42.666667-42.666667 42.713333 42.713333 0 0 1-42.666667 42.666667z m242.173334 586L824 298.93333299999995a85.013333 85.013333 0 0 0-66.9-46.666666L293.333333 200.753333l-3.846666-23.073333a42.666667 42.666667 0 0 1 42.06-49.68H789.333333a21.333333 21.333333 0 0 0 0-42.666667H331.546667a85.333333 85.333333 0 0 0-84.166667 99.333334l6.413333 38.48a0.833333 0.833333 0 0 0 0 0.126666 42.96 42.96 0 0 1-1.333333 19.533334L90.913333 768H21.333333a21.333333 21.333333 0 0 0 0 42.666667h85.333334a21.333333 21.333333 0 0 0 20.386666-15.06L174.933333 640h759.18a37.333333 37.333333 0 0 0 33.393334-54z m-42 11.333333H188.066667l105.213333-341.953333a85.526667 85.526667 0 0 0 2.666667-11.406667L752.373333 294.66666699999996a42.506667 42.506667 0 0 1 33.453334 23.333333z"  horiz-adv-x="1024" />

    
    <glyph glyph-name="24gl-cartFull4" unicode="&#59529;" d="M768-42.66666699999996a42.666667 42.666667 0 1 0-42.666667 42.666667 42.713333 42.713333 0 0 0 42.666667-42.666667z m-426.666667 42.666667a42.666667 42.666667 0 1 1 42.666667-42.666667 42.713333 42.713333 0 0 1-42.666667 42.666667z m628.16 587.506667L825.72 264a85.413333 85.413333 0 0 0-78-50.666667H290.826667l15.246666-54.22a42.82 42.82 0 0 1 41.073334-31.113333H789.333333a21.333333 21.333333 0 0 0 0-42.666667H347.146667a85.333333 85.333333 0 0 0-82.14 62.226667L90.506667 768H21.333333a21.333333 21.333333 0 0 0 0 42.666667h85.333334a21.333333 21.333333 0 0 0 20.533333-15.56L170.826667 640h97.666666L468.04 839.54a32 32 0 0 0 45.253333 0L597.333333 755.5l41.373334 41.373333a32 32 0 0 0 45.253333 0L840.833333 640h94.546667a37.333333 37.333333 0 0 0 34.113333-52.493333zM627.5 725.333333l85.333333-85.333333h67.66L661.333333 759.166667z m-298.666667-85.333333h323.666667L490.666667 801.833333z m598.34-42.666667H182.826667l96-341.333333h468.913333a42.713333 42.713333 0 0 1 38.993333 25.333333z"  horiz-adv-x="1024" />

    
    <glyph glyph-name="24gl-cartFull3" unicode="&#59530;" d="M768-42.66666699999996a42.666667 42.666667 0 1 0-42.666667 42.666667 42.713333 42.713333 0 0 0 42.666667-42.666667z m-426.666667 42.666667a42.666667 42.666667 0 1 1 42.666667-42.666667 42.713333 42.713333 0 0 1-42.666667 42.666667z m628.16 587.506667L825.72 264a85.413333 85.413333 0 0 0-78-50.666667H405.333333a21.333333 21.333333 0 0 0 0 42.666667h342.406667a42.713333 42.713333 0 0 1 38.993333 25.333333l140.44 316h-608.666666l-0.62 0.046667c-0.193333 0-0.386667 0.04-0.573334 0.066667s-0.306667 0.033333-0.453333 0.06-0.426667 0.066667-0.666667 0.106666l-0.38 0.066667c-0.22 0.04-0.433333 0.093333-0.666666 0.14l-0.366667 0.086667-0.626667 0.166666-0.386666 0.113334-0.573334 0.186666-0.426666 0.14-0.513334 0.193334-0.473333 0.193333-0.44 0.186667-0.533333 0.24-0.373334 0.186666-0.566666 0.286667-0.32 0.18-0.593334 0.34-0.293333 0.186667c-0.193333 0.12-0.386667 0.24-0.58 0.373333l-0.293333 0.2c-0.186667 0.133333-0.373333 0.26-0.553334 0.4l-0.326666 0.246667-0.486667 0.386666-0.426667 0.366667-0.366666 0.313333c-0.52 0.473333-1.02 0.973333-1.493334 1.493334l-0.313333 0.36-0.366667 0.433333c-0.133333 0.16-0.26 0.32-0.38 0.486667l-0.26 0.326666c-0.133333 0.18-0.26 0.366667-0.386666 0.553334s-0.14 0.193333-0.206667 0.293333-0.253333 0.386667-0.373333 0.58-0.126667 0.193333-0.186667 0.3-0.226667 0.38-0.333333 0.58l-0.186667 0.326667c-0.1 0.186667-0.186667 0.373333-0.28 0.553333s-0.133333 0.26-0.193333 0.393333-0.16 0.34-0.233334 0.513334l-0.2 0.453333-0.18 0.46-0.2 0.533333c-0.046667 0.133333-0.093333 0.266667-0.133333 0.4l-0.2 0.606667-0.1 0.353333c-0.06 0.22-0.12 0.433333-0.173333 0.666667l-0.08 0.333333c-0.053333 0.226667-0.1 0.453333-0.146667 0.666667 0 0.113333-0.04 0.226667-0.06 0.34-0.04 0.226667-0.086667 0.453333-0.12 0.666667s0 0.26-0.046667 0.386666-0.053333 0.426667-0.073333 0.666667-0.033333 0.346667-0.04 0.52-0.033333 0.346667-0.04 0.52V618.666667v1c0 0.173333 0 0.346667 0.04 0.513333s0 0.353333 0.04 0.526667 0.046667 0.42 0.073333 0.633333 0.033333 0.26 0.046667 0.393333 0.073333 0.453333 0.12 0.666667c0 0.113333 0.033333 0.226667 0.06 0.34 0.046667 0.233333 0.093333 0.453333 0.146667 0.666667l0.08 0.34c0.053333 0.22 0.113333 0.433333 0.173333 0.666666s0.066667 0.246667 0.106667 0.366667 0.12 0.393333 0.186666 0.593333l0.14 0.406667 0.2 0.526667 0.18 0.466666 0.2 0.446667c0.073333 0.173333 0.153333 0.353333 0.233334 0.526667l0.186666 0.373333c0.093333 0.193333 0.186667 0.38 0.293334 0.566667s0.113333 0.213333 0.173333 0.32l0.34 0.593333c0.06 0.093333 0.12 0.186667 0.173333 0.28 0.126667 0.2 0.253333 0.4 0.386667 0.6 0.06 0.093333 0.126667 0.18 0.186667 0.266667l0.413333 0.58 0.22 0.286666c0.14 0.18 0.273333 0.353333 0.42 0.526667s0.2 0.24 0.306667 0.36 0.246667 0.286667 0.373333 0.433333 0.373333 0.393333 0.56 0.586667l0.16 0.173333L510.706667 839.54a32 32 0 0 0 45.253333 0L640 755.5l41.373333 41.373333a32 32 0 0 0 45.253334 0L883.5 640h51.88a37.333333 37.333333 0 0 0 34.113333-52.493333zM670.166667 725.333333l85.333333-85.333333h67.66L704 759.166667z m-298.666667-85.333333h323.666667L533.333333 801.833333zM789.333333 128H347.146667a42.82 42.82 0 0 0-41.073334 31.113333l-178.873333 636A21.333333 21.333333 0 0 1 106.666667 810.666667H21.333333a21.333333 21.333333 0 0 1 0-42.666667h69.173334l174.5-620.44A85.333333 85.333333 0 0 1 347.146667 85.33333300000004H789.333333a21.333333 21.333333 0 0 1 0 42.666667z"  horiz-adv-x="1024" />

    
    <glyph glyph-name="24gl-cartFull6" unicode="&#59531;" d="M384-42.66666699999996a42.666667 42.666667 0 1 0-42.666667 42.666667 42.713333 42.713333 0 0 0 42.666667-42.666667z m341.333333 42.666667a42.666667 42.666667 0 1 1 42.666667-42.666667 42.713333 42.713333 0 0 1-42.666667 42.666667z m242.173334 586L824 298.93333299999995a85.013333 85.013333 0 0 0-66.9-46.666666l-462.766667-51.4 11.74-41.753334a42.82 42.82 0 0 1 41.073334-31.113333H789.333333a21.333333 21.333333 0 0 0 0-42.666667H347.146667a85.333333 85.333333 0 0 0-82.14 62.226667L90.506667 768H21.333333a21.333333 21.333333 0 0 0 0 42.666667h85.333334a21.333333 21.333333 0 0 0 20.533333-15.56L170.826667 640h97.666666L468.04 839.54a32 32 0 0 0 45.253333 0L597.333333 755.5l41.373334 41.373333a32 32 0 0 0 45.253333 0L840.833333 640h93.28a37.333333 37.333333 0 0 0 33.393334-54z m-340 139.333333l85.333333-85.333333h67.66L661.333333 759.166667z m-298.666667-85.333333h323.666667L490.666667 801.833333z m596.666667-42.666667h-742.666667l99.8-354.833333 469.733333 52.166667a42.506667 42.506667 0 0 1 33.453334 23.333333z"  horiz-adv-x="1024" />

    
    <glyph glyph-name="24gl-cartFull8" unicode="&#59532;" d="M768-42.66666699999996a42.666667 42.666667 0 1 0-42.666667 42.666667 42.713333 42.713333 0 0 0 42.666667-42.666667z m-426.666667 42.666667a42.666667 42.666667 0 1 1 42.666667-42.666667 42.713333 42.713333 0 0 1-42.666667 42.666667z m628.16 587.506667L825.72 264a85.413333 85.413333 0 0 0-78-50.666667H295.406667l-5.946667-35.653333a42.666667 42.666667 0 0 1 42.086667-49.68H789.333333a21.333333 21.333333 0 0 0 0-42.666667H331.546667a85.333333 85.333333 0 0 0-84.166667 99.333334l6.426667 38.58a42.893333 42.893333 0 0 1-1.333334 19.56L90.913333 768H21.333333a21.333333 21.333333 0 0 0 0 42.666667h85.333334a21.333333 21.333333 0 0 0 20.386666-15.06L174.933333 640h93.56L468.04 839.54a32 32 0 0 0 45.253333 0L597.333333 755.5l41.373334 41.373333a32 32 0 0 0 45.253333 0L840.833333 640h94.546667a37.333333 37.333333 0 0 0 34.113333-52.493333zM627.5 725.333333l85.333333-85.333333h67.66L661.333333 759.166667z m-298.666667-85.333333h323.666667L490.666667 801.833333z m598.34-42.666667H188.066667l105.02-341.333333h454.666666a42.713333 42.713333 0 0 1 38.993334 25.333333z"  horiz-adv-x="1024" />

    
    <glyph glyph-name="24gl-receipt2" unicode="&#59533;" d="M832 853.333333H149.333333c-58.813333 0-106.666667-47.853333-106.666666-106.666666v-256a21.333333 21.333333 0 0 1 21.333333-21.333334h149.333333v-533.333333a21.333333 21.333333 0 0 1 30.873334-19.08l76.766666 38.38 97.773334-39.106667a21.333333 21.333333 0 0 1 15.84 0L533.333333-44.30666699999995l98.746667-39.5a21.333333 21.333333 0 0 1 15.84 0l100.266667 40.106667 164-40.993333a21.02 21.02 0 0 1 5.173333-0.666667 21.333333 21.333333 0 0 1 21.333333 21.333333V746.666667C938.666667 805.48 890.813333 853.333333 832 853.333333zM85.333333 512V746.666667a64 64 0 0 0 128 0v-234.666667z m810.666667-548.666667l-144.16 36a21.333333 21.333333 0 0 1-13.093333-0.886666L640-41.026666999999975l-98.746667 39.5a21.333333 21.333333 0 0 1-15.84 0L426.666667-41.026666999999975l-98.746667 39.5a21.333333 21.333333 0 0 1-17.46-0.726666L256-29.480000000000018V746.666667a106.126667 106.126667 0 0 1-21.386667 64H832a64.073333 64.073333 0 0 0 64-64zM512 384v-85.333333h149.333333a21.333333 21.333333 0 0 0 21.333334-21.333334v-128a21.333333 21.333333 0 0 0-21.333334-21.333333h-64v-21.333333a21.333333 21.333333 0 0 0-42.666666 0v21.333333h-64a21.333333 21.333333 0 0 0 0 42.666667h149.333333V256H490.666667a21.333333 21.333333 0 0 0-21.333334 21.333333V405.333333a21.333333 21.333333 0 0 0 21.333334 21.333334h64v21.333333a21.333333 21.333333 0 0 0 42.666666 0v-21.333333h64a21.333333 21.333333 0 0 0 0-42.666667zM341.333333 704a21.333333 21.333333 0 0 0 21.333334 21.333333h85.333333a21.333333 21.333333 0 0 0 0-42.666666H362.666667a21.333333 21.333333 0 0 0-21.333334 21.333333z m469.333334-128a21.333333 21.333333 0 0 0-21.333334-21.333333H362.666667a21.333333 21.333333 0 0 0 0 42.666666h426.666666a21.333333 21.333333 0 0 0 21.333334-21.333333z m0 128a21.333333 21.333333 0 0 0-21.333334-21.333333H533.333333a21.333333 21.333333 0 0 0 0 42.666666h256a21.333333 21.333333 0 0 0 21.333334-21.333333z"  horiz-adv-x="1024" />

    
    <glyph glyph-name="24gl-cartFull10" unicode="&#59534;" d="M384-42.66666699999996a42.666667 42.666667 0 1 0-42.666667 42.666667 42.713333 42.713333 0 0 0 42.666667-42.666667z m341.333333 42.666667a42.666667 42.666667 0 1 1 42.666667-42.666667 42.713333 42.713333 0 0 1-42.666667 42.666667z m242.173334 586L824 298.93333299999995a85.013333 85.013333 0 0 0-66.9-46.666666L293.333333 200.753333l-3.846666-23.073333a42.666667 42.666667 0 0 1 42.06-49.68H789.333333a21.333333 21.333333 0 0 0 0-42.666667H331.546667a85.333333 85.333333 0 0 0-84.166667 99.333334l6.413333 38.48a0.833333 0.833333 0 0 0 0 0.126666 42.96 42.96 0 0 1-1.333333 19.533334L90.913333 768H21.333333a21.333333 21.333333 0 0 0 0 42.666667h85.333334a21.333333 21.333333 0 0 0 20.386666-15.06L174.933333 640h93.56L475.58 847.086667a21.333333 21.333333 0 0 0 30.173333 0L597.333333 755.5l48.913334 48.92a21.333333 21.333333 0 0 0 30.173333 0L840.833333 640h93.28a37.333333 37.333333 0 0 0 33.393334-54z m-340 139.333333l85.333333-85.333333h67.66L661.333333 759.166667z m-298.666667-85.333333h323.653333L490.666667 801.833333z m596.666667-42.666667H188.066667l105.213333-341.953333a85.526667 85.526667 0 0 0 2.666667-11.406667L752.373333 294.66666699999996a42.506667 42.506667 0 0 1 33.453334 23.333333z"  horiz-adv-x="1024" />

    
    <glyph glyph-name="24gl-cartFull" unicode="&#59535;" d="M384-42.66666699999996a42.666667 42.666667 0 1 0-42.666667 42.666667 42.713333 42.713333 0 0 0 42.666667-42.666667z m341.333333 42.666667a42.666667 42.666667 0 1 1 42.666667-42.666667 42.713333 42.713333 0 0 1-42.666667 42.666667z m246.533334 589.56l-168.32-448.853333a85.333333 85.333333 0 0 0-79.9-55.373334H347.146667a85.333333 85.333333 0 0 0-82.146667 62.226667L90.506667 768H21.333333a21.333333 21.333333 0 0 0 0 42.666667h85.333334a21.333333 21.333333 0 0 0 20.533333-15.56l178.873333-636a42.82 42.82 0 0 1 41.073334-31.106667h376.5a42.873333 42.873333 0 0 1 39.953333 27.686667L929.213333 597.333333H318.446667l-0.54 0.046667-0.62 0.073333-0.406667 0.046667-0.666667 0.113333-0.346666 0.066667-0.666667 0.146667-0.346667 0.08-0.666666 0.173333-0.366667 0.106667-0.593333 0.186666-0.406667 0.14-0.526667 0.2-0.466666 0.18-0.446667 0.2-0.52 0.233334-0.38 0.186666-0.566667 0.286667-0.32 0.18-0.593333 0.34-0.28 0.18-0.6 0.38-0.273333 0.193333c-0.193333 0.133333-0.386667 0.266667-0.573334 0.406667l-0.293333 0.226667c-0.173333 0.133333-0.353333 0.266667-0.52 0.413333l-0.373333 0.313333-0.42 0.366667c-0.213333 0.193333-0.42 0.393333-0.626667 0.6l-0.133333 0.12-0.12 0.126667c-0.2 0.206667-0.406667 0.42-0.6 0.633333l-0.366667 0.42c-0.106667 0.126667-0.213333 0.246667-0.313333 0.373333s-0.273333 0.34-0.406667 0.513334l-0.233333 0.3c-0.14 0.186667-0.273333 0.38-0.406667 0.573333s-0.133333 0.18-0.193333 0.273333c-0.133333 0.2-0.253333 0.4-0.38 0.593334l-0.18 0.286666-0.34 0.593334-0.18 0.32c-0.1 0.186667-0.193333 0.373333-0.286667 0.56s-0.126667 0.253333-0.186667 0.386666-0.16 0.34-0.233333 0.513334l-0.2 0.453333-0.18 0.46-0.2 0.533333-0.14 0.406667a20.28 20.28 0 0 0-0.293333 0.96c-0.033333 0.12-0.12 0.426667-0.173334 0.666667l-0.08 0.34c-0.053333 0.226667-0.1 0.446667-0.146666 0.666666 0 0.113333-0.04 0.226667-0.06 0.34-0.04 0.226667-0.086667 0.453333-0.12 0.666667s0 0.26-0.046667 0.393333-0.053333 0.42-0.073333 0.633334-0.033333 0.346667-0.04 0.52-0.033333 0.346667-0.04 0.52v1.113333 0.993333c0 0.173333 0 0.346667 0.04 0.52s0 0.346667 0.04 0.52 0.046667 0.426667 0.073333 0.633334 0.033333 0.26 0.046667 0.393333 0.08 0.453333 0.12 0.666667c0 0.113333 0.033333 0.226667 0.06 0.34 0.046667 0.233333 0.093333 0.453333 0.146666 0.666666l0.08 0.34c0.053333 0.22 0.113333 0.433333 0.173334 0.666667s0.066667 0.246667 0.106666 0.366667 0.12 0.393333 0.186667 0.593333l0.14 0.406667 0.2 0.526666 0.18 0.466667 0.2 0.453333c0.073333 0.173333 0.153333 0.346667 0.233333 0.513334s0.126667 0.26 0.186667 0.386666 0.186667 0.373333 0.286667 0.56l0.18 0.32 0.34 0.593334 0.18 0.286666c0.126667 0.193333 0.246667 0.393333 0.38 0.593334 0.06 0.093333 0.126667 0.18 0.193333 0.273333s0.266667 0.386667 0.406667 0.573333l0.233333 0.3c0.133333 0.173333 0.266667 0.346667 0.406667 0.513334l0.313333 0.373333 0.366667 0.42c0.193333 0.213333 0.4 0.426667 0.6 0.633333l0.12 0.126667 213.333333 213.333333a21.333333 21.333333 0 0 0 30.173333 0L640 755.5l48.913333 48.92a21.333333 21.333333 0 0 0 30.173334 0L883.5 640h53.413333a37.333333 37.333333 0 0 0 34.953334-50.44zM670.173333 725.333333l85.333334-85.333333h67.66L704 759.166667z m-298.666666-85.333333h323.653333L533.333333 801.833333z"  horiz-adv-x="1024" />

    
    <glyph glyph-name="24gl-scanCode2" unicode="&#59536;" d="M928-85.33333300000004h-138.666667a21.333333 21.333333 0 0 0 0 42.666666h138.666667a10.666667 10.666667 0 0 1 10.666667 10.666667v138.666667a21.333333 21.333333 0 0 0 42.666666 0v-138.666667a53.393333 53.393333 0 0 0-53.333333-53.333333z m-650.666667 0H138.666667a53.393333 53.393333 0 0 0-53.333334 53.333333v138.666667a21.333333 21.333333 0 0 0 42.666667 0v-138.666667a10.666667 10.666667 0 0 1 10.666667-10.666667h138.666666a21.333333 21.333333 0 0 0 0-42.666666zM960 597.333333a21.333333 21.333333 0 0 0-21.333333 21.333334V757.333333a10.666667 10.666667 0 0 1-10.666667 10.666667h-138.666667a21.333333 21.333333 0 0 0 0 42.666667h138.666667a53.393333 53.393333 0 0 0 53.333333-53.333334v-138.666666a21.333333 21.333333 0 0 0-21.333333-21.333334z m-853.333333 0a21.333333 21.333333 0 0 0-21.333334 21.333334V757.333333a53.393333 53.393333 0 0 0 53.333334 53.333334h138.666666a21.333333 21.333333 0 0 0 0-42.666667H138.666667a10.666667 10.666667 0 0 1-10.666667-10.666667v-138.666666a21.333333 21.333333 0 0 0-21.333333-21.333334z m853.333333-256H448a21.333333 21.333333 0 0 0 0 42.666667h512a21.333333 21.333333 0 0 0 0-42.666667z m-725.333333 0H106.666667a21.333333 21.333333 0 0 0 0 42.666667h128a21.333333 21.333333 0 0 0 0-42.666667z"  horiz-adv-x="1024" />

    
    <glyph glyph-name="24gl-cartFull9" unicode="&#59537;" d="M768-42.66666699999996a42.666667 42.666667 0 1 0-42.666667 42.666667 42.713333 42.713333 0 0 0 42.666667-42.666667z m-426.666667 42.666667a42.666667 42.666667 0 1 1 42.666667-42.666667 42.713333 42.713333 0 0 1-42.666667 42.666667z m626.173334 586L824 298.93333299999995a85.013333 85.013333 0 0 0-66.9-46.666666l-349.4-38.82a20.506667 20.506667 0 0 0-2.38-0.133334 21.333333 21.333333 0 0 0-2.326667 42.533334L752.373333 294.66666699999996a42.506667 42.506667 0 0 1 33.453334 23.333333l139.653333 279.333333H318.506667l-0.62 0.046667c-0.193333 0-0.386667 0.04-0.573334 0.066667s-0.306667 0.033333-0.453333 0.06-0.426667 0.066667-0.666667 0.106666l-0.38 0.066667c-0.22 0.04-0.433333 0.093333-0.666666 0.14l-0.366667 0.086667-0.626667 0.166666-0.38 0.113334-0.58 0.186666-0.426666 0.14-0.513334 0.193334-0.473333 0.186666-0.446667 0.193334-0.526666 0.24-0.373334 0.186666-0.566666 0.286667-0.326667 0.186667-0.58 0.333333-0.3 0.186667c-0.193333 0.12-0.386667 0.24-0.58 0.373333l-0.3 0.206667-0.546667 0.386666-0.333333 0.26c-0.16 0.126667-0.326667 0.246667-0.48 0.38s-0.3 0.253333-0.446667 0.38-0.233333 0.193333-0.346666 0.3c-0.52 0.473333-1.02 0.973333-1.493334 1.493334l-0.3 0.346666c-0.126667 0.146667-0.26 0.293333-0.38 0.446667s-0.253333 0.313333-0.373333 0.473333l-0.266667 0.34c-0.133333 0.18-0.26 0.36-0.386666 0.546667l-0.206667 0.3c-0.126667 0.186667-0.246667 0.38-0.366667 0.573333s-0.133333 0.2-0.193333 0.306667-0.22 0.38-0.333333 0.573333l-0.186667 0.34c-0.1 0.18-0.186667 0.366667-0.28 0.546667s-0.133333 0.26-0.193333 0.393333-0.16 0.34-0.233334 0.506667l-0.2 0.466667-0.18 0.453333-0.2 0.533333c-0.046667 0.133333-0.093333 0.266667-0.133333 0.4l-0.2 0.606667-0.1 0.353333c-0.06 0.22-0.12 0.433333-0.173333 0.666667l-0.08 0.333333c-0.053333 0.226667-0.1 0.453333-0.146667 0.666667 0 0.113333-0.04 0.226667-0.06 0.34-0.04 0.226667-0.086667 0.453333-0.12 0.666667s0 0.26-0.046667 0.386666-0.053333 0.426667-0.073333 0.666667-0.033333 0.346667-0.04 0.52-0.033333 0.346667-0.04 0.52V618.666667v1c0 0.173333 0 0.346667 0.04 0.513333s0 0.353333 0.04 0.526667 0.046667 0.42 0.073333 0.633333 0.033333 0.26 0.046667 0.393333 0.073333 0.453333 0.12 0.666667c0 0.113333 0.033333 0.226667 0.06 0.34 0.046667 0.233333 0.093333 0.453333 0.146667 0.666667l0.08 0.34c0.053333 0.22 0.113333 0.433333 0.173333 0.666666s0.066667 0.246667 0.106667 0.366667 0.12 0.393333 0.186666 0.593333l0.14 0.406667 0.2 0.526667 0.18 0.466666 0.2 0.453334c0.073333 0.173333 0.153333 0.346667 0.233334 0.513333s0.126667 0.26 0.186666 0.386667 0.186667 0.373333 0.286667 0.56l0.18 0.32 0.34 0.593333 0.18 0.286667c0.126667 0.193333 0.246667 0.393333 0.38 0.593333 0.06 0.093333 0.126667 0.18 0.193333 0.273333s0.266667 0.386667 0.406667 0.573334l0.233333 0.3c0.133333 0.173333 0.266667 0.346667 0.406667 0.513333l0.313333 0.373333 0.366667 0.42c0.193333 0.213333 0.4 0.426667 0.6 0.633334l0.12 0.126666L510.706667 839.54a32 32 0 0 0 45.253333 0L640 755.5l41.373333 41.373333a32 32 0 0 0 45.253334 0L883.5 640h50.613333a37.333333 37.333333 0 0 0 33.393334-54z m-297.333334 139.333333l85.333334-85.333333h67.66L704 759.166667z m-298.666666-85.333333h323.666666L533.333333 801.833333zM789.333333 128H331.546667a42.666667 42.666667 0 0 0-42.086667 49.68l6.433333 38.573333a85.806667 85.806667 0 0 1-2.613333 39.126667L127.053333 795.606667A21.333333 21.333333 0 0 1 106.666667 810.666667H21.333333a21.333333 21.333333 0 0 1 0-42.666667h69.58l161.586667-525.166667a42.893333 42.893333 0 0 0 1.333333-19.56l-6.453333-38.606666a85.333333 85.333333 0 0 1 84.166667-99.333334H789.333333a21.333333 21.333333 0 0 1 0 42.666667z"  horiz-adv-x="1024" />

    
    </font>
</defs>
</svg>
