<?xml version="1.0" encoding="utf-8"?>
<!-- Generator: Adobe Illustrator 22.1.0, SVG Export Plug-In . SVG Version: 6.00 Build 0)  -->
<svg version="1.1" id="图层_1" xmlns="http://www.w3.org/2000/svg" xmlns:xlink="http://www.w3.org/1999/xlink" x="0px" y="0px"
	 viewBox="0 0 104 104" style="enable-background:new 0 0 104 104;" xml:space="preserve">
<style type="text/css">
	.st0{fill:#FDB300;}
	.st1{fill:#EA6C00;}
	.st2{fill:#FDAD00;}
	.st3{fill:#FDD231;}
	.st4{fill:#FEEEB7;}
</style>
<g>
	<path class="st0" d="M25,11.8L52,9l27,2.8l20.9,27.8L52,95L4.1,39.7L25,11.8z"/>
	<path class="st1" d="M23.5,39.7L52,95L4.1,39.7 M80.5,39.7L52,95l47.9-55.3"/>
	<path class="st2" d="M23.5,39.7h57L52,95"/>
	<path class="st3" d="M52,9l-27,2.8l-1.5,27.8 M52,9l27,2.8l1.5,27.8"/>
	<path class="st2" d="M99.9,39.7L79,11.8l1.5,27.8 M4.1,39.7L25,11.8l-1.5,27.8"/>
	<path class="st4" d="M52,9L23.5,39.7h57"/>
</g>
</svg>
